<?xml version="1.0" encoding="UTF-8"?>
<svg version="1.1" xmlns="http://www.w3.org/2000/svg" width="512" height="512">
<path d="M0 0 C2.41263544 1.7477119 4.00930244 3.14005968 5.9375 5.3125 C6.45199707 5.86083496 6.96649414 6.40916992 7.49658203 6.97412109 C12.25486072 12.108326 16.68548824 17.49006619 21 23 C22.04601338 24.29496728 23.09295548 25.58918472 24.140625 26.8828125 C54.102679 64.22000986 80.03456234 108.68412368 77 158 C74.69493961 177.49399871 63.88582337 192.77892349 50 206 C50.49628906 206.46148437 50.99257813 206.92296875 51.50390625 207.3984375 C65.729851 221.057504 73.85405948 238.05935176 74.35131836 257.84228516 C74.7165078 302.68152424 61.66354494 351.67125744 36.27734375 389.00390625 C34.37193686 391.9814687 33.85504704 394.65029733 33.60295105 398.10331726 C33.54004379 398.93729538 33.47713654 399.7712735 33.412323 400.63052368 C33.34739655 401.54224335 33.28247009 402.45396301 33.21557617 403.39331055 C33.14382675 404.35625534 33.07207733 405.31920013 32.99815369 406.31132507 C32.84227691 408.40486049 32.68794501 410.49851137 32.53496361 412.59226036 C32.29130186 415.9094114 32.04077903 419.2259729 31.78791809 422.54243469 C31.06889917 431.97302425 30.35249023 441.40373685 29.66479492 450.83666992 C29.24372032 456.60547645 28.80622827 462.37283726 28.3580265 468.13959694 C28.19051843 470.3346924 28.02908549 472.53026044 27.87392235 474.72626305 C27.65566288 477.80548383 27.41647787 480.8824331 27.17260742 483.9597168 C27.11375366 484.86131531 27.0548999 485.76291382 26.9942627 486.6918335 C26.43531717 493.33398986 24.64137305 498.71471014 20.4296875 503.953125 C10.61652413 512.13897988 0.52462825 513.03708019 -11.85791016 512.22314453 C-19.97942242 511.3771151 -26.73022548 507.15821226 -32 501 C-34.50860317 496.63548991 -35.48490014 493.06726515 -35.94921875 488.0703125 C-36.07490234 486.78125 -36.20058594 485.4921875 -36.33007812 484.1640625 C-36.44947902 482.81773139 -36.56861641 481.47137689 -36.6875 480.125 C-36.81726426 478.75510416 -36.94811343 477.38531062 -37.08007812 476.015625 C-37.39739386 472.67793357 -37.70364719 469.33960708 -38 466 C-38.49177734 466.29132813 -38.98355469 466.58265625 -39.49023438 466.8828125 C-101.64930722 503.58956304 -170.43725071 516.54954963 -241.125 498.46875 C-286.7350355 486.18926723 -332.5336562 459.67729372 -363 423 C-363.80695313 422.08089844 -364.61390625 421.16179687 -365.4453125 420.21484375 C-387.00932047 395.56690869 -403.17197451 366.4646366 -413.24316406 335.33886719 C-413.720829 333.86272843 -414.20614377 332.38902313 -414.70214844 330.91894531 C-421.29905016 311.34135591 -425.05449785 289.89321926 -425.23828125 269.2265625 C-425.2480751 268.31334732 -425.25786896 267.40013214 -425.26795959 266.45924377 C-425.43952807 246.30565973 -425.29799602 226.7844261 -421 207 C-420.67056396 205.45844238 -420.67056396 205.45844238 -420.33447266 203.88574219 C-409.83421102 156.04378576 -386.6102778 114.39026136 -353 79 C-352.21496094 78.17242187 -351.42992187 77.34484375 -350.62109375 76.4921875 C-343.95563371 69.64786897 -336.57710539 62.37236806 -328 58 C-324.375 58.3125 -324.375 58.3125 -321 59 C-318.07800472 59.2773501 -318.07800472 59.2773501 -316.3125 57.875 C-314.7168605 55.98872338 -314.7168605 55.98872338 -315.0625 53.125 C-314.97997084 48.9985422 -313.82623002 47.97047143 -311 45 C-308.59390761 43.42700298 -306.27427101 42.03361559 -303.75 40.6875 C-303.04037109 40.30142578 -302.33074219 39.91535156 -301.59960938 39.51757812 C-299.40615804 38.33261016 -297.20353629 37.1660795 -295 36 C-294.36513672 35.65533691 -293.73027344 35.31067383 -293.07617188 34.95556641 C-267.69263271 21.19381201 -239.60794083 13.27849406 -211 10 C-210.21753906 9.90501221 -209.43507812 9.81002441 -208.62890625 9.7121582 C-199.64675135 8.74647354 -190.64782456 8.80160632 -181.625 8.8125 C-180.7826178 8.81277191 -179.9402356 8.81304382 -179.07232666 8.81332397 C-130.00360368 8.88621621 -130.00360368 8.88621621 -113.33203125 24.5078125 C-105.22869325 33.16766115 -101.40981011 43.62388962 -101.5625 55.375 C-101.57079834 56.20499512 -101.57909668 57.03499023 -101.58764648 57.89013672 C-101.94266668 70.83005442 -107.28829457 79.76491327 -116.5625 88.5625 C-120.56214167 91.9277691 -125.01949453 94.36969793 -129.57543945 96.88134766 C-149.79761365 108.15873564 -166.57213953 125.03666787 -174.09765625 147.23828125 C-177.18365581 158.53447498 -176.88587928 169.28992205 -171.5234375 179.9296875 C-162.06594672 195.51943257 -147.9562675 203.41891698 -131 209 C-129.67742187 209.44472656 -129.67742187 209.44472656 -128.328125 209.8984375 C-104.75467137 216.77970576 -78.62360969 214.28098577 -55 209 C-57.24718001 206.63903872 -59.64227569 204.70123427 -62.25 202.75 C-77.26935183 191.08448402 -85.22817143 175.83421976 -88 157 C-88.27899764 153.41093973 -88.33446965 149.84888412 -88.3125 146.25 C-88.30758545 145.28843994 -88.3026709 144.32687988 -88.29760742 143.33618164 C-87.96256308 122.85380408 -80.2296136 103.5949915 -67 88 C-66.39027344 87.27941406 -65.78054688 86.55882813 -65.15234375 85.81640625 C-60.18350843 80.13910501 -54.86335184 74.86378406 -49.5 69.5625 C-43.20478777 63.32370135 -37.37753881 57.05669125 -32 50 C-31.24460937 49.0615625 -30.48921875 48.123125 -29.7109375 47.15625 C-20.54716038 35.50997808 -15.06486336 23.69563828 -12.48828125 9.1015625 C-12.32714844 8.20179687 -12.16601562 7.30203125 -12 6.375 C-11.87625 5.57835937 -11.7525 4.78171875 -11.625 3.9609375 C-10.00877402 -1.1099715 -4.40944043 -0.85537463 0 0 Z M-58.84375 299.6953125 C-64.14457705 305.243212 -66.74098 310.80341133 -67.125 318.5078125 C-66.75000228 325.98432951 -64.21140435 332.74649859 -58.9140625 338.11328125 C-54.41298575 341.82321311 -50.64725058 343.45691825 -45 345 C-45.40555948 338.86166841 -45.81459986 332.72358216 -46.22680664 326.58569336 C-46.36642591 324.49949353 -46.50510932 322.41323084 -46.64282227 320.3269043 C-46.8414243 317.32062872 -47.04343875 314.3145985 -47.24609375 311.30859375 C-47.3065538 310.38227646 -47.36701385 309.45595917 -47.42930603 308.50157166 C-47.76168633 303.62345195 -48.23408603 298.82959337 -49 294 C-52.9849402 294 -56.03934744 297.11668811 -58.84375 299.6953125 Z " fill="#E2E7E7" transform="translate(431,0)"/>
<path d="M0 0 C2.41263544 1.7477119 4.00930244 3.14005968 5.9375 5.3125 C6.45199707 5.86083496 6.96649414 6.40916992 7.49658203 6.97412109 C12.25486072 12.108326 16.68548824 17.49006619 21 23 C22.04601338 24.29496728 23.09295548 25.58918472 24.140625 26.8828125 C54.102679 64.22000986 80.03456234 108.68412368 77 158 C74.69493961 177.49399871 63.88582337 192.77892349 50 206 C50.49628906 206.46148437 50.99257813 206.92296875 51.50390625 207.3984375 C65.729851 221.057504 73.85405948 238.05935176 74.35131836 257.84228516 C74.7165078 302.68152424 61.66354494 351.67125744 36.27734375 389.00390625 C34.37193686 391.9814687 33.85504704 394.65029733 33.60295105 398.10331726 C33.54004379 398.93729538 33.47713654 399.7712735 33.412323 400.63052368 C33.34739655 401.54224335 33.28247009 402.45396301 33.21557617 403.39331055 C33.14382675 404.35625534 33.07207733 405.31920013 32.99815369 406.31132507 C32.84227691 408.40486049 32.68794501 410.49851137 32.53496361 412.59226036 C32.29130186 415.9094114 32.04077903 419.2259729 31.78791809 422.54243469 C31.06889917 431.97302425 30.35249023 441.40373685 29.66479492 450.83666992 C29.24372032 456.60547645 28.80622827 462.37283726 28.3580265 468.13959694 C28.19051843 470.3346924 28.02908549 472.53026044 27.87392235 474.72626305 C27.65566288 477.80548383 27.41647787 480.8824331 27.17260742 483.9597168 C27.11375366 484.86131531 27.0548999 485.76291382 26.9942627 486.6918335 C26.43531717 493.33398986 24.64137305 498.71471014 20.4296875 503.953125 C10.61652413 512.13897988 0.52462825 513.03708019 -11.85791016 512.22314453 C-19.97942242 511.3771151 -26.73022548 507.15821226 -32 501 C-34.50860317 496.63548991 -35.48490014 493.06726515 -35.94921875 488.0703125 C-36.07490234 486.78125 -36.20058594 485.4921875 -36.33007812 484.1640625 C-36.44947902 482.81773139 -36.56861641 481.47137689 -36.6875 480.125 C-36.81726426 478.75510416 -36.94811343 477.38531062 -37.08007812 476.015625 C-37.39739386 472.67793357 -37.70364719 469.33960708 -38 466 C-38.49177734 466.29132813 -38.98355469 466.58265625 -39.49023438 466.8828125 C-101.64930722 503.58956304 -170.43725071 516.54954963 -241.125 498.46875 C-286.7350355 486.18926723 -332.5336562 459.67729372 -363 423 C-363.80695313 422.08089844 -364.61390625 421.16179687 -365.4453125 420.21484375 C-387.00932047 395.56690869 -403.17197451 366.4646366 -413.24316406 335.33886719 C-413.720829 333.86272843 -414.20614377 332.38902313 -414.70214844 330.91894531 C-421.29905016 311.34135591 -425.05449785 289.89321926 -425.23828125 269.2265625 C-425.2480751 268.31334732 -425.25786896 267.40013214 -425.26795959 266.45924377 C-425.43952807 246.30565973 -425.29799602 226.7844261 -421 207 C-420.67056396 205.45844238 -420.67056396 205.45844238 -420.33447266 203.88574219 C-409.83421102 156.04378576 -386.6102778 114.39026136 -353 79 C-352.21496094 78.17242187 -351.42992187 77.34484375 -350.62109375 76.4921875 C-343.93493467 69.62661449 -336.57138166 62.43924979 -328 58 C-324.375 58 -324.375 58 -321 59 C-318.8533024 61.49293914 -318.14062058 63.29689711 -317.5 66.5 C-318.58028698 71.90143489 -325.22624903 76.11241674 -329.25 79.8125 C-329.81992676 80.33875977 -330.38985352 80.86501953 -330.97705078 81.40722656 C-334.23389139 84.40634478 -337.53073146 87.34818624 -340.875 90.25 C-344.97512352 93.89043517 -348.52210769 97.76663598 -352 102 C-352.63977783 102.76328613 -352.63977783 102.76328613 -353.29248047 103.54199219 C-393.45390105 151.5481942 -413.53024541 213.46441864 -408.48217773 275.90136719 C-408.09230335 279.95015733 -407.57573588 283.9737601 -407 288 C-406.87109375 288.91056152 -406.7421875 289.82112305 -406.609375 290.75927734 C-402.63243941 317.88437157 -393.96609898 343.83983556 -381 368 C-380.66419922 368.64211426 -380.32839844 369.28422852 -379.98242188 369.94580078 C-366.0813269 396.4752624 -345.80153624 420.77445953 -322 439 C-321.45682129 439.41958984 -320.91364258 439.83917969 -320.35400391 440.27148438 C-296.12553611 458.89308375 -268.58233713 473.55256795 -238.98925781 481.46191406 C-237.0772847 481.97909481 -235.17502997 482.53180468 -233.2734375 483.0859375 C-223.30413549 485.92516056 -213.26281215 487.62100873 -203 489 C-202.01108765 489.14465698 -202.01108765 489.14465698 -201.00219727 489.29223633 C-193.27104788 490.31000091 -185.47261919 490.28701714 -177.6875 490.3125 C-176.92043732 490.31511841 -176.15337463 490.31773682 -175.36306763 490.32043457 C-160.29775746 490.32590087 -145.82633721 488.77180571 -131 486 C-130.13648926 485.84515137 -129.27297852 485.69030273 -128.38330078 485.53076172 C-106.06458208 481.44856545 -84.41883825 472.53856371 -64.3125 462.1875 C-63.61374756 461.83389404 -62.91499512 461.48028809 -62.19506836 461.1159668 C-60.707768 460.32837327 -59.24183386 459.49960079 -57.79516602 458.63964844 C-56.23117219 457.72220739 -54.65266724 456.82562528 -53.03219604 456.01208496 C-43.97395891 451.65823426 -43.97395891 451.65823426 -38.2437439 443.88790894 C-37.32807484 438.01139201 -38.16931254 432.22475022 -38.9375 426.375 C-39.1059753 424.62311632 -39.26684337 422.87048363 -39.41992188 421.1171875 C-39.78418853 417.14242792 -40.22931418 413.18506535 -40.72421265 409.22467041 C-42.05167304 398.51655841 -42.05167304 398.51655841 -42.28125 393.34375 C-42.31806885 392.55645508 -42.3548877 391.76916016 -42.39282227 390.95800781 C-42.42819092 390.14686523 -42.46355957 389.33572266 -42.5 388.5 C-42.58138775 386.7551782 -42.66343187 385.0103869 -42.74609375 383.265625 C-42.78718262 382.39357422 -42.82827148 381.52152344 -42.87060547 380.62304688 C-43.07413876 376.49708138 -43.3155799 372.37356565 -43.5625 368.25 C-43.60632813 367.51716797 -43.65015625 366.78433594 -43.6953125 366.02929688 C-43.79612879 364.35281954 -43.89793925 362.67640203 -44 361 C-45.175625 360.89816406 -46.35125 360.79632813 -47.5625 360.69140625 C-56.79781432 359.52276502 -66.1189639 354.10110435 -72.3203125 347.234375 C-81.02517026 335.6548898 -83.63538216 323.19565338 -82 309 C-78.9655331 297.02469314 -71.28858737 287.60797791 -61 281 C-53.41420118 277 -53.41420118 277 -50 277 C-50.08302368 276.18269409 -50.08302368 276.18269409 -50.16772461 275.34887695 C-51.83505644 258.57319385 -52.55954373 241.84655707 -53 225 C-54.09957031 225.27714844 -55.19914062 225.55429688 -56.33203125 225.83984375 C-57.82541858 226.2061463 -59.31891414 226.57200778 -60.8125 226.9375 C-61.53115234 227.11990234 -62.24980469 227.30230469 -62.99023438 227.49023438 C-73.92048945 230.13853406 -84.98820956 230.23851008 -96.1875 230.25 C-96.87320068 230.25100708 -97.55890137 230.25201416 -98.26538086 230.25305176 C-108.54952912 230.24285042 -118.0410653 229.64123297 -128 227 C-129.21558594 226.73316406 -130.43117188 226.46632812 -131.68359375 226.19140625 C-151.24228065 221.61210911 -170.02900109 211.55364693 -182 195 C-188.69426658 183.65112618 -192.57763661 172.85632377 -192.4375 159.625 C-192.42920166 158.61058838 -192.42090332 157.59617676 -192.41235352 156.55102539 C-192.24296134 149.04653017 -191.26843798 142.81897329 -188 136 C-187.525625 134.90042969 -187.05125 133.80085937 -186.5625 132.66796875 C-176.3500104 110.40179551 -157.69577127 93.91783466 -136.83227539 81.7722168 C-126.4886507 75.81134534 -126.4886507 75.81134534 -120 66 C-119.319375 64.5459375 -119.319375 64.5459375 -118.625 63.0625 C-116.57880021 53.03612104 -118.64469205 45.23033298 -124.125 36.6875 C-138.3306356 23.40831889 -161.42681743 25.79488946 -179.48046875 25.75976562 C-182.46643463 25.75010856 -185.45169601 25.71901244 -188.4375 25.6875 C-205.47258985 25.59293385 -222.15760281 27.1964203 -238.625 31.75 C-239.57826172 32.00821533 -240.53152344 32.26643066 -241.51367188 32.5324707 C-262.48299312 38.36329712 -283.36623097 46.86037076 -301.59765625 58.85546875 C-304.60071799 60.28619572 -306.70936555 60.31787081 -310 60 C-312.875 58.375 -312.875 58.375 -315 56 C-315.70002003 52.34433983 -315.4565673 50.69894253 -313.41796875 47.578125 C-310.54466053 44.51450072 -307.41285814 42.64078886 -303.75 40.6875 C-303.04037109 40.30142578 -302.33074219 39.91535156 -301.59960938 39.51757812 C-299.40615804 38.33261016 -297.20353629 37.1660795 -295 36 C-294.36513672 35.65533691 -293.73027344 35.31067383 -293.07617188 34.95556641 C-267.69263271 21.19381201 -239.60794083 13.27849406 -211 10 C-210.21753906 9.90501221 -209.43507812 9.81002441 -208.62890625 9.7121582 C-199.64675135 8.74647354 -190.64782456 8.80160632 -181.625 8.8125 C-180.7826178 8.81277191 -179.9402356 8.81304382 -179.07232666 8.81332397 C-130.00360368 8.88621621 -130.00360368 8.88621621 -113.33203125 24.5078125 C-105.22869325 33.16766115 -101.40981011 43.62388962 -101.5625 55.375 C-101.57079834 56.20499512 -101.57909668 57.03499023 -101.58764648 57.89013672 C-101.94266668 70.83005442 -107.28829457 79.76491327 -116.5625 88.5625 C-120.56214167 91.9277691 -125.01949453 94.36969793 -129.57543945 96.88134766 C-149.79761365 108.15873564 -166.57213953 125.03666787 -174.09765625 147.23828125 C-177.18365581 158.53447498 -176.88587928 169.28992205 -171.5234375 179.9296875 C-162.06594672 195.51943257 -147.9562675 203.41891698 -131 209 C-129.67742187 209.44472656 -129.67742187 209.44472656 -128.328125 209.8984375 C-104.75467137 216.77970576 -78.62360969 214.28098577 -55 209 C-57.24718001 206.63903872 -59.64227569 204.70123427 -62.25 202.75 C-77.26935183 191.08448402 -85.22817143 175.83421976 -88 157 C-88.27899764 153.41093973 -88.33446965 149.84888412 -88.3125 146.25 C-88.30758545 145.28843994 -88.3026709 144.32687988 -88.29760742 143.33618164 C-87.96256308 122.85380408 -80.2296136 103.5949915 -67 88 C-66.39027344 87.27941406 -65.78054688 86.55882813 -65.15234375 85.81640625 C-60.18350843 80.13910501 -54.86335184 74.86378406 -49.5 69.5625 C-43.20478777 63.32370135 -37.37753881 57.05669125 -32 50 C-31.24460937 49.0615625 -30.48921875 48.123125 -29.7109375 47.15625 C-20.54716038 35.50997808 -15.06486336 23.69563828 -12.48828125 9.1015625 C-12.32714844 8.20179687 -12.16601562 7.30203125 -12 6.375 C-11.87625 5.57835937 -11.7525 4.78171875 -11.625 3.9609375 C-10.00877402 -1.1099715 -4.40944043 -0.85537463 0 0 Z M-58.84375 299.6953125 C-64.14457705 305.243212 -66.74098 310.80341133 -67.125 318.5078125 C-66.75000228 325.98432951 -64.21140435 332.74649859 -58.9140625 338.11328125 C-54.41298575 341.82321311 -50.64725058 343.45691825 -45 345 C-45.40555948 338.86166841 -45.81459986 332.72358216 -46.22680664 326.58569336 C-46.36642591 324.49949353 -46.50510932 322.41323084 -46.64282227 320.3269043 C-46.8414243 317.32062872 -47.04343875 314.3145985 -47.24609375 311.30859375 C-47.3065538 310.38227646 -47.36701385 309.45595917 -47.42930603 308.50157166 C-47.76168633 303.62345195 -48.23408603 298.82959337 -49 294 C-52.9849402 294 -56.03934744 297.11668811 -58.84375 299.6953125 Z " fill="#010101" transform="translate(431,0)"/>
<path d="M0 0 C27.42223982 26.47664535 59.38789162 74.03650026 60.23828125 113.5 C60.62336484 136.01871703 60.62336484 136.01871703 56 146 C55.57589844 146.94488281 55.15179688 147.88976562 54.71484375 148.86328125 C50.68445615 156.98018999 44.72704155 165.05260134 37 170 C34.67753601 170.36749268 34.67753601 170.36749268 32.08081055 170.35644531 C30.60813721 170.36084122 30.60813721 170.36084122 29.10571289 170.36532593 C28.04344482 170.35304962 26.98117676 170.34077332 25.88671875 170.328125 C24.77651367 170.32688629 23.66630859 170.32564758 22.52246094 170.32437134 C18.91053134 170.31566282 15.29927125 170.28427605 11.6875 170.25 C9.21785774 170.23407851 6.74821246 170.21861695 4.27856445 170.20361328 C-0.59310568 170.16995024 -5.46446402 170.12440761 -10.3359375 170.06933594 C-15.18059037 170.01491514 -20.02429402 169.98765324 -24.86921692 169.98303223 C-28.35078498 169.97318331 -31.83125256 169.92323798 -35.3125 169.875 C-37.10071167 169.87935059 -37.10071167 169.87935059 -38.92504883 169.88378906 C-48.54434079 169.65413387 -54.07542182 166.13970106 -60.6875 159.375 C-69.71181539 148.40344254 -73.58029539 135.29632847 -73.4375 121.3125 C-73.42920166 120.25957764 -73.42090332 119.20665527 -73.41235352 118.12182617 C-72.88286993 93.54512018 -60.3088727 77.06932841 -43.515625 60.5078125 C-40.43092131 57.45366635 -37.51352308 54.3145453 -34.71875 50.9921875 C-32.92706932 48.91546671 -31.05100815 46.93106962 -29.16430664 44.94091797 C-16.60359227 31.5887897 -7.07551398 16.91220414 0 0 Z " fill="#F86DAF" transform="translate(432,25)"/>
<path d="M0 0 C18.81 0 37.62 0 57 0 C56.07823352 12.30170587 55.15585369 24.60336442 54.23232269 36.90493774 C54.00043877 39.99415459 53.76867546 43.08338047 53.53692627 46.17260742 C52.63895313 58.13946274 51.73781336 70.10607354 50.83194923 82.07233429 C50.40446085 87.72045131 49.97822506 93.36865675 49.55493164 99.01708984 C48.48549701 113.27803411 47.38661329 127.53632353 46.25321198 141.79232788 C45.9971978 145.03549802 45.74649848 148.27904574 45.49676514 151.52270508 C45.09458254 156.72509603 44.67307653 161.92558583 44.23693657 167.12523651 C44.07788079 169.05472519 43.92500424 170.98473439 43.77867317 172.9152298 C43.57709591 175.55818458 43.35293731 178.19826796 43.12280273 180.83886719 C43.06886038 181.61302223 43.01491802 182.38717728 42.95934105 183.18479156 C42.63959351 186.59373358 42.23883243 188.68955582 40.12904358 191.4319458 C34.95675668 195.24136815 28.23397719 195.89666795 22 195 C18.12203775 193.59224658 14.92316719 191.92316719 12 189 C11.63498292 186.46608472 11.38852838 184.01738166 11.21875 181.46875 C11.16036957 180.69753815 11.10198914 179.92632629 11.0418396 179.13174438 C10.85203859 176.58841092 10.67581673 174.04433539 10.5 171.5 C10.371808 169.74068239 10.24305912 167.98140526 10.11376953 166.22216797 C9.1642479 153.12431546 8.35235457 140.017489 7.64648438 126.90429688 C7.3188338 120.92098417 6.94164437 114.98423106 6.21875 109.03564453 C5.82008246 105.3257227 5.7115707 101.60176741 5.5625 97.875 C5.2294312 90.39506507 4.6867874 82.95547268 4 75.5 C3.23985456 67.24818355 2.67301484 59.01287103 2.34179688 50.73242188 C2.15280099 46.21580585 1.77152293 41.77072269 1.24291992 37.28173828 C0.82127983 33.32128777 0.63034892 29.35211377 0.4375 25.375 C0.39431641 24.58738281 0.35113281 23.79976563 0.30664062 22.98828125 C-0.07710802 15.30112587 0 7.72906286 0 0 Z " fill="#FECE60" transform="translate(399,302)"/>
<path d="M0 0 C0.95519531 0.75603516 0.95519531 0.75603516 1.9296875 1.52734375 C3.16332031 2.45353516 3.16332031 2.45353516 4.421875 3.3984375 C14.46939669 11.92787569 20.07056425 24.72106548 21.203125 37.6484375 C21.65220038 52.31247589 16.88039898 65.88395664 6.8671875 76.76953125 C-4.59758846 87.62012278 -17.80162978 92.18822268 -33.4296875 91.80859375 C-47.34352606 90.73370493 -59.87461184 83.98669202 -69.0703125 73.52734375 C-78.14003549 60.94024499 -81.6765362 47.96267131 -80.0703125 32.52734375 C-77.16514439 18.19846374 -68.68831093 6.13625438 -56.6484375 -1.90234375 C-38.76003107 -12.79800948 -17.0805364 -12.38167398 0 0 Z " fill="#040304" transform="translate(133.0703125,230.47265625)"/>
<path d="M0 0 C11.43243894 8.40509902 18.47928815 19.3082438 20.9375 33.3046875 C22.76862153 47.70842029 19.62579341 60.67310651 11.375 72.74609375 C2.80038014 83.16401001 -8.32606273 89.58900237 -21.625 91.74609375 C-37.67988061 92.8522371 -49.85343046 90.14418577 -62.625 79.74609375 C-63.26050781 79.235625 -63.89601562 78.72515625 -64.55078125 78.19921875 C-73.40192677 70.27047642 -78.95230003 57.75122334 -79.9375 46.02734375 C-80.58251379 31.20636018 -76.30469642 18.94257012 -66.74609375 7.49609375 C-62.01435191 2.44890246 -56.77511629 -1.12798248 -50.625 -4.25390625 C-49.83996094 -4.66898437 -49.05492187 -5.0840625 -48.24609375 -5.51171875 C-32.77585639 -12.43579995 -13.80756646 -8.87313165 0 0 Z " fill="#020303" transform="translate(203.625,334.25390625)"/>
<path d="M0 0 C0.79277344 0.00491455 1.58554688 0.0098291 2.40234375 0.01489258 C8.71991568 0.14049683 14.33993017 0.9768404 20.25 3.3125 C21.08660156 3.64121094 21.92320312 3.96992187 22.78515625 4.30859375 C33.90994374 9.27778013 41.61167492 17.66399216 47.25 28.3125 C47.90162109 29.50359375 47.90162109 29.50359375 48.56640625 30.71875 C51.41487556 36.99133747 51.62668495 43.1557366 51.6875 49.9375 C51.69773193 50.82034668 51.70796387 51.70319336 51.71850586 52.61279297 C51.6374852 58.67857746 50.50033891 63.69336067 48.25 69.3125 C47.73759766 70.63894531 47.73759766 70.63894531 47.21484375 71.9921875 C42.16829536 82.77606658 34.03445753 91.25372731 23.25 96.3125 C22.40566406 96.72371094 21.56132812 97.13492188 20.69140625 97.55859375 C9.99816743 101.94206328 -4.69442515 102.39784837 -15.75 98.875 C-30.52678337 92.17963711 -39.97059261 82.1050853 -46.62109375 67.390625 C-50.5160036 56.77059398 -50.53072927 42.14688076 -46.01953125 31.76953125 C-38.41366477 17.04925427 -28.50106733 6.65129647 -12.55859375 1.2265625 C-8.26495042 0.1960881 -4.39449827 -0.03228496 0 0 Z " fill="#030302" transform="translate(137.75,100.6875)"/>
<path d="M0 0 C1.01868164 0.00644531 2.03736328 0.01289063 3.08691406 0.01953125 C17.0902398 0.35857322 28.32546517 5.68020806 38.09765625 15.88671875 C46.06166479 25.36909901 51.23665196 35.80728566 51.0625 48.375 C51.05645752 49.07391357 51.05041504 49.77282715 51.04418945 50.49291992 C50.80576032 62.95048099 50.80576032 62.95048099 47.46875 67.21875 C44.78873785 69.29196695 42.07049729 68.68441494 38.8125 68.5 C38.52375 69.2425 38.235 69.985 37.9375 70.75 C36.8125 73.5 36.8125 73.5 35.625 75.6875 C35.2228125 76.5846875 35.2228125 76.5846875 34.8125 77.5 C35.1425 78.16 35.4725 78.82 35.8125 79.5 C36.19626768 82.95390915 36.12547904 84.9309472 34.4375 88 C25.65092199 96.36816954 14.28834735 100.67965156 2.25 100.875 C-12.30491464 100.3863813 -24.5733212 96.72248871 -35.41796875 86.42578125 C-43.41931714 77.71791203 -49.52086807 66.49937468 -50.1875 54.5 C-50.2803125 53.30890625 -50.2803125 53.30890625 -50.375 52.09375 C-50.96243171 39.31711023 -46.05788068 26.61873931 -37.96484375 16.8046875 C-32.41741933 10.91439533 -26.58062223 6.76885983 -19.1875 3.5 C-17.98738281 2.96246094 -16.78726563 2.42492187 -15.55078125 1.87109375 C-10.43169503 0.00024126 -5.40231627 -0.03557666 0 0 Z " fill="#56C0E4" transform="translate(294.1875,355.5)"/>
<path d="M0 0 C23.43 0 46.86 0 71 0 C69.81985523 18.88231632 68.6185434 37.6762161 66.875 56.5 C66.25625 63.265 65.6375 70.03 65 77 C45.2 77 25.4 77 5 77 C3.75217038 58.94212273 3.75217038 58.94212273 3.22265625 51.24609375 C2.86130293 45.9942486 2.49965107 40.74242521 2.13623047 35.49072266 C1.84326149 31.25682867 1.55162385 27.02284489 1.26091003 22.78879547 C1.1497491 21.17323791 1.03810804 19.5577133 0.92597961 17.9422226 C0.76904434 15.67999153 0.61381462 13.41764942 0.45898438 11.15527344 C0.37015991 9.86731873 0.28133545 8.57936401 0.18981934 7.25238037 C0.04892007 4.83820052 0 2.41828802 0 0 Z " fill="#3C495B" transform="translate(392,210)"/>
<path d="M0 0 C1.48597283 3.92935097 0.58420951 7.41869068 -0.3125 11.375 C-0.48418701 12.1395752 -0.65587402 12.90415039 -0.83276367 13.69189453 C-4.63146643 29.56455241 -10.50807682 45.06377766 -15.99633789 60.41333008 C-24.1042548 83.12856382 -29.54979037 108.32794812 -22 132 C-21.62488281 133.23105469 -21.24976563 134.46210938 -20.86328125 135.73046875 C-18.43359004 143.44351534 -15.41851635 150.67127432 -12 158 C-16.24994196 158.14971343 -20.49843845 158.25784152 -24.75024414 158.32958984 C-26.1925738 158.3595344 -27.63472494 158.40030733 -29.07641602 158.45263672 C-37.0928702 158.73606075 -43.63192821 158.8687509 -50.23583984 153.65332031 C-60.65864875 143.88536267 -67.77059238 130.77916532 -68.43359375 116.30078125 C-68.45719986 114.30482666 -68.45788198 112.30849011 -68.4375 110.3125 C-68.42920166 109.25957764 -68.42090332 108.20665527 -68.41235352 107.12182617 C-67.88286993 82.54512018 -55.3088727 66.06932841 -38.515625 49.5078125 C-35.43092131 46.45366635 -32.51352308 43.3145453 -29.71875 39.9921875 C-27.92684834 37.91521058 -26.05043258 35.93063772 -24.16381836 33.93994141 C-14.55082034 23.72436727 -6.21637357 12.6163531 0 0 Z " fill="#DB1E58" transform="translate(427,36)"/>
<path d="M0 0 C6.97036773 5.5710136 12.13934006 13.63642587 13.6875 22.4609375 C14.63220535 33.55693131 12.33252836 42.27429221 5.62890625 51.203125 C-0.7700634 58.64498508 -9.02402274 62.76615647 -18.77734375 63.84375 C-29.7364101 64.20072285 -37.80618571 61.4738664 -46.26953125 54.5234375 C-49.77008381 50.98941886 -52.1330866 46.90551171 -54.3125 42.4609375 C-54.68890625 41.70554687 -55.0653125 40.95015625 -55.453125 40.171875 C-57.89043938 32.483256 -57.52564817 20.93307752 -54.41015625 13.44140625 C-49.14915557 3.94913812 -41.43104041 -3.01196719 -30.8828125 -6.0625 C-19.45597294 -8.18115414 -9.67616327 -6.43987893 0 0 Z " fill="#46BB8D" transform="translate(196.3125,347.5390625)"/>
<path d="M0 0 C8.33727878 4.71513784 14.64478711 11.71748965 18.5625 20.44921875 C20.89843716 29.11525721 20.86611506 39.9185589 17.02734375 48.1015625 C11.59102159 56.81417482 4.24008548 63.86701829 -5.68359375 66.90625 C-14.99301209 68.74172397 -24.30356954 68.60497782 -32.4375 63.44921875 C-33.48164062 62.79566406 -33.48164062 62.79566406 -34.546875 62.12890625 C-43.03736461 56.28770475 -48.07289609 48.46872683 -50.4375 38.44921875 C-51.65980747 27.70939354 -49.29717345 19.27884329 -43.1015625 10.51953125 C-32.66167937 -2.46905575 -15.38220873 -6.5237046 0 0 Z " fill="#FDCD60" transform="translate(154.4375,118.55078125)"/>
<path d="M0 0 C7.54732775 5.41333892 12.68494747 11.72702832 15.4453125 20.75390625 C17.22559297 31.98680564 16.23009732 42.3422689 9.4453125 51.75390625 C3.5363922 59.33702064 -4.989447 64.46694662 -14.5546875 65.75390625 C-24.04601654 66.84114828 -32.14767683 64.62613738 -39.94921875 59.0390625 C-41.92960831 57.35995669 -43.75703377 55.62573501 -45.5546875 53.75390625 C-46.2971875 52.99078125 -47.0396875 52.22765625 -47.8046875 51.44140625 C-53.06928869 43.356483 -55.50865157 34.33385534 -54.5546875 24.75390625 C-52.01147637 14.27587638 -46.35329279 5.96252543 -37.5546875 -0.24609375 C-36.96816406 -0.66117188 -36.38164063 -1.07625 -35.77734375 -1.50390625 C-25.38554246 -7.38916401 -9.90548274 -5.94604883 0 0 Z " fill="#F86DAE" transform="translate(122.5546875,241.24609375)"/>
<path d="M0 0 C1.01868164 0.00644531 2.03736328 0.01289063 3.08691406 0.01953125 C17.0902398 0.35857322 28.32546517 5.68020806 38.09765625 15.88671875 C46.06166479 25.36909901 51.23665196 35.80728566 51.0625 48.375 C51.05645752 49.07391357 51.05041504 49.77282715 51.04418945 50.49291992 C50.80615208 62.93001192 50.80615208 62.93001192 47.48828125 67.20703125 C45.44593626 68.78282657 44.36806618 68.90404052 41.8125 68.875 C40.7915625 68.88660156 40.7915625 68.88660156 39.75 68.8984375 C37.19954986 68.37394977 36.41036378 67.53954514 34.8125 65.5 C34.53540039 63.29858398 34.53540039 63.29858398 34.66015625 60.74609375 C34.68787109 59.80830078 34.71558594 58.87050781 34.74414062 57.90429688 C34.83018435 55.95354431 34.92118705 54.00300303 35.01757812 52.05273438 C35.29954976 41.94989692 32.15966525 33.15804695 25.1328125 25.72265625 C17.13923279 18.13036067 9.02996583 15.8390878 -1.78222656 15.88427734 C-8.87760001 16.19475903 -14.28257319 18.58221762 -20.1875 22.5 C-21.10595703 23.056875 -21.10595703 23.056875 -22.04296875 23.625 C-27.70909849 27.58692105 -31.0545985 35.10129549 -33.1875 41.5 C-33.98850826 53.80401206 -33.60906486 63.42300174 -25.5 73.3125 C-19.53019296 79.60469885 -11.84762749 83.87513355 -3.14453125 84.8359375 C6.13402841 84.95119911 14.1083262 83.56425556 21.5625 77.75 C25.39785237 75.09475605 27.24283674 74.72401945 31.8125 75.5 C34.25 77.125 34.25 77.125 35.8125 79.5 C36.41699629 83.05141572 36.17444417 84.84191969 34.4375 88 C25.65092199 96.36816954 14.28834735 100.67965156 2.25 100.875 C-12.30491464 100.3863813 -24.5733212 96.72248871 -35.41796875 86.42578125 C-43.41931714 77.71791203 -49.52086807 66.49937468 -50.1875 54.5 C-50.2803125 53.30890625 -50.2803125 53.30890625 -50.375 52.09375 C-50.96243171 39.31711023 -46.05788068 26.61873931 -37.96484375 16.8046875 C-32.41741933 10.91439533 -26.58062223 6.76885983 -19.1875 3.5 C-17.98738281 2.96246094 -16.78726563 2.42492187 -15.55078125 1.87109375 C-10.43169503 0.00024126 -5.40231627 -0.03557666 0 0 Z " fill="#030304" transform="translate(294.1875,355.5)"/>
<path d="M0 0 C4.95 0 9.9 0 15 0 C15.0501123 1.13501953 15.10022461 2.27003906 15.15185547 3.43945312 C15.34654217 7.83102474 15.54512299 12.22241444 15.74462891 16.61376953 C15.82895309 18.48058702 15.91234925 20.34744675 15.99462891 22.21435547 C16.49863177 33.63219809 17.11298696 45.03748439 17.84942818 56.44283867 C18.8472283 71.89875571 19.60379617 87.35539505 20.26177979 102.83001709 C21.20759404 125.02207551 22.27166838 147.20352752 23.625 169.375 C23.68734833 170.41582733 23.74969666 171.45665466 23.81393433 172.52902222 C23.98848081 175.42330717 24.16869829 178.31716748 24.3515625 181.2109375 C24.42796211 182.47326454 24.42796211 182.47326454 24.50590515 183.76109314 C24.73674508 187.28764389 25.07096357 190.59191411 26 194 C27.65 194 29.3 194 31 194 C31 194.33 31 194.66 31 195 C24.34861284 195.55428226 19.62272894 194.69455091 14 191 C11.17597582 188.17597582 11.47208237 185.27165406 11.21875 181.46875 C11.16036957 180.69753815 11.10198914 179.92632629 11.0418396 179.13174438 C10.85203859 176.58841092 10.67581673 174.04433539 10.5 171.5 C10.371808 169.74068239 10.24305912 167.98140526 10.11376953 166.22216797 C9.1642479 153.12431546 8.35235457 140.017489 7.64648438 126.90429688 C7.3188338 120.92098417 6.94164437 114.98423106 6.21875 109.03564453 C5.82008246 105.3257227 5.7115707 101.60176741 5.5625 97.875 C5.2294312 90.39506507 4.6867874 82.95547268 4 75.5 C3.23985456 67.24818355 2.67301484 59.01287103 2.34179688 50.73242188 C2.15280099 46.21580585 1.77152293 41.77072269 1.24291992 37.28173828 C0.8212958 33.32143777 0.62806027 29.35211408 0.4375 25.375 C0.3950415 24.51487305 0.35258301 23.65474609 0.30883789 22.76855469 C-0.04099745 15.16931465 -0.07606432 7.60643177 0 0 Z " fill="#EA862E" transform="translate(399,302)"/>
<path d="M0 0 C3.29849193 2.98434984 5.18541324 5.88412254 7.125 9.875 C7.62257813 10.88304687 8.12015625 11.89109375 8.6328125 12.9296875 C9.08398438 13.94289062 9.53515625 14.95609375 10 16 C10.3815625 16.8559375 10.763125 17.711875 11.15625 18.59375 C19.75902807 53.32348369 5.01666146 97.39555314 -9 129 C-9.33 129 -9.66 129 -10 129 C-10.11455853 121.81673401 -9.77425052 114.74472427 -9.18969727 107.58691406 C-9.10352142 106.49293808 -9.01734558 105.3989621 -8.92855835 104.27183533 C-8.64506228 100.68611085 -8.35588283 97.10087123 -8.06640625 93.515625 C-7.86674858 91.01082482 -7.66736626 88.50600267 -7.46824646 86.00115967 C-7.05122592 80.76603347 -6.63158628 75.53112409 -6.2097168 70.29638672 C-5.72295939 64.25610013 -5.2408494 58.21545648 -4.76128155 52.17459512 C-4.29814287 46.3416815 -3.83202482 40.50900982 -3.3645153 34.67644501 C-3.16647596 32.20297485 -2.96913034 29.72944904 -2.77249336 27.255867 C-2.49745706 23.8022023 -2.21904705 20.34882594 -1.93969727 16.89550781 C-1.81885521 15.36648079 -1.81885521 15.36648079 -1.6955719 13.80656433 C-1.31611488 9.15774498 -0.87313111 4.58862566 0 0 Z " fill="#DBE0E0" transform="translate(477,226)"/>
<path d="M0 0 C5.61 0 11.22 0 17 0 C17.73299353 8.11139125 18.19692153 16.17344127 18.4375 24.3125 C18.82476374 36.13951799 19.51818283 47.92861789 20.33959961 59.73168945 C20.46733765 61.5892688 20.46733765 61.5892688 20.59765625 63.484375 C20.67508057 64.57459961 20.75250488 65.66482422 20.83227539 66.78808594 C21.00981122 70.18788413 21 73.59556955 21 77 C15.72 77 10.44 77 5 77 C4.34663045 67.55116423 3.69441779 58.10225056 3.04424286 48.65319443 C2.74229646 44.26565346 2.43984268 39.87814869 2.13623047 35.49072266 C1.84326149 31.25682867 1.55162385 27.02284489 1.26091003 22.78879547 C1.1497491 21.17323791 1.03810804 19.5577133 0.92597961 17.9422226 C0.76904434 15.67999153 0.61381462 13.41764942 0.45898438 11.15527344 C0.37015991 9.86731873 0.28133545 8.57936401 0.18981934 7.25238037 C0.04892007 4.83820052 0 2.41828802 0 0 Z " fill="#222F3E" transform="translate(392,210)"/>
</svg>
