<?xml version="1.0" encoding="utf-8"?>
<svg xmlns="http://www.w3.org/2000/svg" viewBox="3.221 19.265 3.347 4.051">
	<g>
			<g>
				<path style="fill-rule:evenodd;clip-rule:evenodd;" d="M6.532,19.782c0.007-0.093-0.044-0.143-0.125-0.171
					c0,0.002-0.001,0.004-0.002,0.007c0-0.002-0.001-0.002-0.001-0.002l0.003-0.005c-0.009-0.019-0.025-0.032-0.045-0.036
					c-0.039-0.009-0.064-0.036-0.094-0.058l-0.002,0.003c0,0,0,0-0.001,0c0.001-0.002,0.002-0.002,0.004-0.003
					c-0.022-0.068-0.044-0.14-0.109-0.186c-0.002,0.004-0.005,0.007-0.007,0.009c-0.003,0.012,0.003,0.021,0.008,0.03
					c-0.01-0.008-0.019-0.015-0.028-0.021c-0.013-0.005-0.024-0.006-0.037,0.002v-0.002c-0.015,0-0.03,0-0.045,0
					c0,0.005,0,0.009,0.001,0.014c0,0.021,0.001,0.043,0.001,0.065c0,0.01,0,0.019,0,0.028c-0.044,0.033-0.085,0.068-0.113,0.117
					c-0.008,0.016-0.026,0.024-0.045,0.024c-0.006-0.014-0.012-0.025-0.019-0.038l0.001-0.001c0-0.002,0.001-0.005,0.002-0.009
					c-0.007-0.016-0.028-0.026-0.035-0.011c-0.021,0.052-0.065,0.041-0.104,0.045c-0.089,0.011-0.18,0.004-0.268,0.027
					c-0.058-0.001-0.113,0.006-0.168,0.021c-0.061,0-0.121,0.013-0.183,0.019c-0.09,0.009-0.176,0.037-0.267,0.041l-0.002-0.004
					c-0.085,0.002-0.167,0.025-0.248,0.048l0.002,0.004c-0.001,0-0.001,0-0.002,0c0-0.001,0-0.003,0-0.004
					c-0.076-0.002-0.145,0.027-0.219,0.041c-0.052,0.009-0.109-0.003-0.154,0.037c0.001,0.001,0.002,0.002,0.004,0.003
					c-0.001,0-0.001,0-0.001,0l-0.002-0.003c-0.036,0.006-0.076-0.013-0.107,0.016l0.002,0.003
					c-0.001,0.001-0.001,0.002-0.001,0.004c-0.001-0.003-0.001-0.006-0.001-0.007c-0.083,0.005-0.165,0.004-0.245,0.019
					c-0.159,0.031-0.32,0.038-0.479,0.057c-0.054,0.006-0.106,0.025-0.16,0.018c0,0.005,0,0.012,0,0.017c0,0.036,0,0.072,0,0.108
					c0,0.01,0,0.021,0,0.03c0,0.036,0,0.072,0,0.108c0,0.026,0,0.053,0,0.078c0,0.021,0,0.041,0,0.063c0,0.036,0,0.072,0,0.108
					c0,0.016,0,0.03,0,0.047c0.02,0.02,0.02,0.041,0,0.062c0,0.006,0,0.011,0,0.016c0,0.072,0,0.146,0,0.218c0,0.03,0,0.062,0,0.093
					c0,0.005,0,0.01,0,0.015c0.011,0.012,0.011,0.021,0,0.031c0,0.005,0,0.011,0,0.017c0,0.015,0,0.03,0,0.046
					c0,0.016,0,0.031,0,0.047c0,0.015,0,0.031,0,0.046c0,0.058,0,0.114,0,0.172c0,0.019,0,0.041,0,0.06c0,0.006,0,0.011,0,0.017
					c0,0.057,0,0.114,0,0.17c0,0.021,0,0.042,0,0.063c0,0.047,0,0.093,0,0.14c0.022,0.031,0.022,0.063,0,0.094
					c0,0.005,0,0.01,0,0.015c0,0.017,0,0.031,0,0.047c0,0.025,0,0.052,0,0.077c0,0.058,0,0.114,0,0.171c0,0.073,0,0.146,0,0.217
					c0,0.036,0,0.072,0,0.109c0,0.063,0,0.123,0,0.187c0,0.099,0,0.196,0,0.295c0,0.031,0,0.062,0,0.093c0,0.005,0,0.01,0,0.016
					c0,0.005,0,0.011,0,0.016c0.046,0,0.093-0.004,0.134-0.026c0.001,0,0.003,0,0.004,0l0,0c0.005-0.004,0.013,0,0.018-0.004v-0.001
					c0.005-0.005,0.01-0.011,0.015-0.016c0.039-0.024,0.034,0.017,0.046,0.031V23.01c0.015,0.012,0.031,0.01,0.046,0.003
					c0.005-0.002,0.011-0.002,0.017-0.002c0.007-0.01,0.021-0.007,0.03-0.014c0.017-0.001,0.031-0.001,0.048-0.002
					c0.001,0,0.002-0.002,0.003-0.007c0-0.001-0.001-0.001-0.001-0.002c0.002-0.002,0-0.004,0.002-0.005
					c0.001,0,0.004,0,0.006,0.001c0.007-0.005,0.012-0.013,0.01-0.019c-0.001-0.007-0.006-0.005-0.009-0.011
					c-0.001-0.009,0.013-0.012,0.006-0.021c-0.015-0.021-0.018-0.04-0.004-0.062c0.017-0.01,0.022-0.034,0.046-0.031
					c0,0,0.001,0,0.001-0.001c0,0.001,0,0.001,0,0.001c0.01,0,0.02,0,0.03,0c0.011,0,0.021,0,0.031,0c0,0,0,0,0-0.001
					c0,0.001,0,0.001,0,0.001c0,0.013,0.004,0.024,0.015,0.031c-0.006,0.037,0.02,0.048,0.049,0.053
					c0.005,0.001,0.018-0.005,0.018-0.009c0.005-0.035-0.033-0.021-0.045-0.038c-0.003-0.002-0.004-0.004-0.005-0.006
					c0.005-0.005,0.01-0.01,0.015-0.016c0.026,0,0.051,0,0.078,0.003c0.011,0.001,0.025,0.009,0.018,0.025
					c-0.006,0.011-0.02,0.022,0,0.027c0.01,0.002,0.032-0.01,0.032-0.014c-0.001-0.054,0.049-0.05,0.075-0.073l-0.002-0.002v-0.001
					c0.001,0.001,0.001,0.002,0.002,0.003c0.033-0.006,0.065,0.008,0.099,0.002c0.136-0.023,0.268-0.066,0.405-0.085
					c0.063-0.009,0.121-0.024,0.178,0.02c0.009,0.008,0.025,0.014,0.035,0.012c0.085-0.03,0.172,0.011,0.259-0.007
					c0.065-0.013,0.136,0.009,0.201-0.026c0.015-0.007,0.03,0.004,0.044,0.003c0.059-0.003,0.119-0.004,0.16-0.057
					c0-0.001-0.001-0.001-0.002-0.002l0,0l0.002,0.002c0.033-0.004,0.053-0.028,0.076-0.046c0.004-0.003,0.008-0.003,0.013-0.003
					c0.007-0.004,0.014-0.009,0.019-0.015l0,0c0.008-0.009,0.022-0.007,0.031-0.017v0.002c0.01-0.009,0.02-0.009,0.031-0.002
					c0.006,0.012,0.01,0.022,0.016,0.034c0.031,0.058,0.054,0.06,0.109,0.015c-0.001-0.001-0.004-0.004-0.005-0.005l0,0l0.005,0.005
					c0.029-0.002,0.044-0.019,0.046-0.046l-0.004-0.004c0-0.001,0.001-0.001,0.001-0.001c0.001,0.001,0.002,0.004,0.002,0.005
					c0.016-0.001,0.03-0.008,0.041-0.021c0.049-0.056,0.113-0.095,0.175-0.135c0.013-0.009,0.025-0.018,0.031-0.032
					c-0.001-0.002-0.002-0.003-0.005-0.004c0.001,0,0.001,0,0.001,0l0.004,0.004c0.013-0.007,0.015-0.018,0.016-0.03
					c-0.002,0-0.003-0.001-0.005-0.001c0,0,0-0.003,0.001-0.003l0.003,0.004c0.005-0.005,0.01-0.01,0.015-0.016L5.97,22.372
					c0,0,0,0,0.001-0.002c0,0.002,0,0.004,0.001,0.005c0.005-0.005,0.01-0.011,0.015-0.016l-0.002-0.003
					c0-0.001,0.001-0.001,0.001-0.001c0.001,0.001,0.001,0.003,0.001,0.004c0.005-0.005,0.011-0.01,0.016-0.016l-0.002-0.003
					c0,0,0,0,0-0.002c0.001,0.002,0.001,0.004,0.002,0.005c0.008-0.002,0.019-0.001,0.021-0.006c0.036-0.06,0.111-0.084,0.143-0.148
					c0.005-0.011,0.018-0.021,0.027-0.025c0.075-0.04,0.105-0.108,0.1-0.184c-0.007-0.138,0.026-0.266,0.071-0.391
					c0.014-0.038,0.008-0.083,0.026-0.107c0.022-0.03,0.02-0.053,0.018-0.084c-0.004-0.052-0.006-0.103,0-0.154
					c0.002-0.032,0.005-0.071-0.009-0.09c-0.033-0.046-0.038-0.098-0.055-0.148c-0.001,0.001-0.002,0.002-0.003,0.002l0,0
					c-0.003-0.003-0.008-0.007-0.009-0.012c0-0.002,0-0.002,0-0.003c0.005,0.004,0,0.014,0.009,0.015l0.003-0.002
					c-0.014-0.101-0.026-0.203-0.04-0.305c-0.009-0.067-0.016-0.135-0.011-0.205c0.005-0.055,0.008-0.111-0.007-0.169
					c-0.01-0.038-0.004-0.081-0.005-0.122c0-0.021,0.011-0.034,0.034-0.035c0.012,0,0.025,0,0.038-0.003
					c0.078-0.015,0.091-0.058,0.038-0.122c0.002-0.03-0.014-0.045-0.039-0.058c-0.018-0.01-0.046-0.012-0.046-0.041
					c0.029-0.03,0.065-0.025,0.1-0.024c0-0.002,0.001-0.005,0.002-0.007c0,0.001,0.001,0.001,0.001,0.002l-0.004,0.005
					c0.009,0.021,0.024,0.03,0.046,0.031c0-0.001,0.001-0.002,0.001-0.004h0.001l-0.002,0.004c0.005,0.005,0.01,0.011,0.015,0.016
					c0.03,0.024,0.052,0.011,0.044-0.021c-0.013-0.046-0.012-0.08,0.027-0.112C6.554,19.823,6.549,19.798,6.532,19.782z
					 M6.048,22.247c0-0.002,0.001-0.003,0.001-0.003c0,0.001-0.001,0.001,0,0.003C6.048,22.247,6.048,22.247,6.048,22.247z
					 M4.001,22.739C4,22.742,3.999,22.746,3.999,22.748C4,22.746,3.999,22.742,4.001,22.739z M6.294,19.747
					c0.001-0.003,0.005-0.004,0.009-0.005c-0.008,0.007-0.014,0.014-0.011,0.024c-0.003-0.004-0.005-0.008-0.005-0.011
					C6.288,19.753,6.292,19.749,6.294,19.747z M6.306,19.614c0.005,0,0.008,0,0.013-0.001c-0.004,0.002-0.004,0.006-0.005,0.011
					C6.312,19.62,6.309,19.616,6.306,19.614z M3.596,19.983L3.596,19.983c-0.001,0.002-0.001,0.005-0.005,0.004
					C3.594,19.987,3.594,19.984,3.596,19.983z M3.776,19.957c0.001,0,0-0.003,0.001-0.004c0,0,0,0,0.001,0
					c-0.001,0.004-0.004,0.008-0.004,0.012c0-0.004-0.002-0.007-0.002-0.011c0,0,0.001,0,0.002,0
					C3.775,19.954,3.775,19.957,3.776,19.957z M3.425,22.201c0.002-0.001,0.002-0.002,0.004-0.003c0,0.002-0.002,0.003-0.002,0.006
					C3.425,22.204,3.426,22.203,3.425,22.201z M4.73,19.845c0.001-0.002,0.001,0.001,0.002,0v0.001
					C4.731,19.846,4.731,19.845,4.73,19.845z M6.081,20.224c-0.018,0.001-0.02,0.016-0.025,0.028
					C6.056,20.238,6.065,20.228,6.081,20.224z M4.337,22.581c-0.015-0.002-0.026-0.016-0.045-0.009c0.002-0.002,0-0.004,0.001-0.005
					c0.008,0.006,0.02,0.01,0.053,0.014C4.343,22.581,4.339,22.581,4.337,22.581z M3.709,22.703
					c0.003-0.015-0.004-0.021-0.017-0.024c0.008-0.003,0.017-0.007,0.021,0.002C3.719,22.688,3.712,22.695,3.709,22.703z
					 M6.157,21.391c0.004-0.01,0.006-0.02,0.008-0.031C6.165,21.375,6.161,21.381,6.157,21.391z M4.702,22.604
					c0,0.001-0.001,0.002-0.001,0.004C4.701,22.605,4.701,22.604,4.702,22.604C4.701,22.604,4.702,22.604,4.702,22.604z
					 M4.792,22.529c0.001-0.001,0.002-0.004,0.002-0.005c0,0.001-0.001,0.004,0,0.005C4.793,22.529,4.793,22.529,4.792,22.529z
					 M3.803,22.684v0.001C3.804,22.684,3.803,22.684,3.803,22.684z M6.141,20.153L6.141,20.153l0.001-0.001
					C6.143,20.153,6.143,20.153,6.141,20.153z M5.291,22.328c0-0.001-0.004-0.001-0.003-0.004
					C5.289,22.325,5.291,22.325,5.291,22.328C5.292,22.327,5.292,22.327,5.291,22.328z M4.51,22.047
					C4.51,22.047,4.51,22.047,4.51,22.047L4.51,22.047L4.51,22.047z M4.606,20.494c-0.001,0.001-0.001,0.001-0.001,0.001l0,0
					C4.604,20.495,4.604,20.495,4.606,20.494L4.606,20.494z M4.72,20.26c0,0.001,0,0.003,0,0.003c0,0.001,0,0.003-0.001,0.005
					C4.72,20.265,4.719,20.263,4.72,20.26z M5.812,20.457c-0.002,0-0.002-0.005-0.005-0.005c0.005,0.002,0.006,0.007,0.011,0.005
					c-0.001,0.002-0.002,0-0.004,0.002C5.813,20.459,5.813,20.457,5.812,20.457z M4.807,22.374c-0.003,0-0.003-0.006-0.008-0.006
					c0.003,0.002,0.007,0.005,0.011,0.001C4.81,22.37,4.807,22.372,4.807,22.374c0.001,0,0.001,0,0.003,0
					C4.809,22.375,4.809,22.375,4.807,22.374L4.807,22.374z M5.258,20.206h0.001c-0.012,0.017-0.005,0.036,0.002,0.054
					c-0.009-0.017-0.013-0.032-0.008-0.053C5.255,20.207,5.256,20.206,5.258,20.206z M5.589,21.671
					c0.001-0.002-0.002-0.005-0.002-0.008c0.002-0.006,0.009-0.002,0.013-0.006C5.596,21.662,5.592,21.665,5.589,21.671z
					 M4.642,21.629h0.001C4.642,21.629,4.642,21.629,4.642,21.629L4.642,21.629z M3.83,22.575c0-0.001,0-0.002,0-0.002
					s0.001,0.001,0.002,0.002C3.832,22.575,3.832,22.575,3.83,22.575z M3.829,21.551C3.829,21.551,3.83,21.551,3.829,21.551
					C3.829,21.552,3.829,21.552,3.829,21.551c0,0.001-0.001,0.001-0.002,0.001C3.828,21.552,3.829,21.552,3.829,21.551z
					 M5.786,21.697c0,0.01,0.001,0.021,0.002,0.029c0-0.003-0.002-0.003-0.002-0.006C5.786,21.714,5.786,21.706,5.786,21.697z
					 M5.597,20.291c-0.001-0.003-0.001-0.006-0.002-0.009c0,0.003,0.004,0.004,0.004,0.006C5.598,20.29,5.597,20.29,5.597,20.291z
					 M5.867,21.417L5.867,21.417H5.866H5.867L5.867,21.417z M5.182,22.057c-0.002,0.001-0.001,0.001-0.004,0.004
					c0.001-0.003,0.001-0.003,0.002-0.004C5.18,22.056,5.18,22.057,5.182,22.057z M5.571,21.43
					c-0.001-0.001-0.001-0.001-0.003-0.003c0.001,0,0.004,0,0.005,0C5.572,21.429,5.571,21.429,5.571,21.43z M4.127,21.443
					c0,0.001-0.001,0.001-0.001,0.001l0,0L4.127,21.443L4.127,21.443C4.127,21.443,4.127,21.443,4.127,21.443
					S4.127,21.443,4.127,21.443z M5.179,21.039C5.18,21.039,5.179,21.04,5.179,21.039L5.179,21.039
					C5.179,21.04,5.179,21.039,5.179,21.039z M5.537,21.025c-0.005-0.005-0.01,0.001-0.015-0.001
					c0.003-0.002,0.006-0.003,0.01-0.004C5.533,21.022,5.536,21.022,5.537,21.025z M5.322,21.177L5.322,21.177
					c0.001,0,0.002-0.001,0.003-0.001c-0.001,0.001-0.002,0.002-0.003,0.004C5.322,21.18,5.322,21.178,5.322,21.177z M5.329,21.315
					L5.329,21.315L5.329,21.315L5.329,21.315z M5.556,21.313c-0.001-0.007,0-0.014-0.006-0.018
					c-0.014-0.008-0.004-0.014,0.006-0.019C5.552,21.289,5.552,21.301,5.556,21.313z M5.265,21.017
					c0.006,0.001,0.013,0.001,0.019,0.001C5.278,21.02,5.271,21.018,5.265,21.017z M4.959,21.507c0-0.009-0.009-0.016-0.005-0.024
					c0.005-0.012,0.017-0.007,0.025-0.008C4.966,21.483,4.96,21.493,4.959,21.507z M4.502,21.039
					C4.5,21.04,4.497,21.04,4.495,21.043C4.497,21.04,4.5,21.04,4.502,21.039L4.502,21.039z M4.855,21.235
					c0.005,0.003,0.002,0.011,0.009,0.012c0.006,0.002,0.012,0.008,0.009,0.017c-0.005,0.006-0.013,0.002-0.019,0
					C4.851,21.256,4.861,21.244,4.855,21.235z M4.536,21.035c0.011-0.001,0.024,0.011,0.035-0.002c0,0.001,0.001,0.002,0.001,0.004
					C4.564,21.03,4.548,21.035,4.536,21.035z M5.103,21.198c-0.001-0.001-0.003-0.001-0.005-0.003c0.001,0,0.002,0,0.005-0.001
					C5.103,21.195,5.103,21.197,5.103,21.198z M4.984,21.175c-0.001-0.004-0.001-0.008-0.001-0.011
					c0.008,0.013,0.028,0.013,0.046,0.013C5.014,21.172,5.001,21.155,4.984,21.175z M4.929,21.211c-0.001,0.002-0.005-0.002-0.006,0
					c0.004-0.003,0.006-0.007,0.01-0.011C4.931,21.204,4.93,21.207,4.929,21.211z M4.919,21.615c-0.001,0-0.001-0.002-0.003-0.002
					c-0.001,0.002,0,0.004-0.001,0.005c-0.001-0.002,0.001-0.005,0-0.007l0,0c0.001,0,0,0.002,0.001,0.002h0.001
					C4.917,21.613,4.917,21.615,4.919,21.615z M5.062,21.885c-0.001-0.001-0.002-0.002-0.004-0.005
					C5.059,21.883,5.06,21.883,5.062,21.885z M5.462,21.42c-0.001,0.011-0.009,0.016-0.019,0.015
					C5.451,21.431,5.456,21.425,5.462,21.42z M5.071,21.175c0.004-0.004,0.008-0.002,0.01-0.004
					C5.079,21.172,5.075,21.171,5.071,21.175z M4.954,21.12c-0.001-0.002,0-0.006-0.001-0.009c0.001,0.002,0.001-0.001,0.002,0
					C4.958,21.115,4.953,21.118,4.954,21.12z M4.479,21.114c-0.003,0-0.004,0.001-0.005,0.001
					C4.475,21.115,4.476,21.115,4.479,21.114z M4.21,21.082c-0.002,0.001,0.002,0.002-0.001,0.004c-0.001,0-0.002,0-0.002,0
					C4.208,21.086,4.208,21.083,4.21,21.082z M4.274,21.204L4.274,21.204L4.274,21.204L4.274,21.204z M4.777,21.63H4.776
					c0-0.001-0.002-0.001-0.003-0.001c0.001,0,0.001,0,0.001,0C4.775,21.629,4.776,21.63,4.777,21.63z M4.887,21.533
					c0.001,0.003,0,0.004,0.001,0.007c-0.004,0,0,0.006-0.004,0.007C4.886,21.542,4.886,21.54,4.887,21.533z M5.164,21.465
					c-0.002-0.009-0.01-0.018,0.001-0.024c0.008-0.003,0.01,0.008,0.017,0.009C5.173,21.453,5.167,21.457,5.164,21.465z
					 M5.617,21.387c0.003-0.004,0.008-0.005,0.009-0.009C5.625,21.381,5.62,21.385,5.617,21.387z M5.601,21.173
					c-0.002-0.004,0.001-0.005-0.001-0.009c0.001,0,0.002,0.002,0.005,0.002C5.602,21.168,5.602,21.171,5.601,21.173z M5.637,21.065
					L5.637,21.065c0.005-0.021,0.006-0.04-0.005-0.059c0,0,0,0.001,0,0C5.633,21.025,5.652,21.044,5.637,21.065z M5.227,20.589
					c-0.001,0.002-0.004,0.004-0.005,0.006c0-0.001,0.001-0.002,0.001-0.005C5.224,20.59,5.225,20.589,5.227,20.589z M5.174,20.995
					c-0.002,0-0.005-0.002-0.009-0.002c0-0.002-0.001-0.002-0.001-0.003C5.167,20.994,5.171,20.993,5.174,20.995z M5.091,21.069
					c-0.001,0-0.002,0.001-0.004,0.001c0-0.004,0.004-0.005,0.004-0.008C5.093,21.065,5.09,21.066,5.091,21.069z M4.95,21.088
					L4.95,21.088L4.95,21.088L4.95,21.088z M4.753,21.003c-0.003,0.004-0.006,0.009-0.011,0.009
					C4.747,21.011,4.75,21.007,4.753,21.003z M4.273,20.873c0,0-0.001-0.004,0-0.003v-0.001c-0.001-0.001-0.001-0.003-0.001-0.004
					l0.001,0.001c0,0.002,0,0.002,0,0.003C4.273,20.87,4.273,20.873,4.273,20.873z M4.187,21.319L4.187,21.319L4.187,21.319
					L4.187,21.319z M5.147,21.973C5.147,21.972,5.149,21.972,5.147,21.973c0.001-0.001,0.001-0.001,0.001-0.001
					S5.149,21.972,5.147,21.973z M5.625,21.472c0.001,0.003,0.002,0.006,0.003,0.008c0,0.001,0,0.004,0,0.005
					C5.625,21.482,5.622,21.479,5.625,21.472z M5.358,20.815c0.001,0,0-0.002,0.001-0.002H5.36
					C5.359,20.813,5.359,20.815,5.358,20.815z M5.349,20.479c0.001-0.007-0.01-0.003-0.011-0.011c0.002,0.004,0.006,0,0.007,0.004
					c0.001,0.002,0.002,0.005,0.005,0.006C5.351,20.479,5.349,20.479,5.349,20.479z M5.267,20.394c0,0,0.001-0.001,0-0.003
					c0.002,0,0.005-0.002,0.007-0.002C5.271,20.391,5.269,20.393,5.267,20.394z M4.939,21.013c-0.003-0.001-0.005-0.002-0.006-0.004
					c0,0,0-0.001,0.001-0.001C4.935,21.011,4.938,21.011,4.939,21.013z M4.919,20.957c-0.001,0-0.003,0-0.004,0
					c0.001,0,0.002-0.002,0.002-0.003C4.917,20.955,4.919,20.955,4.919,20.957z M4.827,20.731c-0.003-0.001-0.008-0.003-0.012-0.004
					c-0.013-0.004-0.008-0.015-0.009-0.023C4.81,20.717,4.816,20.727,4.827,20.731z M3.893,21.645
					C3.893,21.645,3.893,21.645,3.893,21.645L3.893,21.645L3.893,21.645z M4.115,21.728c0.004-0.001,0.003,0.005,0.005,0.005
					c-0.004,0-0.006-0.003-0.011-0.003C4.112,21.729,4.114,21.729,4.115,21.728z M4.873,21.937L4.873,21.937
					c0,0,0,0.001-0.001,0.001L4.873,21.937z M5.315,21.679c0.004-0.004,0.007-0.008,0.012-0.009c0.003,0,0.003,0.004,0.005,0.005
					C5.327,21.676,5.322,21.678,5.315,21.679z M5.491,21.644L5.491,21.644c0.001,0,0.003,0.001,0.003,0.003
					C5.493,21.647,5.492,21.645,5.491,21.644z M5.463,21.532c0.001-0.012,0.009-0.015,0.017-0.018
					C5.472,21.519,5.465,21.522,5.463,21.532z M5.813,20.868c0.007,0,0.015-0.002,0.022,0C5.828,20.868,5.821,20.866,5.813,20.868z
					 M5.832,20.75c-0.001-0.001,0-0.002-0.001-0.002c0.001-0.002,0.001-0.002,0.001-0.003C5.832,20.746,5.832,20.749,5.832,20.75z
					 M5.549,20.774c0.001,0,0.002,0,0.004,0c0,0,0,0,0,0.001C5.552,20.774,5.551,20.775,5.549,20.774z M5.365,20.241
					c0.001,0.002,0.004,0,0.005,0.001c-0.001,0.003-0.003,0.004-0.004,0.005C5.365,20.246,5.367,20.242,5.365,20.241z M4.214,20.634
					c0,0,0,0-0.001,0.001c-0.01-0.022-0.029-0.02-0.047-0.015C4.184,20.614,4.199,20.626,4.214,20.634z M3.97,20.791
					c0,0.002,0.001,0,0.001,0.002c-0.001,0-0.002,0-0.004,0C3.968,20.793,3.969,20.791,3.97,20.791z M4.079,20.842
					c0.001,0,0,0.004,0,0.005c-0.001-0.003-0.001-0.005-0.002-0.007C4.078,20.84,4.078,20.842,4.079,20.842z M3.883,21.287
					c0.012,0.009,0.024,0.01,0.036,0.002C3.907,21.305,3.895,21.292,3.883,21.287z M3.878,21.287
					c0.001,0.009,0.009,0.01,0.014,0.015c-0.006-0.005-0.015-0.009-0.018-0.015C3.875,21.288,3.875,21.286,3.878,21.287z
					 M4.404,21.582L4.404,21.582L4.404,21.582c0.006,0,0.01,0.004,0.017,0.005c-0.006,0.002-0.011-0.004-0.017,0
					C4.404,21.586,4.404,21.583,4.404,21.582L4.404,21.582z M4.436,21.7c0,0.001,0.003,0.002,0.003,0.003
					C4.438,21.702,4.436,21.702,4.436,21.7z M5.199,21.834c0.003-0.003,0-0.004,0.002-0.007c-0.002,0.013,0,0.022,0.01,0.03H5.21
					C5.2,21.854,5.193,21.839,5.199,21.834z M5.459,21.66L5.459,21.66L5.459,21.66L5.459,21.66z M5.574,21.594
					c0,0.001,0.001,0,0.002,0.002c-0.001,0-0.002,0.002-0.005,0.003C5.572,21.596,5.574,21.595,5.574,21.594z M5.862,21.44
					L5.862,21.44L5.862,21.44L5.862,21.44z M5.48,20.384L5.48,20.384c-0.002,0.001-0.002,0-0.002,0
					c0.004-0.001,0.004-0.005,0.006-0.007C5.484,20.38,5.48,20.381,5.48,20.384z M4.901,20.594c0-0.001,0-0.003,0-0.004
					c0.002,0,0.005,0.004,0.009,0.004C4.906,20.595,4.905,20.591,4.901,20.594z M4.762,20.631c-0.002-0.002-0.001-0.006-0.003-0.007
					c0.001-0.001,0.001-0.001,0.002-0.003C4.765,20.625,4.761,20.629,4.762,20.631z M4.009,20.923
					c-0.002,0.001-0.001,0.004-0.002,0.005c-0.001-0.001,0.001-0.002,0.001-0.005C4.008,20.924,4.008,20.923,4.009,20.923z
					 M4.188,22.06c-0.004,0.005-0.002,0.012-0.007,0.018c-0.008,0.006-0.009-0.004-0.013-0.006
					C4.175,22.069,4.182,22.065,4.188,22.06z M4.243,22.06c0.004-0.002,0.007,0.003,0.012-0.002
					c-0.001,0.007-0.008,0.004-0.008,0.011C4.242,22.066,4.246,22.063,4.243,22.06z M5.423,21.765c0.001-0.001,0-0.002,0.001-0.004
					c0.007,0.006,0.015-0.005,0.022-0.001C5.439,21.761,5.428,21.763,5.423,21.765z M5.786,21.636c0-0.001,0-0.004,0-0.006
					c0.004,0.002,0.008,0.006,0.011,0.009c0.013,0.009,0.031,0.011,0.044,0.018C5.825,21.644,5.808,21.632,5.786,21.636z
					 M5.625,20.282c0-0.003-0.005-0.004-0.002-0.006c0.002,0,0.005,0.002,0.009,0.002C5.628,20.279,5.625,20.281,5.625,20.282z
					 M4.816,20.415c0.001,0,0.001-0.001,0.001-0.001c0.001,0,0,0.001,0,0.001H4.816z M4.717,20.497c-0.001,0-0.001,0-0.002,0
					c0.001-0.001,0.004-0.001,0.004-0.002C4.719,20.496,4.717,20.496,4.717,20.497z M4.568,20.638
					c0.001-0.001,0.004-0.001,0.005-0.003c0.001,0.002,0.001,0.002,0.001,0.002C4.572,20.637,4.571,20.638,4.568,20.638z
					 M4.552,20.528c0.001-0.002-0.001-0.005-0.001-0.006c0.001,0.003,0.006,0.001,0.009,0.005
					C4.557,20.527,4.555,20.528,4.552,20.528z M4.443,20.54c-0.009-0.004-0.02-0.001-0.029-0.004
					c0.002-0.001,0.005-0.002,0.009-0.004C4.428,20.531,4.436,20.536,4.443,20.54z M4.268,20.563
					c0.016-0.01,0.034-0.023,0.038-0.021c0.002,0.003,0.004,0,0.006,0.002C4.295,20.549,4.281,20.554,4.268,20.563z M3.732,21.813
					c0.001,0.008,0.005,0.013,0.006,0.019c-0.001-0.005-0.005-0.011-0.006-0.016C3.731,21.813,3.732,21.813,3.732,21.813z
					 M4.652,22.032C4.652,22.032,4.652,22.032,4.652,22.032L4.652,22.032L4.652,22.032z M4.713,22.11
					c0,0.001,0.001,0.002,0.001,0.002v0.002C4.713,22.112,4.713,22.112,4.713,22.11C4.713,22.111,4.713,22.111,4.713,22.11z
					 M4.831,22.226v-0.002l0,0V22.226z M4.994,22.343L4.994,22.343L4.994,22.343L4.994,22.343z M5.939,21.533
					c0.001,0.002,0,0.005,0.003,0.007c-0.003,0.001-0.001,0.005-0.005,0.006C5.936,21.541,5.939,21.538,5.939,21.533z M5.987,21.148
					L5.987,21.148L5.987,21.148L5.987,21.148z M5.903,20.376c-0.004,0-0.006-0.002-0.009-0.001c0-0.001,0-0.001,0-0.003
					C5.897,20.374,5.899,20.375,5.903,20.376z M5.598,20.482c0-0.001,0-0.001,0-0.001s0,0,0.001,0
					C5.6,20.481,5.6,20.481,5.598,20.482z M5.725,20.177l-0.001,0.002c0-0.002,0-0.002,0-0.003
					C5.723,20.176,5.723,20.176,5.725,20.177L5.725,20.177z M5.614,20.125v-0.002l0,0V20.125c0.004-0.002,0.002-0.006,0.004-0.008
					c0,0.002-0.001,0.005-0.001,0.009C5.617,20.125,5.616,20.126,5.614,20.125z M4.461,20.318c-0.017,0.001-0.034-0.002-0.05-0.006
					c0,0,0.001,0,0.002,0C4.43,20.321,4.446,20.322,4.461,20.318z M3.963,20.291c0.001,0.004-0.001,0.008-0.002,0.01
					c-0.001-0.002,0.001-0.007-0.001-0.01C3.96,20.292,3.961,20.29,3.963,20.291z M3.907,20.993
					C3.907,20.993,3.907,20.993,3.907,20.993c0,0.002-0.001,0.002-0.001,0.004c-0.002-0.002-0.004-0.003-0.005-0.004
					C3.903,20.993,3.905,20.993,3.907,20.993z M3.752,22.605c0.011,0.004,0.019-0.002,0.024-0.013c0,0.002,0,0.002,0.001,0.002
					c-0.009,0.004-0.018,0.009-0.025,0.013V22.605z M4.964,22.388L4.964,22.388c0.014-0.005,0.023-0.016,0.03-0.028l0,0
					C4.974,22.359,4.965,22.369,4.964,22.388z M5.739,21.889c0.001,0.015,0.012,0.025,0.025,0.03c-0.006,0-0.013-0.001-0.019,0
					C5.745,21.906,5.739,21.898,5.739,21.889z M6.074,20.584c0.015-0.022-0.004-0.026-0.005-0.035
					c0.004,0.014,0.01,0.025,0.015,0.039C6.08,20.586,6.076,20.585,6.074,20.584z M5.748,20.083
					c0.005,0.005,0.015,0.008,0.021,0.003C5.762,20.088,5.756,20.085,5.748,20.083z M5.304,20.063c0,0.001-0.002,0.001-0.002,0.002
					c-0.001-0.001-0.004,0-0.005-0.001C5.299,20.063,5.302,20.063,5.304,20.063z M4.404,20.217
					C4.403,20.217,4.403,20.217,4.404,20.217c-0.001,0-0.001,0-0.002,0c0,0,0.001,0,0.001-0.001
					C4.403,20.216,4.403,20.217,4.404,20.217z M3.945,20.351c-0.014,0.021-0.029,0.025-0.049,0.013
					C3.915,20.368,3.932,20.366,3.945,20.351z M4.311,22.498c0.001,0.001,0.002,0.003,0.005,0.003c-0.002,0-0.003-0.002-0.005-0.002
					V22.498z M4.56,22.034c0.011-0.002,0.022-0.003,0.033-0.008C4.583,22.035,4.572,22.035,4.56,22.034z M4.807,22.499
					c0-0.001,0-0.001,0-0.001h0.001C4.809,22.498,4.807,22.498,4.807,22.499z M4.96,22.44C4.96,22.44,4.96,22.44,4.96,22.44
					c0.006-0.008,0.015-0.011,0.019-0.019c0,0,0,0,0.001,0C4.97,22.424,4.965,22.432,4.96,22.44z M5.879,21.956c0,0,0,0,0.001,0
					l-0.001-0.001c0.001,0,0.003,0,0.004,0c-0.001,0.001-0.002,0.001-0.002,0.001c-0.001,0.004,0.004,0.005,0.004,0.009
					C5.883,21.963,5.881,21.96,5.879,21.956z M6.174,20.637L6.174,20.637L6.174,20.637L6.174,20.637L6.174,20.637L6.174,20.637
					L6.174,20.637z M6.175,20.091C6.174,20.091,6.174,20.091,6.175,20.091L6.175,20.091L6.175,20.091
					C6.174,20.09,6.174,20.091,6.175,20.091z M6.136,19.95c0-0.001,0.001-0.003,0.001-0.006l0.002-0.001
					C6.137,19.945,6.137,19.948,6.136,19.95z M6.007,20.367c-0.005-0.005-0.01-0.011-0.02-0.008c0-0.001,0-0.001,0-0.002
					C5.994,20.361,6.001,20.363,6.007,20.367L6.007,20.367z M5.079,20.118c-0.004,0.008-0.009,0.013-0.018,0.013
					c-0.004-0.001-0.001-0.005-0.002-0.008c0.007,0,0.014-0.006,0.021-0.007C5.08,20.117,5.08,20.117,5.079,20.118z M4.653,20.181
					c0,0-0.001-0.001-0.001-0.002C4.652,20.18,4.653,20.181,4.653,20.181z M4.363,20.167c-0.002-0.002-0.006-0.006-0.01-0.009
					c0.001,0,0.002,0.001,0.004,0.001C4.361,20.161,4.361,20.166,4.363,20.167z M3.819,20.959c-0.01,0.023-0.002,0.043,0.018,0.056
					C3.827,21.004,3.82,20.985,3.819,20.959L3.819,20.959z M3.619,20.697c-0.002,0.003,0,0.007-0.002,0.009
					c-0.002,0-0.004-0.004-0.006-0.005C3.612,20.701,3.615,20.7,3.619,20.697z M3.62,21.008C3.62,21.008,3.621,21.007,3.62,21.008
					c0.001,0,0.001,0.001,0,0.001V21.008z M3.661,21.141c0,0.002-0.001,0.005-0.001,0.008c-0.004-0.004-0.005-0.008-0.008-0.013
					C3.656,21.137,3.658,21.141,3.661,21.141z M3.579,22.342c-0.011,0.006-0.031,0.002-0.051-0.007c0-0.001,0.001-0.002,0.001-0.002
					C3.543,22.346,3.561,22.344,3.579,22.342z M3.579,22.604c-0.021-0.022-0.029-0.051-0.027-0.082c0-0.001,0.001-0.001,0.001-0.002
					C3.54,22.555,3.558,22.579,3.579,22.604z M4.777,22.529c-0.002,0-0.005,0.001-0.007,0.001c0.001-0.002,0.003-0.002,0.005-0.003
					C4.775,22.528,4.776,22.528,4.777,22.529z M5.106,22.457c0.018-0.021,0.029-0.007,0.041,0.002c0,0.003-0.001,0.002-0.001,0.004
					c-0.001,0.003,0,0.004,0,0.007c-0.019-0.012-0.034-0.004-0.046,0.006C5.104,22.47,5.103,22.462,5.106,22.457z M5.149,22.53
					c0,0,0,0,0.001,0l0,0l0,0l0,0c0,0,0,0,0.001,0c-0.001,0-0.001,0-0.001,0H5.149z M5.797,22.063c0.001-0.001,0.002,0,0.004-0.001
					v0.001C5.799,22.063,5.798,22.063,5.797,22.063z M6.212,20.517c-0.002,0,0.002-0.004,0.004-0.007c0,0.004,0.001,0.008,0,0.012
					C6.214,20.52,6.216,20.518,6.212,20.517z M6.205,20.282c0-0.001,0-0.001,0-0.003c0.001,0.002,0.003,0.003,0.006,0.003
					C6.208,20.283,6.208,20.281,6.205,20.282z M5.919,20.025c-0.008,0.013-0.017,0.018-0.027,0.016
					C5.903,20.039,5.912,20.033,5.919,20.025z M5.846,20.171L5.846,20.171c-0.005,0-0.009,0-0.014,0c0,0,0,0,0-0.001
					C5.837,20.172,5.841,20.174,5.846,20.171z M5.571,19.899c-0.001-0.009-0.004-0.009-0.005-0.017
					c0.008-0.001,0.017-0.001,0.022-0.005C5.582,19.887,5.58,19.887,5.571,19.899z M4.901,20.171c0-0.003-0.004-0.003-0.004-0.005
					c0.005,0.004,0.01-0.001,0.015-0.001C4.909,20.167,4.905,20.168,4.901,20.171z M4.842,20.076c-0.002,0-0.002-0.007-0.002-0.011
					c0-0.001,0-0.001,0-0.001c-0.001,0.01,0.006,0.017,0.01,0.023C4.845,20.086,4.849,20.078,4.842,20.076z M4.491,19.965
					c0.001,0,0.002,0.009,0.005,0.016c-0.001,0-0.002-0.001-0.002-0.001c-0.003-0.006-0.012-0.014-0.02-0.021
					C4.479,19.959,4.483,19.966,4.491,19.965z M4.017,20.094c0.001-0.003,0.002-0.006,0.004-0.008c0,0.002-0.001,0.005,0,0.008
					C4.019,20.092,4.018,20.094,4.017,20.094z M3.861,20.217L3.861,20.217c0,0,0-0.001,0.001-0.001L3.861,20.217z M3.749,20.535
					c-0.005-0.004-0.013-0.005-0.019-0.007c0.006-0.002,0.013,0.002,0.019-0.002C3.749,20.528,3.75,20.531,3.749,20.535z
					 M3.551,20.869c0,0.002,0,0.002,0,0.005c-0.024,0.004-0.028,0.025-0.038,0.041c0.002-0.007-0.004-0.02,0.01-0.022
					C3.539,20.891,3.546,20.882,3.551,20.869z M3.574,21.091c0.004,0.007,0.013,0.006,0.018,0.01c-0.004,0.002-0.004-0.003-0.009,0
					c-0.001,0.001-0.006-0.005-0.01-0.009C3.574,21.092,3.574,21.092,3.574,21.091z M3.583,21.395
					c0.001,0.001,0.003,0.001,0.004,0.003c-0.002,0-0.004,0-0.005,0C3.583,21.396,3.583,21.396,3.583,21.395z M4.25,22.622
					c0-0.003,0.002-0.001,0.003-0.003C4.253,22.621,4.25,22.619,4.25,22.622C4.25,22.622,4.25,22.622,4.25,22.622z M4.466,22.374
					c-0.001,0.003,0.001,0.007,0,0.009c-0.001-0.002,0-0.006-0.002-0.009C4.464,22.374,4.466,22.374,4.466,22.374z M5.817,22.099
					c0-0.001,0-0.002,0-0.004c0.001,0.003,0.004,0.004,0.005,0.007C5.819,22.102,5.819,22.099,5.817,22.099z M6.096,21.998
					L6.096,21.998c0-0.002-0.001-0.002-0.001-0.003C6.094,21.996,6.096,21.996,6.096,21.998z M6.097,22.001
					c0,0-0.001-0.001-0.001-0.002l0,0c0,0.001,0.001,0.002,0.002,0.002H6.097z M6.185,19.85c0.014-0.003,0.026-0.004,0.04-0.004
					c0,0,0,0,0,0.001C6.211,19.838,6.199,19.846,6.185,19.85z M5.189,19.748c0.001-0.001,0.001-0.003,0.002-0.003
					c0.001,0.002,0,0.003,0.001,0.004C5.191,19.748,5.19,19.748,5.189,19.748z M4.112,22.685l0.001,0.002
					c-0.001,0-0.001-0.002-0.002-0.002C4.112,22.685,4.112,22.685,4.112,22.685z M4.327,22.652c0.001-0.003,0.003,0,0.006-0.002
					c0.001,0,0.002,0.002,0.004,0.002C4.333,22.652,4.33,22.653,4.327,22.652z M5.351,22.527c0.001-0.002,0.002-0.002,0.005-0.004
					C5.354,22.525,5.353,22.525,5.351,22.527C5.352,22.527,5.351,22.528,5.351,22.527z M6.268,21.443L6.268,21.443
					c0.001-0.001,0.002,0,0.002,0C6.269,21.444,6.269,21.442,6.268,21.443z M5.678,19.651c-0.006-0.002-0.011-0.009-0.02-0.009
					c0.002-0.001,0.006-0.001,0.01-0.002C5.673,19.642,5.674,19.649,5.678,19.651z M5.213,19.968
					c-0.002-0.002-0.006-0.003-0.006-0.007c0.004,0.001,0.006,0.002,0.009,0.006C5.215,19.968,5.214,19.968,5.213,19.968z
					 M4.118,19.883c0.001-0.01,0.01-0.015,0.019-0.018C4.123,19.864,4.119,19.873,4.118,19.883z M3.985,19.922
					C3.985,19.922,3.985,19.922,3.985,19.922c0-0.001,0,0,0.001,0C3.985,19.922,3.985,19.922,3.985,19.922z M3.467,20.759
					c0.002,0.005,0.004,0.012,0.006,0.017c-0.001,0-0.001,0-0.002,0C3.475,20.769,3.469,20.766,3.467,20.759z M3.411,21.271
					C3.411,21.271,3.411,21.271,3.411,21.271L3.411,21.271C3.411,21.271,3.411,21.271,3.411,21.271z M3.492,22.573L3.492,22.573
					L3.492,22.573L3.492,22.573z M3.691,22.774c0,0,0,0-0.001,0C3.691,22.774,3.691,22.774,3.691,22.774L3.691,22.774z
					 M6.452,19.678c0,0.001,0,0.001,0.001,0.003c-0.011-0.005-0.018,0-0.024,0.009C6.433,19.681,6.441,19.679,6.452,19.678z
					 M3.318,20.125L3.318,20.125L3.318,20.125L3.318,20.125z M3.423,20.927c-0.012-0.001-0.021,0.004-0.029,0.011
					C3.402,20.927,3.412,20.923,3.423,20.927z M3.411,21.335c0,0-0.001,0-0.001,0.001c0-0.001,0-0.001,0-0.001H3.411z M3.416,22.848
					L3.416,22.848L3.416,22.848L3.416,22.848z M5.489,22.468c0.001,0,0.001,0,0.001,0c0,0.002,0,0.002-0.001,0.003
					C5.489,22.47,5.489,22.47,5.489,22.468z M3.289,20.279c0,0-0.001,0-0.001,0.002c0-0.002,0,0,0-0.002
					C3.287,20.279,3.287,20.279,3.289,20.279z M3.583,22.978c-0.006-0.003-0.012-0.008-0.02-0.005c0.01,0,0.02,0,0.03,0.006
					C3.59,22.979,3.586,22.976,3.583,22.978z M3.598,22.981c-0.001,0,0-0.002-0.001-0.002h0.001
					C3.598,22.981,3.598,22.981,3.598,22.981z M6.229,22.045c0.001-0.002,0.003-0.005,0.004-0.007c-0.001,0.001,0,0.002-0.001,0.003
					C6.231,22.043,6.229,22.044,6.229,22.045z M6.405,19.907L6.405,19.907C6.406,19.907,6.406,19.907,6.405,19.907
					C6.406,19.907,6.406,19.907,6.405,19.907z"/>
				<path style="fill-rule:evenodd;clip-rule:evenodd;" d="M3.652,22.921c0.001,0.005,0.01,0.008,0.014,0.009
					c0.011,0,0.016-0.004,0.016-0.013c0-0.007-0.006-0.013-0.014-0.013C3.659,22.904,3.649,22.908,3.652,22.921z"/>
				<path style="fill-rule:evenodd;clip-rule:evenodd;" d="M4.686,23.277c0.01,0.007,0.019,0.012,0.027,0.017
					c0.01,0.005,0.014-0.003,0.011-0.012c-0.002-0.01-0.01-0.018-0.021-0.018C4.701,23.264,4.697,23.269,4.686,23.277z"/>
				<path style="fill-rule:evenodd;clip-rule:evenodd;" d="M3.93,22.89c0.004,0.001,0.009,0.006,0.013,0.005
					c0.002-0.001,0.004-0.009,0.005-0.013c-0.004-0.002-0.009-0.006-0.013-0.005C3.933,22.879,3.932,22.885,3.93,22.89z"/>
				<path style="fill-rule:evenodd;clip-rule:evenodd;" d="M6.339,19.477c-0.002-0.004-0.002-0.012-0.006-0.013
					c-0.002-0.001-0.007,0.003-0.013,0.005c0.001,0.004,0.003,0.012,0.005,0.013C6.329,19.482,6.334,19.478,6.339,19.477z"/>
				<path style="fill-rule:evenodd;clip-rule:evenodd;" d="M6.12,19.294c-0.002,0.026,0.008,0.041,0.035,0.041l0.004-0.004
					c-0.001-0.021-0.011-0.036-0.031-0.046C6.125,19.289,6.123,19.291,6.12,19.294z"/>
				<path style="fill-rule:evenodd;clip-rule:evenodd;" d="M6.369,19.385c0.001-0.002-0.001-0.007-0.002-0.012
					c-0.003,0.002-0.009,0.003-0.011,0.007c-0.003,0.004-0.002,0.008,0.004,0.01C6.363,19.389,6.368,19.388,6.369,19.385z"/>
			</g>
	</g>
</svg>
