<?xml version="1.0" encoding="utf-8"?>
<svg xmlns="http://www.w3.org/2000/svg" viewBox="10.379 6.499 4.726 3.084">
	<g>
			<g>
				<polygon style="fill-rule:evenodd;clip-rule:evenodd;" points="11.407,6.605 11.408,6.605 11.409,6.604 				"/>
				<path style="fill-rule:evenodd;clip-rule:evenodd;" d="M11.042,8.621c-0.01,0.001-0.02,0.006-0.018,0.019
					c0,0.01,0.01,0.019,0.02,0.02c0.011,0.001,0.018-0.008,0.018-0.019C11.061,8.63,11.054,8.624,11.042,8.621z"/>
				<path style="fill-rule:evenodd;clip-rule:evenodd;" d="M14.237,6.901c-0.021-0.004-0.035-0.006-0.045,0.003
					c-0.003,0.003-0.002,0.013,0.001,0.014C14.21,6.928,14.221,6.917,14.237,6.901z"/>
				<path style="fill-rule:evenodd;clip-rule:evenodd;" d="M10.939,8.744c-0.008,0-0.018,0.001-0.015,0.009
					c0.004,0.013,0.018,0.015,0.03,0.018c0.002-0.004,0.01-0.006,0.01-0.009C10.964,8.745,10.95,8.745,10.939,8.744z"/>
				<path style="fill-rule:evenodd;clip-rule:evenodd;" d="M10.66,9.333c-0.01,0-0.02,0-0.03,0c-0.009,0.001-0.023,0.001-0.02,0.013
					c0.004,0.016,0.02,0.018,0.034,0.019c0.006,0,0.013,0.001,0.017,0.001c0.005,0.003,0.01,0.003,0.015-0.001
					c0.005,0,0.01,0,0.015,0c0,0,0.003-0.002,0.003-0.005c0.002-0.004,0-0.007-0.003-0.01C10.684,9.339,10.668,9.343,10.66,9.333z"
					/>
				<path style="fill-rule:evenodd;clip-rule:evenodd;" d="M11.051,9.324c-0.01,0-0.015,0.005-0.012,0.013
					c0.001,0.01,0.005,0.019,0.01,0.027c0.004-0.006,0.01-0.01,0.013-0.016C11.064,9.338,11.061,9.329,11.051,9.324z"/>
				<path style="fill-rule:evenodd;clip-rule:evenodd;" d="M10.921,9.448c0.005,0.005,0.01,0.01,0.015,0.014
					c0.006,0.004,0.012,0.001,0.012-0.005c0.002-0.009-0.006-0.013-0.015-0.014C10.929,9.444,10.925,9.447,10.921,9.448z"/>
				<path style="fill-rule:evenodd;clip-rule:evenodd;" d="M14.315,6.956c-0.003-0.002-0.009-0.003-0.014-0.006
					c-0.001,0.005-0.002,0.009-0.005,0.012c0.005,0.002,0.01,0.006,0.013,0.005C14.314,6.966,14.314,6.959,14.315,6.956z"/>
				<path style="fill-rule:evenodd;clip-rule:evenodd;" d="M10.475,8.061c-0.024-0.009-0.046-0.027-0.076,0.002
					c0.027,0.019,0.052,0.011,0.076,0.013c0.006,0,0.011,0.001,0.016,0.002c0.01,0.006,0.02,0.006,0.03-0.002
					c0,0,0.002-0.001,0.002-0.005c0.002-0.004,0-0.006-0.004-0.01C10.505,8.061,10.49,8.061,10.475,8.061z"/>
				<path style="fill-rule:evenodd;clip-rule:evenodd;" d="M10.599,8.91c0.001,0,0.004-0.002,0.005-0.004
					c-0.002-0.005-0.007-0.005-0.011,0C10.594,8.908,10.596,8.91,10.599,8.91z"/>
				<path style="fill-rule:evenodd;clip-rule:evenodd;" d="M15.067,8.432l-0.001,0.002c-0.001,0-0.001,0-0.001,0
					C15.066,8.434,15.067,8.434,15.067,8.432c0-0.016,0.003-0.035-0.016-0.046c-0.004-0.002-0.004-0.007-0.002-0.011
					c0.002-0.014,0-0.027-0.016-0.034l0.001,0.001c-0.008-0.01-0.004-0.026-0.02-0.03l0.002,0.001
					c-0.004-0.013-0.002-0.026-0.013-0.035L15,8.273l0.003-0.005c0.007-0.065-0.01-0.114-0.08-0.134
					c-0.017-0.005-0.027-0.023-0.045-0.025v0.002c0-0.01-0.007-0.015-0.016-0.016c-0.002,0-0.004-0.001-0.005-0.002
					c0.001,0,0.003,0.002,0.005,0.002l0,0c0,0,0,0,0.002,0c-0.004-0.014-0.016-0.018-0.029-0.02
					c-0.04-0.009-0.072-0.031-0.095-0.064h-0.002c0.009-0.006,0.025-0.004,0.029-0.018l0,0c0.01,0.001,0.017-0.002,0.019-0.011
					L14.785,7.98l0,0c0.001,0,0.002,0.001,0.002,0.002c0.013-0.006,0.017-0.018,0.018-0.03l-0.002-0.002l0,0
					c0.001,0,0.002,0.001,0.002,0.002c0.013-0.002,0.028,0,0.038-0.006c0.022-0.014,0.015-0.022-0.008-0.027
					c-0.018-0.019-0.044-0.017-0.066-0.029l0.002,0.001c-0.007-0.009-0.004-0.025-0.019-0.031l0.002,0.001
					c0.003-0.019,0.005-0.039,0.008-0.059c0.011-0.055,0.01-0.056-0.053-0.067v0.001c-0.004-0.007-0.01-0.012-0.015-0.017
					c-0.026-0.04-0.047-0.085-0.096-0.105c-0.006-0.014-0.021-0.01-0.029-0.018v0.001c-0.015-0.014-0.03-0.025-0.049-0.03
					l0.001,0.001c-0.018-0.033-0.047-0.038-0.078-0.035c-0.005,0.002-0.01,0.002-0.012-0.001c0.01-0.01,0.019-0.02,0.029-0.03
					L14.46,7.499c0.001,0,0-0.001,0.001-0.001c0.001,0.001,0.001,0.004,0.001,0.005c0.054-0.027,0.06-0.047,0.034-0.126
					c-0.003-0.012-0.006-0.023-0.017-0.03l-0.002,0.001l0,0c0-0.001,0.001-0.001,0.002-0.001c0-0.026-0.006-0.049-0.031-0.064
					c-0.001-0.011-0.005-0.022-0.016-0.03c-0.006-0.005-0.011-0.01-0.016-0.015c-0.001,0.002-0.002,0.004-0.004,0.006
					c0,0-0.001,0-0.001-0.001l0.005-0.005c-0.005-0.005-0.01-0.01-0.015-0.015l-0.003,0.001l0,0c0,0,0.002-0.001,0.003-0.001
					c-0.007-0.039-0.035-0.058-0.063-0.078l-0.005,0.003l0,0c0.002-0.001,0.002-0.003,0.005-0.003c0-0.031-0.007-0.059-0.029-0.083
					c-0.023-0.026-0.071-0.048-0.041-0.099c0.005-0.009-0.009-0.019-0.019-0.016c-0.018,0.004-0.035,0.01-0.053,0.013
					c-0.048,0.005-0.075-0.023-0.058-0.07c0.015-0.036-0.007-0.041-0.027-0.047c-0.021-0.006-0.046-0.005-0.068-0.008
					c0,0.001-0.001,0.002-0.001,0.002c-0.001,0-0.001,0-0.001,0l0.002-0.002c-0.005-0.005-0.01-0.01-0.015-0.015l-0.004,0.003
					c-0.001,0-0.001-0.001-0.001-0.002c0.002,0,0.002,0,0.005-0.001c0.01-0.017,0.05-0.033-0.003-0.049
					c-0.023-0.008-0.04-0.03-0.059-0.045c-0.001,0.001-0.002,0.003-0.004,0.003l0,0l0.004-0.003
					c-0.005-0.029-0.024-0.046-0.047-0.061l-0.004,0.002l0,0c0.001-0.001,0.002-0.001,0.004-0.002
					c-0.008-0.073-0.077-0.135-0.149-0.136c0.043,0.005,0.054,0.056,0.088,0.066c0.019,0.006,0.018,0.022,0.022,0.035
					c-0.025-0.046-0.056-0.087-0.11-0.101l-0.002,0.002l-0.004-0.002c-0.017-0.02-0.036-0.006-0.049,0.001
					c-0.053,0.031-0.107,0.031-0.165,0.026c-0.123-0.009-0.243,0.005-0.363,0.018v0.001c-0.004-0.006-0.009-0.007-0.015-0.001
					c-0.003,0.003-0.008,0.003-0.012,0c-0.041,0.006-0.089-0.019-0.127,0.019l0.003-0.001c-0.018-0.002-0.035-0.006-0.048,0.01
					c-0.034,0.001-0.066,0-0.099,0.002c-0.035,0.004-0.072-0.011-0.102,0.014c-0.005,0.001-0.01,0.003-0.015,0.003
					c-0.01,0.005-0.018,0.012-0.02,0.025c0-0.002,0-0.005,0-0.008c0.006-0.006,0.013-0.011,0.02-0.017
					c-0.047,0.005-0.098-0.014-0.141,0.014c-0.004,0.003-0.006,0.005-0.011,0.002c-0.033,0-0.065-0.002-0.098-0.001
					c-0.033,0.002-0.068-0.012-0.093,0.017l-0.005,0.003L12.42,6.65c-0.078-0.001-0.154-0.001-0.23-0.002
					c-0.02,0-0.041-0.004-0.055,0.018c-0.005-0.001-0.01-0.001-0.015-0.001c-0.024-0.026-0.055-0.019-0.08-0.011
					c-0.033,0.01-0.065,0.01-0.099,0.013c-0.018,0.007-0.036,0.006-0.054,0c-0.045-0.034-0.095-0.011-0.143-0.015
					c0,0,0,0.001,0.002,0.001c-0.023-0.024-0.055,0-0.079-0.018h0.002c-0.014-0.015-0.037-0.006-0.053-0.015l-0.006,0.001
					l-0.002-0.004c-0.01-0.009-0.022-0.007-0.034-0.013l0.002,0.001c-0.028-0.025-0.062-0.011-0.093-0.019
					c-0.03-0.018-0.053-0.004-0.074,0.019c-0.009,0.001-0.014,0.006-0.017,0.015c0-0.001,0-0.001,0-0.001
					c-0.017-0.002-0.032,0.005-0.045,0.018c-0.02,0.024-0.007,0.035,0.015,0.04L11.36,6.675c0.004,0.009,0.009,0.014,0.017,0.017
					c-0.004,0.02,0,0.046-0.033,0.049c-0.03,0.002-0.033,0.023-0.033,0.047c0.015,0.006,0.03,0.011,0.045,0.018l0.005-0.004
					c0,0.001-0.002,0.001-0.001,0.002c-0.001,0-0.003,0.001-0.003,0.001c-0.001,0.024-0.017,0.026-0.037,0.029
					c-0.101,0.013-0.204,0.02-0.306,0.015c-0.043-0.001-0.084,0.009-0.13,0.026c0.034,0.033,0.07,0.018,0.104,0.02h0.007
					l0.006,0.004c0.027,0.026,0.065,0.001,0.095,0.02C11.049,6.943,11,6.943,10.951,6.946c-0.005,0.001-0.007,0.001-0.012-0.002
					c-0.08-0.028-0.163-0.011-0.243-0.013c-0.017,0-0.018,0.018-0.009,0.029s0.021,0.021,0.032,0.031
					c0.004-0.001,0.005-0.002,0.008-0.005c0,0.002-0.002,0-0.002,0.002L10.72,6.991c-0.014,0.04-0.019,0.084-0.054,0.114
					c-0.007,0.006,0,0.019,0.008,0.026c-0.011,0.031-0.026,0.063,0.002,0.093c0.005,0.005,0.009,0.01,0.014,0.016l0.001-0.002
					c0.002,0,0.002,0,0.003,0c-0.003,0.001-0.003,0.001-0.004,0.002c0.002,0.01,0.015,0.009,0.019,0.016
					c0.002,0.003,0.002,0.004,0.002,0.005c0.013,0.018,0.025,0.031,0.045,0.036V7.296c0.012,0.024,0.04,0.023,0.06,0.034l0,0
					c0.005,0.007,0.012,0.014,0.021,0.015l0.006-0.002l0.002,0.005c0.024,0.028,0.058,0.03,0.091,0.032l0.004-0.004l0,0
					c-0.001,0.001-0.002,0.003-0.004,0.004c0.122,0.051,0.248,0.065,0.378,0.059c0.002-0.005-0.004-0.009-0.005-0.013l0,0
					c0.001,0.004,0.002,0.009,0.005,0.013l0.006-0.001l0.005,0.002c-0.012,0.025-0.047,0.006-0.061,0.03l0.003,0.005
					c-0.001,0-0.002,0-0.002,0c0-0.001,0-0.002-0.001-0.005c-0.054-0.002-0.106,0.014-0.159,0.026
					c-0.08,0.019-0.156,0.017-0.23-0.025c-0.01,0.01-0.022,0.002-0.031-0.002c-0.005-0.005-0.01-0.009-0.014-0.014
					c-0.005,0-0.01,0-0.015-0.001C10.81,7.45,10.805,7.445,10.8,7.44c-0.005,0-0.011,0-0.016,0l0.002-0.001
					c-0.006-0.005-0.011-0.009-0.017-0.014c-0.005-0.001-0.01-0.001-0.015,0V7.421c-0.008-0.002-0.013-0.009-0.02-0.011
					c-0.003,0.001-0.006,0.001-0.009,0c-0.009,0.001-0.023-0.004-0.021,0.011c0,0.011,0.01,0.015,0.02,0.018
					c0.005,0,0.01,0.001,0.015,0.003c-0.015,0.008-0.018,0.024-0.025,0.034h-0.001c-0.002,0,0,0.001-0.002,0.003
					c-0.007,0.01-0.021,0.012-0.022,0.031c-0.003,0.045-0.007,0.091-0.03,0.134c-0.013,0.025-0.002,0.044,0.015,0.061
					c0.002,0.013,0.005,0.024,0.017,0.03l0.005-0.005c0,0.001,0.001,0.001,0.002,0.002c-0.002,0-0.005,0.001-0.008,0.002
					c0,0.016,0.008,0.029,0.015,0.042c0.02,0,0.011-0.016,0.015-0.026v0.001c-0.007,0.007-0.009,0.018-0.015,0.025
					c-0.01,0-0.02,0.001-0.03,0.001c-0.023-0.001-0.044-0.005-0.066-0.004c-0.017,0.001-0.035-0.008-0.051-0.002
					c-0.025,0.01-0.009,0.019,0.009,0.022h-0.001l0.001,0.001c0-0.001,0.002,0,0.002-0.001c0.025,0.016,0.054,0,0.078,0.015
					c0.02,0.001,0.039,0.001,0.058,0.002c0.01,0.021,0.038,0.006,0.049,0.026c-0.025,0.012-0.056-0.006-0.079,0.016
					c-0.005,0-0.01,0.001-0.017,0.001c-0.005-0.003-0.01-0.003-0.014,0c-0.006,0-0.012,0-0.018,0.001
					c-0.06-0.034-0.112,0.006-0.167,0.015c-0.013,0.001-0.027,0.005-0.025,0.022c0,0.014,0.012,0.022,0.025,0.022
					c0.042,0.002,0.083,0.001,0.124,0.002c0.02,0,0.041,0.001,0.061,0.002c0.01,0.013,0.026,0.013,0.042,0.014
					c0.083,0.005,0.167,0.011,0.249,0.017c0.003-0.002,0.003-0.005,0.005-0.006c0,0,0.001,0.001,0.001,0.002
					c0.009,0.001,0.017,0.004,0.025,0.005c0.005,0.004,0.009,0,0.014-0.001c0,0.002,0.003,0,0.004,0.002
					c-0.006,0-0.011-0.001-0.018-0.001c0,0.001-0.002,0-0.002,0.001c-0.007-0.005-0.014-0.011-0.024-0.006
					c-0.002,0.001-0.003,0.002-0.006,0.004c-0.022,0.026-0.053,0.01-0.08,0.014c-0.034,0.006-0.071-0.011-0.102,0.014
					c-0.005,0-0.011,0-0.018,0c-0.018-0.009-0.038-0.005-0.058-0.004l0,0c-0.038-0.002-0.076-0.005-0.115-0.007
					c-0.003,0.001-0.006,0-0.01-0.001c-0.006,0.004-0.011,0.01-0.018,0.015l0,0c0,0-0.002,0.001-0.002,0.005
					c-0.002,0.004,0,0.008,0.003,0.01l0.002-0.001c-0.002,0.006-0.002,0.011-0.002,0.018c-0.005,0.005-0.009,0.011-0.015,0.015
					c0.01,0.019,0.029,0.016,0.046,0.016c0,0.005,0,0.01,0,0.015h-0.002c-0.007,0.011-0.009,0.021,0.005,0.03
					c0.015,0.001,0.029,0.002,0.044,0.003c0.013,0.022,0.021,0.046,0.042,0.063c0.024,0.017,0.031,0.004,0.034-0.019h0.008h0.007
					l0,0c0.015-0.004,0.029-0.009,0.042-0.013c0.013-0.002,0.03-0.002,0.03,0.014c0,0.061,0.045,0.055,0.084,0.061
					c0.023,0.002,0.054-0.01,0.061,0.026c-0.01,0.001-0.02,0.002-0.03,0.005c-0.045,0-0.09-0.001-0.135,0.001
					c-0.015,0.001-0.03,0.01-0.028,0.029c0.001,0.016,0.017,0.015,0.029,0.016c0.008,0,0.015,0.001,0.023,0.001
					c0.003,0.016-0.001,0.035,0.019,0.045c0.007-0.017,0.007-0.033-0.002-0.048c-0.002-0.003-0.006-0.002-0.009-0.001
					c0-0.001,0-0.001,0.001-0.001c0.001-0.001,0.001,0,0.002-0.001L10.8,8.277c0.004,0.001,0.009,0.001,0.014,0.003
					c-0.01,0.012-0.015,0.027-0.013,0.045c0.01,0,0.02,0.001,0.03,0.001c0.035,0.018,0.075-0.006,0.11,0.014
					c0.015,0,0.03,0.001,0.045,0.001c0.039,0.03,0.082,0.007,0.124,0.015c0.014,0.011,0.032,0.018,0.046,0.031l0,0
					c-0.005,0.01-0.01,0.019-0.015,0.029c-0.005,0.001-0.009,0.002-0.014,0.002c-0.033-0.001-0.068-0.006-0.064,0.044
					c-0.01,0-0.02-0.001-0.03-0.001l-0.003,0.005c-0.002,0.005,0.003,0.009,0.005,0.013h-0.002
					c-0.002-0.005-0.003-0.009-0.003-0.013H11.03c0.001-0.001,0.001-0.003,0.004-0.005c-0.03-0.015-0.068-0.036-0.09-0.026
					c-0.053,0.022-0.102,0.008-0.153,0.013c-0.014,0.001-0.03-0.018-0.048,0.004c0.037,0.037,0.081,0.027,0.124,0.027
					c0.01,0,0.018,0.001,0.028,0.002c0.025,0.015,0.055-0.002,0.08,0.013c0.015,0.002,0.03,0.003,0.045,0.005
					c0.039,0.024,0.083,0.006,0.123,0.013c0-0.001,0-0.001,0-0.003h0.001l-0.001,0.003c0.024,0.019,0.051,0.027,0.08,0.029
					c-0.002-0.004-0.002-0.009-0.002-0.014c0.001,0,0.002,0,0.002,0c-0.002,0.005-0.005,0.01,0.001,0.014
					c0.009,0.002,0.019,0.003,0.026,0.005c0,0.002,0.002,0.005,0.002,0.009c-0.031,0.001-0.063,0.001-0.094,0.002
					c-0.004-0.002-0.008-0.009-0.011-0.009c-0.085-0.005-0.171-0.009-0.257-0.013c0,0-0.001,0.005-0.003,0.014
					c0.051,0.013,0.099,0.029,0.152,0.023c0.004,0,0.008,0,0.011,0.002c0.044,0.027,0.093,0.009,0.14,0.015
					c0.015,0.001,0.03,0.003,0.045,0.005c0.002-0.002,0.002-0.006,0.002-0.009c0.001,0,0.002,0,0.002,0
					c0,0.003-0.002,0.006-0.005,0.009c-0.013,0.011-0.028,0.009-0.043,0.011c-0.029,0.006-0.03,0.022-0.02,0.045
					c0.008,0,0.015-0.001,0.021-0.002h0.006l0.005,0.002c0.066,0.033,0.066,0.033,0.063,0.107c-0.071-0.03-0.148-0.025-0.219-0.045
					c-0.01,0-0.02,0-0.03,0c0.006,0.01,0.011,0.02,0.017,0.03h0.007h0.005c0.01,0.002,0.021,0.003,0.03,0.007
					c0.018,0.01,0.05,0.006,0.047,0.04c-0.001,0.034-0.029,0.04-0.054,0.045c-0.03,0.006-0.059,0.014-0.086,0.031
					c-0.058,0.002-0.115,0.011-0.185,0.049c0.055,0,0.09,0,0.125,0c0.005,0.005,0.01,0.01,0.016,0.015
					c-0.001-0.005-0.001-0.01-0.001-0.015c0.002,0,0.002,0,0.005,0C10.941,8.92,10.936,8.924,10.94,8.93c0.005,0,0.01,0,0.015,0.001
					c0.024,0.015,0.034,0.047,0.074,0.036c0.023-0.006,0.018,0.024,0.019,0.039c-0.011,0.011-0.014,0.028,0.003,0.029
					c0.068,0,0.134,0.006,0.2-0.007l0,0c0.009,0.002,0.017,0.001,0.025-0.001c0,0,0.002,0,0.003,0l0,0
					c0.005-0.001,0.011-0.001,0.017-0.001c0.007,0.014,0.016,0.027,0.015,0.043c-0.01,0-0.02,0-0.03,0
					c-0.005,0.006-0.01,0.01-0.016,0.015c-0.102-0.006-0.199,0.025-0.299,0.018c-0.012-0.001-0.02,0.007-0.025,0.016V9.117
					c-0.033,0-0.065,0-0.098,0c-0.01,0-0.02,0.005-0.02,0.016c-0.002,0.01,0.005,0.02,0.015,0.022
					c0.009,0.004,0.019,0.004,0.027,0.005c0.02,0.003,0.04,0.004,0.059,0.005c0.006,0.003,0.012,0.007,0.019,0.011
					c0.005-0.002,0.01-0.006,0.014-0.009c-0.003-0.004-0.009-0.006-0.014-0.01c0.002-0.001,0.002,0,0.004-0.001
					c0.001,0.005,0,0.014,0.01,0.011c0.004,0.001,0.009,0.004,0.011,0.006c0.033,0.039,0.055,0.006,0.08-0.01
					c0.005-0.001,0.01-0.001,0.015-0.001c0.033,0.029,0.07,0.007,0.106,0.017l0,0c0.019,0.019,0.044,0.009,0.066,0.017
					c0.015,0.005,0.026,0.016,0.025,0.034c0,0.02-0.015,0.024-0.031,0.025c-0.051,0-0.103,0.001-0.154,0.001
					c-0.025,0-0.048,0-0.073,0c-0.005,0.003-0.013,0.002-0.018,0c-0.045-0.031-0.095-0.011-0.143-0.017
					c-0.002,0.001-0.007,0.001-0.01,0c-0.018,0.005-0.038-0.022-0.058,0.008c0.021,0.007,0.04,0.015,0.059,0.021
					c0.004,0,0.008,0.001,0.011,0.003c-0.001,0.015-0.007,0.02-0.025,0.019c-0.038-0.002-0.038,0-0.067,0.027
					c0.05-0.005,0.1,0.013,0.141-0.026c0.009-0.009,0.029-0.004,0.045-0.005c0.009-0.001,0.019-0.002,0.029-0.005
					c0.022,0.002,0.042,0.005,0.065,0.007c0.014,0.017,0.032,0.013,0.05,0.011l0.005-0.002l0.005,0.001
					c0.036,0.004,0.074,0.015,0.11,0c0.027,0.034,0.065,0.013,0.098,0.016h0.005c0.078,0.008,0.155-0.005,0.235,0.009
					c-0.025,0.042-0.035,0.049-0.058,0.051c-0.019,0.001-0.038,0.011-0.056,0.005l0.001,0.001c0,0,0,0-0.001,0h0.001
					C11.317,9.38,11.204,9.38,11.091,9.38c-0.015,0-0.029-0.001-0.042-0.002c0-0.005,0-0.009,0-0.014
					c-0.005,0.005-0.01,0.009-0.015,0.014c-0.005,0.001-0.01,0.002-0.015,0.002c-0.008,0.008-0.013,0.005-0.02,0
					c-0.01,0-0.019-0.001-0.029-0.001c-0.019-0.015-0.044,0.001-0.064-0.015c-0.005,0.001-0.01,0-0.014-0.002
					c-0.023-0.018-0.049-0.026-0.056,0.009c-0.008,0.027,0.024,0.022,0.042,0.024h-0.001c0.019,0.018,0.046,0,0.064,0.015h0.007
					l0.006,0.001c0.019,0.016,0.046,0,0.065,0.015h0.006l0.006,0.001c0.011,0.009,0.022,0.017,0.036,0.028
					c-0.019,0.003-0.032,0.002-0.047-0.002c-0.011-0.005-0.02-0.001-0.025,0.01c-0.004,0.011,0.005,0.018,0.015,0.021
					c0.006,0.003,0.015,0.003,0.023,0.005h-0.002c0.01,0.009,0.024,0.007,0.035,0.014c0.009,0.001,0.019,0.002,0.027,0.004
					c0.018,0.021,0.042,0.011,0.064,0.012c0.015,0.001,0.03,0.001,0.045,0.002c0.035,0.01,0.071,0.009,0.107,0
					c0.01,0,0.022,0,0.033-0.001c0.007,0.009,0.023,0.006,0.03,0.015c0.005,0.001,0.011,0.002,0.017,0.003
					c0.008,0.004,0.014-0.002,0.022-0.001c0.002,0.002-0.004,0.002-0.002,0.003c0.029-0.001,0.059,0.009,0.086-0.006l0.006-0.002
					l0.005,0.001c0.008-0.004,0.014-0.005,0.02,0c0.005,0.014,0.018,0.016,0.03,0.018c0.011,0.015,0.022,0.015,0.032,0
					c0.005-0.005,0.01-0.01,0.015-0.014c0.002-0.004,0.008-0.005,0.013-0.004c0.01,0.001,0.021,0.002,0.032,0.004l0.003-0.002l0,0
					c-0.002,0.001-0.003,0.001-0.003,0.002c0.025,0.022,0.055,0.011,0.085,0.011C11.725,9.544,11.712,9.54,11.7,9.536
					c0-0.002,0-0.003,0-0.006c0.009,0.014,0.025,0.011,0.038,0.019h0.003c0.022,0.004,0.044,0.007,0.066,0.009
					c0.038,0,0.078,0.003,0.11-0.025c0.114-0.001,0.228,0.015,0.343-0.023c0.049-0.016,0.106-0.029,0.165-0.009
					c0.035,0.012,0.086,0.019,0.099-0.041c-0.001-0.001-0.002-0.002-0.003-0.004l0,0l0.003,0.004
					c0.031-0.007,0.066,0.009,0.094-0.016c0.02-0.004,0.045,0.006,0.06-0.018c0.012-0.006,0.026-0.008,0.04-0.001
					c0.009,0,0.01-0.005,0.007-0.012l0,0c-0.003,0.005-0.005,0.008-0.007,0.012c0.023,0,0.05,0.01,0.067-0.014
					c-0.01,0-0.02-0.001-0.03-0.001c0.003-0.002,0.006,0,0.01-0.002c0.006,0.004,0.013,0.009,0.02,0.004
					c0.009-0.005,0.018-0.006,0.027-0.002c0.03,0.016,0.06,0.03,0.083-0.013l-0.002-0.002c0,0,0,0,0.001,0
					c0.001,0,0.001,0.001,0.001,0.002c0.08,0.008,0.142-0.054,0.218-0.061c0.031-0.006,0.065,0.01,0.094-0.015
					c-0.001-0.001-0.004-0.004-0.004-0.005l0,0l0.004,0.005c0.012-0.002,0.024-0.005,0.029-0.016l-0.003-0.005
					c0,0,0.001,0,0.003-0.001c0,0.002,0,0.005,0,0.006c0.058,0.001,0.111-0.01,0.157-0.046c-0.002-0.001-0.004-0.004-0.005-0.005
					l0,0l0.005,0.005c0.012-0.001,0.022-0.004,0.03-0.017l-0.003-0.002l0,0c0,0,0.002,0.001,0.003,0.002
					c0.017-0.001,0.035,0.003,0.045-0.016l0.004-0.004l0.005,0.003c0.017-0.01,0.039,0.001,0.053-0.018l-0.001,0.001
					c0.015-0.01,0.034,0.001,0.047-0.016l-0.001,0.001c0.095,0.011,0.166-0.04,0.237-0.089c0.017-0.004,0.034,0,0.044-0.018
					l-0.001-0.002c0.001,0,0.001,0,0.001,0s0,0.001,0,0.002c0.107-0.014,0.193-0.073,0.281-0.123
					c-0.001-0.001-0.003-0.004-0.006-0.006h0.001l0.005,0.006c0.012-0.002,0.024-0.005,0.029-0.017l-0.003-0.005
					c0,0,0.002,0,0.003-0.001c0,0.002,0,0.005,0,0.006c0.027-0.007,0.057-0.012,0.077-0.031L14.242,8.91h0.001
					c0.001,0.001,0.001,0.002,0.001,0.005c0.051-0.003,0.093-0.022,0.126-0.063l-0.003-0.004V8.848
					c0.001,0.001,0.003,0.004,0.003,0.005c0.041-0.021,0.087-0.031,0.125-0.061c-0.002-0.001-0.003-0.004-0.005-0.005l0,0
					l0.005,0.005c0.012-0.001,0.024-0.004,0.029-0.017l-0.002-0.003c0,0,0-0.001,0.001-0.001c0,0.001,0.001,0.004,0.001,0.005
					c0.038,0.002,0.061-0.016,0.078-0.046L14.6,8.725c0,0,0-0.001,0.002-0.001c0.001,0.001,0.001,0.002,0.001,0.005
					c0.056,0.001,0.08-0.042,0.108-0.077l-0.004-0.005V8.645c0.003,0.002,0.003,0.005,0.004,0.006
					c0.048-0.023,0.092-0.051,0.145-0.064c0.05-0.01,0.098-0.029,0.148-0.034c0.062-0.006,0.084-0.039,0.081-0.091
					C15.083,8.451,15.08,8.44,15.067,8.432z M10.601,7.894c0.005-0.001,0.009-0.001,0.01-0.006c0.002,0.003,0.003,0.005,0.004,0.005
					C10.611,7.899,10.606,7.894,10.601,7.894z M11.109,8.572L11.109,8.572h0.002l0,0H11.109z M15.034,8.463
					c-0.007,0.015-0.007,0.035-0.025,0.042C15,8.51,14.993,8.501,14.985,8.501C15.008,8.497,15.023,8.485,15.034,8.463z
					 M13.674,9.114c0,0,0.001,0,0.003-0.001c0.009,0.007,0.019,0.015,0.027,0.022l0,0C13.7,9.118,13.686,9.117,13.674,9.114z
					 M12.595,9.407c0.002-0.001,0.003-0.003,0.004-0.006c-0.001,0.003-0.002,0.005-0.001,0.008
					C12.597,9.408,12.595,9.407,12.595,9.407z M11.13,6.939c0,0.001,0.001,0.001,0.001,0.002c-0.002,0-0.005,0-0.007,0
					C11.127,6.939,11.129,6.942,11.13,6.939z M14.91,8.251C14.91,8.251,14.91,8.251,14.91,8.251L14.91,8.251z M12.275,9.459
					c-0.001,0-0.002,0.001-0.005,0.001c0.001-0.001,0.001-0.003,0.002-0.005l0,0L12.275,9.459z M11.327,8.557
					c-0.001,0-0.003,0-0.003,0l0,0H11.327L11.327,8.557z M11.002,7.876c-0.001-0.001-0.001-0.001-0.001-0.002
					C11,7.873,11,7.873,10.999,7.873c0.003,0,0.003,0.001,0.003,0.001C11.002,7.875,11.002,7.875,11.002,7.876
					c0.001,0.001,0.003,0.004,0.005,0.004c-0.002,0-0.002,0.002-0.002,0.002C11.005,7.88,11.004,7.879,11.002,7.876z M10.755,7.723
					c0,0-0.001,0-0.001-0.001c0.001,0,0.001-0.001,0.001-0.002c0.006,0.001,0.014,0.003,0.019,0.005
					C10.768,7.724,10.761,7.715,10.755,7.723z M11.529,9.269c0,0-0.001,0-0.002,0l0,0C11.528,9.269,11.529,9.269,11.529,9.269
					L11.529,9.269z M11.377,9.175c-0.002-0.001-0.004-0.001-0.005-0.002V9.172C11.375,9.173,11.377,9.174,11.377,9.175
					c0.001,0.001,0,0.001,0,0.002C11.377,9.177,11.377,9.177,11.377,9.175z M11.048,8.029c0,0.004,0,0.009,0,0.013v0.001
					c0.002-0.005-0.002-0.009-0.004-0.012C11.046,8.029,11.046,8.029,11.048,8.029z M11.529,6.928
					C11.529,6.928,11.529,6.927,11.529,6.928V6.93V6.928c-0.002,0.001-0.001,0.002-0.002,0.004c0-0.002,0.001-0.004,0-0.006
					C11.527,6.922,11.528,6.923,11.529,6.928L11.529,6.928L11.529,6.928z M11.781,7c-0.015,0.004-0.032,0.006-0.039-0.005
					c-0.006-0.007,0.005-0.009,0.01-0.013C11.76,6.992,11.769,7,11.781,7z M12.628,6.717c0.002-0.001,0.005-0.002,0.002-0.005
					c-0.003-0.008,0.005,0.002,0.001,0.005C12.63,6.717,12.629,6.717,12.628,6.717z M11.777,8.711
					c0.001,0.001,0.003,0.001,0.005,0.002c-0.002,0,0.003,0.002,0,0.002C11.78,8.715,11.778,8.712,11.777,8.711L11.777,8.711z
					 M11.412,7.735h0.002c-0.002,0.002-0.003,0.005-0.004,0.007C11.411,7.74,11.411,7.738,11.412,7.735z M11.462,7.655
					c0-0.001,0.001-0.001,0.003-0.002C11.464,7.654,11.462,7.654,11.462,7.655z M11.404,7.71c0-0.001,0-0.001,0-0.001
					c0.002-0.001-0.002-0.004,0-0.005C11.404,7.705,11.404,7.708,11.404,7.71z M11.399,7.925c-0.002,0.001-0.002,0.002-0.002,0.004
					c-0.001-0.001,0-0.001-0.001-0.002C11.399,7.927,11.397,7.925,11.399,7.925z M11.453,7.925c0.002,0,0.004,0,0.006-0.001
					c-0.003,0.001-0.005,0.002-0.008,0.003C11.452,7.927,11.455,7.927,11.453,7.925z M11.483,7.92
					c0.002,0.001,0.002,0.002,0.003,0.002C11.484,7.922,11.484,7.922,11.483,7.92L11.483,7.92z M11.184,8.091
					c-0.003,0,0,0.001-0.002,0.001c-0.003,0-0.003-0.002-0.008-0.002C11.178,8.089,11.18,8.091,11.184,8.091z M13.219,6.868
					c0.001,0,0.002,0,0.002,0s0-0.001,0.002,0C13.221,6.868,13.221,6.868,13.219,6.868z M13.739,6.832c0,0,0,0,0-0.001
					c0,0.001,0.001,0,0.002,0.001C13.74,6.832,13.739,6.832,13.739,6.832z M13.446,6.69c0.006,0.014,0.018,0.025,0.023,0.04
					c-0.001,0-0.003,0-0.003,0C13.468,6.713,13.461,6.699,13.446,6.69L13.446,6.69z M12.952,7.115c0,0.014-0.006,0.025,0.001,0.041
					c-0.018-0.006-0.027-0.01-0.038-0.015C12.935,7.144,12.95,7.137,12.952,7.115z M11.856,8.914L11.856,8.914h-0.001H11.856z
					 M11.78,8.78c-0.003-0.001-0.003,0.001-0.003,0.002c0-0.001,0-0.001,0-0.001S11.778,8.779,11.78,8.78z M11.701,9.163
					c0.001,0,0.001,0,0.001,0C11.702,9.164,11.701,9.164,11.701,9.163C11.701,9.164,11.701,9.164,11.701,9.163z M11.825,9.132
					c0.005-0.008,0.002-0.017,0.005-0.024c0.002,0.007-0.003,0.016,0,0.024C11.829,9.132,11.826,9.132,11.825,9.132z M11.7,9.175
					v0.001l0,0V9.175z M11.807,9.21c-0.012,0-0.026,0.01-0.04,0.015c0.015-0.001,0.028-0.006,0.038-0.019
					C11.805,9.208,11.807,9.209,11.807,9.21z M12.55,9.24c-0.009-0.003-0.018,0.001-0.026,0l0,0C12.533,9.24,12.542,9.24,12.55,9.24
					L12.55,9.24z M12.15,9.332c-0.002,0-0.003,0.002-0.005,0.002c0.001-0.002,0.004-0.004,0.005-0.006
					C12.15,9.329,12.15,9.331,12.15,9.332z M12.102,9.209L12.102,9.209L12.102,9.209L12.102,9.209
					C12.102,9.208,12.102,9.208,12.102,9.209z M12.039,9.242c0.001,0,0.004,0,0.004,0V9.24c0,0,0.001,0,0.002-0.001
					c-0.001,0.001-0.001,0.002-0.002,0.002c-0.001,0.001-0.004,0.001-0.005,0.001C12.038,9.242,12.039,9.243,12.039,9.242z
					 M12.15,9.315L12.15,9.315c0,0,0,0-0.001,0C12.15,9.315,12.15,9.315,12.15,9.315z M12.856,7.152c0,0.003,0.004,0.006,0.001,0.01
					c-0.009-0.001-0.009-0.003-0.015-0.005C12.847,7.156,12.851,7.155,12.856,7.152z M12.232,9.183
					c-0.001-0.001-0.002,0-0.003-0.001c0.001,0,0.003-0.001,0.006-0.001C12.235,9.182,12.232,9.182,12.232,9.183z M11.371,8.92
					c0.001,0.001-0.006,0.005-0.01,0.007l0,0l0,0C11.364,8.925,11.372,8.921,11.371,8.92z M11.616,9.195
					C11.616,9.195,11.616,9.195,11.616,9.195c0.062,0.001,0.122,0.014,0.183,0.004C11.8,9.199,11.8,9.2,11.8,9.202
					C11.74,9.19,11.677,9.189,11.616,9.195z M11.95,9.347h0.001c-0.004,0-0.006,0-0.01,0c0.002,0,0.002,0,0.003-0.001
					C11.946,9.347,11.949,9.346,11.95,9.347z M12.997,7.344c-0.002,0.006,0.001,0.012,0.001,0.019
					C12.998,7.356,12.996,7.35,12.997,7.344z M13.552,6.655c0.003,0.001,0.007,0.001,0.01,0.005c-0.001,0-0.003,0-0.003,0
					C13.558,6.657,13.554,6.658,13.552,6.655z M12.425,7.126c-0.005-0.004-0.013,0.005-0.018-0.002
					c0.005-0.004,0.007-0.006,0.01-0.008c0.001-0.001,0.002-0.002,0.005-0.003C12.423,7.119,12.424,7.121,12.425,7.126z
					 M11.124,7.58h0.002c0,0,0,0,0,0.001C11.125,7.58,11.124,7.58,11.124,7.58z M11.125,7.58L11.125,7.58c-0.002,0-0.002,0-0.002,0
					c0-0.001-0.002-0.001-0.002-0.002C11.123,7.579,11.124,7.579,11.125,7.58z M11.014,8.156c0.001,0,0.001,0.001,0.002,0.001
					C11.015,8.157,11.014,8.157,11.014,8.156L11.014,8.156z M11.2,8.172c0,0,0,0,0,0.001C11.199,8.172,11.2,8.172,11.2,8.172
					L11.2,8.172z M11.343,8.914c0,0.001,0,0.002,0,0.003c-0.003-0.003-0.006-0.002-0.01-0.003
					C11.337,8.914,11.339,8.914,11.343,8.914z M11.343,8.926c0,0.001,0,0.002,0,0.004c-0.001,0-0.001,0-0.003,0
					C11.342,8.929,11.342,8.928,11.343,8.926z M11.685,9.255c0.004,0.008,0.007,0.015,0.01,0.022v0.001
					c0.002-0.013-0.005-0.019-0.013-0.024C11.683,9.255,11.685,9.255,11.685,9.255z M12.428,9.383L12.428,9.383
					c0,0.001,0,0.002,0,0.003l0,0C12.428,9.386,12.428,9.384,12.428,9.383z M13.611,6.926c0.003-0.004,0.003-0.007,0.001-0.011
					c0.004-0.001,0.009,0,0.012-0.001C13.62,6.917,13.616,6.921,13.611,6.926z M11.572,7.076c-0.005-0.005-0.001-0.008,0-0.015
					c0.004,0.002,0.008,0.003,0.013,0.002C11.581,7.067,11.577,7.072,11.572,7.076z M10.814,7.734
					c0.002,0.005,0.007,0.01,0.009,0.017c0.001,0.002-0.002,0.002-0.003,0.003c0,0.001,0.001,0.001,0.001,0.002
					c0,0.008-0.004,0.01-0.005,0.005c0-0.001,0.002-0.005,0.003-0.008c0.001-0.009-0.003-0.014-0.009-0.02
					C10.811,7.734,10.813,7.734,10.814,7.734z M10.863,7.813c0.001,0,0.001,0,0.001-0.001c0.004-0.001,0.007-0.004,0.01-0.005
					c-0.003,0.002-0.005,0.004-0.008,0.007C10.865,7.814,10.864,7.814,10.863,7.813z M11.111,8.232v0.001V8.232L11.111,8.232z
					 M11.335,8.378c0.002,0.004,0.007,0.002,0.008,0.006c-0.003,0-0.003,0-0.006,0C11.337,8.381,11.335,8.381,11.335,8.378z
					 M11.406,8.541c-0.003,0-0.004,0-0.006,0c-0.002-0.013-0.011-0.013-0.021-0.013C11.388,8.531,11.399,8.53,11.406,8.541z
					 M11.497,9.021c0,0-0.002,0.001-0.004,0.001c0.001-0.001,0.001-0.001,0.002-0.002C11.496,9.021,11.497,9.021,11.497,9.021z
					 M11.512,9.084c0,0-0.002,0-0.003,0.001c0-0.004-0.004-0.004-0.004-0.006C11.507,9.082,11.511,9.08,11.512,9.084z M11.375,9.106
					c0-0.001,0-0.002,0-0.003l0,0C11.375,9.104,11.375,9.105,11.375,9.106z M14.06,6.99C14.06,6.99,14.06,6.99,14.06,6.99
					C14.06,6.991,14.06,6.991,14.06,6.99C14.058,6.991,14.06,6.991,14.06,6.99c-0.003,0-0.009,0.006-0.012,0.01l0,0
					c-0.001,0-0.001,0.002-0.004,0.002C14.053,7.002,14.055,6.995,14.06,6.99z M14.149,7.107c0.004-0.005,0.01,0,0.015,0
					c-0.005,0.002-0.009,0.007-0.011,0.012C14.152,7.116,14.144,7.112,14.149,7.107z M14.577,8.522c0,0.001-0.002,0.001-0.002,0.002
					c-0.002,0-0.004,0-0.005,0C14.572,8.523,14.575,8.523,14.577,8.522z M14.571,8.448c0,0,0.001-0.001,0.001-0.002
					c0.001,0.001,0.003,0,0.005,0.001C14.575,8.447,14.572,8.447,14.571,8.448z M14.372,8.697
					C14.372,8.697,14.372,8.697,14.372,8.697c0,0.001,0,0.001-0.001,0.003C14.371,8.699,14.372,8.699,14.372,8.697z M14.652,8.153
					c0.003-0.002,0.003-0.006,0.005-0.009C14.655,8.147,14.655,8.151,14.652,8.153z M14.018,8.919
					c0.002-0.001,0.002-0.004,0.002-0.005c0,0.001,0.001,0.001,0,0.002C14.019,8.917,14.019,8.917,14.018,8.919z M14.716,8.128
					c-0.014-0.002-0.028,0.003-0.041-0.008c0-0.001-0.001,0-0.002,0c0-0.001,0,0,0,0c0-0.001,0-0.001,0-0.001
					C14.685,8.127,14.7,8.129,14.716,8.128z M14.323,7.549c0.001-0.001,0-0.004,0.001-0.005c0-0.001,0-0.002,0.002-0.004
					C14.323,7.542,14.324,7.545,14.323,7.549z M12.721,6.652c-0.002-0.002-0.004-0.002-0.005-0.005
					c0.004,0.001,0.008,0.002,0.013,0.003C12.726,6.652,12.723,6.65,12.721,6.652z M12.14,7.042c0-0.009,0.004-0.012,0.009-0.016
					c0.001,0.002,0.003,0.004,0.006,0.006C12.148,7.032,12.148,7.041,12.14,7.042z M11.404,6.834
					c-0.002,0.001-0.002,0.004-0.005,0.004c-0.002,0-0.002,0-0.002-0.001C11.399,6.835,11.404,6.843,11.404,6.834L11.404,6.834z
					 M11.279,6.878L11.279,6.878L11.279,6.878L11.279,6.878L11.279,6.878z M11.287,6.888c0.011,0.006,0.02,0,0.03-0.006
					c0.002,0,0.003,0.002,0.005,0c-0.003,0.002-0.005,0.005-0.007,0.008c-0.01,0.002-0.019,0.002-0.028,0V6.888
					c-0.002-0.001-0.004,0.002-0.005,0.001c-0.004-0.002-0.002-0.005-0.002-0.009c0.001,0.001,0.001,0,0.002,0
					C11.282,6.884,11.283,6.887,11.287,6.888z M11.097,7.14c-0.009-0.01-0.037-0.016-0.059-0.022c0.002,0,0.002,0,0.004,0
					c0.023-0.004,0.042,0.002,0.056,0.018C11.099,7.137,11.095,7.137,11.097,7.14z M11.428,7.016c0,0.001,0,0.003,0.001,0.004
					c0,0.001,0.002,0.001,0.002,0.004c-0.002,0.01-0.011,0.012-0.021,0.012C11.419,7.032,11.427,7.028,11.428,7.016z M10.939,7.843
					c0-0.002,0.002-0.002,0.002-0.005C10.944,7.84,10.939,7.84,10.939,7.843L10.939,7.843z M11.026,8.008
					c0.002,0.003,0.006,0.003,0.008,0.005c-0.003,0-0.005,0-0.009,0C11.026,8.012,11.025,8.011,11.026,8.008z M10.769,8.021
					c0.001-0.001,0.004-0.001,0.005-0.005c0.002,0,0.005,0,0.007,0.001C10.779,8.021,10.773,8.02,10.769,8.021z M10.988,8.168h0.001
					c-0.001,0.001-0.002,0.001-0.002,0.001l0,0L10.988,8.168z M11.074,8.207L11.074,8.207L11.074,8.207L11.074,8.207z M11.157,8.318
					c0.001,0.001,0,0.002,0.002,0.002l0,0C11.159,8.321,11.157,8.32,11.157,8.318L11.157,8.318z M11.258,8.401
					c0.002,0.005,0.005,0.01,0.008,0.016c-0.003,0-0.005,0-0.008,0C11.262,8.412,11.26,8.406,11.258,8.401z M11.357,8.53
					c0.001-0.004,0.003-0.006,0.005-0.009h0.001C11.36,8.525,11.358,8.526,11.357,8.53c0.001,0.004,0.002,0.007,0.002,0.011
					c-0.002,0-0.002,0-0.005,0c0.002-0.004,0.002-0.007,0.001-0.011C11.356,8.53,11.356,8.53,11.357,8.53z M11.931,9.506
					C11.932,9.506,11.932,9.506,11.931,9.506c0.001,0.001,0.001,0.002,0.001,0.003c0,0,0,0.001,0,0.003
					C11.932,9.509,11.932,9.507,11.931,9.506z M14.354,8.821v0.001c0.003-0.002,0.005-0.001,0.008-0.002
					c0.004,0.002,0.008,0.001,0.013,0.001v0.001c-0.008,0-0.014,0-0.021,0c0,0-0.001,0-0.002,0
					C14.354,8.823,14.354,8.821,14.354,8.821z M14.589,8.639C14.59,8.639,14.59,8.639,14.589,8.639c0.004-0.001,0.002,0,0.004,0
					h0.002c0,0,0.003-0.001-0.002,0.004c-0.002-0.002-0.004-0.001-0.006-0.002C14.587,8.639,14.587,8.639,14.589,8.639z
					 M14.483,7.562c-0.001,0.001,0.003,0.002,0.001,0.005c-0.001-0.002-0.005-0.004-0.005-0.006
					C14.481,7.56,14.482,7.56,14.483,7.562z M13.904,6.663c-0.01-0.016-0.029-0.005-0.043-0.011
					c0.013,0.005,0.025,0.005,0.038,0.001C13.899,6.658,13.904,6.659,13.904,6.663z M12.95,6.613c-0.005,0-0.009,0.006-0.011,0.009
					c-0.004-0.003-0.01,0.001-0.013-0.005C12.933,6.614,12.941,6.613,12.95,6.613z M11.775,6.663
					c-0.005,0.002-0.003,0.007-0.005,0.011c-0.001-0.006-0.007-0.001-0.007-0.011C11.767,6.663,11.771,6.663,11.775,6.663z
					 M11.444,6.755c-0.002,0.001-0.004,0.004-0.006,0.006C11.442,6.759,11.442,6.757,11.444,6.755z M10.771,6.956
					c0,0.001-0.001,0.001-0.002,0.001V6.956C10.77,6.956,10.771,6.956,10.771,6.956z M10.711,7.699
					c-0.005-0.011,0.003-0.019,0.003-0.029c0.005,0.019,0.005,0.04,0.03,0.043C10.731,7.715,10.719,7.719,10.711,7.699z
					 M10.769,7.811C10.769,7.812,10.769,7.812,10.769,7.811L10.769,7.811C10.769,7.812,10.769,7.812,10.769,7.811z M10.8,7.843
					c0.005,0.002,0,0.006,0.002,0.009c-0.002-0.002-0.002-0.005-0.005-0.009C10.796,7.843,10.799,7.844,10.8,7.843z M10.789,7.919
					c0.001-0.003,0.001-0.004,0.002-0.006c0.004,0.002,0.01,0.001,0.01,0.006C10.797,7.92,10.792,7.919,10.789,7.919z M10.941,7.942
					c-0.001-0.002-0.002-0.004-0.004-0.006c0.002,0,0.002,0.001,0.002,0.001l0.002-0.002l0,0c0,0.001-0.001,0.001-0.002,0.002
					C10.94,7.938,10.94,7.94,10.941,7.942z M10.946,7.983c0.005-0.002,0.01-0.006,0.013-0.011
					C10.955,7.976,10.954,7.983,10.946,7.983z M11.452,8.607c-0.005,0.001-0.009,0.002-0.012,0.004c0-0.001,0.001-0.003,0.001-0.005
					C11.444,8.607,11.448,8.606,11.452,8.607z M11.359,9.084c-0.002,0-0.002,0-0.002,0c0.001,0,0.001,0,0.001,0H11.359z
					 M11.011,9.133c0.005,0,0.008,0.002,0.013,0.002c-0.015-0.001-0.027,0.002-0.04,0.006C10.994,9.139,11.002,9.133,11.011,9.133z
					 M11.12,9.159c0-0.002-0.001-0.002-0.001-0.005c0.003,0.002,0.005,0.002,0.007,0.005C11.124,9.159,11.122,9.159,11.12,9.159z
					 M11.053,9.398L11.053,9.398L11.053,9.398L11.053,9.398z M11.407,9.533c0.002-0.004,0.002-0.006,0.005-0.01
					c0.003,0,0.003,0,0.005,0c-0.002,0.003-0.005,0.006-0.002,0.01C11.412,9.533,11.409,9.533,11.407,9.533z M11.652,9.522
					c-0.003,0-0.005,0-0.009,0c0.005-0.002,0.009-0.005,0.01-0.01C11.652,9.515,11.652,9.518,11.652,9.522c0,0,0,0,0,0.001
					C11.652,9.522,11.652,9.522,11.652,9.522z M13.111,9.331L13.111,9.331c0.001-0.004,0.002-0.007,0.002-0.013c0,0,0,0,0.001,0
					C13.112,9.322,13.108,9.326,13.111,9.331z M13.424,9.228c0-0.001,0-0.002,0-0.004C13.424,9.226,13.424,9.227,13.424,9.228
					L13.424,9.228z M13.704,9.135L13.704,9.135L13.704,9.135L13.704,9.135L13.704,9.135z M14.996,8.521
					c0.016-0.002,0.024-0.014,0.035-0.022c-0.009,0.009-0.014,0.022-0.026,0.021C15.003,8.52,15,8.521,14.996,8.521z"/>
			</g>
	</g>
</svg>
