<?xml version="1.0" encoding="utf-8"?>
<svg xmlns="http://www.w3.org/2000/svg" viewBox="17.964 10.068 4.174 4.65">
	<g>
			<g>
				<path style="fill-rule:evenodd;clip-rule:evenodd;" d="M22.106,14.142c0.001-0.003,0-0.006-0.003-0.008
					c0-0.004-0.001-0.008,0-0.01c-0.004-0.006-0.008-0.01-0.012-0.014l-0.001-0.002c-0.004-0.004-0.007-0.006-0.011-0.011l0,0
					c-0.004-0.004-0.008-0.007-0.012-0.011c-0.001-0.004-0.001-0.008-0.001-0.012c-0.004-0.005-0.008-0.009-0.012-0.013h-0.001
					c-0.003-0.005-0.006-0.007-0.01-0.013c0-0.004-0.001-0.008-0.001-0.012c-0.004-0.003-0.008-0.008-0.011-0.012
					c-0.001-0.004-0.002-0.008-0.002-0.012c-0.004-0.004-0.008-0.008-0.012-0.012c-0.004-0.006-0.008-0.01-0.011-0.013
					c-0.009-0.007-0.007-0.017-0.013-0.024c0-0.022-0.001-0.039-0.026-0.047l0.001,0.001c-0.002-0.007-0.007-0.01-0.011-0.014l0,0
					c-0.003-0.003-0.007-0.003-0.011-0.003h0.002c0.002,0,0.006,0.002,0.009,0.003c0-0.011-0.003-0.019-0.012-0.024
					c0,0-0.002,0.002-0.002,0.003v-0.001l0.002-0.002c-0.004-0.004-0.008-0.008-0.011-0.012h-0.002l0,0h0.002
					c-0.002-0.01-0.004-0.019-0.013-0.023h-0.001h-0.002c0.002,0,0.002,0,0.003,0c-0.001-0.011-0.004-0.02-0.012-0.025
					c-0.001-0.017-0.009-0.027-0.023-0.035c-0.003-0.002-0.004-0.006-0.003-0.009c-0.024-0.061-0.029-0.133-0.081-0.183
					c-0.001-0.002-0.002-0.006-0.002-0.01c0.008-0.008,0.019-0.016,0.025-0.024c0.013-0.015,0.015-0.028-0.003-0.039
					c0-0.004,0-0.007,0.001-0.01c-0.009-0.011,0-0.027-0.012-0.038l0,0c-0.006-0.005-0.005-0.017-0.01-0.024
					c-0.002-0.002-0.002-0.004-0.002-0.008c-0.004-0.014-0.013-0.021-0.024-0.027c-0.004,0-0.008,0-0.01,0.003
					c0-0.001-0.001-0.003-0.001-0.003l0,0c-0.003-0.003-0.008-0.003-0.011-0.003l0,0c0.003,0.003,0.007,0.003,0.011,0.003
					c0,0-0.002,0,0,0l0,0c0.003,0,0.007,0,0.011,0c0.001-0.014-0.004-0.033,0.01-0.045c0.017-0.015,0.008-0.028,0.002-0.042
					c-0.012-0.024-0.022-0.046-0.034-0.068l-0.004,0.002c0-0.001,0-0.001,0-0.002c0.002,0,0.003,0,0.004,0
					c0-0.021-0.002-0.041-0.01-0.059c-0.003-0.008-0.001-0.018,0.008-0.02c0.01-0.005,0.018-0.003,0.023,0.009
					c0.006,0.014,0.01,0.037,0.03,0.025c0.015-0.007,0.01-0.029,0.003-0.045c-0.005-0.014-0.005-0.031-0.019-0.042
					c-0.009,0.003-0.016,0.001-0.024,0c-0.016-0.007-0.009-0.028-0.024-0.036c-0.001,0.001-0.002,0.001-0.002,0.002
					c0-0.001,0-0.001,0-0.001l0.002-0.001c0-0.019,0-0.04,0-0.061c0.008,0,0.017-0.014,0.024,0c0.007,0.006,0.005,0.018,0.012,0.023
					h-0.001c0.005,0.004,0.009,0.003,0.013,0c0.004-0.004,0.009-0.007,0.013-0.011c0.004-0.005,0.007-0.009,0.013-0.013
					c0.006-0.008,0.006-0.016,0-0.023c-0.002-0.008-0.002-0.015-0.002-0.024c-0.004-0.003-0.007-0.007-0.011-0.012l-0.003,0.001
					c0,0,0,0,0-0.001c0.002,0,0.002,0,0.003,0c-0.001-0.014,0.001-0.026-0.012-0.037l-0.002,0.001l0,0c0.001,0,0.001,0,0.002-0.001
					c-0.002-0.034-0.001-0.066-0.011-0.099c-0.04-0.126-0.075-0.253-0.076-0.385c0-0.019-0.007-0.04-0.021-0.054
					c0,0-0.001,0-0.001,0.001v-0.001h0.001c-0.004-0.021,0.007-0.044-0.012-0.06l-0.002,0.001c0,0,0.001,0,0-0.001
					c0.001,0,0.001,0,0.002,0c0.004-0.012,0.012-0.02,0.022-0.024c0.002,0,0.002-0.002,0.002-0.002l0,0l-0.002,0.002
					c0.004,0.004,0.008,0.009,0.012,0.012c0.001,0.028,0,0.055,0.018,0.079c0.007,0.01,0.016,0.016,0.03,0.014
					c0.012-0.002,0.021-0.011,0.023-0.023c0.002-0.015,0.001-0.031,0.001-0.047c0,0-0.001-0.001-0.002-0.004
					c-0.002-0.001,0-0.005,0.002-0.007c0.005-0.005,0.009-0.009,0.013-0.013c-0.014-0.019-0.009-0.047-0.034-0.06
					c-0.001-0.004-0.001-0.007-0.002-0.011c-0.003-0.022-0.012-0.039-0.038-0.029c-0.027,0.01-0.041-0.007-0.04-0.027
					c0.003-0.018,0.021-0.033,0.03-0.05c0.009-0.014,0.022-0.014,0.036-0.014l0,0l0,0l0,0c0.007,0.009,0.016,0.012,0.025,0.011
					c0.009,0,0.022,0.005,0.023-0.006c0.003-0.015-0.014-0.015-0.024-0.018c-0.004-0.003-0.008-0.007-0.012-0.011
					c-0.017-0.02-0.04-0.009-0.062-0.011c-0.004,0-0.007,0-0.011,0l0,0l0,0l0,0c-0.004-0.005-0.008-0.009-0.012-0.013
					c-0.001,0.004-0.001,0.008-0.001,0.013l0,0l0,0c-0.001-0.001-0.001-0.004-0.003-0.004c0.002-0.002,0.004-0.005,0.004-0.009
					c-0.005-0.011-0.014-0.018-0.023-0.025l-0.003,0.002h-0.001c0.001-0.001,0.003-0.001,0.004-0.002
					c0.009-0.032-0.004-0.066-0.001-0.099c0.001-0.019-0.002-0.039,0.024-0.046c0.024-0.007,0.025-0.029,0.022-0.049
					c-0.002-0.015-0.007-0.03-0.011-0.045c-0.001-0.005-0.001-0.008,0-0.013c0.021-0.009,0.024-0.027,0.023-0.049
					c-0.001-0.027,0-0.055-0.001-0.083l0,0c0.015-0.002,0.031,0.008,0.049-0.001c-0.005-0.034,0.013-0.073-0.013-0.106
					c-0.003-0.002-0.003-0.005,0-0.009c0-0.014,0.001-0.026,0.001-0.039c-0.004-0.003-0.007-0.007-0.013-0.011
					c-0.002-0.003-0.005-0.006-0.008-0.009c-0.003-0.005-0.004-0.01-0.007-0.014c-0.002-0.029-0.019-0.05-0.032-0.074
					c-0.008-0.007-0.008-0.016,0-0.024c0.018-0.01,0.035-0.023,0.035-0.049c0.01-0.005,0.012-0.014,0.012-0.024
					c0-0.01-0.001-0.017-0.011-0.022c-0.001-0.005-0.001-0.009-0.001-0.013c0-0.03,0.002-0.06,0-0.09
					c-0.002-0.034,0-0.068,0.019-0.096c0.025-0.038,0.021-0.076,0.011-0.114c-0.005-0.023-0.007-0.044-0.001-0.065
					c0.016-0.051-0.002-0.093-0.04-0.127c-0.004-0.004-0.009-0.007-0.013-0.013c-0.035-0.025-0.063-0.059-0.077-0.1
					c-0.01-0.026-0.023-0.045-0.047-0.058c-0.025-0.015-0.042-0.035-0.033-0.067c0.001-0.004-0.007-0.01-0.009-0.014
					c-0.004-0.005-0.009-0.008-0.013-0.013c-0.014-0.007-0.001-0.015,0-0.023c0.005-0.004,0.004-0.009-0.001-0.013l0.002,0.002
					c-0.001,0.004-0.001,0.006-0.001,0.01c0.004-0.004,0.008-0.008,0.013-0.013c0.037-0.056,0.032-0.07-0.023-0.083
					c-0.002,0-0.002,0-0.003,0.001l0,0l0.003-0.001c-0.004-0.005-0.008-0.009-0.013-0.013l-0.002,0.001c-0.001,0,0,0-0.001-0.001
					c0.001,0,0.003,0,0.003,0c-0.002-0.014,0.001-0.027-0.013-0.036l-0.003,0.002l0,0c0.002-0.001,0.003-0.002,0.003-0.002
					c-0.013-0.04-0.046-0.034-0.077-0.035c-0.047-0.005-0.057-0.015-0.048-0.06c0.006-0.029,0-0.042-0.027-0.047
					c-0.037-0.008-0.074-0.017-0.11-0.026c0,0.002,0,0.002-0.001,0.004l0,0l0.001-0.004c-0.008-0.014-0.019-0.021-0.036-0.023
					c0,0.001-0.002,0.003-0.003,0.004v-0.002l0.003-0.003c-0.005-0.01-0.014-0.011-0.022-0.013c-0.03-0.039-0.058-0.003-0.087,0.001
					c0.002,0,0,0,0,0c-0.045-0.015-0.093-0.025-0.141-0.022c-0.006,0-0.009,0.007-0.015,0.01c0.052,0.013,0.104,0.011,0.155,0.013
					l0,0l0,0c0.002,0.005,0.002,0.007,0.002,0.01c0,0-0.002,0-0.003,0c0.001-0.002,0.004-0.005,0.001-0.01
					c-0.051-0.006-0.103-0.017-0.155-0.013l-0.005,0.002l-0.004-0.002c-0.014,0.006-0.027,0.004-0.04-0.002
					c-0.003-0.003-0.007-0.006-0.011-0.009c-0.004,0.004-0.008,0.007-0.012,0.011l-0.006,0.002h-0.005
					c-0.014-0.019-0.032-0.018-0.049-0.011c-0.034,0.013-0.066,0.008-0.101,0.009c-0.029,0-0.059,0-0.09,0
					c-0.01,0-0.021,0.002-0.019,0.016c0.001,0.012,0.011,0.015,0.021,0.019c0.003,0,0.007,0.001,0.009,0.001
					c0.011,0.014,0.025,0.01,0.039,0.013c0.01,0.002,0.019,0.005,0.019,0.019c-0.001,0.011-0.011,0.016-0.021,0.016
					c-0.049-0.002-0.1,0.004-0.149-0.004c-0.034-0.005-0.066,0.002-0.108,0.018c0.107,0.007,0.2,0.013,0.292,0.01
					c0.022,0.021,0.051,0.008,0.074,0.012c0.015,0.003,0.034-0.007,0.041,0.018c-0.031,0.006-0.061,0.009-0.093,0.007
					c-0.088,0-0.177-0.007-0.266,0.008c-0.063,0.009-0.126,0.018-0.189,0.016c-0.04-0.001-0.077-0.015-0.117-0.014
					c-0.007-0.006-0.018-0.004-0.024-0.011c-0.105,0.012-0.21,0.025-0.315,0.038h-0.005c-0.009-0.002-0.018-0.002-0.026-0.002
					c-0.009-0.007-0.016-0.007-0.023,0c-0.07,0.002-0.135-0.012-0.199-0.045c-0.005-0.016,0.011-0.038-0.003-0.054
					c-0.002-0.002,0.001-0.004,0-0.005c0-0.001-0.003-0.002-0.004-0.003l0.001,0.002c0,0-0.001,0-0.001-0.001c0,0,0,0,0-0.001v0.001
					c-0.002-0.006-0.004-0.011-0.011-0.014c-0.003,0-0.007,0-0.012,0c-0.012-0.009-0.023-0.007-0.035-0.001
					c-0.004,0-0.008,0-0.013,0c-0.004-0.004-0.008-0.008-0.012-0.01c0,0.002,0,0.006,0,0.01l0,0c0.002-0.004,0.004-0.008,0-0.01
					c-0.028,0.002-0.056-0.005-0.083-0.013c-0.004-0.005-0.008-0.005-0.013,0c-0.008-0.005-0.016-0.008-0.024-0.012
					c-0.002-0.015-0.005-0.03-0.023-0.013v0.001l0,0v-0.001c-0.005,0.005-0.009,0.009-0.013,0.013v0.001l0,0
					c-0.015,0.029,0.012,0.019,0.024,0.024c-0.025,0.016-0.049,0.023-0.065-0.011c-0.005-0.011-0.012-0.014-0.022-0.013
					c-0.027,0-0.054-0.011-0.08-0.001c-0.001,0.001-0.001,0.003-0.001,0.004l-0.001-0.002l0.002-0.003
					c-0.01-0.021-0.028-0.025-0.049-0.024c-0.005-0.002-0.007,0-0.011,0.004c0-0.001,0-0.004,0-0.004c0.004,0,0.007,0,0.011,0
					c-0.004-0.004-0.007-0.009-0.011-0.012c-0.004-0.004-0.008-0.008-0.013-0.012c0,0.004,0,0.008-0.001,0.013l0,0l0,0
					c0,0-0.002,0-0.003,0c0.003-0.004,0.005-0.007,0.004-0.013c-0.001-0.016-0.009-0.026-0.026-0.021
					c-0.018,0.005-0.034,0.011-0.052,0.009c-0.029-0.004-0.051,0.01-0.067,0.035c0.002,0,0.002,0.001,0.002,0.001l0,0l-0.002-0.001
					c-0.035-0.001-0.054,0.023-0.071,0.05c0.002,0,0.003,0,0.004,0.002c0,0,0,0-0.001,0l-0.003-0.002
					c-0.004,0.002-0.007,0.007-0.011,0.011l0.001,0.001l0,0c-0.001-0.001-0.001-0.001-0.001-0.001
					c-0.033,0.009-0.064,0.018-0.084,0.048c0.001,0,0.001,0.001,0.002,0.002c0,0,0,0-0.001,0l-0.001-0.002c-0.004,0-0.008,0-0.012,0
					c-0.004,0.003-0.009,0.007-0.012,0.012c-0.004,0.004-0.009,0.008-0.013,0.011c0.001,0.001,0.002,0.002,0.004,0.002
					c-0.002,0-0.002,0-0.002,0l-0.002-0.002c-0.004,0.004-0.008,0.008-0.012,0.013l0.001,0.001c0,0,0,0-0.001,0.002
					c0-0.002,0-0.002,0-0.002c-0.005,0.004-0.009,0.007-0.013,0.012l0.003,0.001c0,0,0,0,0,0.002l-0.003-0.003
					c-0.003,0.003-0.007,0.008-0.011,0.012l0.002,0.002c-0.001,0.001-0.001,0.001-0.002,0.001c0-0.001,0-0.002,0-0.003
					c-0.005,0.003-0.009,0.007-0.013,0.011l0.001,0.003h-0.001c0,0,0-0.002,0-0.003c-0.004,0.003-0.009,0.009-0.013,0.012
					l0.001,0.002l0,0c0-0.002-0.001-0.002-0.001-0.002c-0.004,0.004-0.007,0.008-0.011,0.013l0.002,0.001
					c0,0.002-0.001,0.002-0.001,0.002c0-0.002-0.001-0.002-0.001-0.002c-0.011,0.003-0.012,0.014-0.013,0.024l0.004,0.002h-0.002
					c0-0.002-0.001-0.002-0.002-0.002c-0.012,0.005-0.021,0.012-0.035,0.011c-0.004,0.005-0.009,0.008-0.013,0.012
					c-0.021,0.009-0.024,0.028-0.024,0.048c0.009-0.003,0.016-0.008,0.024-0.012c0.02-0.002,0.021-0.02,0.031-0.031
					c-0.012,0.009-0.024,0.019-0.031,0.031l0,0c-0.012-0.005-0.018,0.004-0.024,0.012c-0.004,0.005-0.008,0.008-0.013,0.012
					c-0.004,0.004-0.008,0.009-0.011,0.013v-0.001c-0.004,0.005-0.008,0.009-0.012,0.014v-0.001
					c-0.005,0.004-0.009,0.009-0.013,0.014c0,0.004,0,0.007-0.001,0.01c-0.004,0.005-0.008,0.008-0.012,0.012
					c-0.004,0.004-0.007,0.009-0.011,0.013v-0.002c-0.008,0.008-0.005,0.018-0.013,0.024c-0.004,0.005-0.008,0.009-0.012,0.014
					c-0.005,0.002-0.008,0.007-0.012,0.011l0,0c-0.004,0.004-0.009,0.008-0.013,0.013c-0.004,0-0.008,0-0.012-0.002
					c-0.004,0.004-0.009,0.009-0.012,0.011c-0.004,0.005-0.008,0.005-0.013,0c-0.018,0-0.035,0-0.035,0.026v-0.001
					c-0.009,0.011-0.014,0.025-0.024,0.035l-0.001,0.001c-0.002,0.004-0.007,0.007-0.011,0.012
					c-0.007,0.006-0.005,0.017-0.012,0.024l0,0c-0.008,0.005-0.005,0.016-0.013,0.022v0.002c-0.006,0.006-0.005,0.014-0.001,0.021
					l0,0v0.002l0,0v-0.002c0-0.006,0-0.014,0.001-0.021c-0.01,0.005-0.011,0.014-0.012,0.023c-0.004,0.005-0.008,0.01-0.012,0.015
					c0.005,0,0.009,0,0.013-0.002c0,0.002,0,0.002,0,0.003c-0.004-0.001-0.008-0.003-0.013-0.001c0,0.002,0,0.006,0,0.01
					c-0.014,0.009-0.012,0.022-0.013,0.037c-0.009,0.005-0.011,0.014-0.013,0.023l0.003,0.002c0,0,0,0,0,0.001
					c-0.001-0.001-0.001-0.002-0.003-0.002c-0.02,0.008-0.024,0.029-0.033,0.046c-0.066,0.12-0.076,0.252-0.085,0.384
					c0,0,0.001,0,0.002,0c-0.001,0.001,0,0.001-0.001,0.001l-0.001-0.001c-0.021,0.02-0.016,0.046-0.012,0.067
					c0.014,0.06,0.004,0.123,0.014,0.182c0.008,0.041-0.002,0.089,0.033,0.123l0.001-0.001c0,0,0,0,0.001,0
					c-0.001,0-0.002,0-0.002,0.001c0.01,0.044,0.023,0.088,0.029,0.133c0.011,0.056,0.018,0.115-0.004,0.171
					c-0.016,0.042-0.028,0.087-0.059,0.123c-0.011,0.014-0.018,0.033-0.014,0.05c0.007,0.046-0.017,0.08-0.049,0.109
					c0,0,0,0,0.001,0h-0.001l0,0c-0.011,0.002-0.026-0.004-0.03,0.011c-0.001,0.012,0.013,0.015,0.02,0.02
					c0.003,0.003,0.007,0.003,0.011,0.005l0,0l0,0l0,0c0.018,0.027-0.01,0.047-0.011,0.071c-0.049,0.009-0.049,0.009-0.048,0.061
					l0,0c-0.008,0.006-0.006,0.017-0.013,0.024c0.001,0.004,0,0.008,0,0.011c-0.009,0.017-0.009,0.033,0,0.048
					c0,0.003,0,0.007,0,0.011c0.007,0.009,0.008,0.018,0,0.025c-0.025,0.038-0.008,0.08-0.013,0.12h0.002
					c-0.012,0.04-0.009,0.08,0,0.12c0,0.004,0,0.007-0.002,0.011c-0.009,0.015-0.007,0.031,0,0.047c0,0.004,0.002,0.008,0.002,0.011
					c0,0.031,0,0.063,0.007,0.094c0.022,0.11,0.08,0.212,0.079,0.329c0,0.004,0.003,0.008,0.005,0.01
					c0.026,0.027,0.039,0.066,0.075,0.084c0-0.001,0.001-0.001,0.001-0.003c0,0,0,0,0,0.002l-0.001,0.001
					c0.004,0.003,0.008,0.007,0.01,0.01c0.002,0.017,0.002,0.034,0.003,0.049c0.006,0.007,0.005,0.018,0.013,0.024
					c0.003,0.003,0.007,0.008,0.011,0.012c0.009,0.016,0.021,0.037,0.039,0.031c0.033-0.012,0.041,0.012,0.053,0.031
					c0.012,0.023,0.027,0.045,0.038,0.068c0.007,0.014,0.021,0.027,0.006,0.043c-0.018,0.006-0.037-0.016-0.057,0.002
					c0.01,0.019,0.022,0.032,0.042,0.039l0,0c0.03,0.016,0.062,0.033,0.093,0.051c0,0,0-0.002,0.002-0.002l0,0l-0.002,0.002
					c0.003,0.016,0.01,0.027,0.025,0.035c0-0.002,0.001-0.002,0.001-0.003h0.001l-0.002,0.003c0.004,0.004,0.008,0.008,0.011,0.012
					l0.002-0.001l0,0l-0.002,0.001c0.003,0.023,0.02,0.035,0.037,0.048c0-0.001,0.001-0.003,0.002-0.003l0,0l-0.002,0.003
					c0.001,0.009,0.003,0.018,0.012,0.024c0-0.002,0.003-0.003,0.003-0.004v0.001l-0.003,0.003c0.004,0.004,0.008,0.007,0.012,0.012
					l0.002-0.002l0,0c0,0.001-0.001,0.001-0.002,0.002c0.001,0.017,0.01,0.027,0.025,0.035c0-0.001,0.001-0.002,0.002-0.002l0,0
					l-0.002,0.002c0,0.016,0.008,0.023,0.022,0.025c0.006,0.026,0.021,0.043,0.049,0.047c0,0,0-0.002,0.001-0.004
					c0,0.002,0,0.002,0,0.002l-0.001,0.002c0.003,0.004,0.007,0.008,0.011,0.012l0.004-0.004v0.002
					c-0.001,0-0.001,0.001-0.004,0.002c0.005,0.009,0.015,0.012,0.023,0.013c0.011,0.013,0.021,0.03,0.038,0.015
					c0.027-0.023,0.054-0.014,0.08,0c0.021,0.012,0.041,0.024,0.066,0.02c0.002-0.002,0.006-0.002,0.009,0
					c0.005,0.01,0.014,0.012,0.023,0.014c-0.001-0.01-0.003-0.021-0.003-0.03c0.07,0.01,0.07,0.01,0.129,0.049
					c0.006,0.003,0.012,0.003,0.018,0.005l0.003-0.004c0.001,0,0.001,0,0.001,0.002c-0.001,0-0.002,0-0.004,0.002
					c0.054,0.076,0.131,0.123,0.216,0.156c0,0,0-0.001,0.001-0.001l0,0l-0.001,0.001c0.004,0.004,0.007,0.008,0.013,0.012
					l0.002-0.003l0,0c-0.001,0-0.002,0.001-0.002,0.003c0.019,0.027,0.043,0.051,0.071,0.072c0.001-0.002,0.002-0.002,0.003-0.004
					l0,0l-0.003,0.004c0.003,0.019,0.009,0.035,0.024,0.047c0,0,0.002-0.002,0.003-0.004l0,0l-0.003,0.004
					c0.004,0.004,0.008,0.008,0.012,0.012l0.001-0.001c0,0,0,0.001,0.001,0.001c-0.001,0-0.002,0-0.002,0
					c0.022,0.043,0.026,0.047,0.064,0.03c0.011-0.004,0.02-0.007,0.028-0.001c0.019,0.011,0.025-0.008,0.038-0.016
					c0-0.001,0.002-0.002,0.002-0.002l0,0l-0.002,0.002c0.003,0.022,0.018,0.035,0.036,0.047c0.002,0,0.002,0,0.002-0.002v0.002
					h-0.002c0.004,0.004,0.008,0.008,0.012,0.012h0.001l0,0c-0.001,0-0.001,0-0.001,0c0.004,0.004,0.008,0.01,0.013,0.013
					l0.001-0.001l0,0c-0.001,0-0.001,0.001-0.001,0.001c0.001,0.009,0.002,0.017,0.013,0.022c0.015,0.024,0.028,0.045,0.06,0.049
					c0.049-0.002,0.05-0.002,0.036-0.037c0-0.009-0.002-0.019-0.011-0.023h-0.002l0,0h0.002c-0.002-0.011-0.004-0.02-0.012-0.025
					c0,0.001-0.001,0.001-0.001,0.001l0,0l0.001-0.001c-0.002-0.009-0.005-0.018-0.014-0.023l-0.001,0.001c-0.001,0-0.001,0-0.001,0
					c0.001,0,0.002-0.001,0.002-0.001c0-0.011-0.002-0.019-0.011-0.024c-0.002,0.002-0.003,0.002-0.003,0.003l0,0l0.003-0.003
					c-0.002-0.01-0.004-0.019-0.013-0.023l-0.003,0.002l0,0c0.001,0,0.001-0.002,0.003-0.002c0.001-0.019,0.01-0.021,0.021-0.008
					c0.024,0.03,0.043,0.065,0.073,0.093c0-0.001,0.001-0.001,0.001-0.003c0,0.002,0,0.002,0,0.002l-0.001,0.001
					c0,0.009,0.003,0.017,0.013,0.022c0-0.001,0.003-0.002,0.003-0.004c0.001,0,0.001,0,0.001,0.002l-0.004,0.002
					c0.004,0.004,0.008,0.01,0.011,0.013l0.003-0.003c0.001,0,0.001,0,0.001,0c-0.001,0.002-0.002,0.002-0.004,0.003
					c0.004,0.036,0.034,0.04,0.06,0.049l0.002-0.001l0,0c-0.001,0-0.001,0.001-0.002,0.001c0.004,0.03,0.033,0.042,0.044,0.067
					c0.002,0.006,0.011,0.014,0.02,0.009c0.012-0.005,0.01-0.015,0.005-0.024c-0.006-0.013-0.004-0.031-0.019-0.041l-0.004,0.002
					c0,0,0,0,0-0.002c0.001,0,0.003,0,0.004,0c0.001-0.012,0.001-0.024,0.005-0.035c0.013-0.027,0.006-0.056-0.013-0.07
					c-0.045-0.031-0.058-0.083-0.087-0.123c0-0.02-0.004-0.037-0.025-0.047l-0.001,0.001v-0.001h0.001
					c-0.004-0.029,0.003-0.052,0.04-0.048c0.013,0.001,0.024-0.001,0.031-0.011c0.004-0.006,0.009-0.01,0.013-0.014
					c0-0.007,0-0.016,0-0.023c-0.001,0-0.003-0.001-0.004-0.005c0-0.003,0-0.005,0.004-0.007c0-0.004,0-0.008,0-0.012
					c-0.004-0.006-0.009-0.008-0.013-0.013c-0.012-0.009-0.023-0.017-0.036-0.024c-0.004-0.003-0.008-0.008-0.012-0.011
					c-0.01-0.011-0.026-0.001-0.036-0.013c-0.011-0.008-0.023-0.018-0.036-0.025c-0.027-0.027-0.022-0.072-0.057-0.094
					c-0.002-0.011-0.002-0.018,0.011-0.022c0.002,0.004,0.006,0.006,0.01,0.01l0.002-0.002l0,0c-0.001,0-0.001,0.002-0.002,0.002
					c0.004,0.004,0.009,0.008,0.013,0.012l0.002-0.002c0,0,0,0,0,0.002c0,0-0.001,0-0.002,0c0.003,0.003,0.007,0.008,0.011,0.012
					c0.017,0.025,0.034,0.053,0.05,0.078c0.012-0.01,0.012-0.018,0.008-0.024c-0.017-0.018-0.014-0.03,0.01-0.038
					c0.007,0,0.012-0.01,0.017-0.016c0.001-0.001,0.003-0.001,0.003-0.002c0,0.001,0,0.001,0,0.001l-0.003,0.001
					c0.008,0.031,0.021,0.058,0.05,0.071v-0.001c-0.002,0.021,0,0.041,0.025,0.049c0.002,0.004,0.005,0.009,0.009,0.012
					c0.002,0.002,0.004,0.006,0.002,0.008c0.009,0.017,0.016,0.035,0.024,0.053v-0.001c0.02,0.059,0.047,0.112,0.102,0.155
					c0.003-0.022,0.006-0.038,0.008-0.053c0.002-0.002,0.003-0.004,0.003-0.006c0.003-0.008,0.004-0.014-0.006-0.019
					c-0.054-0.032-0.054-0.032-0.063-0.099c-0.004-0.021-0.017-0.024-0.035-0.024h0.001c0.004-0.029,0.008-0.06,0.025-0.084
					c0-0.002,0.001-0.002,0.001-0.002l0,0l-0.001,0.002c0.003,0.004,0.006,0.008,0.01,0.01c0,0.005,0.001,0.009,0.002,0.012
					c-0.016,0.014-0.016,0.025-0.001,0.038c0.004,0.004,0.009,0.008,0.013,0.011l0,0l0,0l0,0c0.004,0.006,0.008,0.008,0.011,0.014
					H19.9l0,0h-0.002c0.006,0.004,0.009,0.007,0.013,0.011c0.008,0.011,0.014,0.027,0.03,0.017c0.012-0.01,0.005-0.021-0.006-0.027
					c0-0.012-0.003-0.021-0.012-0.024c0.001-0.018-0.006-0.036,0.012-0.049c0,0,0,0,0-0.001v0.001l0,0
					c0.005,0.011,0.012,0.019,0.024,0.024h0.001c0.007,0.006,0.004,0.018,0.013,0.024V14.06c0,0.006,0,0.011-0.001,0.014
					c0,0.011,0.002,0.02,0.011,0.024h0.002c0.007,0.007,0.003,0.017,0.011,0.024c0,0.003,0,0.007,0,0.011
					c0.001,0,0.003,0.003,0.004,0.005c0,0.002,0,0.005-0.004,0.009l0,0c-0.006,0.007-0.006,0.017,0,0.024l0,0
					c0.012,0.008,0.001,0.024,0.013,0.034l0,0c0.004,0.025,0.01,0.049,0.037,0.059h-0.001c0.003,0.006,0.008,0.008,0.013,0.012
					c-0.001,0.01-0.003,0.02-0.014,0.025c-0.004-0.004-0.008-0.008-0.012-0.013c-0.004-0.004-0.009-0.007-0.013-0.011
					c-0.01-0.01-0.021-0.018-0.032-0.027c-0.008-0.006-0.017-0.01-0.023,0.002c-0.004,0.009-0.001,0.019,0.006,0.021
					c0.017,0.004,0.026,0.018,0.039,0.027c0.004,0.004,0.008,0.008,0.011,0.012c0.004,0.004,0.008,0.007,0.012,0.012
					c0.001,0.002,0.001,0.008,0.001,0.01c0.004,0.006,0.008,0.01,0.013,0.014h-0.001c0.005,0.004,0.009,0.01,0.013,0.012l0,0
					c0.001,0.017-0.005,0.036,0.012,0.049l0,0l0,0l0,0c0.006,0.009,0.013,0.012,0.023,0.013h0.001l0,0c-0.001,0-0.001,0-0.001,0
					c0,0.024,0.006,0.046,0.036,0.048c0.006,0.01,0.012,0.024,0.026,0.018c0.015-0.006,0.009-0.019,0.003-0.029
					c-0.005-0.014-0.003-0.029-0.018-0.037c0-0.01-0.002-0.02-0.011-0.024c-0.001,0.001-0.003,0.001-0.004,0.003l0,0l0.004-0.003
					c-0.004-0.003-0.008-0.007-0.012-0.011c0-0.008-0.001-0.016-0.001-0.023c-0.004-0.004-0.008-0.01-0.011-0.014h-0.002
					c-0.002-0.004-0.006-0.007-0.009-0.01c0-0.001,0-0.001,0-0.001c-0.001-0.008-0.002-0.017-0.003-0.024
					c0.001-0.024-0.003-0.045-0.024-0.061v0.002c-0.006-0.008-0.005-0.019-0.013-0.025l0.002,0.001
					c-0.011-0.011-0.003-0.025-0.011-0.036c-0.002-0.003-0.003-0.006-0.003-0.008c0-0.009-0.004-0.014-0.011-0.016
					c0-0.008,0-0.018,0-0.024c-0.007-0.007-0.005-0.018-0.011-0.024c-0.002-0.012-0.002-0.024-0.002-0.035
					c-0.003-0.004-0.007-0.01-0.011-0.014c0-0.003-0.001-0.007,0-0.011c0-0.011-0.003-0.019-0.013-0.024
					c-0.008-0.007-0.005-0.017-0.011-0.024c-0.002-0.003-0.002-0.007-0.002-0.011c0.002-0.01-0.001-0.019-0.01-0.025l-0.002,0.001
					l0,0c0,0,0.001-0.001,0.002-0.001c-0.008-0.031-0.008-0.066-0.025-0.096c0.021-0.021,0.023,0.011,0.035,0.014
					c0.002,0.008,0.003,0.018,0.013,0.023l0.004-0.004c0,0.001,0,0.001,0.001,0.001c-0.001,0.001-0.004,0.001-0.005,0.003
					c0,0.016,0.009,0.028,0.024,0.036c0.002-0.001,0.003-0.003,0.004-0.004l0,0l-0.004,0.004c0.004,0.003,0.008,0.007,0.013,0.011
					l0.003-0.002l0.001,0.001c-0.001,0-0.002,0.001-0.004,0.001c0.004,0.004,0.008,0.008,0.012,0.013l0.002-0.003h0.002
					c-0.002,0-0.003,0.002-0.004,0.003c0.004,0.004,0.008,0.009,0.011,0.013l0.002-0.001l0,0c0,0-0.002,0-0.002,0.001
					c-0.001,0.025-0.026,0.053,0.013,0.071c0.005,0.004,0.009,0.008,0.013,0.011l0,0h0.001h-0.001
					c0.005,0.004,0.009,0.008,0.013,0.014l0,0c0.004,0.002,0.006,0.006,0.009,0.011c0.001,0.007,0.002,0.017,0.002,0.024
					c-0.026,0.011-0.031,0.031-0.033,0.057c-0.003,0.03,0.001,0.041,0.031,0.021c0.006-0.005,0.019,0.002,0.027,0.005l0,0
					c0.001,0.013,0,0.031,0.02,0.028c0.015-0.002,0.018-0.016,0.006-0.027c0-0.004-0.002-0.008-0.002-0.012
					c-0.011-0.01-0.002-0.025-0.01-0.035c-0.001-0.006-0.003-0.009-0.003-0.013c-0.007-0.007-0.005-0.019-0.012-0.024
					c0-0.004,0-0.008,0-0.011c0-0.038-0.003-0.075-0.008-0.114c-0.008-0.043-0.021-0.087-0.031-0.131
					c-0.017-0.066-0.017-0.134-0.031-0.2c-0.006-0.03-0.015-0.064,0-0.095c0.004,0,0.008,0,0.011,0.001
					c0.004,0.003,0.008,0.006,0.013,0.01h-0.001c0.005,0.005,0.009,0.009,0.013,0.013l0,0c0.004,0.004,0.007,0.009,0.013,0.012l0,0
					c0.003,0.004,0.007,0.008,0.011,0.012l0,0c0.004,0.004,0.008,0.009,0.013,0.013c0.004,0.004,0.008,0.007,0.011,0.011
					c0.003,0.041,0.042,0.063,0.048,0.102c0.007,0.039,0.027,0.069,0.061,0.09h0.002c0,0,0,0,0.002,0c-0.002,0-0.003,0-0.004,0
					c0,0.018,0.002,0.033,0.011,0.047c0.035,0.051,0.063,0.106,0.092,0.16c0.014,0.026,0.023,0.057,0.054,0.07
					c0-0.002,0.001-0.003,0.002-0.004l0,0l-0.002,0.004c0.019,0.031,0.042,0.053,0.082,0.049l0.004-0.004l0,0
					c-0.001,0.001-0.002,0.002-0.004,0.004c0.025,0.029,0.049,0.061,0.096,0.036c0-0.001,0.001-0.001,0.001-0.001l0,0l-0.001,0.001
					c0.004,0.003,0.007,0.007,0.013,0.011c0.003,0.004,0.007,0.008,0.012,0.012c0.004,0.004,0.008,0.009,0.013,0.012l0.003-0.003
					c0,0,0,0,0,0.001c0,0-0.002,0.002-0.003,0.002c0.005,0.01,0.014,0.012,0.022,0.014l0.002-0.002l0,0l-0.002,0.002
					c0.004,0.004,0.009,0.007,0.013,0.01c0.021,0.029,0.04,0.016,0.061,0.001c0.001-0.001,0.001-0.001,0.002-0.003l0,0l-0.002,0.003
					c0,0.026,0.007,0.042,0.037,0.028c0.008-0.002,0.015-0.002,0.022-0.004c0,0,0-0.002,0.001-0.003c0,0.001,0,0,0,0.001
					l-0.001,0.002c0.004,0.004,0.008,0.008,0.012,0.012l0.001-0.001l0,0c0,0.001-0.001,0.001-0.001,0.001
					c0.003,0.004,0.007,0.008,0.012,0.013v-0.001c0.002,0,0.002,0,0.002,0c-0.002,0-0.002,0.001-0.002,0.001
					c0.004,0.004,0.008,0.007,0.012,0.011c0.011,0.011,0.021,0.012,0.023-0.006c0.004-0.021-0.006-0.04-0.021-0.055
					c0-0.012,0-0.023,0-0.035h-0.003l0,0c0.001,0,0.001,0,0.003,0c0.051-0.009,0.071,0.04,0.105,0.061
					c0.002-0.002,0.002-0.003,0.003-0.004v0.001l-0.003,0.003c0.004,0.004,0.009,0.007,0.013,0.011l0.003-0.001c0,0,0,0,0.001,0
					c-0.001,0.001-0.002,0.001-0.004,0.001c0.004,0.005,0.008,0.009,0.012,0.013l0.004-0.003c0,0,0,0,0.001,0.001
					c-0.001,0-0.003,0.002-0.005,0.002c0.004,0.004,0.009,0.008,0.013,0.012l0.002-0.004c0,0,0.001,0,0.003,0
					c-0.003,0.002-0.004,0.004-0.005,0.004c0.003,0.004,0.009,0.008,0.012,0.012c0.008,0.004,0.017,0.009,0.024,0.012
					c0.004,0.005,0.007,0.005,0.011,0c0-0.008,0-0.016,0-0.023c-0.004-0.004-0.007-0.008-0.011-0.012
					c-0.004-0.006-0.009-0.008-0.013-0.013c0,0.001,0,0.003-0.001,0.004c0,0-0.002-0.001-0.002-0.003l0.003-0.001
					c-0.004-0.004-0.008-0.009-0.012-0.013c0,0.002,0,0.002,0,0.002s0,0-0.001,0l0.001-0.002c-0.003-0.004-0.007-0.009-0.011-0.012
					c-0.001,0-0.001,0-0.001,0.002c0-0.002,0-0.002,0-0.002h0.001c-0.004-0.004-0.009-0.008-0.013-0.014c0,0.002,0,0.002,0,0.002
					h-0.001l0.001-0.002c-0.004-0.004-0.008-0.007-0.011-0.011l-0.002,0.001l0,0c0-0.001,0.002-0.001,0.002-0.001
					c-0.002-0.009,0.001-0.017,0.01-0.022c0,0,0-0.002,0.001-0.002c0,0,0,0,0.001,0l-0.002,0.002
					c0.004,0.004,0.007,0.009,0.011,0.012c0.004,0.004,0.009,0.008,0.013,0.012l0.003-0.001c0.001,0,0.001,0,0.001,0
					c-0.001,0.001-0.003,0.001-0.004,0.001c0.004,0.006,0.008,0.009,0.013,0.012l0.002-0.003l0,0l-0.002,0.003
					c0.004,0.005,0.008,0.009,0.011,0.012c0.004,0.006,0.009,0.01,0.013,0.014l0.002-0.003c0.001,0,0.001,0,0.001,0
					c-0.001,0.001-0.001,0.003-0.003,0.003c0.004,0.004,0.008,0.007,0.012,0.011l0.004-0.001c0-0.006-0.002-0.008-0.004-0.01
					c0,0,0,0,0.001,0l0.004-0.004c0,0,0,0,0.001,0.001c-0.001,0-0.004,0.001-0.005,0.003c0.001,0.002,0.003,0.006,0.003,0.01
					c0,0,0,0,0.001,0c-0.001,0-0.004,0-0.005,0.001c0.005,0.005,0.009,0.009,0.013,0.013l0.002-0.003
					c0.001-0.003,0-0.007-0.004-0.01c0.002,0,0.002,0,0.003,0c0,0.004,0.001,0.007,0.001,0.01c0.001,0,0.001,0,0.001,0
					c-0.001,0.001-0.002,0.003-0.003,0.003c0.003,0.004,0.007,0.008,0.011,0.012c0.004,0.007,0.009,0.014,0.014,0.023
					c0.004,0.005,0.008,0.008,0.012,0.012c0.005,0.004,0.009,0.008,0.013,0.012l0,0c0.003,0.005,0.009,0.009,0.014,0.013
					c0.004,0.003,0.006,0.006,0.01,0.01c0.004,0.007,0.008,0.011,0.013,0.014v-0.001c0.005,0.012,0.011,0.026,0.023,0.021
					c0.017-0.008,0.004-0.021,0-0.03c-0.003-0.005-0.008-0.009-0.011-0.013c-0.002-0.004-0.003-0.008-0.003-0.01
					c0.001-0.012,0.003-0.021,0.013-0.026c0.001-0.001,0.001-0.001,0.001-0.001l0,0l-0.001,0.001
					c0.005,0.004,0.009,0.007,0.013,0.011l0.001-0.001l0,0c0,0.001-0.001,0.001-0.001,0.001c0.006,0.017,0.019,0.024,0.036,0.025
					v-0.001l0,0v0.001c0.004,0.004,0.007,0.008,0.011,0.012c0.005,0.011,0.013,0.019,0.025,0.023
					c0.005,0.01,0.013,0.012,0.022,0.013c0.009,0.015,0.021,0.027,0.036,0.036c0.001-0.002,0.003-0.002,0.003-0.004v0.002
					l-0.003,0.002c0.004,0.004,0.008,0.008,0.012,0.012l0.002-0.002c0.001,0,0.001,0,0.001,0c-0.001,0-0.002,0-0.003,0.002
					c0.001,0.018,0.01,0.028,0.024,0.035c0.002,0,0.003-0.002,0.003-0.003h0.001l-0.004,0.003c0.004,0.004,0.008,0.008,0.012,0.014
					l0.001-0.002v0.002h-0.001c0.001,0.008,0.004,0.017,0.013,0.023c0.001-0.002,0.001-0.002,0.001-0.003h0.001l-0.002,0.003
					c0.003,0.004,0.007,0.008,0.011,0.012h0.001l0,0h-0.001c0.001,0.01,0.004,0.019,0.013,0.023
					c0.005,0.004,0.008,0.008,0.011,0.011c0.002,0.004,0.003,0.007,0.003,0.011c0.001,0.006,0.006,0.01,0.012,0.015l0.001-0.003
					c0.004,0.009,0.006,0.017,0.01,0.025c0.005,0.005,0.008,0.009,0.013,0.012c0.004,0.01,0.008,0.017,0.011,0.024
					c0.006,0.004,0.009,0.009,0.013,0.014c0.004,0.003,0.008,0.003,0.012-0.001c0-0.008,0-0.017,0-0.023
					c-0.004-0.004-0.007-0.008-0.012-0.012c0-0.005,0-0.009,0-0.013c-0.004-0.003-0.007-0.007-0.011-0.011
					c0-0.006,0-0.01-0.002-0.013c-0.003-0.004-0.007-0.008-0.011-0.013c-0.004-0.004-0.008-0.009-0.012-0.013
					c0-0.003-0.001-0.007-0.001-0.011c-0.008-0.007-0.005-0.017-0.013-0.023l0,0c-0.002-0.004-0.006-0.01-0.01-0.014h-0.001l0,0
					h0.001c-0.001-0.01-0.004-0.017-0.013-0.023c-0.001,0.002-0.001,0.002-0.002,0.002l0,0l0.002-0.002
					c-0.001-0.01-0.002-0.019-0.011-0.023h-0.002l0,0c0,0,0,0,0.002,0c-0.002-0.018-0.011-0.029-0.025-0.037
					c0,0.002-0.001,0.002-0.001,0.002l0,0l0.001-0.002c0-0.01-0.002-0.018-0.013-0.024l-0.001,0.002l0,0l0.001-0.002
					c-0.002-0.005-0.006-0.008-0.01-0.014l-0.001,0.002l0,0c0,0,0-0.002,0.001-0.002c-0.003-0.021,0.001-0.046-0.025-0.058
					c-0.001,0.002-0.002,0.002-0.002,0.004c0-0.002,0-0.002,0-0.002l0.002-0.002c-0.003-0.004-0.007-0.008-0.012-0.012l-0.002,0.002
					l0,0l0.002-0.002c0-0.016-0.009-0.028-0.024-0.035l-0.002,0.002c-0.002-0.002-0.002-0.002-0.002-0.002c0.002,0,0.003,0,0.004,0
					c0-0.021-0.002-0.039-0.023-0.049l-0.003,0.002l0,0c0.002,0,0.002-0.002,0.003-0.002c-0.01-0.052-0.054-0.091-0.059-0.146
					c0.041-0.01,0.059,0.015,0.068,0.045c0.005,0.018,0.007,0.035,0.025,0.042c0.004,0.005,0.007,0.009,0.011,0.013
					c0.002,0.016,0.011,0.029,0.024,0.035l0.003-0.002l0,0c-0.001,0.002-0.001,0.002-0.003,0.002
					c0.001,0.018,0.01,0.029,0.023,0.037c0.001,0.009,0.004,0.02,0.014,0.024c0.005,0.024,0.01,0.049,0.043,0.052
					c0.003-0.042,0.003-0.042-0.018-0.077c-0.002-0.01-0.004-0.018-0.013-0.024h-0.001l0,0h0.001c0-0.033-0.005-0.063-0.036-0.084
					c-0.002-0.014,0.001-0.027-0.012-0.034l-0.004,0.003c0,0,0,0-0.001,0c0.001-0.002,0.003-0.003,0.005-0.003
					c-0.007-0.06-0.021-0.116-0.049-0.169l-0.002,0.002c-0.002-0.001-0.002-0.001-0.002-0.001c0.002,0,0.003-0.001,0.004-0.001
					c-0.007-0.072-0.009-0.144-0.023-0.215c0.001-0.004-0.001-0.006-0.003-0.008c0.002-0.002,0.002-0.005,0.004-0.006l0,0
					c0,0.004-0.001,0.008-0.001,0.014c0.004,0.001,0.008,0.002,0.013,0.002c0.004,0.002,0.007,0.006,0.009,0.01l0.002,0.002
					c0.004,0.002,0.009,0.006,0.013,0.01c0.008,0.005,0.017,0.009,0.023,0.014c0.004,0.002,0.008,0.008,0.012,0.01l0,0
					c0.004,0.006,0.009,0.009,0.013,0.012c0.004,0,0.007,0,0.011,0.001c0.008-0.009,0.008-0.015,0-0.024
					c-0.004-0.004-0.009-0.008-0.014-0.012c-0.01-0.005-0.018-0.013-0.023-0.022c0.01-0.001,0.02-0.001,0.03-0.003
					c0.003,0,0.006,0.002,0.007,0.004c0.005,0.002,0.009,0.006,0.014,0.009l-0.001-0.001c0.004,0.005,0.009,0.009,0.013,0.014
					c0-0.004-0.001-0.008-0.001-0.012c0,0,0,0,0.001,0c-0.003,0.004-0.005,0.008,0,0.012c0.004,0.005,0.009,0.009,0.015,0.012
					c0.007,0.004,0.014,0.008,0.02,0.012c0.004,0.006,0.009,0.01,0.013,0.016c0.003,0.002,0.007,0.006,0.01,0.008l0.001,0.002
					c0.005,0.004,0.009,0.008,0.012,0.012h0.001c0.004,0.004,0.008,0.008,0.011,0.012l0,0c0.006,0.009,0.015,0.012,0.024,0.013
					c0.004,0.004,0.007,0.007,0.013,0.011c0.003,0.008,0.007,0.008,0.012,0c0.008-0.004,0.008-0.008,0-0.012
					c0.006-0.01,0.015-0.012,0.024-0.012c0-0.001,0.001-0.002,0.001-0.004c0,0,0.001,0,0.001,0.002l-0.002,0.002
					c0.005,0.009,0.014,0.012,0.022,0.013c0.008,0.014,0.02,0.023,0.037,0.024c0-0.002,0-0.003,0.002-0.006c0,0.002,0,0.002,0,0.003
					l-0.002,0.003c0.004,0.008,0.014,0.011,0.022,0.012l0,0l0,0l0,0c0.004,0.004,0.008,0.008,0.013,0.012l0.001-0.002
					c0.002,0,0.002,0,0.002,0c-0.002,0-0.003,0.002-0.003,0.002c0.004,0.004,0.008,0.008,0.012,0.012l0.002-0.002l0,0
					c0,0-0.001,0.002-0.002,0.002c0.005,0.003,0.009,0.008,0.012,0.012l0.002-0.001h0.001c-0.001,0-0.001,0-0.003,0.001
					c0.006,0.008,0.013,0.012,0.021,0.013c0.008,0.007,0.017,0.011,0.027,0.013c0.004,0.004,0.009,0.006,0.013,0.01
					c0.008,0.004,0.016,0.009,0.022,0.013c0.004,0.001,0.007,0.003,0.009,0.003c0.004-0.008-0.001-0.012-0.007-0.015
					c-0.002-0.005-0.002-0.007-0.002-0.013c-0.004-0.004-0.007-0.008-0.011-0.011c-0.004-0.005-0.009-0.009-0.013-0.014
					c-0.004,0-0.008-0.003-0.012-0.003c-0.001-0.01-0.003-0.018-0.011-0.022c-0.001,0-0.001,0.002-0.001,0.002l0,0l0.001-0.002
					c-0.005-0.004-0.009-0.007-0.013-0.012c-0.001,0.002-0.001,0.002-0.002,0.004c0,0,0,0,0-0.002l0.002-0.002
					c-0.004-0.004-0.008-0.008-0.011-0.012c-0.002,0-0.002,0.002-0.002,0.002h-0.001l0.003-0.002
					c-0.004-0.005-0.008-0.009-0.013-0.012h-0.002l0,0c0.002,0,0.002,0,0.002,0c0-0.011,0.004-0.02,0.014-0.024
					c0.004,0,0.008,0.001,0.01,0.004c0-0.003,0-0.005-0.001-0.008c0.001,0.001,0.002,0.003,0.004,0.003
					c-0.002,0.001-0.002,0.002-0.003,0.005c0.004,0.003,0.008,0.006,0.012,0.01V13.87c0,0,0,0.001,0.001,0.001
					c-0.001,0-0.001,0-0.001,0c0.003,0.004,0.007,0.007,0.011,0.011h0.001l0,0h-0.001c0.004,0.004,0.009,0.008,0.013,0.014
					c0.01,0.015,0.018,0.031,0.048,0.029c-0.008-0.025-0.014-0.043-0.035-0.055l0,0l0,0l0,0c0-0.009,0.002-0.019,0.011-0.023
					c0.002,0,0.002-0.003,0.003-0.004c0,0,0,0,0.001,0.001l-0.004,0.003c0.004,0.004,0.008,0.008,0.012,0.012l0.004-0.002
					c0.001,0,0.001,0,0.002,0.001c-0.002,0-0.004,0.001-0.006,0.001c0.005,0.004,0.009,0.008,0.013,0.012l0.004-0.004v0.001
					c-0.002,0.001-0.003,0.003-0.004,0.003c0.005,0.012,0.014,0.019,0.024,0.025c0-0.002,0.002-0.004,0.003-0.006c0,0,0,0,0.001,0
					l-0.004,0.006c0.004,0.003,0.008,0.007,0.012,0.012l0.004-0.004c0,0,0,0.002,0.001,0.002c-0.003,0-0.004,0.001-0.005,0.002
					c0.004,0.003,0.009,0.006,0.013,0.012l0.002-0.003c0,0,0,0.001,0.001,0.001c-0.001,0-0.002,0-0.003,0.002
					c0.003,0.004,0.007,0.008,0.011,0.012l0.003-0.004c0.001,0,0.001,0.002,0.001,0.002c-0.001,0.002-0.003,0.002-0.004,0.002
					c0.004,0.003,0.008,0.008,0.013,0.012l0.001-0.001l0,0c0,0-0.001,0-0.001,0.001c0.004,0.005,0.006,0.009,0.012,0.013l0,0
					c0.001,0,0.001,0,0.001,0c-0.001,0-0.001,0-0.001,0c0.003,0.003,0.007,0.009,0.011,0.013l0.001-0.002l0,0l-0.001,0.002
					c0.001,0.008,0.004,0.018,0.014,0.022l0,0c0.004,0.003,0.007,0.007,0.01,0.011c0.006,0.006,0.009,0.01,0.014,0.013
					c0.008,0.017,0.021,0.028,0.037,0.036c0.003,0.008,0.011,0.013,0.018,0.006c0.006-0.007,0.001-0.014-0.007-0.018l0,0
					c-0.004-0.004-0.008-0.008-0.011-0.012c-0.005-0.012-0.013-0.02-0.024-0.025c0-0.004-0.001-0.008-0.001-0.011
					c-0.006-0.005-0.004-0.017-0.012-0.024l0,0l0,0l0,0l0,0c-0.003-0.004-0.007-0.008-0.011-0.012l-0.001,0.001v-0.001h0.001
					c-0.001-0.01-0.004-0.019-0.013-0.023c-0.001,0-0.001,0-0.002,0.002l0,0l0.002-0.002c-0.004-0.006-0.008-0.01-0.013-0.014
					l-0.001,0.003c0,0,0-0.001-0.001-0.001c0.001,0,0.002,0,0.002-0.002c0.018-0.012-0.01-0.035,0.013-0.047c0,0,0,0,0.001-0.002
					l0,0l-0.001,0.002c0.014,0.015,0.029,0.027,0.049,0.032c0.008-0.03-0.031-0.041-0.02-0.076c0.01,0.017,0.018,0.027,0.029,0.032
					c0.002,0,0.002-0.001,0.003-0.002v0.001l-0.003,0.001c0.004,0.004,0.009,0.008,0.013,0.013V13.87l0,0v0.001
					c0,0.009,0.003,0.018,0.012,0.024c0,0,0.001,0,0.001-0.002l0,0l-0.001,0.002c0.001,0.008,0.004,0.018,0.013,0.023
					c0.001-0.002,0.002-0.003,0.002-0.004h0.001l-0.003,0.004c0.003,0.004,0.008,0.008,0.012,0.012l0,0
					c0.009,0.011,0.014,0.024,0.026,0.034l-0.001-0.001c0.003,0.006,0.008,0.01,0.011,0.014l0,0
					c0.004,0.004,0.007,0.008,0.009,0.013c0.003,0.003,0.004,0.005,0.004,0.007c0.002,0.008,0.005,0.014,0.012,0.017l0,0
					c0.004,0.004,0.008,0.008,0.01,0.011c0.001,0.004,0.003,0.008,0.003,0.012c0.002,0.006,0.006,0.009,0.01,0.013
					c0.001,0.005,0.001,0.009,0.001,0.011c0.004,0.006,0.008,0.011,0.012,0.014l0,0c0.005,0.004,0.007,0.008,0.011,0.014h0.002
					c0.003,0.002,0.007,0.007,0.01,0.011c0.005,0.007,0.009,0.017,0.014,0.024c0.005,0.004,0.009,0.007,0.013,0.012l0,0
					c0.004,0.004,0.007,0.008,0.012,0.013v-0.001c0.004,0.004,0.008,0.004,0.012,0l-0.001,0.001
					C22.104,14.146,22.104,14.144,22.106,14.142z M20.067,14.409L20.067,14.409L20.067,14.409L20.067,14.409z M20.083,14.407
					L20.083,14.407c0.002,0.002,0.005,0.002,0.008,0.002c0,0,0,0,0,0.001C20.088,14.41,20.085,14.409,20.083,14.407z M21.201,13.756
					c0,0.001,0,0.003-0.001,0.003C21.2,13.757,21.201,13.756,21.201,13.756L21.201,13.756z M21.219,14.362
					c-0.001,0-0.001,0-0.001-0.002c0,0,0,0,0.001-0.002C21.219,14.36,21.219,14.36,21.219,14.362z M20.787,14.276L20.787,14.276
					L20.787,14.276L20.787,14.276L20.787,14.276z M20.705,10.311c-0.003,0.002-0.006,0.002-0.008,0.002
					c0-0.002,0.001-0.002,0.002-0.003C20.701,10.311,20.702,10.31,20.705,10.311z M19.359,10.279c0,0,0,0,0.002,0
					c-0.002,0.002-0.002,0.004-0.002,0.005C19.359,10.283,19.359,10.28,19.359,10.279c-0.005-0.003-0.011-0.006-0.011-0.014l0,0
					C19.349,10.273,19.35,10.278,19.359,10.279z M21.624,12.085c-0.002-0.001-0.004-0.001-0.006-0.001
					c0.002-0.002,0.004-0.004,0.005-0.005C21.623,12.081,21.623,12.083,21.624,12.085z M18.607,13.715
					c-0.004,0-0.005,0.001-0.007,0.001c0.001-0.001,0.002-0.004,0.003-0.005C18.605,13.712,18.605,13.714,18.607,13.715z
					 M21.635,10.977c0.002,0.001,0.002,0.001,0.003,0.001c0,0.001-0.001,0.001-0.002,0.002
					C21.635,10.979,21.636,10.979,21.635,10.977z M21.685,12.873c0,0.002,0,0.004-0.001,0.005l0,0c-0.002,0,0-0.003-0.002-0.003
					C21.684,12.875,21.685,12.874,21.685,12.873z M21.709,13.686c0,0.002,0,0.004,0.002,0.004h-0.004l0,0
					C21.707,13.689,21.708,13.689,21.709,13.686z M21.444,13.534L21.444,13.534c0.001,0,0.001,0,0.001,0.002l0,0
					C21.445,13.534,21.445,13.534,21.444,13.534z M21.308,13.398c0.003,0.002,0.005,0.002,0.009,0.002
					c-0.002,0-0.002,0.002-0.006,0.002C21.309,13.401,21.309,13.398,21.308,13.398z M19.068,13.849
					c0.001-0.002,0.002-0.002,0.004-0.005c0,0,0,0.001,0.001,0.003h-0.001C19.07,13.847,19.069,13.849,19.068,13.849z
					 M19.097,10.359L19.097,10.359L19.097,10.359L19.097,10.359z M21.074,10.517L21.074,10.517c0,0.002-0.002,0.002-0.002,0.002
					c-0.001,0,0-0.001,0-0.002C21.072,10.517,21.072,10.517,21.074,10.517z M21.575,11.345c0,0-0.001,0-0.002,0
					c0.001-0.001,0.002-0.001,0.004-0.001C21.575,11.344,21.575,11.345,21.575,11.345z M20.276,13.117
					c0.002,0,0.002-0.002,0.003-0.003C20.279,13.117,20.278,13.117,20.276,13.117z M18.259,12.601L18.259,12.601L18.259,12.601
					c0,0,0,0,0,0.001C18.259,12.601,18.259,12.601,18.259,12.601z M18.661,11.144c0.002,0.002,0.004,0.004,0.005,0.007l0,0l0,0
					c-0.002-0.003-0.006-0.005-0.008-0.006C18.659,11.145,18.66,11.144,18.661,11.144z M19.935,10.565
					c0.001,0,0.001,0.002,0.002,0.002c-0.002,0-0.004,0.001-0.005,0.004C19.933,10.569,19.935,10.568,19.935,10.565z M20.187,10.599
					c0,0,0,0,0,0.002h-0.001C20.187,10.599,20.187,10.599,20.187,10.599L20.187,10.599z M19.753,13.266
					c0.005-0.006,0.009-0.001,0.014-0.003c-0.003,0.002-0.008,0.007-0.009,0.008C19.756,13.269,19.753,13.269,19.753,13.266z
					 M18.407,11.905c0.004,0.012,0.011,0.024,0.008,0.034c-0.003-0.015-0.008-0.029-0.014-0.042
					C18.403,11.9,18.407,11.902,18.407,11.905z M19.896,12.825c0.001,0,0.003,0,0.005,0c-0.002,0.001-0.002,0.005-0.002,0.006
					C19.897,12.829,19.894,12.829,19.896,12.825z M19.462,12.926c-0.001,0-0.002-0.001-0.005-0.001
					c0.003-0.001,0.004-0.001,0.005-0.002C19.462,12.925,19.462,12.924,19.462,12.926z M19.288,11.548
					c-0.002,0.003-0.005,0.002-0.007,0.003c0,0,0.001,0,0.001-0.001C19.284,11.549,19.286,11.548,19.288,11.548z M20.916,11.077
					c-0.004-0.012-0.019-0.012-0.03-0.017C20.895,11.061,20.902,11.067,20.916,11.077L20.916,11.077z M20.954,13.271
					c0,0.002,0,0.002-0.002,0.002l0,0L20.954,13.271L20.954,13.271z M18.562,12.462c-0.001-0.002-0.001-0.002-0.001-0.002
					c0.001,0.002,0.003,0.004,0.005,0.006C18.563,12.467,18.562,12.463,18.562,12.462z M18.687,11.553
					c0.005,0.002,0.008-0.001,0.012,0c-0.004,0.004-0.008,0.007-0.011,0.011C18.688,11.56,18.685,11.557,18.687,11.553z
					 M18.63,12.133L18.63,12.133L18.63,12.133L18.63,12.133L18.63,12.133L18.63,12.133L18.63,12.133z M18.738,12.133L18.738,12.133
					h-0.002H18.738L18.738,12.133C18.739,12.133,18.739,12.133,18.738,12.133L18.738,12.133z M18.75,12.109
					c-0.002,0.004-0.004,0.008-0.006,0.011C18.746,12.117,18.752,12.114,18.75,12.109L18.75,12.109z M18.701,12.037
					c-0.007,0.001-0.014,0.005-0.019,0.01c0,0,0,0-0.001,0c0.008-0.002,0.015-0.004,0.02-0.011
					C18.701,12.037,18.701,12.037,18.701,12.037z M18.705,11.919c0.001,0,0.004,0,0.005,0
					C18.709,11.919,18.706,11.919,18.705,11.919z M18.701,12.025L18.701,12.025L18.701,12.025L18.701,12.025z M18.768,12.277
					c-0.002,0.001-0.004,0.003-0.004,0.005c-0.001-0.002-0.001-0.004-0.002-0.005C18.763,12.277,18.766,12.277,18.768,12.277z
					 M18.793,12.197c0-0.002,0.001-0.002,0.001-0.002l0,0c0.001,0,0-0.002,0-0.002c0.001-0.001,0.003,0,0.004-0.001
					c-0.001,0-0.003-0.002-0.003-0.002c0.002-0.001-0.001-0.002,0-0.003c0.002,0.002,0.002,0.003,0.003,0.005l0,0
					C18.797,12.194,18.794,12.196,18.793,12.197z M18.571,12.153L18.571,12.153c0.012-0.01,0.009-0.024,0.01-0.038
					C18.581,12.128,18.578,12.141,18.571,12.153z M18.547,12.409c0,0,0,0,0-0.002C18.547,12.409,18.547,12.409,18.547,12.409
					S18.547,12.409,18.547,12.409z M19.3,11.809c0.002,0.001,0.004,0.002,0.005,0.002c-0.001,0.003-0.001,0.004-0.003,0.005
					C19.301,11.814,19.301,11.811,19.3,11.809z M20.139,11.366v0.001l0,0V11.366z M21.191,11.342c0-0.001,0-0.001,0-0.001V11.34
					C21.191,11.341,21.191,11.341,21.191,11.342z M21.144,10.965c0,0,0.002,0.001,0.003,0.001c-0.004-0.001-0.007-0.005-0.01-0.005
					l0,0C21.139,10.962,21.14,10.965,21.144,10.965z M21.463,12.071c-0.003,0.001-0.003,0.001-0.004,0.002
					c0-0.001-0.001-0.004-0.001-0.005C21.459,12.069,21.463,12.069,21.463,12.071z M20.474,12.983L20.474,12.983L20.474,12.983
					L20.474,12.983z M21.164,12.058c0.002,0,0.001-0.004,0.004-0.006c-0.002,0.008-0.002,0.015-0.002,0.021
					c-0.002-0.002,0-0.006-0.003-0.009C21.163,12.063,21.163,12.06,21.164,12.058z M21.266,11.956c0,0,0,0-0.002,0l0,0H21.266z
					 M21.249,12.019c0-0.001,0-0.001,0.001-0.001c0,0-0.001,0.001-0.001,0.002C21.249,12.019,21.249,12.019,21.249,12.019z
					 M20.417,11.428c-0.006,0.001-0.013,0.005-0.017,0.01C20.402,11.431,20.407,11.429,20.417,11.428z M21.086,12.072
					c-0.005-0.001-0.009-0.003-0.014-0.003C21.077,12.068,21.081,12.072,21.086,12.072z M20.487,12.672c0-0.001,0-0.001,0-0.001l0,0
					V12.672z M20.546,11.32L20.546,11.32c0-0.001,0-0.001,0-0.001S20.546,11.319,20.546,11.32z M20.547,11.322
					c0.001,0,0.001,0.001,0.001,0.003l0,0C20.547,11.324,20.548,11.322,20.547,11.322z M20.778,12.083
					c-0.001,0.004-0.005,0.004-0.007,0.005c0.001-0.003,0.002-0.006,0.002-0.01C20.774,12.08,20.778,12.08,20.778,12.083z
					 M20.648,11.737c0,0,0,0.001-0.001,0.002C20.648,11.738,20.648,11.737,20.648,11.737L20.648,11.737z M20.482,11.714
					c0.001,0.003,0.002,0.005,0.003,0.008c-0.001-0.002-0.003-0.002-0.003-0.002C20.48,11.717,20.482,11.717,20.482,11.714z
					 M20.656,11.677c0,0.001-0.002,0.002-0.002,0.003c-0.001-0.001-0.001,0-0.002-0.001C20.654,11.679,20.654,11.678,20.656,11.677z
					 M20.479,11.785c-0.003-0.006-0.005-0.012-0.01-0.02C20.475,11.771,20.479,11.778,20.479,11.785z M20.806,12.187
					c-0.001-0.002-0.003-0.002-0.006-0.005c0.001,0,0.003,0.002,0.004,0.002C20.805,12.185,20.806,12.186,20.806,12.187z
					 M20.81,12.193L20.81,12.193L20.81,12.193L20.81,12.193z M20.906,11.594c0-0.002,0-0.005,0-0.008c0.002,0,0,0.001,0.002,0.003
					C20.908,11.588,20.907,11.591,20.906,11.594z M20.648,11.635c-0.001-0.006-0.003-0.013-0.006-0.016
					C20.646,11.623,20.647,11.629,20.648,11.635z M20.479,12.586c-0.003,0.002-0.004,0.004-0.005,0.005l0,0
					C20.476,12.589,20.477,12.587,20.479,12.586z M20.451,12.612L20.451,12.612L20.451,12.612L20.451,12.612z M20.427,12.125
					c-0.004,0.001-0.005-0.002-0.009,0.001c-0.001-0.005-0.002-0.01-0.002-0.015C20.419,12.114,20.422,12.121,20.427,12.125z
					 M20.849,12.874c-0.001-0.002-0.005-0.004-0.003-0.006c-0.001,0.002,0.003,0.002,0.004,0.005
					C20.849,12.873,20.849,12.874,20.849,12.874z M20.532,11.328c-0.003,0-0.007,0.001-0.009,0
					C20.525,11.328,20.528,11.328,20.532,11.328z M19.675,12.669c-0.001,0-0.001,0-0.001,0c-0.001,0.001-0.001,0.003-0.003,0.004
					c-0.001,0-0.002,0-0.004,0c0.002,0,0.004,0.001,0.007-0.004l0.001-0.001C19.675,12.669,19.675,12.669,19.675,12.669z
					 M19.643,12.674c-0.004,0.001-0.004,0.004-0.007,0.005C19.639,12.678,19.638,12.674,19.643,12.674z M19.636,11.943
					c0.002-0.002,0.004-0.003,0.006-0.005C19.639,11.939,19.638,11.942,19.636,11.943L19.636,11.943z M19.827,11.953
					c0,0,0,0,0.002,0C19.827,11.954,19.827,11.954,19.827,11.953C19.827,11.953,19.827,11.953,19.827,11.953z M20.054,12.013v-0.002
					v-0.002C20.054,12.011,20.054,12.012,20.054,12.013z M19.883,11.956c-0.001,0.001-0.001,0.001-0.001,0.002
					c0-0.002,0-0.004,0-0.005C19.883,11.954,19.882,11.956,19.883,11.956z M19.947,11.34c0,0.002,0.003,0.002,0.002,0.003
					c-0.002-0.001-0.003,0-0.005-0.001C19.945,11.341,19.947,11.341,19.947,11.34z M19.812,11.497
					c0.001-0.003,0.001-0.003,0.002-0.004c0,0.001,0,0.001,0.002,0.001C19.813,11.495,19.813,11.495,19.812,11.497z M19.676,11.585
					c0.006,0.006,0.004,0.011,0.011,0.016c-0.007-0.002-0.011,0.001-0.016,0.001C19.675,11.598,19.676,11.591,19.676,11.585z
					 M19.57,12.173c0.001,0.004,0.002,0.007,0.003,0.011l0,0c-0.001-0.002,0-0.006-0.002-0.006c-0.004,0-0.004,0.005-0.004,0.009
					c-0.001,0-0.001,0-0.001,0C19.567,12.182,19.57,12.178,19.57,12.173z M19.507,12.401c-0.001-0.001-0.001-0.001-0.002-0.002
					C19.506,12.4,19.506,12.4,19.507,12.401z M19.84,11.439L19.84,11.439c-0.021-0.003-0.041,0.012-0.063,0.027
					c-0.003,0.002-0.006,0.002-0.009,0.002c-0.001,0-0.001,0-0.003,0.001C19.789,11.459,19.815,11.45,19.84,11.439L19.84,11.439
					L19.84,11.439z M19.435,11.909L19.435,11.909C19.435,11.909,19.435,11.908,19.435,11.909
					C19.435,11.908,19.435,11.908,19.435,11.909C19.435,11.908,19.435,11.908,19.435,11.909z M19.745,12.416
					c0,0.001,0.001,0.001,0.001,0.002c-0.001,0,0,0.001-0.001,0.001c0-0.001,0-0.001,0-0.001
					C19.745,12.417,19.745,12.417,19.745,12.416z M20.412,12.169c-0.001,0-0.001,0.002-0.003,0.002
					C20.409,12.171,20.411,12.169,20.412,12.169C20.411,12.169,20.411,12.169,20.412,12.169z M20.391,12.652L20.391,12.652
					C20.391,12.652,20.391,12.652,20.391,12.652z M20.693,12.552c-0.004-0.003-0.006-0.002-0.01-0.005c0.002,0,0.009,0.001,0.011,0
					C20.693,12.549,20.693,12.55,20.693,12.552z M21.07,12.285c0,0,0,0.001,0,0.002c0-0.002-0.002,0-0.002-0.002
					C21.07,12.286,21.07,12.285,21.07,12.285z M21.409,12.206L21.409,12.206L21.409,12.206L21.409,12.206z M21.409,12.636
					c0,0.002,0,0.002-0.001,0.002c-0.002-0.002-0.002-0.005-0.005-0.005C21.405,12.634,21.406,12.636,21.409,12.636z M21.099,11.774
					C21.098,11.774,21.098,11.774,21.099,11.774c-0.001-0.001-0.001-0.001-0.001-0.003C21.099,11.771,21.098,11.773,21.099,11.774z
					 M19.523,12.959C19.522,12.958,19.522,12.958,19.523,12.959c-0.001-0.001,0-0.001,0.001-0.001
					C19.524,12.958,19.523,12.958,19.523,12.959z M19.781,12.387L19.781,12.387L19.781,12.387L19.781,12.387z M19.781,12.387
					c-0.001-0.002,0-0.002-0.001-0.002l0,0c-0.004-0.002-0.003-0.009-0.007-0.013c0.002,0.006,0.006,0.01,0.008,0.014
					C19.781,12.386,19.781,12.386,19.781,12.387z M19.954,12.776c-0.001,0.001-0.003,0.001-0.004,0.002
					C19.951,12.778,19.953,12.776,19.954,12.776z M20.466,13.035c0.001,0.002,0.001,0.004,0.002,0.004
					c-0.001,0.002-0.002,0.002-0.003,0.002C20.466,13.039,20.465,13.037,20.466,13.035z M20.536,12.873
					c0.001,0.002,0.001,0.002,0.002,0.002C20.537,12.875,20.537,12.874,20.536,12.873z M20.556,12.627
					c0.003-0.004,0.003-0.005,0.004-0.009c0,0.004,0.004,0.002,0.005,0.005C20.56,12.623,20.56,12.626,20.556,12.627z
					 M20.577,12.639L20.577,12.639L20.577,12.639z M20.933,13.148c0,0.001-0.001,0.002-0.001,0.004c-0.002,0-0.002,0-0.003,0.002
					C20.93,13.152,20.932,13.149,20.933,13.148z M21.29,12.792L21.29,12.792L21.29,12.792z M21.433,12.78l0.002-0.002
					c0,0.002,0,0.002,0,0.002C21.433,12.781,21.435,12.78,21.433,12.78c0,0.002,0,0.003-0.001,0.005c0,0,0-0.002-0.001-0.002
					C21.433,12.784,21.431,12.781,21.433,12.78z M21.251,11.683C21.251,11.682,21.251,11.683,21.251,11.683
					c0-0.001,0.002-0.003,0.002-0.005c0.001,0.002,0.001,0.004,0.002,0.004C21.254,11.683,21.253,11.683,21.251,11.683z
					 M21.146,11.073c0.001,0.002,0.002,0,0.003,0.002c-0.001,0-0.002,0-0.003,0.001C21.146,11.075,21.146,11.075,21.146,11.073z
					 M20.979,11.401C20.979,11.401,20.979,11.404,20.979,11.401c-0.001,0-0.002,0-0.002,0c0-0.001-0.003-0.001-0.003-0.002l0,0
					c0.001,0.002,0.005,0.001,0.008,0.001C20.979,11.4,20.979,11.401,20.979,11.401z M20.75,11.259c0,0,0,0-0.002,0H20.75
					L20.75,11.259z M20.475,11.199L20.475,11.199L20.475,11.199L20.475,11.199z M20.403,11.235c0.001,0.001,0.002,0,0.004,0
					c0,0.002,0,0.004,0,0.006c-0.002-0.004-0.004-0.005-0.007-0.006C20.402,11.235,20.402,11.235,20.403,11.235z M20.146,11.414
					c-0.001-0.001-0.004-0.002-0.005-0.005c0.003,0.002,0.005,0.005,0.008,0.006C20.147,11.414,20.146,11.415,20.146,11.414z
					 M19.898,10.926c0.002-0.001,0-0.001,0.002-0.003l0,0C19.9,10.925,19.9,10.925,19.898,10.926z M19.742,11.211L19.742,11.211
					c0,0.002-0.001,0.002,0,0.004c-0.001,0-0.001,0.002-0.001,0.004C19.74,11.215,19.744,11.213,19.742,11.211
					C19.741,11.211,19.742,11.211,19.742,11.211L19.742,11.211z M19.421,11.646C19.421,11.646,19.421,11.646,19.421,11.646
					L19.421,11.646C19.421,11.646,19.421,11.646,19.421,11.646L19.421,11.646z M19.241,11.546v-0.001c0,0.001,0.001,0,0.002,0.001
					C19.242,11.546,19.242,11.546,19.241,11.546z M18.558,12.458L18.558,12.458L18.558,12.458c0.001,0.001,0.001,0.001,0.001,0.002
					C18.559,12.458,18.558,12.458,18.558,12.458L18.558,12.458z M18.726,12.636L18.726,12.636c0.002,0.002,0.002,0,0.004,0
					c-0.002,0-0.002,0.002-0.003,0.002C18.727,12.638,18.726,12.638,18.726,12.636L18.726,12.636L18.726,12.636z M18.81,12.361
					L18.81,12.361C18.81,12.361,18.81,12.361,18.81,12.361L18.81,12.361z M18.963,12.089L18.963,12.089L18.963,12.089L18.963,12.089
					z M19.072,12.158c0,0.002,0,0.004,0,0.005c-0.002,0-0.002-0.001-0.003-0.001C19.07,12.161,19.07,12.16,19.072,12.158z
					 M19.504,12.852C19.504,12.852,19.504,12.852,19.504,12.852c0,0.002-0.002,0.002-0.002,0.004
					C19.502,12.854,19.504,12.854,19.504,12.852z M19.888,12.492L19.888,12.492L19.888,12.492c-0.001-0.001-0.003-0.001-0.003-0.002
					C19.887,12.491,19.887,12.491,19.888,12.492z M20.283,12.265c-0.004,0.014-0.004,0.026-0.001,0.039
					c-0.002-0.002-0.006-0.003-0.007-0.006c-0.002-0.008-0.005-0.02,0-0.023C20.28,12.272,20.279,12.267,20.283,12.265z
					 M20.56,12.901c0-0.001-0.001-0.002-0.003-0.002c0.003,0,0.003-0.002,0.004-0.002C20.56,12.899,20.56,12.9,20.56,12.901z
					 M20.594,13.003c0.002,0.005,0.002,0.011,0.005,0.015c-0.003,0.003-0.003,0.002-0.007,0.004
					C20.596,13.016,20.592,13.01,20.594,13.003z M20.952,12.958h0.002H20.952z M21.288,10.888L21.288,10.888
					c0.001-0.001,0.002-0.003,0.001-0.006C21.295,10.885,21.29,10.887,21.288,10.888z M20.743,11.25c0.002,0,0.002,0,0.002,0
					C20.743,11.25,20.742,11.25,20.743,11.25C20.742,11.25,20.743,11.248,20.743,11.25z M20.392,11.235c0,0,0,0-0.001,0.001
					C20.391,11.235,20.391,11.235,20.392,11.235C20.392,11.235,20.392,11.235,20.392,11.235z M19.056,10.89L19.056,10.89
					c0,0,0,0.001-0.001,0.003C19.056,10.891,19.055,10.89,19.056,10.89z M18.451,11.897c-0.001-0.003-0.002-0.004-0.005-0.005
					c0.001,0,0.004,0.002,0.004,0.002v0.001C18.45,11.894,18.451,11.894,18.451,11.897z M18.403,12.04
					c0.002,0.003,0,0.004,0.002,0.006c0.001,0.001-0.003,0.002-0.004,0.004C18.402,12.048,18.402,12.044,18.403,12.04z
					 M18.485,12.345c0.001,0,0.001,0.001,0.001,0.001c-0.001,0.002-0.004,0.002-0.005,0.002
					C18.482,12.346,18.485,12.346,18.485,12.345z M18.45,12.552h0.001c0,0.002,0,0.002,0,0.004
					C18.45,12.555,18.45,12.554,18.45,12.552z M19.253,12L19.253,12L19.253,12c0,0.002,0,0.002,0,0.002
					C19.252,12.002,19.253,12,19.253,12z M19.332,12.4c-0.001,0.001-0.001,0.001-0.001,0.002c-0.001-0.001-0.001-0.001-0.001-0.002
					C19.33,12.4,19.331,12.4,19.332,12.4z M19.493,12.945c0,0.005,0.003,0.006,0.003,0.01c-0.001-0.001-0.003-0.006-0.005-0.007
					C19.492,12.948,19.492,12.946,19.493,12.945z M19.697,13.338C19.697,13.339,19.697,13.339,19.697,13.338
					C19.696,13.338,19.696,13.339,19.697,13.338C19.696,13.339,19.696,13.338,19.697,13.338z M19.725,12.986
					c0-0.002-0.001-0.002-0.001-0.003c0.001,0,0.003,0,0.004,0C19.727,12.984,19.727,12.985,19.725,12.986z M20.543,13.014
					L20.543,13.014c0,0.002,0,0.002,0,0.002l0,0V13.014z M20.872,13.218c0.005-0.003,0.011-0.009,0.017-0.014
					c-0.001,0.007-0.004,0.011-0.006,0.017c-0.002,0.005-0.006,0.006-0.009,0.002C20.874,13.222,20.872,13.219,20.872,13.218z
					 M20.906,13.513c0.001,0,0.004,0.002,0.005,0.004c-0.001,0-0.003,0-0.004,0C20.906,13.515,20.906,13.513,20.906,13.513z
					 M20.983,13.319c0-0.002-0.001-0.004-0.001-0.004c0.003-0.002,0.004,0,0.006,0C20.986,13.315,20.985,13.317,20.983,13.319z
					 M21.408,12.829c0.001,0,0.001,0.001,0.001,0.001s-0.001,0.001-0.001,0.002c0-0.001,0-0.002-0.002-0.002
					C21.408,12.83,21.408,12.829,21.408,12.829z M21.263,11.352c0.001,0,0.001,0,0.001,0v0.001
					C21.263,11.354,21.264,11.352,21.263,11.352z M21.134,10.887L21.134,10.887L21.134,10.887L21.134,10.887z M20.93,11.007
					L20.93,11.007L20.93,11.007L20.93,11.007z M20.742,10.713L20.742,10.713L20.742,10.713z M19.488,11.684
					c-0.004-0.003-0.006-0.009-0.007-0.018h-0.002c0,0,0,0,0.002,0l0,0C19.475,11.677,19.483,11.679,19.488,11.684z M18.984,10.606
					c-0.001,0-0.001,0-0.001,0.001c0-0.001,0-0.001-0.002-0.001C18.983,10.606,18.983,10.606,18.984,10.606z M18.954,10.69
					L18.954,10.69c-0.001,0-0.001,0.002-0.002,0.002C18.953,10.692,18.953,10.69,18.954,10.69z M18.755,11.293
					c-0.001-0.003-0.001-0.007-0.002-0.011c0.001,0.002,0.004,0,0.004,0.002C18.757,11.288,18.755,11.29,18.755,11.293z
					 M18.642,11.438c0,0,0.001,0,0.001,0.002c-0.001,0-0.001,0-0.002,0C18.642,11.438,18.641,11.438,18.642,11.438z M18.531,12.008
					c-0.006-0.002-0.009-0.004-0.01-0.009C18.523,12.003,18.527,12.005,18.531,12.008z M18.357,11.927
					c0.001-0.002,0,0.001-0.001,0.002c0-0.001,0-0.001,0-0.001C18.354,11.929,18.354,11.929,18.357,11.927z M18.714,12.792
					L18.714,12.792L18.714,12.792L18.714,12.792z M18.766,12.779c-0.002,0.005,0.001,0.006,0.002,0.01
					c-0.002-0.003-0.004-0.006-0.006-0.009C18.764,12.78,18.763,12.78,18.766,12.779z M18.762,12.89
					c0.002-0.001,0.005-0.002,0.006-0.002c0,0.002-0.004,0.004-0.005,0.006C18.764,12.892,18.761,12.892,18.762,12.89z
					 M20.221,13.074L20.221,13.074c0,0-0.002,0-0.002,0.001C20.221,13.074,20.221,13.074,20.221,13.074z M20.879,13.464
					L20.879,13.464c0,0-0.002,0-0.003,0C20.877,13.464,20.879,13.464,20.879,13.464z M20.95,10.983c-0.002,0,0,0,0.004,0
					c-0.002,0-0.002,0.002-0.002,0.002C20.951,10.985,20.951,10.985,20.95,10.983z M20.731,10.654L20.731,10.654L20.731,10.654
					L20.731,10.654z M20.498,10.517c0,0.002,0,0.002,0,0.002c0,0.002,0.001,0.004,0.001,0.006c-0.002-0.004-0.002-0.006-0.003-0.009
					C20.497,10.517,20.497,10.517,20.498,10.517z M20.4,10.728C20.399,10.728,20.399,10.728,20.4,10.728
					C20.399,10.728,20.399,10.728,20.4,10.728z M19.097,10.951c-0.002-0.001-0.004-0.002-0.006-0.002c0.002,0,0.004,0,0.006,0
					C19.097,10.95,19.097,10.95,19.097,10.951z M18.872,11.189L18.872,11.189L18.872,11.189L18.872,11.189z M18.666,11.379
					L18.666,11.379c0,0-0.001,0-0.001-0.001l0,0L18.666,11.379L18.666,11.379L18.666,11.379z M18.331,11.75c0,0,0,0-0.001,0
					C18.331,11.75,18.331,11.75,18.331,11.75L18.331,11.75z M19.033,12.402c0.001-0.002,0.004-0.004,0.006-0.005l0,0
					C19.037,12.398,19.034,12.4,19.033,12.402c0,0.003,0.001,0.003,0.001,0.003c0,0.001,0,0.001,0,0.001
					C19.034,12.405,19.033,12.405,19.033,12.402z M19.033,12.33c-0.003-0.004-0.001-0.005-0.005-0.009
					c0.001-0.001,0.001-0.003,0.002-0.003C19.029,12.321,19.034,12.325,19.033,12.33z M20.258,13.055h0.001l0,0H20.258z
					 M20.354,13.332C20.355,13.332,20.355,13.332,20.354,13.332C20.355,13.332,20.355,13.332,20.354,13.332L20.354,13.332z
					 M20.492,13.166L20.492,13.166L20.492,13.166z M20.772,13.388c0-0.001,0-0.002-0.001-0.002
					C20.772,13.386,20.772,13.387,20.772,13.388z M21.086,13.014c-0.003-0.002-0.009-0.004-0.014-0.006
					C21.077,13.01,21.083,13.01,21.086,13.014z M21.521,13.273c0.003,0,0.005,0.002,0.008,0c-0.002,0.002-0.002,0.003-0.003,0.003
					C21.524,13.274,21.521,13.273,21.521,13.273z M21.435,11.206c0.001,0-0.003,0.002-0.003,0.004c0-0.002-0.001-0.005-0.001-0.009
					C21.432,11.202,21.432,11.205,21.435,11.206z M21.299,11.15c-0.001-0.002-0.001-0.002-0.001-0.002
					c0.002-0.002,0.001-0.005,0.004-0.008l0,0C21.299,11.142,21.299,11.146,21.299,11.15z M20.942,10.908
					c0.001,0,0.001,0,0.001-0.001c0,0.001,0.002,0,0.002,0C20.945,10.908,20.943,10.908,20.942,10.908z M20.319,10.741
					c-0.003,0.005,0.001,0.007,0.004,0.01c-0.005-0.001-0.004-0.007-0.012-0.009C20.315,10.742,20.315,10.742,20.319,10.741z
					 M19.949,10.634L19.949,10.634c0,0-0.002,0-0.003-0.002C19.947,10.634,19.949,10.634,19.949,10.634z M19.252,10.903
					c-0.001-0.005-0.002-0.011-0.004-0.015C19.251,10.892,19.252,10.898,19.252,10.903z M18.335,11.5
					c0-0.001,0.001-0.003,0.001-0.006c0.002,0.004,0.004,0.006,0.005,0.009C18.339,11.502,18.338,11.502,18.335,11.5z M18.31,11.673
					c-0.003,0.001-0.006,0.004-0.007,0.007c0-0.005,0.004-0.009,0.004-0.014C18.309,11.669,18.308,11.67,18.31,11.673z
					 M18.405,12.56c0,0.003-0.005,0.003-0.007,0.007c0-0.002,0.003-0.007,0.003-0.01C18.402,12.558,18.405,12.558,18.405,12.56z
					 M19.541,13.544c0,0-0.001,0.002-0.001,0.003c-0.001,0-0.001,0-0.001,0C19.54,13.546,19.541,13.544,19.541,13.544L19.541,13.544
					z M19.817,13.308c0,0,0.001,0,0.003,0C19.818,13.308,19.818,13.308,19.817,13.308C19.818,13.31,19.817,13.308,19.817,13.308z
					 M19.954,13.276c0.002,0,0.004,0,0.006-0.001c-0.001,0.001-0.001,0.003-0.002,0.004C19.955,13.279,19.955,13.278,19.954,13.276z
					 M20.654,13.358c0,0,0.002,0.002,0.002,0.004C20.656,13.36,20.654,13.358,20.654,13.358L20.654,13.358z M21.115,13.568
					C21.116,13.568,21.116,13.568,21.115,13.568c0.002,0,0.002,0,0.002,0.001C21.116,13.568,21.116,13.568,21.115,13.568z
					 M21.601,12.913L21.601,12.913L21.601,12.913L21.601,12.913z M21.435,11.1c-0.004,0.004-0.008,0.005-0.012,0.005
					c-0.004-0.003-0.004-0.003-0.003-0.003l0,0c0-0.001,0-0.001-0.001-0.003C21.424,11.102,21.429,11.104,21.435,11.1L21.435,11.1z
					 M21.121,10.625c0-0.004-0.004-0.006-0.004-0.012c0.003,0.005,0.004,0.009,0.008,0.012
					C21.124,10.625,21.123,10.625,21.121,10.625z M19.556,10.574c0.002,0,0,0.002,0,0.002c0.002,0.003-0.003,0.011-0.009,0.015
					c-0.001,0.002-0.006,0-0.008-0.001C19.546,10.585,19.551,10.579,19.556,10.574z M18.438,11.583
					c-0.002-0.002-0.006-0.003-0.007-0.006c0.001,0.001,0.003-0.002,0.005-0.002c0.001,0.002,0.004,0.004,0.005,0.006
					C18.44,11.582,18.44,11.583,18.438,11.583z M18.736,13.418c0.008,0.004,0.016,0.001,0.023,0.001
					c-0.005,0.01-0.009,0.017-0.023,0.014C18.734,13.429,18.736,13.423,18.736,13.418z M20.291,13.219
					c-0.003-0.002-0.007-0.004-0.012-0.007C20.284,13.215,20.288,13.215,20.291,13.219z M20.725,13.759
					c-0.002,0.002-0.004,0.004-0.006,0.005c0.001-0.005-0.003-0.009-0.003-0.013C20.719,13.753,20.724,13.755,20.725,13.759z
					 M20.955,14.024c-0.001,0-0.001,0.004-0.003,0.003c-0.002-0.003,0-0.005-0.001-0.006C20.952,14.023,20.954,14.024,20.955,14.024
					z M21.121,13.571c0,0,0,0,0,0.001c0,0,0,0.003,0,0.005c-0.001-0.002-0.001-0.004-0.002-0.004
					C21.12,13.573,21.12,13.571,21.121,13.571z M21.638,12.905c0.003,0.001,0.003,0.002,0.004,0.002
					C21.641,12.909,21.641,12.905,21.638,12.905z M21.548,10.982c0-0.003,0-0.006,0.001-0.011c-0.001,0.006,0.003,0.01,0.002,0.014
					C21.551,10.983,21.548,10.983,21.548,10.982z M21.262,10.643c0,0,0,0,0-0.002c0,0.002,0.001,0,0.001,0
					C21.262,10.643,21.263,10.643,21.262,10.643z M21.219,10.613c-0.005,0.003-0.008,0.008-0.011,0.012
					C21.211,10.618,21.214,10.614,21.219,10.613z M21.05,10.517h-0.001l0,0l0,0H21.05c0,0-0.001,0-0.001,0
					C21.05,10.517,21.05,10.517,21.05,10.517z M20.407,10.387c0,0-0.002-0.001-0.002-0.002c0.002,0,0.002,0,0.003,0
					C20.408,10.385,20.407,10.387,20.407,10.387z M20.307,10.697L20.307,10.697L20.307,10.697L20.307,10.697z M19.281,11.176
					L19.281,11.176L19.281,11.176L19.281,11.176z M19.109,10.298c-0.001,0-0.001-0.002-0.003-0.002
					c-0.003-0.003-0.001-0.006,0.003-0.01C19.108,10.29,19.109,10.294,19.109,10.298z M18.316,11.266c0-0.001-0.003,0-0.003-0.002
					c0-0.009,0.003-0.021,0.008-0.026C18.318,11.245,18.317,11.255,18.316,11.266z M18.312,11.062
					c-0.004-0.009-0.003-0.019-0.016-0.017l0,0c0.005,0.005,0.017,0.012,0.017,0.014C18.312,11.06,18.313,11.061,18.312,11.062z
					 M18.175,12.338c-0.003-0.004-0.005-0.006-0.009-0.009c0-0.001,0-0.001,0-0.001c0.003,0.003,0.006,0.005,0.009,0.007
					C18.175,12.336,18.176,12.337,18.175,12.338z M18.285,12.731c-0.003,0.005,0,0.009-0.002,0.012
					c-0.001-0.003-0.001-0.01-0.002-0.011C18.282,12.732,18.282,12.731,18.285,12.731z M18.535,13.53c-0.001,0-0.005,0-0.005,0
					c-0.001-0.018-0.012-0.032-0.021-0.046C18.518,13.501,18.521,13.517,18.535,13.53z M19.073,13.751L19.073,13.751L19.073,13.751
					L19.073,13.751z M19.261,13.987L19.261,13.987l0.001,0.002C19.262,13.987,19.261,13.987,19.261,13.987z M19.673,13.726
					c0,0.002,0.001,0.002,0.002,0.003c-0.001,0-0.002,0-0.002,0S19.673,13.727,19.673,13.726z M20.319,13.704c0,0,0,0,0-0.002l0,0
					l0,0l0,0V13.704L20.319,13.704z M20.435,13.805L20.435,13.805L20.435,13.805z M21.108,13.631L21.108,13.631L21.108,13.631
					L21.108,13.631z M21.349,13.415L21.349,13.415L21.349,13.415L21.349,13.415z M21.66,13.335h0.002l0,0H21.66z M21.521,10.75
					c0-0.001-0.003-0.002-0.003-0.005C21.52,10.748,21.521,10.748,21.521,10.75z M21.2,10.552L21.2,10.552L21.2,10.552L21.2,10.552z
					 M20.69,10.399c0.002-0.001,0.003-0.003,0.004-0.005C20.692,10.396,20.691,10.398,20.69,10.399z M20.106,10.36
					c0.001,0,0.001-0.002,0.001-0.003c0.003,0.001,0.006,0,0.008,0.003C20.111,10.36,20.109,10.36,20.106,10.36z M19.381,10.316
					c-0.002-0.002-0.006-0.001-0.009-0.003c0.003,0,0.005,0,0.008,0C19.38,10.315,19.381,10.315,19.381,10.316z M18.82,10.325
					c0,0,0-0.001-0.001-0.001c0.001,0,0.001,0,0.001,0C18.82,10.325,18.82,10.325,18.82,10.325z M18.106,12.83
					c0,0.001,0.001,0.001,0.001,0.002c-0.001,0-0.003-0.002-0.004-0.002v-0.001C18.104,12.829,18.104,12.83,18.106,12.83z
					 M18.833,13.657c-0.001-0.002-0.004-0.002-0.005-0.002c0.005,0,0.005-0.004,0.009-0.004
					C18.835,13.653,18.834,13.655,18.833,13.657z M18.976,13.618c0.003-0.001,0.003-0.004,0.004-0.005
					c0,0.003-0.001,0.004-0.001,0.005C18.977,13.618,18.977,13.618,18.976,13.618z M19.004,13.715c0.002,0,0.002,0,0.002,0
					c0,0.001-0.003,0.001-0.003,0.001S19.004,13.716,19.004,13.715z M19.411,14.079c0.008,0.008,0.013,0.019,0.019,0.027
					c-0.001-0.002-0.004-0.004-0.005-0.006C19.42,14.094,19.416,14.087,19.411,14.079z M20.104,13.368c0,0,0,0-0.002,0v-0.002
					C20.104,13.368,20.104,13.368,20.104,13.368z M21.588,13.702c0,0.002,0,0.002,0,0.002
					C21.587,13.704,21.587,13.702,21.588,13.702C21.587,13.702,21.587,13.702,21.588,13.702z M21.672,13.128
					C21.672,13.127,21.672,13.127,21.672,13.128C21.673,13.127,21.672,13.127,21.672,13.128L21.672,13.128z M21.671,12.84
					c-0.002,0-0.002,0-0.003,0c0.001,0,0.001,0,0.004-0.001C21.671,12.84,21.671,12.84,21.671,12.84z M21.66,12.84L21.66,12.84
					L21.66,12.84L21.66,12.84c0,0,0,0,0-0.001C21.66,12.84,21.66,12.84,21.66,12.84L21.66,12.84z M21.613,12.759
					C21.613,12.758,21.613,12.758,21.613,12.759C21.614,12.758,21.613,12.758,21.613,12.759
					C21.613,12.758,21.613,12.759,21.613,12.759z M21.637,11.511c-0.001-0.001,0-0.002-0.001-0.002c0.001,0,0.001,0,0.002,0
					L21.637,11.511z M20.654,10.336c-0.001,0-0.001,0-0.001,0H20.654L20.654,10.336z M19.359,10.29l-0.001,0.002l0,0
					C19.358,10.29,19.359,10.29,19.359,10.29L19.359,10.29z M18.818,10.304c-0.002-0.008-0.003-0.013,0.003-0.018
					c0.003-0.002,0.004-0.004,0.007-0.005C18.824,10.289,18.819,10.295,18.818,10.304z M18.797,10.32
					c0.002-0.002,0.005-0.002,0.009-0.002C18.802,10.318,18.799,10.319,18.797,10.32z M18.694,10.441
					c-0.002,0.002-0.003,0.002-0.004,0.003l0,0c0-0.001,0-0.003,0-0.003S18.692,10.441,18.694,10.441z M18.356,10.866
					c0,0,0.001-0.001,0.002-0.002c0,0.002,0,0.002,0,0.005C18.357,10.867,18.357,10.866,18.356,10.866z M18.919,13.675
					c0,0.001,0.002,0.001,0.002,0.002c-0.003,0-0.004,0.002-0.007,0.003C18.917,13.679,18.917,13.677,18.919,13.675z M19.885,13.858
					L19.885,13.858c0,0,0.002,0,0.002,0.002v-0.002v0.002l0,0C19.885,13.86,19.885,13.858,19.885,13.858z M19.911,13.679
					c0.002,0,0.003,0.001,0.003,0.001s-0.001,0-0.003,0.001C19.911,13.68,19.911,13.679,19.911,13.679z M19.972,13.655
					L19.972,13.655L19.972,13.655L19.972,13.655z M19.954,13.558c-0.001-0.002-0.003-0.003-0.004-0.004
					c0.012-0.004,0.021-0.007,0.031-0.01C19.972,13.547,19.96,13.551,19.954,13.558z M20.235,13.614
					c0.01,0.012-0.001,0.017-0.009,0.023C20.233,13.631,20.234,13.622,20.235,13.614C20.235,13.614,20.235,13.614,20.235,13.614z
					 M20.407,13.91c0.001,0.001,0.002,0.003,0.002,0.003c-0.001,0-0.005,0.006-0.006,0.007
					C20.404,13.916,20.405,13.913,20.407,13.91z M20.786,14.073L20.786,14.073L20.786,14.073L20.786,14.073z M21.61,13.727
					L21.61,13.727L21.61,13.727l0.003-0.002c-0.002,0.008,0.004,0.013,0.006,0.017c-0.001,0-0.001,0-0.002-0.001
					C21.614,13.737,21.611,13.732,21.61,13.727z M21.636,13.618c0.001,0,0.001,0.002,0.001,0.002
					c-0.005,0.004-0.01,0.004-0.015,0.006C21.627,13.626,21.636,13.63,21.636,13.618z M21.698,12.957
					c0.001,0.002,0.001,0.004,0.002,0.005c-0.001,0-0.001,0-0.002,0C21.698,12.96,21.698,12.958,21.698,12.957z M21.735,12.912
					h0.002C21.737,12.91,21.735,12.912,21.735,12.912z M21.635,11.495c-0.002-0.006,0-0.011,0.002-0.018
					C21.636,11.484,21.636,11.49,21.635,11.495z M21.445,10.599L21.445,10.599L21.445,10.599L21.445,10.599
					c0.003-0.001,0.004,0,0.005-0.001c-0.001,0.001-0.002,0-0.002,0.001C21.446,10.599,21.446,10.599,21.445,10.599z M21.241,10.384
					c0-0.002,0-0.004,0-0.008c0.002,0.004,0.003,0.005,0.004,0.006C21.244,10.384,21.243,10.384,21.241,10.384z M21.157,10.265
					C21.157,10.265,21.157,10.265,21.157,10.265L21.157,10.265L21.157,10.265L21.157,10.265z M18.993,10.145h-0.004
					C18.99,10.144,18.992,10.145,18.993,10.145L18.993,10.145z M18.692,10.403c0,0.002-0.001,0.003,0,0.004
					c-0.002,0-0.002,0.002-0.003,0.002C18.69,10.407,18.692,10.405,18.692,10.403z M18.619,10.458c0-0.002,0-0.002,0-0.004
					c0,0.002,0.001,0.002,0.001,0.002C18.62,10.457,18.62,10.458,18.619,10.458z M18.606,10.481L18.606,10.481L18.606,10.481
					L18.606,10.481z M18.581,10.496c0,0,0-0.002-0.001-0.004c0.001,0,0.001,0,0.001,0C18.581,10.493,18.581,10.494,18.581,10.496z
					 M18.374,10.802c0.001,0.005,0,0.01,0.001,0.017c-0.006,0.002-0.009-0.003-0.012-0.005C18.367,10.81,18.37,10.806,18.374,10.802
					z M18.211,11.559L18.211,11.559L18.211,11.559L18.211,11.559c0,0,0,0,0.001,0C18.211,11.559,18.211,11.559,18.211,11.559
					L18.211,11.559L18.211,11.559C18.211,11.559,18.211,11.559,18.211,11.559z M18.212,13.178c0-0.001-0.001-0.001-0.001-0.004
					c0.001,0.003,0.001,0.006,0.003,0.007C18.212,13.18,18.212,13.18,18.212,13.178z M18.295,13.335c0-0.002,0-0.003,0-0.003
					c-0.001,0-0.001,0-0.001,0c0-0.001,0.001,0,0.001-0.001c0,0.001,0,0.001,0,0.001c0.001,0,0.001,0.001,0.001,0.001
					S18.296,13.335,18.295,13.335z M18.979,13.916C18.979,13.916,18.979,13.916,18.979,13.916c-0.001-0.005-0.001-0.011-0.001-0.017
					C18.979,13.905,18.983,13.91,18.979,13.916z M20.042,13.84C20.043,13.84,20.043,13.839,20.042,13.84
					c0.002,0,0.001,0.003,0.003,0.003C20.043,13.843,20.043,13.841,20.042,13.84z M20.164,13.581L20.164,13.581L20.164,13.581
					c0,0.001,0,0.001-0.001,0.001L20.164,13.581z M20.653,14.148L20.653,14.148c0,0,0.001,0,0,0.002
					C20.653,14.148,20.653,14.148,20.653,14.148L20.653,14.148z M21.074,14.265L21.074,14.265L21.074,14.265L21.074,14.265
					L21.074,14.265z M21.182,14.276v0.002l0,0V14.276z M18.772,10.283c0-0.002,0.002-0.002,0-0.005c0.002,0,0.003,0,0.003,0
					C18.775,10.28,18.774,10.28,18.772,10.283z M18.597,10.459C18.598,10.459,18.598,10.459,18.597,10.459L18.597,10.459
					C18.598,10.459,18.598,10.459,18.597,10.459z M18.143,12.287c0,0-0.002,0.002,0,0.003h-0.004l0,0l0,0
					C18.14,12.289,18.14,12.287,18.143,12.287z M18.813,13.933c0.002,0.006,0.002,0.014,0.009,0.018l0,0
					C18.818,13.944,18.815,13.938,18.813,13.933z M18.973,13.892c0.002,0.001,0.003,0.002,0.004,0.002c0,0-0.001,0-0.001-0.001
					c0,0,0.001,0,0.001,0.001c0.002,0,0,0.002,0,0.002c0.009,0.008,0.01,0.015,0.002,0.021c-0.002,0-0.002,0-0.003,0
					c0,0,0,0,0,0.002c-0.005,0.002-0.009,0.005-0.015,0.008l0,0c0.006-0.002,0.011-0.004,0.015-0.01
					C18.981,13.909,18.979,13.899,18.973,13.892z M19.086,14.014L19.086,14.014L19.086,14.014L19.086,14.014z M19.086,14.014
					L19.086,14.014L19.086,14.014L19.086,14.014z M19.346,14.253c0.001,0.005,0.008,0.005,0,0.004
					C19.345,14.257,19.345,14.255,19.346,14.253L19.346,14.253z M19.528,14.19c0,0,0,0,0-0.002c0,0.002,0,0.002,0.002,0.002
					C19.528,14.19,19.528,14.19,19.528,14.19z M19.756,13.851c0-0.002,0-0.004,0-0.004s0.002,0,0.003,0
					C19.758,13.847,19.758,13.849,19.756,13.851z M19.998,13.88L19.998,13.88L19.998,13.88L19.998,13.88z M20.178,13.606
					c0-0.002,0-0.002,0-0.002s0,0,0.001,0C20.179,13.604,20.179,13.606,20.178,13.606z M21.037,14.265c0,0,0,0.002,0.002,0.002
					c-0.002,0-0.003,0.002-0.004,0.004C21.035,14.268,21.037,14.267,21.037,14.265z M21.912,13.847l0.001-0.002L21.912,13.847
					L21.912,13.847z M21.734,12.993c0.001,0,0.003,0,0.003,0S21.735,12.993,21.734,12.993
					C21.735,12.993,21.734,12.993,21.734,12.993z M21.637,12.061L21.637,12.061L21.637,12.061L21.637,12.061z M20.616,10.159
					c-0.002,0-0.002,0-0.002,0.002c-0.002-0.002-0.005,0-0.007-0.002C20.609,10.159,20.613,10.159,20.616,10.159z M20.648,10.301
					c-0.005-0.001-0.009-0.002-0.013-0.002C20.64,10.299,20.644,10.301,20.648,10.301z M18.704,10.311c0,0.002,0,0.002,0,0.002l0,0
					C18.704,10.313,18.704,10.313,18.704,10.311z M18.127,12.29L18.127,12.29c0.003,0,0.005,0,0.008,0c-0.004,0-0.006,0-0.009,0.002
					C18.126,12.291,18.127,12.291,18.127,12.29c0,0,0,0,0-0.001V12.29z M19.573,14.433c0,0,0,0,0.002,0c-0.002,0,0.001,0,0,0H19.573
					z M19.839,13.941L19.839,13.941c0,0,0,0,0,0.001V13.941z M19.889,14.024L19.889,14.024L19.889,14.024c-0.001,0-0.001,0-0.001,0
					S19.888,14.024,19.889,14.024z M19.986,13.893L19.986,13.893c0.003,0,0.007,0.001,0.009,0.001l0,0
					C19.993,13.893,19.989,13.89,19.986,13.893z M21.001,14.265l0.004-0.003c0.001,0.001,0.001,0.001,0.003,0.003
					C21.005,14.265,21.004,14.265,21.001,14.265z M21.445,13.87c0.003,0,0.004,0,0.006,0.001l0,0
					C21.449,13.87,21.448,13.867,21.445,13.87L21.445,13.87z"/>
				<polygon style="fill-rule:evenodd;clip-rule:evenodd;" points="18.127,13.427 18.127,13.427 18.127,13.427 				"/>
				<path style="fill-rule:evenodd;clip-rule:evenodd;" d="M21.889,13.523c0.003,0.003,0.007,0.007,0.01,0.011
					c0.001,0.004,0.001,0.01,0.001,0.013c0.004,0.004,0.008,0.008,0.012,0.011c0.001,0.004,0.001,0.008,0.001,0.012
					c0.01,0.013,0.019,0.012,0.023-0.004c0.003-0.011,0-0.023-0.01-0.031c-0.001-0.004-0.001-0.008-0.001-0.011
					c-0.004-0.004-0.008-0.008-0.012-0.013c0-0.004,0-0.008,0-0.012c-0.005-0.004-0.009-0.008-0.013-0.012c0-0.004,0-0.008,0-0.012
					c-0.01-0.015-0.024-0.022-0.042-0.029c-0.002,0.02,0.006,0.031,0.019,0.041C21.885,13.497,21.876,13.513,21.889,13.523z"/>
				<path style="fill-rule:evenodd;clip-rule:evenodd;" d="M18.188,13.475L18.188,13.475c-0.005-0.004-0.009-0.008-0.013-0.011l0,0
					c-0.004-0.006-0.008-0.008-0.012-0.014c0-0.004-0.001-0.007-0.001-0.011c-0.004-0.004-0.008-0.009-0.011-0.013l0,0
					c-0.009-0.006-0.017-0.006-0.024,0c-0.007,0.013-0.009,0.023,0,0.037l0,0c0.004,0.003,0.008,0.007,0.012,0.011
					c0.004,0.005,0.009,0.007,0.013,0.013c0.003,0,0.009,0,0.012,0c0.006,0.008,0.008,0.014,0.015,0.019
					c0.01,0.01,0.024,0.024,0.034,0.01c0.017-0.016-0.005-0.024-0.015-0.035C18.194,13.477,18.191,13.477,18.188,13.475z"/>
				<path style="fill-rule:evenodd;clip-rule:evenodd;" d="M19.795,10.236c-0.011-0.012-0.022-0.023-0.039-0.01
					c-0.002,0.002-0.002,0.009-0.001,0.01c0.01,0.008,0.022,0.004,0.034,0.004C19.79,10.24,19.791,10.238,19.795,10.236z"/>
				<path style="fill-rule:evenodd;clip-rule:evenodd;" d="M21.797,13.262c0,0.008,0.005,0.014,0.013,0.017
					c0.006,0.001,0.013,0,0.014-0.006c0.003-0.012-0.006-0.017-0.015-0.023C21.801,13.25,21.797,13.254,21.797,13.262z"/>
				<path style="fill-rule:evenodd;clip-rule:evenodd;" d="M21.823,12.206c0-0.006-0.004-0.01-0.01-0.011
					c-0.007,0-0.013,0.002-0.012,0.008c0,0.003,0.005,0.007,0.008,0.01C21.818,12.214,21.822,12.212,21.823,12.206z"/>
				<path style="fill-rule:evenodd;clip-rule:evenodd;" d="M18.04,14.296c0.001,0.008,0.005,0.012,0.011,0.014
					c0.004,0,0.009-0.003,0.01-0.004c0.003-0.007,0-0.012-0.006-0.014C18.049,14.29,18.042,14.29,18.04,14.296z"/>
				<path style="fill-rule:evenodd;clip-rule:evenodd;" d="M21.8,11.964c0-0.005-0.004-0.01-0.008-0.013
					c-0.008-0.005-0.009,0.002-0.012,0.01c0.003,0.003,0.004,0.009,0.009,0.01C21.796,11.976,21.8,11.971,21.8,11.964z"/>
				<polygon style="fill-rule:evenodd;clip-rule:evenodd;" points="18.216,13.646 18.227,13.649 18.229,13.642 18.22,13.636 				"/>
				<path style="fill-rule:evenodd;clip-rule:evenodd;" d="M21.744,11.882c-0.007,0.003-0.02,0-0.015,0.011
					c0.006,0.012,0.018,0.015,0.026,0.001C21.752,11.891,21.748,11.885,21.744,11.882z"/>
				<path style="fill-rule:evenodd;clip-rule:evenodd;" d="M21.708,11.845c0.008,0.012,0.018,0.017,0.029,0.008
					c0.007-0.006,0.002-0.014-0.004-0.019C21.715,11.815,21.711,11.829,21.708,11.845z"/>
				<path style="fill-rule:evenodd;clip-rule:evenodd;" d="M20.303,10.23c0-0.005-0.002-0.006-0.007-0.005
					c-0.002,0.004-0.003,0.006-0.005,0.01c0.003,0,0.006,0,0.01,0C20.302,10.235,20.303,10.233,20.303,10.23z"/>
				<path style="fill-rule:evenodd;clip-rule:evenodd;" d="M18.873,14.007c0.002,0.002,0.006,0.004,0.009,0.004
					c0.001,0,0.002-0.002,0.004-0.004c-0.004-0.002-0.007-0.003-0.011-0.004C18.868,14.001,18.868,14.003,18.873,14.007z"/>
				<polygon style="fill-rule:evenodd;clip-rule:evenodd;" points="19.812,14.352 19.813,14.348 19.809,14.347 19.808,14.351 				
					"/>
				<polygon style="fill-rule:evenodd;clip-rule:evenodd;" points="20.146,14.273 20.143,14.278 20.146,14.282 				"/>
				<polygon style="fill-rule:evenodd;clip-rule:evenodd;" points="19.481,10.173 19.476,10.175 19.484,10.175 				"/>
				<path style="fill-rule:evenodd;clip-rule:evenodd;" d="M19.264,14.632c0.003,0.005,0.007,0.008,0.014,0.005v-0.001
					c-0.004-0.004-0.008-0.008-0.012-0.012C19.265,14.627,19.264,14.63,19.264,14.632z"/>
				<path style="fill-rule:evenodd;clip-rule:evenodd;" d="M19.251,14.62c0.004,0.006,0.009,0.007,0.014,0.004h0.001
					c-0.005-0.004-0.009-0.008-0.013-0.012C19.252,14.614,19.252,14.618,19.251,14.62z"/>
				<path style="fill-rule:evenodd;clip-rule:evenodd;" d="M19.239,14.609c0.003,0.004,0.008,0.005,0.014,0.004v-0.001
					c-0.003-0.004-0.009-0.008-0.012-0.012C19.241,14.602,19.239,14.606,19.239,14.609z"/>
				<path style="fill-rule:evenodd;clip-rule:evenodd;" d="M19.227,14.597c0.003,0.004,0.008,0.006,0.013,0.006l0.002-0.002
					c-0.004-0.004-0.008-0.009-0.012-0.012C19.229,14.592,19.229,14.595,19.227,14.597z"/>
				<path style="fill-rule:evenodd;clip-rule:evenodd;" d="M19.204,14.578l0.002-0.003c-0.008-0.005-0.02-0.002-0.025-0.011l0,0
					c-0.006-0.007-0.018-0.005-0.024-0.011l0,0c-0.008-0.008-0.018-0.007-0.027-0.012h-0.004l-0.005-0.002
					c-0.008-0.011-0.019-0.015-0.029-0.004c-0.01,0.011-0.005,0.02,0.007,0.028c0.012,0.014,0.031,0.015,0.047,0.024
					c0.004,0.01,0.014,0.012,0.022,0.014c0.007,0.008,0.016,0.011,0.024,0.011l0.001-0.001c0.001,0,0.002-0.002,0.004-0.003l0,0
					c-0.002,0.001-0.003,0.003-0.005,0.004c0.006,0.009,0.015,0.011,0.024,0.013c0.005,0.008,0.014,0.011,0.022,0.011
					c0.002-0.003,0.003-0.003,0.004-0.007c-0.005-0.01-0.011-0.012-0.02-0.01c-0.003,0.002-0.004,0.003-0.007,0.004
					c0.004-0.018-0.007-0.018-0.018-0.018c0.011,0,0.018-0.002,0.021-0.014c0-0.001-0.001-0.002-0.001-0.004
					c0.002,0.003,0.006,0.004,0.009,0.002l0.001-0.002c-0.005-0.004-0.01-0.007-0.015-0.011
					C19.211,14.578,19.208,14.578,19.204,14.578z"/>
			</g>
	</g>
</svg>
