<?xml version="1.0" encoding="utf-8"?>
<svg xmlns="http://www.w3.org/2000/svg" viewBox="17.375 2.669 5.359 2.614">
	<g>
			<g>
				<path style="fill-rule:evenodd;clip-rule:evenodd;" d="M19.914,2.831c0.011,0,0.022,0,0.034-0.002
					c0.024-0.016,0.051,0.002,0.073-0.01L20.02,2.815c0.013,0,0.023,0.001,0.036,0.001c0.011-0.01,0.025-0.002,0.036-0.01
					c0.021,0,0.041-0.001,0.06-0.002c0.011,0,0.019,0,0.024-0.009c0.017-0.001,0.032-0.002,0.05-0.003
					c0.006-0.008,0.018-0.005,0.022-0.012c0.005-0.004,0.009-0.006,0.012-0.011c-0.01-0.013-0.022-0.007-0.034-0.004
					c-0.019,0.001-0.039,0.002-0.059,0.003c-0.018,0-0.034-0.006-0.049,0.009c-0.013,0.001-0.024,0.002-0.036,0.003
					c-0.019,0.014-0.043-0.001-0.061,0.012c-0.008,0-0.016,0-0.022,0c-0.014,0-0.027-0.003-0.037,0.01c-0.005,0-0.01,0-0.014,0
					c-0.004-0.002-0.008-0.002-0.012,0.001c-0.004,0.002-0.007,0.002-0.011,0.002c-0.034,0-0.067-0.005-0.101,0.002
					c-0.009,0.002-0.014,0.009-0.014,0.018s0.006,0.014,0.015,0.013C19.854,2.839,19.887,2.851,19.914,2.831z M20.156,2.795
					C20.156,2.794,20.156,2.794,20.156,2.795c0.003-0.001,0.008-0.002,0.014-0.002l0,0l0,0C20.164,2.792,20.159,2.79,20.156,2.795z
					 M19.859,2.822L19.859,2.822c-0.005-0.001-0.01,0-0.014-0.001C19.85,2.822,19.854,2.82,19.859,2.822z"/>
				<path style="fill-rule:evenodd;clip-rule:evenodd;" d="M22.701,4.029c-0.002,0.001-0.002,0.002-0.003,0.003
					c-0.004-0.005-0.007-0.009-0.011-0.013c0,0,0,0-0.002,0c0.002,0,0.002-0.001,0.005-0.001c-0.005-0.003-0.009-0.007-0.013-0.012
					l-0.001,0.002c-0.002,0-0.002,0-0.002,0c0-0.001,0.002-0.001,0.003-0.002c-0.007-0.031,0.01-0.066-0.014-0.096
					c0,0.001-0.001,0.002-0.003,0.003l0,0l0.003-0.003c0-0.014-0.01-0.022-0.023-0.023c-0.001,0.001-0.003,0.002-0.003,0.003
					c0-0.001,0-0.001,0-0.001l0.003-0.002c-0.005-0.004-0.009-0.008-0.014-0.012l-0.003,0.003c-0.001,0-0.001-0.001-0.001-0.002
					c0.002,0,0.003,0,0.004-0.001c-0.003-0.004-0.007-0.009-0.011-0.013c-0.017-0.024-0.037-0.043-0.062-0.06
					c-0.003-0.003-0.008-0.008-0.012-0.012c-0.011-0.014-0.029-0.015-0.042-0.01c-0.049,0.019-0.104,0.01-0.15,0.037
					c-0.004,0-0.008,0-0.012,0c-0.003-0.005-0.007-0.004-0.01,0c-0.014-0.002-0.027-0.005-0.038,0.01l0.002,0.004
					c0,0.001-0.001,0-0.001,0c0-0.001-0.001-0.003-0.001-0.004c-0.017,0.002-0.036-0.004-0.05,0.011
					c0,0.001,0.002,0.003,0.004,0.003l0,0l-0.004-0.003c-0.01,0.001-0.018,0.003-0.023,0.013l0.002,0.002c0,0,0,0,0,0.001
					C22.22,3.852,22.22,3.852,22.219,3.85c-0.011-0.003-0.033,0.008-0.024-0.019c0.021-0.056,0.017-0.112,0-0.167
					c-0.011-0.03-0.011-0.052,0.029-0.067c-0.026-0.013-0.048-0.012-0.063-0.024c-0.019-0.036-0.039-0.068-0.083-0.074l-0.003,0.002
					c0,0,0,0,0-0.001c0,0,0.001,0,0.003-0.001c-0.003-0.02-0.029-0.032-0.024-0.052c0.005-0.027-0.008-0.029-0.029-0.03
					c-0.078-0.005-0.156,0.018-0.235,0.016c-0.005,0-0.01,0.005-0.014,0.009c-0.005,0-0.008,0-0.012,0
					c-0.009-0.007-0.017-0.007-0.024,0.002c0,0,0-0.001,0.001-0.001c-0.04-0.002-0.082,0.005-0.108-0.039
					c-0.009-0.015-0.028-0.011-0.043-0.009l-0.004,0.002l-0.003-0.002c-0.009-0.014-0.025-0.006-0.038-0.011
					c-0.006-0.02-0.023-0.032-0.025-0.054c0.008-0.002,0.012-0.005,0.014-0.013c0.025,0.004,0.036-0.016,0.053-0.03
					c0.016-0.013,0.024-0.032,0.046-0.037c0.042-0.011,0.075-0.042,0.115-0.061c0.039-0.019,0.059-0.067,0.034-0.099
					c-0.025-0.034-0.025-0.073-0.041-0.107c-0.002-0.01-0.004-0.018-0.012-0.023l-0.002,0.001l0,0c0-0.001,0.001-0.001,0.002-0.001
					c-0.002-0.034-0.009-0.067-0.025-0.097c0-0.009-0.003-0.018-0.011-0.023l-0.005,0.003V2.843c0,0,0.003,0,0.005-0.002
					c-0.005-0.024-0.014-0.046-0.036-0.061c-0.001-0.01-0.004-0.019-0.013-0.023c-0.002,0.001-0.002,0.003-0.004,0.005
					c0,0,0,0,0-0.001l0.004-0.003c-0.004-0.004-0.007-0.008-0.012-0.012l-0.003,0.001c-0.001,0-0.001,0-0.001,0
					c0.001,0,0.002,0,0.004-0.001c-0.002-0.01-0.006-0.017-0.016-0.021l0,0l-0.001-0.002c0,0,0,0,0,0.001l0,0c0,0,0,0,0,0.001
					c0-0.001,0-0.001,0-0.001c-0.001-0.007-0.005-0.01-0.012-0.014c-0.002,0.002-0.007,0.002-0.008-0.001
					c-0.04,0.006-0.081,0.004-0.121,0.015l0.003-0.001c-0.016-0.002-0.032-0.003-0.047,0.002c-0.017,0.005-0.028-0.002-0.04-0.016
					c-0.045,0.015-0.092,0.023-0.133,0.049C21.238,2.76,21.215,2.747,21.2,2.771l0,0c-0.028,0.006-0.06,0.005-0.086,0.023h0.002
					c-0.016,0.012-0.036-0.004-0.049,0.014V2.807c-0.007,0.004-0.018,0.003-0.025,0.01L21.039,2.82l-0.004-0.001
					c-0.018,0-0.035-0.001-0.054-0.001c-0.003,0.003-0.006,0.006-0.011,0.01c-0.051,0.013-0.104,0.025-0.156,0.038
					c-0.004,0.004-0.009,0.008-0.012,0.01c-0.045,0.004-0.087,0.02-0.134,0.014c-0.003,0.004-0.008,0.008-0.011,0.012
					c-0.005,0-0.009,0-0.013,0c-0.007-0.007-0.015-0.007-0.023,0c-0.03,0.001-0.062-0.006-0.087,0.015
					c-0.039,0.029-0.088,0.024-0.13,0.042c-0.021,0.01-0.039-0.021-0.06-0.014c-0.019,0.005-0.018,0.037-0.045,0.043
					c-0.028,0.007-0.058,0.011-0.088,0.011c-0.003,0.003-0.001,0.008,0,0.012l0,0c0-0.004,0-0.008,0-0.012c-0.004,0-0.008,0-0.012,0
					c0,0.003,0,0.008,0,0.012c-0.013,0-0.024,0-0.036,0c-0.003,0.003-0.008,0.008-0.012,0.012l-0.004,0.003l-0.003-0.002
					c-0.011-0.004-0.024,0.005-0.03-0.008c0.005-0.014,0.026-0.011,0.026-0.027c-0.04-0.006-0.063,0.007-0.075,0.044
					c-0.008,0-0.019-0.001-0.019-0.01c0.003-0.031-0.013-0.024-0.033-0.016c-0.017,0.007-0.021,0.022-0.018,0.039
					c-0.005,0-0.008,0-0.012,0c-0.005-0.003-0.01-0.002-0.013,0.001l0.002,0.003c-0.005-0.001-0.009-0.002-0.013-0.003
					c-0.015-0.002-0.037,0.004-0.031-0.022c0.005-0.02-0.005-0.025-0.021-0.025c-0.014,0.001-0.027-0.006-0.041,0.013
					c0.017,0.011,0.037,0.021,0.032,0.047c-0.014,0.01-0.032,0.001-0.047,0.01c-0.008,0-0.017,0-0.025,0.002
					c-0.024-0.023-0.024-0.023-0.027-0.08c0-0.039,0.027-0.051,0.053-0.064c0.024,0,0.05-0.002,0.072,0.016
					c0.015,0.012,0.032,0.013,0.048-0.004c0.024,0,0.046,0.001,0.069,0c0.059-0.005,0.116-0.013,0.17-0.037l-0.001,0.001
					c0.031-0.01,0.064,0,0.097-0.01c0.012-0.012,0.028-0.014,0.045-0.014c0.005-0.001,0.011-0.003,0.017-0.004
					c0.011-0.005,0.024-0.001,0.035-0.007c0.039-0.001,0.074-0.01,0.109-0.024c-0.003-0.001-0.003-0.003-0.005-0.004
					c0,0,0,0,0.002,0l0.003,0.004c0.012-0.001,0.026,0,0.034-0.012l0.006-0.002h0.006c0.021-0.002,0.043,0.008,0.06-0.01
					c0.005-0.002,0.006-0.003,0.011-0.003c0.014,0.003,0.027-0.004,0.038-0.01c0.003,0,0.003-0.001,0.003-0.004
					c0.001-0.003,0-0.005-0.003-0.008c-0.03-0.02-0.063-0.032-0.101-0.013c-0.01,0.004-0.023,0.007-0.034,0.005
					c-0.074-0.017-0.138,0.008-0.202,0.043c0.002,0,0.002,0.002,0.004,0.002l0,0l-0.004-0.002c-0.01,0-0.017,0.002-0.023,0.011
					c-0.009,0.001-0.018,0.003-0.022,0.012c-0.009,0.001-0.016,0.002-0.022,0.003c-0.013-0.001-0.024,0.002-0.037-0.002
					c-0.054-0.021-0.108-0.005-0.161,0.008c-0.024,0.006-0.05,0.015-0.076,0.005c-0.02-0.008-0.044-0.02-0.033,0.023
					c0.002,0.01-0.014,0.012-0.024,0.012c-0.018,0.001-0.04,0.001-0.06,0.002c-0.002,0.001-0.006,0.001-0.008-0.001
					c-0.004-0.004-0.008-0.004-0.014,0c-0.002,0.002-0.005,0.002-0.009,0c-0.052-0.024-0.103-0.048-0.158-0.011
					c-0.008,0.002-0.018,0.002-0.024-0.002c-0.013-0.015-0.029-0.011-0.044-0.011c-0.046,0-0.09,0-0.137,0c0,0,0,0.002,0,0.004
					c0-0.001,0-0.001,0-0.002V2.877c-0.02-0.021-0.047-0.007-0.07-0.013c-0.01-0.012-0.024-0.01-0.035-0.012
					c-0.007-0.008-0.017-0.011-0.027-0.012c-0.013-0.002-0.009,0.014-0.017,0.017c-0.006,0.002-0.012,0.007-0.014,0.014
					c-0.004,0.007-0.021,0.004-0.018,0.019c0.001,0.009,0.004,0.019,0.012,0.026c0.002,0.017,0.011,0.028,0.024,0.036l0.003-0.002
					c0,0,0,0,0,0.001c-0.001,0-0.002,0-0.003,0.001c0.008,0.024,0.017,0.048,0.024,0.072c0,0.02,0.004,0.038,0.023,0.047
					c0.002,0,0.003-0.002,0.005-0.004l0,0L19.383,3.07c0.003,0.012,0.008,0.022,0.011,0.034c-0.014,0.002-0.028,0.002-0.041,0.007
					c-0.014,0.005-0.021,0.021-0.021,0.033c-0.002,0.018,0.014,0.014,0.023,0.017c0.012,0.003,0.022,0.013,0.023,0.025
					c0.003,0.016-0.014,0.017-0.021,0.023c-0.027,0.024-0.065,0.007-0.096,0.027c0.003,0.002,0.003,0.003,0.005,0.004l0,0
					l-0.005-0.004c-0.015,0.004-0.034-0.003-0.046,0.014l0.001,0.002h-0.001c0-0.001,0-0.001,0-0.002
					c-0.021,0.002-0.044-0.007-0.061,0.011c0.002,0.001,0.004,0.002,0.005,0.004c-0.001,0-0.001,0-0.001,0l-0.004-0.004
					c-0.02,0.004-0.043-0.007-0.059,0.013l0.002,0.002h-0.002c0,0,0-0.001,0-0.002c-0.031,0.015-0.063-0.025-0.098,0.008
					c-0.027,0.023-0.074,0.01-0.107,0.027c-0.035,0.007-0.074-0.011-0.106,0.012l0.002,0.003c-0.002,0.001-0.002,0-0.002,0
					c0-0.001,0-0.001,0-0.003c-0.067,0-0.136,0-0.204-0.001l-0.003,0.004l0,0c0.002-0.001,0.002-0.001,0.003-0.004
					c-0.049-0.013-0.099-0.021-0.149-0.023c-0.026-0.001-0.05-0.004-0.071,0.014c-0.004,0.003-0.006,0.002-0.008-0.002
					c-0.006-0.009-0.014-0.012-0.024-0.012c-0.023-0.02-0.049-0.008-0.073-0.012c-0.001,0.001-0.001,0.002-0.001,0.003v0
					l0.001-0.003c-0.01-0.015-0.025-0.012-0.039-0.01v0.001c-0.009-0.014-0.026-0.006-0.038-0.014
					c-0.003,0.002-0.006,0.001-0.008-0.002c-0.005-0.01-0.014-0.012-0.024-0.011c-0.016-0.008-0.032-0.013-0.045,0.004v0.002
					c0.002,0.013,0.016,0.01,0.022,0.018c-0.005,0.005-0.011,0.009-0.016,0.014c-0.006-0.001-0.015-0.002-0.019-0.004
					c-0.012-0.004-0.023-0.006-0.034,0.004V3.287c-0.003,0.002-0.005,0.004-0.008,0.005c0.003,0.002,0.005,0.004,0.008,0.006
					l-0.001-0.001c0.002,0.006,0.007,0.01,0.011,0.014c0.005,0.01,0.015,0.012,0.024,0.013c0-0.001,0-0.002,0-0.003
					c0,0.001,0,0.001,0,0.001v0.002c0.005,0.008,0.014,0.011,0.023,0.012l0.003-0.004l0,0c-0.002,0.001-0.003,0.003-0.003,0.004
					c0.007,0.015,0.02,0.022,0.035,0.024l0.003-0.004c0.001,0,0.001,0,0.001,0c-0.001,0.002-0.003,0.002-0.004,0.004
					c0.017,0.031-0.01,0.02-0.021,0.022c-0.002,0.001-0.002,0.002-0.003,0.003c0-0.001,0-0.001,0-0.001l0.003-0.002
					c-0.007-0.008-0.014-0.012-0.023-0.012c-0.017-0.02-0.033,0.004-0.051-0.005c-0.044-0.027-0.09-0.018-0.132,0.007
					c-0.006-0.009-0.018-0.007-0.025-0.012l0.001,0c-0.012-0.016-0.034,0-0.048-0.013l0,0c-0.007-0.009-0.019-0.006-0.028-0.007
					c-0.002,0.001-0.004,0.004-0.006,0.005c-0.035-0.008-0.069-0.013-0.106-0.004c0.012,0.022,0.026,0.027,0.044,0.029
					c0.01,0.015,0.023,0.012,0.037,0.013c-0.002-0.004-0.002-0.007-0.002-0.011c0.001,0,0.002,0,0.002,0
					c-0.002,0.003-0.002,0.007,0,0.011l0,0c0.008,0.007,0.019,0.005,0.027,0.011c0.004-0.001,0.006,0,0.009,0.003
					c0.008,0.005,0.018,0.003,0.023,0.01l0,0c0.009,0.006,0.018,0.005,0.025,0.011V3.417c0.006,0.015,0.021,0.012,0.033,0.015
					c0.01,0.014,0.021,0.022,0.037,0.023l0.004-0.004l0,0c-0.002,0.001-0.002,0.003-0.004,0.004
					c0.008,0.015,0.019,0.022,0.037,0.024l0.001-0.003l0,0c0,0-0.001,0.002-0.001,0.003c0.027,0.027,0.057,0.051,0.097,0.059
					c0-0.001,0-0.002,0.001-0.003h0.001l-0.002,0.003c0.003,0.01,0.014,0.012,0.022,0.014c0.027,0.028,0.06,0.044,0.098,0.046V3.597
					l0,0v0.001c0.006,0.009,0.014,0.012,0.024,0.012c0,0,0-0.002,0.001-0.002h0.002l-0.003,0.002
					c0.006,0.009,0.014,0.011,0.023,0.013l0.004-0.004l0,0c-0.002,0.002-0.002,0.003-0.004,0.004
					c0.01,0.012,0.023,0.011,0.036,0.013l0.003-0.003l0,0c-0.001,0.001-0.003,0.002-0.003,0.002c0.04,0.039,0.092,0.042,0.141,0.057
					c0.046,0.014,0.093,0.019,0.14,0.026c0.015,0.002,0.027,0.007,0.03,0.024c0.005,0.019-0.011,0.021-0.024,0.026
					c-0.006,0.002-0.014,0.007-0.011,0.016c0.008,0.009,0.021,0,0.026,0.013c-0.013,0.008-0.026,0.002-0.04,0.005
					c0,0.005,0.003,0.008,0.006,0.011c-0.001,0-0.001,0-0.001,0c0-0.004-0.002-0.007-0.005-0.011
					c-0.002,0.001-0.005,0.001-0.008-0.001c-0.015-0.013-0.034,0-0.05-0.011c-0.022-0.01-0.044-0.01-0.067,0l-0.001,0l-0.002,0
					c0.001,0,0.001,0,0.001,0c-0.021,0.021,0.001,0.02,0.014,0.021h0.006l0.003,0.002c0.008,0.014,0.027,0.009,0.035,0.023
					c-0.045,0-0.091,0-0.136,0c-0.014,0-0.032-0.005-0.038,0.011c-0.01,0.024-0.028,0.024-0.049,0.027
					c-0.016,0.002-0.029,0.01-0.031,0.029c0.014,0.009,0.028,0.004,0.043,0.004l0.004-0.002l0.005,0.003
					c0.009,0.01,0.026,0.001,0.037,0.012l-0.001-0.001c0.031,0.021,0.069,0.021,0.107,0.027c0.008,0.002,0.017,0.007,0.016,0.014
					c-0.004,0.013-0.018,0.006-0.027,0.008v0.001c0,0,0,0-0.001,0l0.001-0.001c-0.042-0.025-0.087-0.005-0.131-0.013
					c0,0.001,0,0.001,0,0.002c0,0,0,0-0.002,0l0.002-0.002c-0.017-0.019-0.04-0.007-0.06-0.012l-0.003,0.003l0,0
					c0.002-0.001,0.002-0.002,0.003-0.003c-0.053-0.043-0.102-0.009-0.138,0.021c-0.027,0.024-0.054,0.027-0.084,0.03
					c-0.014-0.002-0.029-0.003-0.044-0.005c-0.005-0.003-0.01-0.006-0.013-0.009c-0.012,0-0.023,0-0.036-0.002
					c-0.005-0.003-0.009-0.007-0.012-0.01c-0.013,0-0.024,0-0.036,0c-0.004-0.007-0.011-0.011-0.019-0.012
					c-0.008,0-0.019-0.002-0.02,0.008c-0.002,0.009,0.008,0.012,0.015,0.014c0.005,0.001,0.008,0.001,0.013,0.001
					c0.007,0,0.015,0,0.022,0.001c0.005,0.003,0.009,0.007,0.012,0.011c0.005,0,0.01,0.001,0.014,0.001
					C17.887,4,17.891,4.002,17.896,4.006c0.008,0,0.016,0,0.023,0l-0.001,0.001c0.006,0.003,0.01,0.009,0.017,0.01
					c0.003,0,0.006,0.002,0.007,0.004c0.037,0.044,0.088,0.058,0.145,0.058c0-0.001,0-0.002,0-0.003h0.002l-0.002,0.003
					c0.017,0.016,0.038,0.018,0.059,0.024L18.148,4.1l0,0c-0.001,0.001-0.002,0.002-0.003,0.003
					c0.044,0.033,0.096,0.043,0.146,0.057c0.011,0.004,0.019-0.003,0.024-0.012c0.003,0,0.008,0,0.011,0.001
					c0.005,0.009,0.014,0.012,0.024,0.014l0.001-0.001v0.001h-0.001c-0.013,0.029-0.043,0.024-0.066,0.034
					c-0.019,0.007-0.027,0.028-0.057,0.027c-0.117-0.005-0.238-0.003-0.356-0.001c-0.019,0-0.039-0.007-0.056,0.009
					c0.004,0.005,0.004,0.01,0.007,0.011c0.008,0.002,0.017,0.003,0.023,0.004c0.012,0.015,0.028,0.011,0.044,0.011
					c0.034,0,0.067,0,0.1,0c0,0,0,0,0.001-0.002c0,0.001,0.002,0.001,0.002,0.001l-0.003,0c0.045,0.023,0.092,0.009,0.138,0.01
					l0.004-0.001l0.004,0.003c0.006,0.009,0.016,0.012,0.025,0.013c0.1,0.018,0.199,0.033,0.296,0.061
					c0.002-0.001,0.002-0.002,0.002-0.002s0,0,0.001,0l-0.003,0.002c0,0.02-0.011,0.024-0.027,0.022
					c-0.027-0.003-0.054,0.007-0.08,0.014c0.026,0.011,0.052,0,0.077-0.005c-0.025,0.003-0.053,0.002-0.077,0.005l0.002,0.001
					c-0.009-0.016-0.021-0.016-0.036-0.015c-0.03,0-0.06,0-0.091,0.001c-0.006,0.004-0.011,0.003-0.017-0.001
					c-0.023-0.015-0.051,0.001-0.074-0.011l0.001,0.001c-0.009-0.017-0.026-0.015-0.042-0.015c-0.046,0-0.092,0-0.14,0.001
					c-0.02-0.001-0.038-0.002-0.057-0.003c-0.066-0.022-0.135-0.009-0.201-0.007c-0.022,0-0.007,0.021-0.005,0.034
					c-0.002,0.004,0.002,0.006,0.002,0.008l0,0C17.69,4.374,17.69,4.371,17.69,4.368c-0.044,0-0.088,0-0.133,0.001
					c-0.012-0.001-0.022-0.002-0.036-0.002c-0.01-0.002-0.02-0.006-0.027-0.006c-0.021-0.004-0.043-0.006-0.067-0.013
					c0.015,0.024,0.03,0.029,0.048,0.031h0.001c0.01,0.01,0.026,0.001,0.036,0.012c0.013,0,0.024,0,0.035,0.001
					c0.032,0.021,0.065,0.007,0.099,0.01c-0.011-0.01-0.024-0.009-0.038-0.013c0,0,0,0,0,0c0.012,0.01,0.027,0.003,0.038,0.014
					c0.008,0,0.015,0,0.021,0c0.039,0.024,0.081,0.007,0.122,0.012l0.006-0.001l0.004,0.002c0.027,0.021,0.058,0.008,0.087,0.01
					l0.006-0.001l0.005,0.003c0.023,0.022,0.056,0.007,0.083,0.013c0.008,0.013,0.022,0.011,0.034,0.011
					c0.018,0.019,0.041,0.009,0.061,0.013c0-0.001,0.002-0.001,0.002-0.002l0,0l-0.002,0.002c0.019,0.018,0.043,0.008,0.066,0.009
					l0.005-0.002l0.003,0.003c0.012,0.011,0.027,0.003,0.039,0.011l-0.002-0.001c0.038,0.017,0.081,0.017,0.12,0.026V4.51
					c0.038,0.013,0.08,0.018,0.121,0.024l-0.001-0.001c0.007,0.017,0.021,0.014,0.034,0.015c0.004,0.004,0.008,0.007,0.012,0.012
					l0.005-0.003c0,0.001,0.001,0.001,0.001,0.002c-0.001,0-0.004,0.001-0.006,0.001c0.005,0.004,0.008,0.009,0.012,0.012
					l0.002-0.001c0.002,0,0,0,0.002,0c-0.002,0.001-0.002,0.001-0.004,0.001c0,0.009,0,0.018-0.01,0.021
					c-0.034-0.03-0.034-0.03-0.062,0.015c-0.021,0.021,0,0.027,0.013,0.036c0.001-0.001,0.002-0.002,0.003-0.003v0.001l-0.003,0.002
					c0.003,0.004,0.006,0.008,0.011,0.012l0.001-0.001l0,0c0,0,0,0.001-0.001,0.001c0.006,0.024,0.014,0.048,0.038,0.06
					c0,0,0-0.002,0.003-0.003l0,0l-0.003,0.003c0.004,0.008,0.014,0.011,0.022,0.013c0.001-0.001,0.001-0.002,0.002-0.002l0,0
					l-0.002,0.002c0.005,0.003,0.008,0.006,0.013,0.011l0.003-0.003c0,0,0,0,0.001,0c-0.002,0.001-0.004,0.001-0.004,0.003
					c0.016,0.022,0.03,0.044,0.06,0.048c0-0.001,0.003-0.003,0.003-0.004c0,0,0,0,0.002,0l-0.005,0.004
					c0.016,0.022,0.03,0.044,0.061,0.048c0-0.002,0.002-0.003,0.002-0.004h0.001l-0.003,0.004c0.007,0.015,0.019,0.023,0.036,0.024
					c0-0.001,0-0.001,0-0.001l0,0v0.001c0.003,0.004,0.008,0.007,0.013,0.011c0,0,0-0.002,0-0.004c0,0.001,0.001,0.001,0.001,0.001
					l-0.001,0.002c0.004,0.004,0.007,0.008,0.012,0.011c0.003,0.008,0.009,0.012,0.017,0.013c0.006,0.007,0.021,0.011,0.008,0.023
					c-0.014,0.001-0.026-0.001-0.036,0.01c-0.004,0.004-0.01,0.01-0.014,0.014c-0.004,0.004-0.007,0.009-0.011,0.012h0.001
					c-0.008,0.006-0.006,0.018-0.013,0.024l0,0c-0.005,0.003-0.009,0.008-0.013,0.012C18.623,4.996,18.619,5,18.615,5.004
					c0,0.02,0,0.04,0,0.06c0.004,0.004,0.008,0.008,0.012,0.012v0.001c0.004,0.003,0.009,0.006,0.014,0.01H18.64
					c0.003,0.004,0.005,0.008,0.008,0.012c0.005,0.005,0.011,0.01,0.016,0.014c0.008,0.006,0.019,0.003,0.024,0.011
					c0.005-0.001,0.009-0.001,0.014-0.001l-0.003,0.003c0.005,0.002,0.008,0.002,0.012,0.001c0.004-0.001,0.008-0.003,0.013-0.004
					c0.004,0,0.008,0.001,0.012,0.001c0.005-0.004,0.009-0.008,0.013-0.012l0,0c0.021-0.002,0.029-0.017,0.01-0.027
					c-0.023-0.012-0.043-0.024-0.059-0.044c-0.008-0.008-0.006-0.016,0-0.024c0.005-0.003,0.009-0.003,0.014,0
					c0.003,0.004,0.008,0.008,0.012,0.013c0.003-0.005,0.008-0.008,0.013-0.013c0.003-0.003,0.003-0.01,0.001-0.014
					C18.736,5,18.736,5,18.736,4.999c0.005-0.014,0.007-0.029,0-0.043c-0.003,0-0.003-0.001-0.003-0.004l0,0
					c0,0.001,0,0.003,0.003,0.004c0-0.004,0-0.007,0-0.011V4.944c0.017,0.001,0.03,0.009,0.042,0.02
					c0.035,0.029,0.132,0.077,0.179,0.087L18.96,5.05l0.004,0.003c0.014,0.011,0.032,0.017,0.05,0.022h-0.001
					c0.006,0.008,0.018,0.007,0.025,0.011l-0.001,0c0.006,0.01,0.017,0.008,0.025,0.013l-0.001-0.001
					c0.006,0.011,0.017,0.009,0.024,0.013h-0.002c0.008,0.012,0.021,0.008,0.032,0.013c0.002,0,0.003-0.001,0.005,0
					c0.035,0.018,0.07,0.035,0.108,0.035v0c0.018,0.022,0.043,0.022,0.069,0.027c0.034,0.004,0.07,0.006,0.104,0.017
					c0.079,0.026,0.161,0.034,0.239,0.039c0.109,0.007,0.218,0.023,0.328,0.017c0.029-0.001,0.06,0.004,0.088,0.003
					c0.036,0,0.075,0.008,0.107-0.017c0.006-0.004,0.014-0.003,0.02,0c0.025,0,0.053,0.004,0.077-0.004
					c0.033-0.013,0.066-0.03,0.1,0.003c0.008,0.006,0.026,0,0.04,0.002c0.053,0.007,0.104-0.014,0.155-0.011
					c0.091,0.006,0.171-0.026,0.246-0.071c0.022,0,0.047,0.004,0.066-0.003c0.053-0.018,0.108-0.003,0.16-0.017
					c0.006-0.001,0.012-0.003,0.017,0.001c0.004,0.007-0.005,0.022,0.012,0.022c0.011-0.001,0.008-0.017,0.014-0.024
					c0.016-0.018,0.052-0.026,0.055-0.012c0.007,0.034,0.03,0.017,0.034,0.011c0.016-0.026,0.045-0.025,0.064-0.039
					c0-0.002-0.003-0.002-0.005-0.004h0.002l0.003,0.004c0.067-0.006,0.135-0.01,0.191-0.048c0-0.002-0.003-0.002-0.004-0.004
					c0.001,0,0.001,0,0.001,0l0.003,0.004c0.047-0.002,0.092-0.005,0.121-0.049c-0.001,0-0.002-0.001-0.003-0.002l0,0l0.003,0.002
					c0.022-0.001,0.047,0.003,0.06-0.024l-0.003-0.003c0,0,0,0,0.001-0.001c0,0.002,0.002,0.005,0.002,0.005
					c0.023,0,0.044-0.005,0.06-0.024l-0.002-0.002c0,0,0,0,0,0c0.001,0.001,0.002,0.003,0.002,0.003
					c0.048-0.017,0.096-0.033,0.134-0.071c-0.002-0.001-0.005-0.003-0.005-0.004l0,0l0.005,0.004
					c0.028-0.006,0.055-0.021,0.071-0.048c-0.002-0.002-0.003-0.003-0.003-0.004l0,0l0.003,0.004
					c0.016-0.001,0.028-0.009,0.034-0.024L21.894,4.81V4.808c0.001,0.001,0.001,0.003,0.001,0.004
					c0.026-0.004,0.049-0.013,0.061-0.037c0.005-0.003,0.008-0.007,0.013-0.011l-0.003-0.003c0,0,0,0,0.001,0
					c0.002,0,0.002,0.001,0.002,0.003c0.023-0.002,0.036-0.019,0.049-0.036c-0.001-0.001-0.002-0.002-0.003-0.003l0,0l0.003,0.003
					c0.008-0.002,0.018-0.003,0.021-0.012c0.006-0.005,0.01-0.01,0.014-0.013c0.005-0.005,0.008-0.009,0.011-0.013
					c0.006-0.003,0.009-0.007,0.013-0.012c0.004-0.003,0.009-0.009,0.012-0.012c0-0.004,0-0.008,0-0.012
					c0.012-0.005,0.021-0.013,0.023-0.025v0c0.01-0.01,0.027,0,0.037-0.014l-0.002,0.001c0.008-0.006,0.02-0.004,0.026-0.011
					l0.003-0.002h0.004c0.011,0.001,0.023,0.001,0.029-0.01l-0.002-0.003h0.002c0,0,0,0.002,0,0.003
					c0.034-0.005,0.069-0.011,0.097-0.036l-0.003-0.002c0-0.001,0.001-0.001,0.001-0.002c0,0.002,0,0.003,0.002,0.005
					c0.028,0,0.058,0,0.086,0c0.019,0,0.03-0.004,0.033-0.023V4.535l0,0v0.001c0.005-0.004,0.008-0.009,0.013-0.013V4.522l0,0v0.001
					c0.012-0.001,0.025,0.002,0.034-0.01c0.004,0,0.008-0.001,0.013-0.002C22.494,4.5,22.51,4.51,22.52,4.5
					c0.012-0.002,0.024-0.005,0.022-0.021c-0.001-0.011-0.012-0.014-0.021-0.016c-0.014,0-0.026,0-0.036,0.011
					c0.006,0.006,0.018,0.001,0.028,0.002c-0.01-0.001-0.019-0.006-0.028-0.002l-0.002,0.001c-0.002,0.004-0.006,0.008-0.01,0.011
					c-0.004,0.001-0.008,0.002-0.012,0.002c-0.023-0.016,0.003-0.032,0-0.047l-0.005-0.004c0,0,0,0,0.001-0.001
					c0.001,0.001,0.002,0.003,0.004,0.006c0.013-0.011,0.038-0.013,0.033-0.036c-0.006-0.024,0.006-0.046,0.001-0.07
					c-0.011-0.045,0.007-0.078,0.039-0.109c0.027-0.026,0.06-0.035,0.096-0.04l0.006-0.001l0.003,0.002
					c0.006,0.005,0.009,0.003,0.013-0.003l-0.002,0.002c0.008-0.001,0.011-0.007,0.015-0.012c0.023,0.002,0.035-0.016,0.041-0.035
					C22.715,4.102,22.721,4.065,22.701,4.029z M20.478,2.829c0,0.001,0,0.002,0,0.003C20.478,2.831,20.478,2.831,20.478,2.829
					L20.478,2.829L20.478,2.829L20.478,2.829L20.478,2.829z M17.797,4.368L17.797,4.368L17.797,4.368
					C17.797,4.368,17.797,4.368,17.797,4.368z M17.922,4.401c-0.004,0.001-0.008,0.003-0.013,0.003
					c0.002-0.001,0.003-0.001,0.005-0.003C17.916,4.401,17.919,4.401,17.922,4.401z M18.04,4.414c-0.006,0-0.012,0-0.018,0
					c0.001-0.001,0.003,0,0.004-0.001C18.031,4.414,18.036,4.413,18.04,4.414z M19.341,2.894c0-0.003-0.001-0.007,0.002-0.008
					c0.001-0.002,0.003,0,0.004-0.001C19.344,2.889,19.341,2.891,19.341,2.894z M17.989,3.43L17.989,3.43
					c0.001-0.001,0.003-0.003,0.004-0.005C17.992,3.426,17.992,3.428,17.989,3.43z M18.184,3.454L18.184,3.454
					c-0.003,0.001-0.003,0.002-0.004,0.003C18.181,3.455,18.184,3.456,18.184,3.454z M19.479,2.925L19.479,2.925L19.479,2.925
					L19.479,2.925z M22.076,3.591c-0.004-0.003-0.003-0.007-0.005-0.011c0.002,0.004,0.004,0.009,0.008,0.011
					C22.078,3.59,22.078,3.592,22.076,3.591z M22.376,4.488C22.376,4.487,22.376,4.487,22.376,4.488
					c0.001-0.001,0.002-0.001,0.002-0.002C22.378,4.487,22.377,4.487,22.376,4.488z M18.822,4.937c0,0,0.001-0.002,0.003-0.001
					L18.822,4.937L18.822,4.937z M18.874,3.374c0.001-0.004,0.003-0.007,0.004-0.011l0,0c-0.003,0.004-0.004,0.011-0.004,0.016
					c0-0.005-0.003-0.01-0.005-0.016l0,0C18.871,3.367,18.872,3.371,18.874,3.374z M19.108,3.539
					c0.005,0.008,0.011,0.016,0.017,0.021c-0.004,0.001-0.012,0.003-0.019,0.005C19.103,3.559,19.1,3.551,19.108,3.539z
					 M21.86,3.512c-0.006,0.001-0.01,0.006-0.013,0.01c0.001-0.002-0.001-0.006,0.001-0.007C21.853,3.513,21.855,3.513,21.86,3.512z
					 M21.931,3.502c-0.001,0-0.003,0-0.004,0c0.001,0,0.004-0.002,0.004-0.003C21.931,3.5,21.931,3.502,21.931,3.502z M20.93,5.051
					l0.003-0.001c0,0,0.001,0,0.001,0.001C20.933,5.051,20.932,5.051,20.93,5.051z M19.406,5.012c0,0,0,0,0-0.002
					C19.406,5.012,19.406,5.012,19.406,5.012L19.406,5.012z M18.539,4.495L18.539,4.495c-0.001,0-0.001,0-0.002,0
					C18.538,4.495,18.538,4.495,18.539,4.495z M18.388,3.477L18.388,3.477L18.388,3.477L18.388,3.477z M21.464,4.764L21.464,4.764
					L21.464,4.764L21.464,4.764z M20.722,4.963c-0.004-0.003-0.007,0.003-0.013,0.001c0.007-0.002,0.007-0.005,0.008-0.008
					C20.719,4.958,20.72,4.96,20.722,4.963z M19.026,4.524l-0.003,0.003c0,0,0.001-0.003,0.001-0.002c0-0.001,0-0.001,0-0.002
					c0.023-0.015,0.046-0.032,0.063-0.053l0,0C19.062,4.482,19.037,4.495,19.026,4.524z M19.272,3.378c0,0,0,0,0-0.001
					C19.272,3.378,19.272,3.378,19.272,3.378L19.272,3.378z M20.968,3.086c0-0.001,0.002-0.001,0.002-0.002c0,0,0,0.001,0,0.002
					H20.968z M21.974,4.49C21.973,4.49,21.973,4.489,21.974,4.49C21.973,4.49,21.973,4.49,21.974,4.49L21.974,4.49z M21.31,4.653
					c0,0.001,0.001,0.001,0.002,0.003c-0.001,0-0.001-0.001-0.001-0.001C21.31,4.654,21.309,4.654,21.31,4.653z M19.42,3.563
					c0.003-0.003,0.003-0.009,0.009-0.009C19.424,3.556,19.423,3.56,19.42,3.563L19.42,3.563L19.42,3.563z M20.842,3.063
					c0.001,0.002,0.004,0.006,0.002,0.008c0-0.002-0.001-0.004-0.002-0.006C20.842,3.065,20.842,3.063,20.842,3.063z M21.366,3.56
					C21.366,3.56,21.366,3.56,21.366,3.56c0,0.001,0,0.001,0,0.002c0.002,0.001,0.009,0.001,0.006,0.005
					c-0.002,0.002-0.005-0.001-0.006-0.002c0-0.002,0-0.001,0-0.002V3.56C21.365,3.56,21.366,3.56,21.366,3.56z M21.375,3.545
					c0.003-0.003,0.007,0,0.011,0c-0.004,0.001-0.006,0.002-0.008,0.006C21.378,3.549,21.372,3.548,21.375,3.545z M21.836,3.81
					c-0.009,0-0.014-0.001-0.021-0.001c0.003-0.003,0.008-0.009,0.008-0.012C21.827,3.802,21.831,3.805,21.836,3.81z M22.122,4.045
					c0,0,0-0.002,0-0.003c0,0,0.001,0,0.002,0C22.123,4.043,22.122,4.044,22.122,4.045z M20.07,4.883c0,0-0.003,0-0.002-0.001
					c0,0.001,0.002,0.001,0.003,0.001H20.07z M19.249,4.581c0.002,0,0.005,0,0.007,0c-0.001,0.003-0.004,0.005-0.005,0.008
					C19.25,4.585,19.248,4.583,19.249,4.581z M19.732,3.406c-0.001,0-0.005,0.002-0.005,0.002s0.002-0.003,0.002-0.002
					c0.004-0.005,0.011-0.009,0.017-0.011C19.743,3.4,19.735,3.401,19.732,3.406C19.731,3.406,19.733,3.406,19.732,3.406z
					 M21.435,3.964c0.004-0.006,0.002-0.011,0-0.017C21.444,3.951,21.442,3.957,21.435,3.964z M21.727,4.055L21.727,4.055
					C21.727,4.055,21.727,4.055,21.727,4.055S21.727,4.055,21.727,4.055z M19.935,4.7C19.935,4.7,19.935,4.7,19.935,4.7
					S19.935,4.7,19.935,4.7z M19.202,4.472C19.2,4.47,19.2,4.469,19.198,4.467c0.001,0,0.002,0.002,0.004,0.002
					C19.202,4.47,19.202,4.47,19.202,4.472z M20.806,3.666L20.806,3.666L20.806,3.666z M20.793,4.142c0,0,0,0,0,0.001
					c-0.011-0.003-0.018,0.003-0.024,0.008C20.774,4.146,20.783,4.144,20.793,4.142z M20.736,4.088c0-0.001,0.002-0.001,0.002-0.002
					c0.001,0,0.001,0.002,0.001,0.002C20.738,4.088,20.739,4.088,20.736,4.088z M20.76,4.038c-0.002,0-0.002,0.001-0.004,0.002
					c0.002,0,0-0.002,0.002-0.002C20.758,4.038,20.758,4.038,20.76,4.038z M20.676,4.109c0.001,0.001,0.001,0.003,0.001,0.004
					c-0.002-0.001-0.002-0.002-0.004-0.003C20.674,4.11,20.675,4.109,20.676,4.109z M20.694,4.188L20.694,4.188L20.694,4.188
					L20.694,4.188z M20.782,4.015c0.006-0.002,0.011-0.012,0.018-0.017C20.796,4.007,20.789,4.014,20.782,4.015z M20.888,4.044
					L20.888,4.044L20.888,4.044L20.888,4.044L20.888,4.044z M20.888,4.043c-0.004-0.003-0.006-0.007-0.008-0.01
					c-0.001-0.005-0.004-0.009-0.007-0.013l0,0c0.003,0.003,0.006,0.008,0.007,0.013C20.882,4.036,20.884,4.04,20.888,4.043
					L20.888,4.043z M20.647,3.757c-0.002-0.003-0.006-0.003-0.003-0.007c0.003,0.001,0.008-0.001,0.011-0.001
					C20.652,3.751,20.649,3.754,20.647,3.757z M19.402,4.063c0.005-0.001,0.005-0.007,0.01-0.009
					c-0.003,0.003-0.003,0.006-0.005,0.009C19.406,4.061,19.406,4.065,19.402,4.063z M19.504,3.995
					C19.504,3.994,19.504,3.995,19.504,3.995C19.506,3.995,19.504,3.996,19.504,3.995c0.002,0.001,0.003,0.002,0.003,0.003l0,0
					c-0.003-0.002-0.004-0.005-0.006-0.007c0-0.002-0.001-0.004-0.001-0.006c0-0.002,0.001-0.001,0.001-0.002
					C19.503,3.987,19.499,3.992,19.504,3.995z M19.543,3.952c0.004,0,0.007-0.001,0.008-0.001c-0.001,0.002-0.003,0.002-0.004,0.004
					C19.545,3.953,19.544,3.954,19.543,3.952z M19.471,4.242c0.001,0.001,0,0.003,0.001,0.004c-0.002,0.001-0.002,0.002-0.005,0.003
					C19.468,4.246,19.47,4.244,19.471,4.242z M19.607,4.144C19.607,4.144,19.607,4.144,19.607,4.144L19.607,4.144
					C19.607,4.144,19.607,4.143,19.607,4.144z M19.779,4.003c-0.003,0.003-0.009,0.002-0.014,0.002
					C19.771,4.004,19.774,4.004,19.779,4.003z M19.859,4.141L19.859,4.141L19.859,4.141L19.859,4.141z M19.805,4.475
					c0.01-0.001-0.001-0.003,0-0.005c0.004,0,0.01,0,0.01,0.006c-0.003-0.004-0.006,0.001-0.008,0.002
					C19.807,4.477,19.805,4.477,19.805,4.475z M19.85,4.529c0.001,0.002,0.002,0.004,0.004,0.006c-0.004,0-0.002-0.004-0.004-0.004
					C19.85,4.531,19.85,4.53,19.85,4.529z M19.986,3.947L19.986,3.947c0.006-0.002,0.003-0.01,0.011-0.011
					c0,0.005-0.008,0.005-0.008,0.01c-0.001,0.001-0.003,0.002-0.004,0.004C19.985,3.949,19.986,3.948,19.986,3.947z M19.95,3.994
					C19.95,3.995,19.95,3.995,19.95,3.994L19.95,3.994L19.95,3.994z M19.997,3.997L19.997,3.997L19.997,3.997L19.997,3.997z
					 M20.337,3.633c0-0.002,0.002,0.001,0.003,0c-0.001,0-0.003,0.001-0.003,0.002C20.337,3.634,20.336,3.633,20.337,3.633z
					 M20.273,3.801c0.002,0.001,0,0.002,0,0.003C20.273,3.804,20.273,3.803,20.273,3.801C20.273,3.803,20.272,3.8,20.273,3.801z
					 M20.29,3.816c-0.001,0.002,0.001,0.004-0.001,0.006c0-0.001-0.001-0.001-0.002-0.002C20.288,3.818,20.289,3.817,20.29,3.816z
					 M20.257,3.989c-0.001,0.003-0.001,0.007-0.004,0.009c-0.005,0-0.005-0.005-0.006-0.008C20.25,3.992,20.253,3.991,20.257,3.989z
					 M20.34,3.738c0-0.001,0-0.003,0-0.003S20.341,3.737,20.34,3.738z M20.035,4c-0.002,0.002-0.003-0.001-0.006-0.001
					c0.003,0,0.006-0.001,0.007-0.001C20.036,3.999,20.036,3.999,20.035,4z M19.757,3.826L19.757,3.826L19.757,3.826L19.757,3.826
					C19.757,3.826,19.757,3.827,19.757,3.826C19.757,3.827,19.757,3.826,19.757,3.826L19.757,3.826z M19.647,4.093L19.647,4.093
					c0,0,0-0.002,0-0.003c0,0.001,0,0.001,0,0.001s0,0,0.002,0C19.647,4.091,19.647,4.093,19.647,4.093z M19.781,4.535L19.781,4.535
					c-0.002,0.001-0.002,0.001-0.003,0.002C19.778,4.536,19.779,4.536,19.781,4.535z M20.642,4.208c0,0,0,0,0,0.002
					c0-0.001-0.003-0.001-0.006-0.001C20.639,4.207,20.64,4.21,20.642,4.208z M20.652,3.639c-0.002,0-0.002-0.001-0.003-0.001
					c0.001,0,0.003-0.001,0.003-0.001C20.652,3.638,20.652,3.638,20.652,3.639z M19.845,3.685c-0.001,0.001-0.001,0.001-0.003,0.002
					l0,0C19.844,3.687,19.844,3.686,19.845,3.685z M19.556,4.232L19.556,4.232L19.556,4.232L19.556,4.232z M19.652,4.089
					c0.005-0.001,0.011-0.005,0.014-0.003c0.003,0.002,0.008,0.002,0.012,0.005C19.669,4.091,19.661,4.086,19.652,4.089z
					 M19.94,4.401c0-0.002-0.002-0.007-0.002-0.01C19.942,4.394,19.944,4.397,19.94,4.401z M20.049,4.506
					c0.003,0.002,0.003,0.003,0.003,0.005c-0.003,0.001-0.005,0.001-0.006,0.001C20.047,4.511,20.046,4.508,20.049,4.506z
					 M21.02,3.681C21.02,3.681,21.02,3.681,21.02,3.681L21.02,3.681L21.02,3.681z M21.027,3.764c0,0.001,0,0.001,0,0.002
					C21.027,3.765,21.027,3.765,21.027,3.764L21.027,3.764z M20.151,3.667L20.151,3.667c0.002,0,0.002,0,0.002,0
					S20.153,3.667,20.151,3.667z M20.124,3.617l0.002-0.001c0,0.001,0,0.002,0,0.003C20.126,3.618,20.124,3.618,20.124,3.617z
					 M19.972,3.535c-0.014-0.01-0.001-0.02,0.006-0.029c-0.002,0.021,0.004,0.037,0.017,0.047
					C19.986,3.545,19.979,3.542,19.972,3.535z M19.734,3.787l-0.002,0.001C19.733,3.787,19.734,3.787,19.734,3.787L19.734,3.787z
					 M19.04,4.306c-0.002,0.001-0.003,0.002-0.005,0.003V4.308c-0.001-0.001,0-0.002-0.001-0.003
					c0.001-0.001,0.001,0.002,0.004,0.001c-0.001,0-0.003,0.001-0.003,0.002C19.038,4.307,19.038,4.307,19.04,4.306z M19.179,4.345
					c0,0.001-0.001,0-0.004,0C19.176,4.345,19.178,4.345,19.179,4.345C19.179,4.345,19.179,4.345,19.179,4.345z M19.997,4.565
					L19.997,4.565c0,0.002,0.005,0.003,0.003,0.006c0,0.002,0,0.004-0.001,0.006h-0.002C19.999,4.572,19.997,4.569,19.997,4.565z
					 M20.906,3.404c0,0.001,0.001,0.001,0,0.002c0,0,0-0.001,0,0C20.906,3.405,20.906,3.405,20.906,3.404z M20.803,3.605
					c0.005,0,0.01,0,0.016-0.001C20.813,3.606,20.808,3.604,20.803,3.605z M20.628,3.189h0.001c-0.003,0-0.003,0-0.004,0
					c-0.002-0.002-0.003-0.002-0.003-0.003C20.623,3.187,20.625,3.189,20.628,3.189z M20.394,3.13L20.394,3.13L20.394,3.13
					L20.394,3.13h-0.002C20.394,3.13,20.394,3.13,20.394,3.13z M20.141,3.238c0,0,0,0,0.002,0c-0.003,0.002-0.007,0.004-0.007,0.009
					C20.136,3.244,20.138,3.241,20.141,3.238L20.141,3.238z M20.157,3.53c-0.001,0-0.001,0.001-0.001,0.002c0,0,0,0-0.002-0.001
					C20.156,3.532,20.156,3.53,20.157,3.53z M20.074,3.499c0.01-0.024-0.002-0.034-0.008-0.047c0.003,0.021,0.01,0.039,0.021,0.053
					C20.082,3.504,20.08,3.497,20.074,3.499z M19.795,3.42c0,0.004-0.005,0.003-0.005,0.006c0-0.004,0.005-0.007,0.005-0.012
					C19.795,3.417,19.795,3.418,19.795,3.42z M19.747,3.44L19.747,3.44c0,0.001-0.001,0.001-0.003,0.001
					C19.747,3.44,19.746,3.44,19.747,3.44z M19.011,4.308L19.011,4.308L19.011,4.308L19.011,4.308z M19.852,4.756
					c0,0.001,0.003-0.001,0.003,0C19.854,4.756,19.854,4.756,19.852,4.756L19.852,4.756z M21.641,4.708
					c-0.001,0.003-0.007,0.002-0.007,0.008c0,0-0.002,0-0.003,0C21.632,4.71,21.638,4.71,21.641,4.708z M21.925,4.47
					c0,0.002,0,0.004,0,0.006c-0.003-0.002-0.004,0-0.006-0.001C21.922,4.474,21.921,4.47,21.925,4.47z M21.954,4.356
					c0,0.001,0.001,0.002,0.001,0.003C21.955,4.358,21.954,4.358,21.954,4.356L21.954,4.356z M22.023,4.265
					c0.001-0.003,0-0.004,0-0.007c0.001,0,0.003,0,0.004,0.002C22.024,4.261,22.026,4.264,22.023,4.265z M21.984,4.206
					c-0.002,0-0.003,0-0.003,0c0.001,0,0.003,0,0.005,0C21.985,4.205,21.984,4.207,21.984,4.206z M21.616,3.636
					c0,0.002,0,0.006-0.003,0.002c0-0.002-0.001-0.003-0.001-0.005C21.612,3.634,21.615,3.634,21.616,3.636z M21.459,3.762
					L21.459,3.762c-0.001-0.002-0.003-0.004-0.006-0.005c0-0.001-0.001-0.001-0.001-0.002c-0.014-0.012-0.024-0.006-0.035,0.004
					c-0.002-0.002-0.002-0.003-0.002-0.004c0-0.002,0.003,0,0.004-0.001c0.01,0,0.021,0,0.031,0l0.002,0.001l0,0
					C21.453,3.758,21.456,3.761,21.459,3.762z M21.38,3.878c0.006-0.008,0-0.016-0.002-0.023C21.38,3.862,21.382,3.87,21.38,3.878z
					 M21.175,3.676c0.001,0.006,0.003,0.012,0.006,0.017C21.177,3.689,21.175,3.682,21.175,3.676z M20.952,3.312
					c0-0.004,0-0.009-0.004-0.011c0.004,0,0.006-0.004,0.009-0.001C20.965,3.305,20.956,3.308,20.952,3.312z M20.176,3.215
					c0.004-0.006,0.009-0.012,0.018-0.012C20.187,3.206,20.181,3.21,20.176,3.215z M20.129,3.199
					c0.006,0.005,0.011,0.01,0.011,0.018C20.14,3.207,20.135,3.204,20.129,3.199z M19.743,3.442L19.743,3.442L19.743,3.442
					C19.743,3.442,19.743,3.442,19.743,3.442c0,0.001-0.002,0.002-0.002,0.003c-0.018,0.007-0.025,0.032-0.051,0.031
					C19.71,3.468,19.733,3.466,19.743,3.442z M19.624,3.599c-0.004,0.004-0.005,0.007-0.008,0.011
					c0.001-0.004-0.002-0.007-0.003-0.01C19.617,3.601,19.62,3.597,19.624,3.599z M19.518,3.359c0-0.001-0.001-0.001-0.001-0.001
					c0.001,0,0.001,0,0.001,0S19.518,3.358,19.518,3.359z M18.94,4.093c-0.002,0-0.002,0.001-0.002,0.001
					c-0.001,0,0-0.001-0.001-0.001C18.938,4.093,18.938,4.093,18.94,4.093z M19.145,4.571c0,0,0-0.002,0.001-0.002L19.145,4.571
					L19.145,4.571z M19.308,4.837l-0.002,0c0-0.001,0-0.003-0.001-0.003C19.306,4.834,19.306,4.837,19.308,4.837z M20.089,4.84
					c-0.004,0.009-0.007,0.02-0.008,0.028C20.08,4.856,20.085,4.848,20.089,4.84z M21.175,3.995c0,0.001,0,0.002,0,0.003
					C21.174,3.997,21.175,3.996,21.175,3.995L21.175,3.995z M21.187,4.148c0.002,0.002,0.005,0,0.008,0
					C21.191,4.15,21.188,4.15,21.187,4.15C21.187,4.15,21.187,4.148,21.187,4.148z M21.727,4.58c0.002-0.002-0.004-0.005,0-0.008
					c0.002,0,0.002,0.002,0.004,0.003C21.729,4.577,21.728,4.578,21.727,4.58z M22.071,4.188c-0.001,0.001,0,0.001-0.001,0.003
					c0,0-0.002,0-0.005,0C22.068,4.191,22.07,4.189,22.071,4.188z M21.086,3.47c-0.003-0.002-0.002-0.005-0.003-0.007
					c0.003,0.001,0.004,0.001,0.008,0.001C21.087,3.466,21.087,3.468,21.086,3.47z M21.089,3.339
					c0.001,0.001-0.002,0.001-0.002,0.002c0-0.001,0-0.002,0-0.003C21.087,3.339,21.089,3.339,21.089,3.339z M20.913,3.044
					L20.913,3.044L20.913,3.044L20.913,3.044z M20.03,3.204c-0.003,0.001-0.008,0.003-0.012,0.004
					c0.004-0.002,0.006-0.005,0.007-0.005C20.027,3.203,20.029,3.204,20.03,3.204z M19.371,3.55h0.001
					c0.014-0.009,0.018-0.036,0.037-0.034c0.004,0,0.004-0.002,0.007-0.002c-0.018,0.008-0.039,0.011-0.043,0.036
					c-0.007,0.014,0.004,0.018,0.013,0.024c-0.001,0-0.001,0-0.001,0c0.006,0.016,0.017,0.024,0.035,0.024c0-0.001,0-0.002,0-0.002
					c0.012,0.004,0.025,0.004,0.025,0.006c0-0.001-0.013,0-0.022-0.004l0,0l0,0c-0.002,0-0.002,0-0.003,0
					c-0.011-0.012-0.023-0.017-0.037-0.024c0,0,0,0,0.002,0c-0.005-0.008-0.008-0.017-0.013-0.024
					C19.371,3.55,19.371,3.551,19.371,3.55L19.371,3.55z M19.359,3.575c-0.004,0.001-0.009-0.001-0.014,0.002
					c0,0,0.001-0.001,0.002-0.002C19.352,3.575,19.355,3.576,19.359,3.575z M19.035,3.814L19.035,3.814
					c-0.001-0.003-0.004-0.005-0.008-0.008c0-0.001-0.001-0.003-0.003-0.004c0-0.001,0,0,0-0.001
					c0.002,0.002,0.003,0.004,0.003,0.005c0.005,0.003,0.007,0.005,0.01,0.007C19.035,3.813,19.035,3.814,19.035,3.814z
					 M19.03,3.746L19.03,3.746c-0.003,0.003-0.004,0.006-0.006,0.009c-0.001,0-0.001,0-0.001,0
					C19.024,3.751,19.027,3.749,19.03,3.746z M18.916,3.73L18.916,3.73L18.916,3.73L18.916,3.73
					C18.917,3.729,18.917,3.73,18.916,3.73z M18.544,3.969L18.544,3.969l-0.002,0v0H18.544z M18.914,4.155
					c-0.01-0.009-0.022-0.011-0.035-0.01C18.892,4.145,18.902,4.148,18.914,4.155z M19.669,5.078c0,0.001,0,0.002-0.001,0.002
					C19.667,5.08,19.669,5.079,19.669,5.078C19.669,5.078,19.669,5.078,19.669,5.078z M19.89,4.864
					c0.005-0.002,0.005-0.006,0.009-0.006c0,0.001,0,0.003,0.002,0.003v0c0.001,0,0.001,0.003,0.001,0.004
					C19.9,4.864,19.9,4.862,19.9,4.861C19.896,4.859,19.895,4.864,19.89,4.864L19.89,4.864z M20.08,4.918c0,0,0,0,0.001,0
					c0,0,0,0,0,0.001C20.08,4.92,20.08,4.92,20.08,4.918z M20.163,4.8c0.004,0.003-0.001,0.008,0,0.01
					c-0.001-0.002-0.001-0.005-0.004-0.008C20.162,4.803,20.162,4.799,20.163,4.8z M20.198,4.643C20.2,4.64,20.2,4.637,20.202,4.635
					C20.2,4.637,20.2,4.64,20.198,4.643z M20.271,4.631c0,0.001,0,0.001,0,0.001s-0.003,0.001-0.004,0
					C20.268,4.632,20.27,4.631,20.271,4.631z M20.822,4.72c0.003,0,0.008,0,0.008,0C20.828,4.72,20.826,4.72,20.822,4.72z
					 M20.966,4.729c0.002,0.003,0.007,0.005,0.008,0.008c-0.004,0.001-0.004-0.004-0.008-0.004
					C20.966,4.731,20.967,4.73,20.966,4.729z M21.107,4.426c0.001-0.008,0-0.017-0.005-0.023c0.006,0.002,0.012,0.003,0.015,0.008
					C21.116,4.418,21.11,4.421,21.107,4.426z M22.272,4.328c0.005,0.01,0.011,0.02,0.014,0.029c-0.004-0.011-0.009-0.022-0.02-0.03
					C22.27,4.328,22.272,4.326,22.272,4.328z M22.321,4.31c0.002,0,0.002,0,0.005-0.001C22.323,4.31,22.323,4.31,22.321,4.31z
					 M21.784,3.624c0.003-0.004,0.005-0.009,0.005-0.013C21.789,3.615,21.789,3.62,21.784,3.624z M21.609,3.511
					c-0.002-0.001,0.001-0.002,0-0.003c0.001,0.001,0.001,0.003,0.003,0.003C21.61,3.512,21.609,3.51,21.609,3.511z M21.466,3.519
					c-0.002,0-0.002,0-0.004,0c0.002-0.001,0.002-0.002,0.002-0.003C21.464,3.517,21.466,3.518,21.466,3.519z M21.391,3.365
					L21.391,3.365C21.392,3.365,21.392,3.365,21.391,3.365C21.392,3.365,21.392,3.365,21.391,3.365z M21.018,3.214
					C21.018,3.214,21.018,3.214,21.018,3.214s0.001,0,0.001,0H21.018z M20.852,2.989L20.852,2.989c0,0,0,0.001,0.001,0.002
					C20.852,2.99,20.852,2.989,20.852,2.989z M20.552,3.023L20.552,3.023C20.551,3.023,20.552,3.023,20.552,3.023
					C20.553,3.023,20.553,3.023,20.552,3.023z M20.537,3.043c0,0.001,0,0.001,0,0.002c0,0,0,0-0.001,0
					C20.537,3.044,20.537,3.044,20.537,3.043z M19.83,3.194c-0.001,0.002,0.004,0.005,0,0.008c-0.004,0.003-0.002-0.003-0.005-0.005
					C19.826,3.196,19.828,3.195,19.83,3.194z M19.228,3.646C19.228,3.646,19.228,3.646,19.228,3.646L19.228,3.646L19.228,3.646z
					 M18.771,3.738L18.771,3.738c-0.001,0.001-0.001,0.004-0.003,0.003C18.771,3.741,18.771,3.739,18.771,3.738z M18.784,3.704
					c0-0.004,0-0.007,0-0.01c0-0.01-0.008-0.004-0.012-0.005c0-0.001,0-0.001,0-0.001c0.001,0.001,0.004,0.001,0.006,0.002
					c0.002,0.001,0.004,0.003,0.006,0.004c0.002,0,0,0.003,0.003,0.004C18.786,3.7,18.786,3.702,18.784,3.704z M18.536,4.305
					c-0.002,0-0.004-0.002-0.008-0.001C18.532,4.303,18.534,4.305,18.536,4.305z M18.714,4.58c-0.002-0.003-0.002-0.006-0.005-0.008
					c0.001,0,0.001-0.001,0.003-0.001C18.712,4.574,18.714,4.577,18.714,4.58z M18.834,4.607c0-0.002,0-0.003,0-0.004
					c0,0.002,0.002,0.001,0.002,0.002S18.834,4.606,18.834,4.607z M19.044,4.584L19.044,4.584c0,0.001,0,0.002,0,0.002
					S19.044,4.585,19.044,4.584z M19.523,4.915c0,0.001,0.002,0.001,0.002,0.001c0,0.002-0.002,0.002-0.002,0.002
					C19.523,4.917,19.523,4.916,19.523,4.915z M19.496,5.072c-0.003,0.005-0.007,0.006-0.012,0.011
					c0.003-0.008-0.003-0.004-0.001-0.008C19.486,5.077,19.493,5.072,19.496,5.072z M19.85,5.05c0.001,0,0.002,0.001,0.002,0.001
					c-0.001,0-0.002,0-0.004,0C19.85,5.051,19.848,5.05,19.85,5.05z M20.289,4.677c0.002,0.009,0.005,0.011,0.006,0.016
					c-0.004-0.002-0.009,0-0.012,0C20.286,4.688,20.287,4.684,20.289,4.677z M22.374,3.921L22.374,3.921L22.374,3.921
					c0.002,0,0.002,0,0.002,0c0,0.002-0.001,0.002-0.002,0.003C22.374,3.923,22.374,3.922,22.374,3.921z M22.165,3.994
					c0,0.001,0.002,0.003,0.001,0.004C22.164,4,22.162,3.996,22.161,3.997C22.162,3.996,22.164,3.995,22.165,3.994z M21.715,3.558
					c0-0.003,0-0.004,0-0.005c0.002,0,0.002,0,0.005,0.001C21.717,3.556,21.717,3.556,21.715,3.558z M21.395,2.957
					c0.003-0.001,0.005-0.004,0.009-0.004c0,0.002,0.002,0.004,0.002,0.006C21.403,2.957,21.397,2.958,21.395,2.957z M21.032,3.109
					c0.017-0.012,0.035-0.019,0.054-0.021C21.066,3.091,21.047,3.095,21.032,3.109z M19.23,3.542
					c-0.001,0.003,0.003,0.003,0.003,0.006c-0.001-0.002-0.003-0.004-0.006-0.006C19.229,3.542,19.229,3.542,19.23,3.542z
					 M19.156,3.539c0,0.001,0,0.001,0,0.001l-0.002-0.001H19.156z M18.844,3.382L18.844,3.382c0,0,0,0-0.002,0
					C18.844,3.382,18.844,3.382,18.844,3.382z M18.386,3.465C18.387,3.465,18.387,3.465,18.386,3.465
					c0.001,0.001,0.001,0.001,0.001,0.002h-0.002C18.385,3.466,18.385,3.465,18.386,3.465L18.386,3.465z M18.387,4.272
					c0.008-0.004,0.014-0.008,0.021-0.01c0.004-0.001,0.006,0.001,0.009,0.001C18.406,4.266,18.395,4.26,18.387,4.272L18.387,4.272z
					 M19.306,5.102c0,0,0,0,0,0.002c-0.003-0.006-0.007-0.011-0.009-0.016C19.3,5.092,19.303,5.098,19.306,5.102z M19.386,4.999
					c0.002,0,0.002,0,0.003,0C19.388,4.999,19.386,4.999,19.386,4.999L19.386,4.999z M19.493,4.835c0,0,0.003-0.001,0.003-0.003
					c0,0.001,0,0.002,0,0.002C19.495,4.835,19.493,4.835,19.493,4.835v0.001c-0.002-0.001-0.004-0.002-0.006-0.003
					C19.49,4.832,19.489,4.836,19.493,4.835z M19.485,5.094c0.01-0.001,0.023,0.007,0.017,0.024
					c-0.007-0.009-0.012-0.018-0.02-0.025C19.483,5.092,19.483,5.094,19.485,5.094z M20.323,5.118c0,0-0.001,0.001-0.002,0.001
					c-0.001,0,0.001-0.001,0-0.001C20.322,5.118,20.323,5.118,20.323,5.118z M20.518,5.094c-0.002,0.008,0.003,0.014,0.004,0.021
					c-0.006-0.007-0.012-0.01-0.021-0.009C20.507,5.101,20.512,5.101,20.518,5.094z M20.959,5.017c0.001-0.001,0.003,0,0.004-0.001
					c0,0.001,0,0.001,0,0.002C20.962,5.018,20.96,5.017,20.959,5.017z M21.541,4.891c0,0.003-0.005,0.003-0.005,0.004h-0.001
					C21.536,4.894,21.539,4.893,21.541,4.891z M21.617,4.908c0-0.001,0-0.001,0.001-0.002L21.617,4.908
					C21.618,4.908,21.618,4.908,21.617,4.908z M21.92,4.608l-0.001-0.001l0,0C21.92,4.607,21.92,4.608,21.92,4.608
					c0.001,0,0.002,0,0.002,0c-0.008,0.021-0.003,0.036,0.016,0.048c-0.002,0-0.003,0-0.005,0
					C21.928,4.641,21.925,4.624,21.92,4.608z M22.35,4.449c-0.001,0.002-0.003,0.004-0.003,0.007c0-0.003,0.001-0.006,0-0.009
					C22.347,4.449,22.35,4.448,22.35,4.449z M22.004,3.631c0.008,0.002,0.017,0.007,0.023,0.014
					C22.019,3.639,22.012,3.634,22.004,3.631z M20.735,2.919c-0.002-0.002-0.005-0.001-0.007-0.002
					c0.005-0.001,0.011-0.005,0.014-0.007C20.741,2.914,20.736,2.916,20.735,2.919z M19.94,3.111L19.94,3.111
					c-0.005,0-0.012,0.004-0.016,0.009c0-0.002,0-0.001,0-0.003c0.004-0.001,0.008-0.003,0.014-0.005
					C19.938,3.111,19.94,3.111,19.94,3.111z M18.349,3.444L18.349,3.444c-0.006-0.006-0.012-0.007-0.02-0.009
					c0.002,0,0.002,0,0.002,0C18.337,3.438,18.342,3.441,18.349,3.444z M18.517,3.652c-0.001-0.001-0.005,0-0.005-0.001
					c-0.003-0.004-0.007-0.002-0.01-0.006C18.505,3.65,18.512,3.647,18.517,3.652z M18.834,3.787
					C18.834,3.788,18.834,3.788,18.834,3.787V3.79h-0.001C18.834,3.788,18.834,3.788,18.834,3.787z M18.411,4.127
					C18.404,4.13,18.4,4.136,18.395,4.142c0,0,0,0-0.001,0c0.007-0.004,0.012-0.009,0.015-0.017
					C18.41,4.125,18.409,4.126,18.411,4.127z M18.418,4.279c0.005,0.003,0.01,0,0.016,0.002c-0.008,0.002-0.016,0.003-0.021,0.009
					C18.414,4.286,18.415,4.283,18.418,4.279z M18.364,4.488c-0.002,0-0.002,0-0.003,0l0,0C18.362,4.488,18.364,4.487,18.364,4.488
					L18.364,4.488z M18.906,4.97c-0.003,0.007-0.004,0.018-0.009,0.016c-0.001,0-0.003,0-0.005,0
					C18.9,4.983,18.904,4.977,18.906,4.97z M19.179,5.029c0,0.003,0.005,0.006,0.003,0.01c-0.003-0.006-0.006-0.01-0.009-0.017
					C19.175,5.024,19.178,5.026,19.179,5.029z M19.22,5.074c-0.004,0.006-0.008,0.012-0.014,0.017
					C19.212,5.086,19.216,5.08,19.22,5.074z M20.176,5.115c0,0.001,0,0.001,0.001,0.001c-0.001,0.001-0.001,0.001-0.001,0.001
					C20.174,5.116,20.176,5.116,20.176,5.115z M22.386,4.485L22.386,4.485L22.386,4.485L22.386,4.485
					C22.386,4.486,22.386,4.486,22.386,4.485z M22.432,4.31c-0.002,0.004,0,0.007,0.002,0.009c0,0.001,0,0.001,0,0.001
					C22.434,4.317,22.43,4.313,22.432,4.31z M22.464,3.89c0.001-0.001,0.001-0.003,0.001-0.004c0.004-0.007,0.012-0.002,0.018-0.004
					C22.477,3.884,22.469,3.884,22.464,3.89z M22.581,3.991C22.58,3.992,22.578,3.99,22.577,3.99c0-0.001,0-0.002,0-0.004
					C22.58,3.989,22.58,3.988,22.581,3.991z M22.52,3.875c0,0.001,0.001,0.003,0,0.005c0-0.002,0-0.003-0.002-0.005
					C22.52,3.875,22.52,3.875,22.52,3.875z M22.554,4.069c0.008-0.002,0.01,0.006,0.014,0.008c-0.006,0-0.012-0.001-0.018,0
					C22.553,4.076,22.551,4.07,22.554,4.069z M22.484,3.826L22.484,3.826c-0.004,0.001-0.007,0.001-0.01,0.001
					c0.003-0.002,0.007-0.001,0.01-0.005C22.484,3.822,22.484,3.825,22.484,3.826z M22.17,3.859c0,0.001,0.002,0.002,0.003,0.003
					C22.172,3.862,22.17,3.859,22.17,3.859z M21.381,2.793c-0.001-0.013-0.003-0.031-0.009-0.036c0.003-0.001,0.006,0,0.01,0
					C21.373,2.77,21.381,2.782,21.381,2.793z M19.625,3.07c-0.01-0.007-0.016-0.02-0.027-0.024C19.6,3.044,19.6,3.047,19.602,3.046
					c0-0.001-0.001-0.002,0-0.003v0.003C19.603,3.061,19.606,3.072,19.625,3.07c0-0.001,0.002,0,0.002-0.001
					c0,0-0.001,0.001,0,0.001C19.626,3.07,19.626,3.07,19.625,3.07z M18.412,3.345L18.412,3.345L18.412,3.345L18.412,3.345
					L18.412,3.345z M18.28,3.325c0-0.006-0.005-0.007-0.003-0.014c0,0,0,0,0.002,0C18.275,3.318,18.28,3.32,18.28,3.325z
					 M18.1,3.406h-0.002H18.1L18.1,3.406z M17.989,3.466L17.989,3.466c0,0.002,0,0.005,0,0.007l0,0
					C17.99,3.471,17.992,3.468,17.989,3.466z M18.089,3.452c0.003,0.005,0,0.01-0.002,0.014c0-0.008-0.006-0.011-0.014-0.012
					C18.078,3.451,18.083,3.447,18.089,3.452z M18.483,3.935c-0.001,0-0.001,0-0.002,0C18.482,3.935,18.482,3.934,18.483,3.935
					L18.483,3.935z M18.184,4.091c0,0,0.002,0,0.004,0c-0.002,0.001-0.004,0-0.004,0.001C18.184,4.091,18.184,4.091,18.184,4.091z
					 M18.375,4.151c0,0.001,0,0.002,0,0.003h-0.002C18.375,4.153,18.373,4.153,18.375,4.151z M19.093,4.902
					c0.006-0.005,0.008,0.006,0.013,0.006c-0.006,0-0.011,0.001-0.016,0.004C19.093,4.909,19.09,4.905,19.093,4.902z M22.159,4.583
					L22.159,4.583L22.159,4.583L22.159,4.583L22.159,4.583z M22.303,4.535c0,0.001,0,0.002,0,0.004
					C22.303,4.538,22.303,4.536,22.303,4.535L22.303,4.535z M22.473,4.249L22.473,4.249C22.473,4.249,22.473,4.248,22.473,4.249
					C22.473,4.248,22.473,4.249,22.473,4.249V4.247c0.001,0.001,0.002,0,0.004,0.001v0.001C22.475,4.249,22.474,4.249,22.473,4.249z
					 M22.677,4.042c0,0.001,0,0.003,0,0.004c-0.006-0.001-0.011,0.002-0.016,0.004C22.666,4.047,22.672,4.048,22.677,4.042z
					 M22.484,3.803c0,0.002,0,0.004,0,0.006c-0.002-0.002-0.002-0.003-0.004-0.006C22.482,3.803,22.482,3.803,22.484,3.803z
					 M21.723,3.459c0-0.002,0.002-0.004,0-0.006c0.002,0,0.002,0.001,0.004,0.001C21.725,3.455,21.724,3.457,21.723,3.459z
					 M21.676,3.447c-0.003,0-0.005,0-0.007-0.001C21.671,3.447,21.674,3.447,21.676,3.447z M21.531,3.319
					c0.032-0.019,0.064-0.039,0.072-0.079c0.001,0,0.003,0,0.006,0l0,0l0,0C21.583,3.266,21.553,3.289,21.531,3.319z M21.733,3.139
					c-0.003,0-0.003,0.002-0.007,0.002c0.007,0.01,0.002,0.018,0,0.026l0,0c0.005-0.009,0.011-0.019-0.002-0.026
					c0.002-0.001,0.002,0,0.002,0c-0.001-0.004-0.002-0.007-0.001-0.011C21.729,3.132,21.73,3.137,21.733,3.139z M19.619,2.893
					c-0.002-0.001-0.006,0-0.008-0.001c0.002,0,0.004,0,0.006,0C19.617,2.893,19.617,2.891,19.619,2.893z M18.197,3.338
					c0.008-0.005,0.014-0.019,0.017-0.034c-0.006,0.01-0.012,0.021-0.009,0.037C18.202,3.34,18.2,3.339,18.197,3.338z M18.268,3.417
					c0,0.001-0.002,0-0.003,0.001c-0.01-0.017-0.027-0.016-0.043-0.024C18.237,3.401,18.254,3.406,18.268,3.417z M18.507,3.832
					c-0.001,0-0.001,0-0.002,0l0,0C18.505,3.832,18.505,3.831,18.507,3.832z M18.312,3.854c-0.001,0-0.004,0-0.004,0
					c-0.001,0-0.003,0.001-0.004,0C18.307,3.852,18.31,3.854,18.312,3.854z M18.444,3.976c-0.003,0-0.005,0.004-0.008,0.005
					c-0.005,0.001-0.009-0.003-0.013-0.003C18.432,3.98,18.438,3.978,18.444,3.976z M17.607,4.381L17.607,4.381c0,0,0,0,0,0.001
					C17.607,4.381,17.607,4.381,17.607,4.381z M18.456,4.536c0.002-0.004-0.003-0.004-0.003-0.007
					c0.002,0.002,0.003,0.005,0.005,0.007l0,0C18.458,4.536,18.458,4.536,18.456,4.536z M18.605,4.779
					c-0.001,0.004-0.004,0.007-0.002,0.014l0,0C18.604,4.787,18.604,4.784,18.605,4.779z M20.658,5.207
					c0.015-0.003,0.028-0.011,0.042-0.018c-0.01,0.007-0.019,0.017-0.033,0.018C20.664,5.207,20.661,5.207,20.658,5.207z
					 M20.752,5.164c-0.002-0.002-0.003-0.002-0.003-0.003c0.001,0,0.003,0,0.006,0C20.755,5.162,20.752,5.163,20.752,5.164z"/>
				<path style="fill-rule:evenodd;clip-rule:evenodd;" d="M18.991,3.231c-0.009,0.024-0.042,0.016-0.054,0.039
					C18.992,3.273,18.992,3.273,18.991,3.231z"/>
				<path style="fill-rule:evenodd;clip-rule:evenodd;" d="M18.34,3.213c0.003,0.005,0.006,0.01,0.012,0.013V3.225
					c0.007,0.009,0.017,0.007,0.026,0.013c0.003,0,0.006,0,0.009,0.001c0.007,0.01,0.015,0.011,0.025,0.01
					c-0.004-0.004-0.008-0.008-0.013-0.012c0,0,0,0,0.001,0c0.003,0.005,0.007,0.008,0.012,0.012l0,0
					c0.012,0.014,0.033-0.001,0.047,0.012h-0.001c0.011,0.011,0.027,0.002,0.037,0.012l0,0c0.021,0.023,0.051,0.01,0.076,0.012
					c0.006,0.001,0.014,0.002,0.021,0.003c0.014,0.01,0.033-0.001,0.048,0.01c0.008,0,0.014,0,0.02,0
					c0.026-0.009,0.052-0.009,0.077,0l0.004-0.002l0.003,0c0.076,0.02,0.133-0.022,0.189-0.063c-0.106,0.009-0.214,0.021-0.32,0.017
					C18.605,3.25,18.599,3.25,18.59,3.249c-0.017-0.02-0.04-0.009-0.062-0.01c-0.012,0-0.022-0.003-0.034-0.003
					c-0.011-0.007-0.025,0-0.036-0.009c-0.005,0-0.008-0.001-0.011-0.003c-0.01-0.013-0.024-0.01-0.037-0.01
					c-0.004-0.001-0.009-0.002-0.012-0.002c-0.005-0.003-0.011-0.008-0.015-0.01c-0.015,0-0.028,0-0.043,0
					c-0.001,0-0.003,0.001-0.003,0.003C18.337,3.208,18.337,3.21,18.34,3.213L18.34,3.213z"/>
				<path style="fill-rule:evenodd;clip-rule:evenodd;" d="M20.354,2.758c0.021-0.011,0.052,0.012,0.07-0.021
					C20.394,2.728,20.372,2.745,20.354,2.758z"/>
				<path style="fill-rule:evenodd;clip-rule:evenodd;" d="M22.116,3.447c0.004-0.011-0.002-0.014-0.007-0.014
					c-0.011-0.003-0.018,0-0.024,0.009c-0.004,0.008,0.004,0.01,0.01,0.011C22.103,3.454,22.112,3.455,22.116,3.447z"/>
				<path style="fill-rule:evenodd;clip-rule:evenodd;" d="M20.574,2.723c0.011-0.001,0.024-0.001,0.035-0.002
					c0.006-0.002,0.013-0.002,0.016-0.006c0.007-0.01,0-0.017-0.008-0.017c-0.023,0-0.048-0.009-0.068,0.011
					c-0.003,0-0.006,0.001-0.01,0.001c-0.008,0.002-0.016,0.005-0.016,0.015c-0.002,0.008,0.006,0.008,0.012,0.008
					C20.549,2.733,20.563,2.735,20.574,2.723z"/>
				<path style="fill-rule:evenodd;clip-rule:evenodd;" d="M19.092,3.214c-0.002-0.005-0.006-0.007-0.01-0.004
					c-0.004,0.003-0.009,0.007-0.014,0.011c0.005,0.001,0.008,0.004,0.011,0.004C19.086,3.225,19.092,3.222,19.092,3.214z"/>
				<path style="fill-rule:evenodd;clip-rule:evenodd;" d="M19.043,3.223c-0.003-0.002-0.008-0.003-0.011-0.005
					c0,0.004-0.005,0.008-0.003,0.011c0.001,0.002,0.006,0.003,0.009,0.004C19.04,3.229,19.041,3.226,19.043,3.223z"/>
				<polygon style="fill-rule:evenodd;clip-rule:evenodd;" points="17.395,4.345 17.404,4.35 17.408,4.341 17.399,4.336 				"/>
				<path style="fill-rule:evenodd;clip-rule:evenodd;" d="M21.399,2.696c-0.002-0.003-0.006-0.005-0.01-0.007
					c-0.004,0.001-0.007,0.006-0.003,0.009c0.003,0.002-0.001,0.016,0.009,0.007C21.397,2.703,21.399,2.698,21.399,2.696z"/>
				<path style="fill-rule:evenodd;clip-rule:evenodd;" d="M20.853,2.755c0.002-0.011-0.009-0.009-0.015-0.01
					c-0.012,0-0.023,0-0.035,0.001c-0.007,0.007-0.007,0.016,0,0.023c0.012,0,0.024,0,0.035,0
					C20.846,2.767,20.853,2.762,20.853,2.755z"/>
				<polygon style="fill-rule:evenodd;clip-rule:evenodd;" points="21.576,3.353 21.577,3.362 21.586,3.357 21.582,3.351 				"/>
				<polygon style="fill-rule:evenodd;clip-rule:evenodd;" points="21.674,3.35 21.677,3.344 21.672,3.343 21.671,3.348 				"/>
				<path style="fill-rule:evenodd;clip-rule:evenodd;" d="M20.943,5.169c0.003,0,0.005-0.001,0.006-0.001
					c0.001-0.005-0.001-0.006-0.007-0.003C20.942,5.165,20.943,5.168,20.943,5.169z"/>
				<polygon style="fill-rule:evenodd;clip-rule:evenodd;" points="20.196,2.995 20.201,2.998 20.198,2.992 				"/>
			</g>
	</g>
</svg>
