<?xml version="1.0" encoding="utf-8"?>
<svg xmlns="http://www.w3.org/2000/svg" viewBox="1.785 3.108 6.22 2.123">
	<g>
			<g>
				<path style="fill-rule:evenodd;clip-rule:evenodd;" d="M7.942,3.749C7.95,3.764,7.963,3.77,7.978,3.767
					c0.007-0.002,0.008-0.008,0.005-0.013C7.971,3.74,7.957,3.741,7.942,3.749z"/>
				<path style="fill-rule:evenodd;clip-rule:evenodd;" d="M7.5,3.742c-0.042,0.003-0.084,0-0.128,0c0,0.002,0,0.002,0,0.003
					c0-0.001,0-0.001,0-0.001V3.742C7.33,3.714,7.282,3.733,7.237,3.728C7.256,3.71,7.283,3.703,7.299,3.679
					c0.015-0.022,0.01-0.042-0.016-0.041C7.226,3.639,7.171,3.612,7.114,3.622c-0.01,0-0.018,0-0.028,0c-0.03,0-0.063,0-0.092,0
					c0.005,0.005,0.013,0.01,0.018,0.015c-0.002,0.001-0.005,0-0.006,0.001C7.002,3.632,7.001,3.624,6.994,3.622
					c-0.005,0-0.01,0-0.015-0.002c0-0.001,0-0.001-0.005-0.003c-0.003-0.001-0.007,0-0.01,0.005C6.958,3.62,6.956,3.62,6.949,3.62
					c-0.036-0.029-0.08-0.006-0.12-0.015C6.819,3.584,6.804,3.57,6.784,3.56c-0.005,0-0.01,0-0.015,0
					c0.005-0.01,0.01-0.021,0.015-0.031c0.013,0,0.023-0.003,0.03-0.015c0.015,0,0.031,0,0.045,0c0.012,0,0.022-0.003,0.03-0.014
					c0.01,0,0.021,0,0.031,0c0.015,0.008,0.028,0.008,0.044,0c0.005-0.002,0.01-0.002,0.015-0.002c0.01,0,0.02,0,0.03,0
					c0.009-0.01,0.023-0.006,0.029-0.014c0.016-0.001,0.031-0.001,0.047-0.001c0.015-0.012,0.03-0.012,0.046,0
					c0.01,0,0.018,0,0.03,0C7.196,3.479,7.234,3.497,7.268,3.47c0.045,0,0.089,0,0.135,0c0.005-0.006,0.01-0.011,0.015-0.016
					c0.015,0,0.03,0,0.045,0c0.008-0.009,0.022-0.005,0.03-0.013c0.021-0.001,0.04-0.001,0.061-0.003
					c0.005-0.003,0.01-0.008,0.015-0.014c0.035,0,0.07,0,0.106-0.001c0.008-0.009,0.022-0.005,0.031-0.014
					c0.015,0,0.029,0,0.044-0.001c0.044-0.002,0.044-0.002,0.031-0.03c-0.016,0-0.031,0-0.046,0
					c-0.016-0.022-0.038-0.013-0.06-0.015c-0.009,0-0.021,0-0.03,0c0,0-0.001,0.003-0.006,0.005c-0.002,0.001-0.006,0-0.01-0.005
					c-0.035,0-0.07,0-0.105,0c-0.015-0.02-0.035-0.014-0.055-0.016c-0.048,0-0.095,0-0.141,0c-0.02,0-0.04,0-0.06,0
					C7.25,3.324,7.227,3.333,7.207,3.331c-0.086,0-0.171,0-0.258-0.001C6.927,3.307,6.899,3.319,6.874,3.315c-0.01,0-0.02,0-0.029,0
					c-0.026-0.032-0.07,0-0.098-0.025c0.025-0.075,0.021-0.086-0.056-0.08C6.599,3.218,6.512,3.188,6.427,3.167
					C6.33,3.145,6.233,3.145,6.137,3.136C6.041,3.128,5.943,3.127,5.845,3.13C5.694,3.137,5.542,3.133,5.39,3.133
					c-0.021,0-0.042-0.003-0.061,0.001c-0.111,0.021-0.225,0.018-0.335,0.03C4.959,3.166,4.925,3.172,4.892,3.176
					C4.859,3.174,4.827,3.167,4.794,3.164C4.683,3.152,4.569,3.156,4.459,3.136c-0.021-0.003-0.04-0.002-0.061-0.002
					C4.247,3.133,4.093,3.138,3.941,3.132C3.844,3.128,3.746,3.128,3.651,3.137C3.555,3.146,3.458,3.146,3.362,3.169
					C3.277,3.188,3.19,3.218,3.098,3.211C3.02,3.205,3.016,3.217,3.041,3.292C3.012,3.315,2.97,3.285,2.944,3.315
					c-0.01,0-0.019,0.002-0.031,0.002C2.889,3.32,2.859,3.307,2.84,3.331c-0.087,0-0.173,0-0.258,0.001
					c-0.02,0.001-0.044-0.008-0.061,0.014c-0.02,0-0.04,0.002-0.06,0.002c-0.047,0-0.093,0-0.141,0c-0.02,0-0.041-0.004-0.055,0.014
					c-0.035,0-0.071,0-0.106,0C2.156,3.366,2.154,3.367,2.15,3.366C2.146,3.364,2.144,3.363,2.144,3.362c-0.009,0-0.02,0-0.031,0
					c-0.02,0.002-0.042-0.007-0.06,0.015c-0.015,0-0.03,0-0.045,0C1.995,3.405,1.996,3.405,2.039,3.408c0.015,0,0.029,0,0.045,0
					c0.009,0.01,0.022,0.005,0.029,0.015C2.15,3.425,2.186,3.425,2.22,3.425c0.006,0.003,0.012,0.008,0.016,0.013
					c0.02,0.001,0.041,0.001,0.059,0.001c0.009,0.009,0.024,0.005,0.031,0.014c0.016,0.001,0.031,0.001,0.045,0.001
					C2.377,3.458,2.382,3.463,2.387,3.47c0.045,0,0.09,0,0.135,0c0.032,0.027,0.07,0.009,0.106,0.015c0.009,0,0.019,0,0.03,0
					c0.015-0.013,0.029-0.013,0.045,0c0.016,0,0.031,0,0.046,0C2.757,3.494,2.77,3.49,2.778,3.501C2.789,3.499,2.8,3.499,2.81,3.499
					c0.005,0,0.009,0.002,0.014,0.002c0.015,0.008,0.029,0.008,0.044,0c0.01,0,0.021,0,0.033,0c0.006,0.011,0.017,0.013,0.029,0.014
					c0.015,0,0.029,0,0.044,0C2.98,3.526,2.992,3.529,3.003,3.53c0.005,0.009,0.011,0.02,0.015,0.03
					C3.015,3.561,3.01,3.561,3.005,3.561C2.983,3.57,2.97,3.584,2.958,3.607C2.92,3.614,2.874,3.592,2.838,3.622
					c-0.005,0-0.01,0-0.015,0c-0.004-0.003-0.005-0.005-0.01-0.003c-0.004,0-0.005,0.001-0.005,0.003c-0.005,0-0.009,0-0.015,0
					C2.787,3.625,2.787,3.633,2.782,3.638c-0.002,0-0.003,0.001-0.005,0c0.005-0.006,0.011-0.011,0.017-0.016
					c-0.031,0-0.063,0-0.094,0c-0.009,0-0.018,0-0.026,0c-0.056-0.01-0.112,0.017-0.17,0.016c-0.024,0-0.03,0.019-0.014,0.042
					c0.014,0.023,0.042,0.03,0.063,0.048C2.507,3.733,2.459,3.714,2.417,3.744l0,0c0,0.001,0,0.001,0,0.002c0-0.001,0-0.002,0-0.002
					c-0.043,0-0.086,0.002-0.128,0C2.188,3.738,2.09,3.75,1.991,3.758c-0.03,0.004-0.062-0.012-0.093,0
					C1.896,3.785,1.914,3.799,1.929,3.799c0.046-0.003,0.092,0.029,0.139,0.005c0.011,0,0.021,0.001,0.03,0.003
					c0.072,0.014,0.146,0.037,0.218,0.041c0.155,0.012,0.306,0.05,0.457,0.08c0.023,0.005,0.038,0.021,0.049,0.042
					c0,0.001,0.001,0.001,0.001,0.001v0.002L2.823,3.971C2.802,3.975,2.778,3.965,2.762,3.988l0.003,0c0,0-0.002,0-0.003,0v0
					C2.646,3.979,2.536,4.007,2.42,4.004C2.396,4.002,2.371,4.012,2.349,4.02C2.321,4.029,2.321,4.046,2.342,4.064
					C2.347,4.077,2.357,4.079,2.369,4.08C2.382,4.1,2.396,4.115,2.417,4.125l0.002-0.001l0,0C2.418,4.125,2.417,4.125,2.417,4.125
					C2.415,4.158,2.423,4.184,2.462,4.187c0,0,0-0.003,0.001-0.003l0,0L2.462,4.187c0.006,0.012,0.018,0.015,0.03,0.015V4.2
					c0,0,0,0,0.001,0C2.492,4.201,2.492,4.202,2.492,4.202c0.054,0.026,0.1,0.075,0.166,0.076c0,0,0.001-0.001,0.001-0.002l0,0
					L2.657,4.278c0.05,0.014,0.069,0.061,0.105,0.091c0,0,0.003-0.001,0.003-0.002c0,0.001,0,0.001,0,0.001L2.762,4.369
					c0.008,0.013,0.017,0.016,0.03,0.017c0-0.001,0.001-0.001,0.001-0.001l0,0L2.792,4.385c0.01,0.014,0.021,0.014,0.031-0.001
					c0.026,0,0.05,0,0.075,0C2.917,4.396,2.932,4.411,2.944,4.43l0,0.005v0.008C2.949,4.45,2.953,4.456,2.96,4.46
					c0.002,0.025,0.017,0.056-0.026,0.063C2.9,4.529,2.896,4.56,2.885,4.584V4.583C2.872,4.602,2.857,4.618,2.84,4.629v0
					C2.833,4.633,2.828,4.638,2.823,4.643c-0.111,0-0.208,0.038-0.294,0.111C2.507,4.776,2.514,4.799,2.534,4.813
					c0,0.002-0.001,0.002-0.003,0.002c0.003,0,0.003,0.002,0.006,0c0.005,0.003,0.005,0.008,0.011,0.012c0.005,0,0.011,0,0.016,0
					c0.026,0,0.053,0.005,0.077,0.012c0.005,0.004,0.005,0.014,0.01,0.02c0.006,0.02,0.022,0.035,0.02,0.058
					c0.001,0,0.002,0,0.003,0.003h0L2.671,4.917C2.623,4.915,2.6,4.956,2.567,4.979C2.554,4.993,2.534,4.981,2.521,4.995
					C2.5,4.998,2.477,4.988,2.462,5.01c-0.011,0-0.02,0-0.03,0C2.41,5.012,2.387,5.019,2.375,5.041
					c-0.001,0.005,0,0.017,0.004,0.021c0.022,0.014,0.047,0.016,0.067-0.006l0,0c0.003-0.004,0.007-0.005,0.011-0.004
					C2.46,5.053,2.462,5.055,2.462,5.056c0.005,0,0.01,0,0.015,0c0.025-0.004,0.053,0.01,0.076-0.015c0.01,0,0.02,0,0.03,0
					c0.049-0.003,0.099,0.005,0.147-0.006c0.02-0.005,0.045,0,0.055,0.016c0.012,0.025-0.017,0.03-0.032,0.042
					C2.72,5.119,2.682,5.137,2.64,5.152c0.032,0.03,0.077,0.02,0.108,0.04l0,0c0.054,0.027,0.111,0.026,0.165,0
					c0.005,0,0.009,0,0.014,0C2.953,5.19,2.982,5.204,3.003,5.177C3.029,5.174,3.059,5.188,3.08,5.163l0,0
					c0.035-0.006,0.072,0.014,0.105-0.016c0.005-0.001,0.008-0.001,0.013,0C3.22,5.146,3.243,5.154,3.26,5.132
					c0.005,0,0.009,0,0.014,0c0.011-0.009,0.021-0.009,0.031,0c0.005,0.002,0.008,0.005,0.01,0.004
					C3.318,5.134,3.32,5.133,3.32,5.132c0.005,0,0.01,0.001,0.015,0.001C3.341,5.138,3.346,5.142,3.35,5.147
					c0.012,0,0.021,0,0.034,0.002C3.438,5.168,3.49,5.174,3.545,5.147c0.013,0,0.026-0.002,0.032-0.015
					c0.005-0.001,0.01-0.001,0.015,0c0.038,0.032,0.074-0.008,0.113-0.003c0.026,0.003,0.05-0.016,0.079-0.001
					c0.014,0.008,0.029,0,0.041-0.012c0.01-0.007,0.022-0.018,0.034-0.012c0.036,0.019,0.068,0.001,0.102-0.003
					c0.007,0,0.015,0,0.023,0C4.042,5.11,4.101,5.116,4.161,5.102c0.007-0.001,0.015-0.001,0.023-0.001
					C4.187,5.102,4.19,5.104,4.192,5.104c0.009,0.003,0.016,0.007,0.023,0.02c-0.033,0.01-0.064,0.021-0.097,0.03
					C4.236,5.149,4.351,5.177,4.466,5.15c0.029-0.006,0.061-0.003,0.09-0.003c0.043,0,0.085,0.002,0.126-0.013
					c0.051-0.021,0.106-0.02,0.161-0.019c0.011,0,0.021,0,0.031,0c0.01,0,0.018,0,0.027,0c0.015,0,0.031,0,0.046,0
					c0.055-0.001,0.106-0.002,0.157,0.018C5.147,5.149,5.19,5.146,5.231,5.147c0.03,0,0.061-0.004,0.092,0.002
					c0.113,0.028,0.229,0,0.346,0.004c-0.032-0.011-0.064-0.021-0.096-0.03c0.006-0.013,0.015-0.018,0.022-0.02
					C5.597,5.102,5.6,5.101,5.604,5.101c0.009,0,0.016,0,0.024,0c0.06,0.014,0.118,0.008,0.177,0c0.007,0,0.015,0,0.023,0
					C5.86,5.104,5.894,5.123,5.93,5.104c0.01-0.007,0.023,0.003,0.034,0.012c0.012,0.011,0.025,0.018,0.041,0.011
					c0.028-0.014,0.054,0.005,0.08,0C6.122,5.123,6.158,5.164,6.196,5.13c0.005,0,0.01,0,0.015,0.001
					c0.008,0.013,0.021,0.015,0.031,0.014c0.056,0.028,0.11,0.023,0.164,0.004c0.01-0.002,0.021-0.002,0.031-0.002
					c0.004-0.005,0.009-0.01,0.015-0.014C6.458,5.132,6.463,5.132,6.468,5.13c0,0.001,0,0.002,0.005,0.003
					c0.003,0.003,0.005,0,0.01-0.003c0.01-0.008,0.021-0.008,0.031,0c0.005,0,0.01,0,0.015,0.001
					c0.015,0.022,0.041,0.013,0.06,0.014c0.005,0,0.01,0,0.015,0.001c0.031,0.03,0.07,0.009,0.105,0.016V5.161
					c0.02,0.026,0.049,0.013,0.075,0.017c0.021,0.026,0.049,0.011,0.077,0.014c0.005,0,0.008,0,0.013,0.001
					C6.93,5.217,6.985,5.218,7.039,5.191v0.001c0.034-0.021,0.077-0.01,0.111-0.04c-0.042-0.015-0.08-0.033-0.112-0.06
					C7.021,5.079,6.992,5.074,7.004,5.051C7.012,5.034,7.039,5.03,7.06,5.034c0.048,0.01,0.097,0.003,0.147,0.005
					c0.01,0.002,0.02,0.002,0.03,0.002c0.021,0.023,0.05,0.01,0.076,0.014c0.005,0,0.01,0,0.015,0.001c0-0.001,0-0.004,0.005-0.005
					c0.003-0.002,0.008,0,0.01,0.005V5.055c0.02,0.023,0.044,0.02,0.066,0.006c0.004-0.003,0.007-0.015,0.004-0.02
					C7.401,5.018,7.38,5.011,7.357,5.01c-0.009-0.001-0.02,0-0.03,0c-0.015-0.022-0.04-0.014-0.06-0.015
					C7.255,4.981,7.233,4.993,7.222,4.979C7.188,4.954,7.165,4.915,7.117,4.917l-0.003,0l0,0c0,0,0.001,0,0.003,0
					c-0.004-0.023,0.015-0.04,0.02-0.06c0.003-0.004,0.005-0.014,0.01-0.018c0.024-0.007,0.05-0.012,0.077-0.012
					c0.005,0,0.01,0,0.015-0.001c0.007-0.002,0.008-0.008,0.013-0.01c0.001,0,0.003,0,0.004,0C7.255,4.813,7.255,4.813,7.255,4.813
					c0.02-0.015,0.027-0.039,0.003-0.059c-0.083-0.074-0.181-0.11-0.293-0.11c-0.006-0.005-0.009-0.01-0.016-0.014l0,0
					C6.932,4.616,6.917,4.601,6.904,4.583l0,0C6.891,4.56,6.886,4.528,6.854,4.522C6.811,4.515,6.827,4.484,6.829,4.458
					c0.005-0.005,0.01-0.01,0.016-0.016V4.436V4.43c0.01-0.021,0.025-0.036,0.044-0.046c0.025,0,0.05,0,0.076,0
					c0.01,0.015,0.021,0.015,0.031,0H6.994v0c0,0,0.002,0,0.002,0c0.011,0,0.023-0.004,0.029-0.016L7.024,4.367l0,0
					c0,0,0,0.001,0.001,0.002c0.036-0.03,0.057-0.078,0.106-0.091L7.13,4.276V4.274c0,0.002,0.002,0.002,0.002,0.004
					c0.065-0.002,0.11-0.05,0.165-0.076c0-0.001-0.001-0.002-0.002-0.002c0.001,0,0.001,0,0.001,0l0.001,0.002
					c0.012-0.001,0.022-0.003,0.03-0.016L7.324,4.184c0,0,0,0,0,0c0.002,0,0.003,0.003,0.003,0.003
					c0.037-0.003,0.046-0.028,0.044-0.062c0-0.001-0.001-0.001-0.001-0.001V4.123l0.001,0.002c0.021-0.01,0.036-0.026,0.047-0.046
					c0.011,0,0.023-0.003,0.028-0.015c0.021-0.02,0.021-0.035-0.007-0.044C7.416,4.012,7.393,4.002,7.367,4.002
					C7.252,4.006,7.14,3.976,7.025,3.987c0,0.001,0,0.001,0,0.001c-0.001,0-0.001,0-0.001,0l0.001-0.001
					c-0.016-0.022-0.038-0.013-0.06-0.016L6.965,3.972l0,0c0-0.001,0-0.001,0.001-0.001c0.01-0.022,0.026-0.039,0.048-0.044
					c0.152-0.029,0.303-0.066,0.457-0.078c0.073-0.008,0.145-0.028,0.217-0.044c0.009-0.001,0.021-0.001,0.031-0.002
					C7.768,3.828,7.813,3.796,7.86,3.798c0.014,0,0.031-0.016,0.029-0.041c-0.032-0.011-0.061,0.003-0.092,0
					C7.697,3.75,7.599,3.738,7.5,3.742z M7.262,3.661L7.262,3.661v0.002C7.262,3.661,7.262,3.661,7.262,3.661z M7.345,3.403
					c0.005,0,0.008,0,0.012,0c-0.007,0-0.008,0-0.015,0C7.344,3.403,7.344,3.403,7.345,3.403z M7.279,3.393
					c0.003,0.001,0.005,0.001,0.005,0.002c0.004,0.001,0.008,0.001,0.01,0.001c0.002,0.002,0.005,0.002,0.007,0.002
					c-0.002,0-0.01,0-0.012,0c-0.005-0.005-0.01-0.003-0.013-0.003C7.277,3.394,7.278,3.393,7.279,3.393z M6.855,3.343
					c0.001,0.001,0.004,0,0.006,0.001H6.86c0,0-0.003,0-0.005,0C6.854,3.345,6.854,3.345,6.855,3.343z M2.432,3.403
					c0.005,0,0.008,0,0.013,0c0,0,0,0,0.001,0C2.439,3.403,2.437,3.403,2.432,3.403z M2.499,3.398c-0.004,0-0.009,0-0.014,0
					c0.003,0,0.005,0,0.008,0c0.004-0.002,0.006,0,0.01-0.002c0.001-0.001,0.004-0.001,0.005-0.003
					c0.001,0.001,0.004,0.002,0.004,0.002C2.508,3.396,2.503,3.393,2.499,3.398z M2.927,3.345L2.927,3.345
					c0.002,0,0.005,0,0.005-0.002c0.002,0.001,0.002,0.002,0.003,0.004C2.932,3.348,2.93,3.345,2.927,3.345z M2.526,3.664
					c0,0,0,0,0-0.003c0,0,0,0,0,0S2.526,3.663,2.526,3.664z M2.446,3.764c0-0.001,0-0.001,0-0.003l0,0
					C2.446,3.763,2.446,3.763,2.446,3.764z M2.549,3.756L2.549,3.756c0.002-0.003,0.005-0.006,0.005-0.01
					C2.552,3.75,2.551,3.753,2.549,3.756z M2.564,3.817c0-0.001,0-0.002,0-0.004c0,0.001,0,0.003,0.002,0.004
					C2.565,3.817,2.564,3.817,2.564,3.817z M2.81,4.14c0,0-0.001,0-0.003,0C2.81,4.138,2.81,4.137,2.811,4.137
					C2.811,4.138,2.81,4.138,2.81,4.14z M2.883,3.912c0-0.001,0.002-0.001,0.002-0.003C2.887,3.912,2.889,3.913,2.89,3.915
					C2.887,3.915,2.885,3.912,2.883,3.912z M2.898,3.942L2.898,3.942v0.001l0,0l0,0l0,0V3.942z M2.898,4.316
					c0-0.001,0-0.003,0-0.005V4.316L2.898,4.316z M2.688,4.919V4.917c0.001,0.002,0.001,0,0.001,0.002
					C2.69,4.919,2.69,4.919,2.688,4.919z M2.729,4.885L2.729,4.885c0.001-0.005,0.003-0.006,0.003-0.01l0.002-0.004
					c0.001,0.001,0,0.001,0.001,0.002C2.729,4.875,2.729,4.88,2.729,4.885z M2.796,5.097H2.794c0.018-0.001,0.02-0.015,0.029-0.024
					C2.814,5.081,2.805,5.089,2.796,5.097z M3.072,3.24c0-0.003-0.003-0.004,0-0.006c0,0,0,0,0.001-0.001
					C3.072,3.234,3.072,3.237,3.072,3.24z M3.138,3.629c0-0.002,0.002-0.002,0.003-0.005c0.001,0,0.003,0,0.003,0.002
					C3.143,3.628,3.14,3.627,3.138,3.629z M3.185,4.064L3.185,4.064c0.002,0,0.002-0.004,0.003-0.004
					C3.188,4.062,3.187,4.062,3.185,4.064z M3.318,4.092c0-0.001,0-0.003,0-0.004c0.01,0.01,0.012,0.019,0.002,0.035
					C3.33,4.108,3.325,4.1,3.318,4.092z M3.38,4.887c0,0.002,0,0.002,0,0.003c0-0.001,0-0.001,0-0.001V4.887
					c0-0.001,0-0.002,0-0.003c0,0.001,0,0.001,0.003,0.003C3.38,4.887,3.38,4.887,3.38,4.887z M3.441,4.736c0,0-0.002,0-0.003-0.001
					C3.439,4.735,3.441,4.735,3.441,4.736C3.441,4.735,3.441,4.735,3.441,4.736C3.441,4.736,3.441,4.736,3.441,4.736z M3.459,4.875
					c0,0,0,0,0.001,0l0,0C3.46,4.875,3.46,4.875,3.459,4.875z M3.499,5.129c0-0.001,0-0.002,0-0.004C3.5,5.127,3.5,5.127,3.5,5.129
					H3.499z M3.795,3.695C3.793,3.697,3.791,3.697,3.789,3.7c0,0,0,0,0-0.002C3.791,3.697,3.793,3.695,3.795,3.695z M3.791,4.16
					c-0.001-0.001,0-0.002-0.002-0.005c0,0,0,0.001,0,0.003C3.787,4.156,3.787,4.156,3.786,4.155c0.001,0,0.001,0,0.003,0v0
					c0.003,0.004,0.007,0.007,0.01,0.012C3.793,4.166,3.792,4.163,3.791,4.16z M3.878,3.408c0,0,0,0,0.002,0
					c-0.002,0-0.002,0.001-0.002,0.003C3.878,3.409,3.878,3.408,3.878,3.408z M3.89,3.472C3.886,3.476,3.882,3.479,3.881,3.485
					H3.878C3.883,3.483,3.886,3.476,3.89,3.472z M3.878,3.56L3.878,3.56L3.878,3.56L3.878,3.56z M3.873,4.49
					c0.006,0.003,0.011,0.004,0.016,0.004C3.884,4.497,3.881,4.5,3.875,4.5C3.874,4.498,3.874,4.495,3.873,4.49z M3.923,5.025
					c-0.001,0.003-0.005,0-0.008,0.001c-0.001-0.003,0-0.008-0.005-0.011C3.915,5.018,3.915,5.025,3.923,5.025L3.923,5.025
					c0,0,0.001-0.002,0.003,0C3.924,5.024,3.924,5.025,3.923,5.025z M3.917,4.564C3.909,4.575,3.896,4.586,3.883,4.593
					c0.027,0,0.043-0.013,0.045-0.044C3.93,4.553,3.932,4.553,3.933,4.555C3.926,4.555,3.921,4.56,3.917,4.564z M4.013,3.958
					L4.013,3.958V3.956V3.958z M4.09,4.433c-0.002-0.002,0-0.002-0.002-0.003c0.002,0,0.002,0,0.002,0
					C4.091,4.431,4.091,4.431,4.09,4.433z M4.179,4.629C4.179,4.629,4.179,4.629,4.179,4.629c0.001,0,0.001,0,0.001,0
					S4.18,4.629,4.179,4.629z M4.259,3.93C4.256,3.929,4.256,3.929,4.255,3.927V3.926C4.256,3.927,4.257,3.929,4.259,3.93
					L4.259,3.93z M4.323,3.246c0.005,0,0.004-0.005,0.008-0.005c0,0.002,0,0.002,0,0.006C4.329,3.246,4.328,3.247,4.323,3.246z
					 M4.419,3.682L4.419,3.682c0.001,0,0.002,0,0.002,0C4.419,3.682,4.419,3.682,4.419,3.682z M4.496,3.898l-0.002,0
					C4.494,3.897,4.496,3.897,4.496,3.898L4.496,3.898z M4.518,4.806c-0.002-0.001,0-0.002-0.002-0.003
					c0.002,0,0.007-0.001,0.009-0.001C4.523,4.804,4.52,4.804,4.518,4.806z M4.634,4.506c-0.001,0-0.003,0-0.003-0.001
					c0-0.001,0-0.001,0-0.003c0,0.003,0.004,0.004,0.007,0.005C4.635,4.507,4.635,4.507,4.634,4.506z M4.676,4.42
					c0-0.003,0-0.004,0-0.005c0.001,0,0.001,0,0.001,0C4.676,4.416,4.679,4.417,4.676,4.42z M4.694,3.219c0.003,0,0.006,0,0.006,0
					c0,0.013,0.007,0.017,0.017,0.021C4.705,3.24,4.697,3.232,4.694,3.219z M4.977,5.101c0.001,0,0.001,0,0.002,0
					c-0.012-0.003-0.022,0-0.033,0c-0.047-0.004-0.092-0.012-0.137,0c0.002,0,0.003,0,0.004,0c-0.014,0.001-0.026,0-0.04,0
					c0.003,0,0.004,0,0.006,0c0.008,0,0.015,0,0.021,0c0.004-0.002,0.008-0.003,0.01,0c0.025-0.002,0.052-0.004,0.08-0.005
					c0.031,0.001,0.061,0.005,0.09,0.005c0.003-0.002,0.008-0.002,0.012,0c0.005,0,0.01,0,0.015,0
					C4.997,5.101,4.987,5.101,4.977,5.101z M5.072,3.24C5.08,3.234,5.088,3.23,5.088,3.219c0.001,0,0.004,0,0.005,0
					C5.091,3.232,5.084,3.24,5.072,3.24z M5.111,4.418c-0.001-0.002,0-0.002-0.001-0.003c0-0.001,0,0,0.001,0
					C5.111,4.416,5.111,4.417,5.111,4.418z M5.157,4.505c-0.001,0-0.002,0-0.002,0.001c-0.003,0-0.003,0-0.005,0
					c0.002-0.001,0.006-0.003,0.007-0.005C5.157,4.503,5.157,4.502,5.157,4.505z M5.27,4.805C5.267,4.802,5.266,4.804,5.262,4.801
					c0.003,0,0.006,0.001,0.009,0.001C5.27,4.804,5.272,4.804,5.27,4.805z M5.292,3.897L5.292,3.897
					c0-0.002,0.001-0.002,0.001-0.002C5.293,3.897,5.292,3.896,5.292,3.897z M5.368,3.682c0,0,0,0,0.001-0.002
					c0,0.002,0,0.002,0,0.002S5.369,3.682,5.368,3.682z M5.458,3.247c0-0.004,0-0.004,0-0.007c0.002,0,0.002,0.005,0.006,0.005
					C5.459,3.246,5.459,3.245,5.458,3.247z M5.533,3.926c0,0.001-0.001,0.003-0.003,0.004l0,0C5.53,3.929,5.533,3.927,5.533,3.926
					L5.533,3.926z M5.61,4.629c-0.001,0-0.001,0-0.001,0C5.608,4.629,5.608,4.629,5.61,4.629C5.61,4.629,5.61,4.629,5.61,4.629z
					 M5.698,4.431L5.698,4.431C5.698,4.43,5.698,4.43,5.698,4.431C5.698,4.431,5.699,4.431,5.698,4.431z M5.774,3.956L5.774,3.956
					C5.774,3.956,5.774,3.956,5.774,3.956S5.774,3.956,5.774,3.956z M5.911,3.407c0,0.001,0,0.001,0,0.002
					C5.909,3.408,5.908,3.408,5.908,3.407C5.908,3.407,5.909,3.407,5.911,3.407z M5.911,3.484c-0.002,0.001-0.003,0-0.003,0
					C5.906,3.479,5.903,3.475,5.898,3.472C5.903,3.475,5.906,3.481,5.911,3.484z M5.911,3.56L5.911,3.56c0,0,0,0-0.002,0
					C5.911,3.56,5.911,3.56,5.911,3.56z M5.872,5.026c0-0.001-0.006,0-0.006-0.001c-0.003,0-0.003-0.002-0.003-0.002
					s0.001,0.001,0.003,0v0.002c0.006,0,0.007-0.009,0.012-0.011C5.873,5.018,5.875,5.023,5.872,5.026z M5.871,4.563
					C5.867,4.558,5.862,4.555,5.855,4.555c0-0.004,0.003-0.004,0.005-0.007c0.002,0.03,0.017,0.044,0.046,0.044
					C5.892,4.586,5.881,4.574,5.871,4.563z M5.913,4.5c-0.006-0.001-0.01-0.003-0.014-0.005C5.906,4.493,5.911,4.492,5.916,4.49
					C5.915,4.493,5.916,4.497,5.913,4.5z M6,3.697c-0.001,0-0.003,0-0.003,0.002c0-0.003-0.002-0.004-0.005-0.005
					C5.996,3.695,5.997,3.697,6,3.697z M6,4.156c0-0.001,0-0.001,0-0.001C5.998,4.158,5.998,4.158,5.998,4.159
					C5.996,4.161,5.995,4.165,5.991,4.166C5.993,4.161,5.996,4.158,6,4.154v0c0,0,0,0,0.001,0C6,4.155,6,4.155,6,4.156z
					 M6.287,5.129c0-0.002,0.002-0.002,0.002-0.004c0,0,0,0.002,0,0.004C6.289,5.129,6.289,5.129,6.287,5.129z M6.327,4.873
					c0.002,0,0.002,0,0.002,0v0.002C6.329,4.875,6.329,4.873,6.327,4.873z M6.348,4.736c0-0.001-0.001,0-0.001-0.001
					C6.348,4.735,6.348,4.735,6.348,4.736c0-0.001,0-0.003,0.001-0.001C6.348,4.735,6.348,4.736,6.348,4.736z M6.409,4.889
					L6.407,4.887c0,0,0,0-0.001,0c0.001-0.001,0.001-0.002,0.001-0.003c0,0.001,0,0.001,0,0.003L6.409,4.889L6.409,4.889z
					 M6.471,4.09C6.463,4.1,6.458,4.108,6.468,4.12c-0.01-0.014-0.007-0.023,0.003-0.032V4.09z M6.603,4.064
					C6.601,4.062,6.601,4.062,6.599,4.059C6.601,4.06,6.601,4.062,6.604,4.062C6.604,4.064,6.604,4.064,6.603,4.064z M6.642,3.624
					c0.002,0,0.004,0,0.004,0c0,0.002,0.003,0.002,0.005,0.005C6.649,3.627,6.646,3.627,6.642,3.624z M6.717,3.237
					c-0.001,0,0-0.003-0.003-0.005c0.001,0,0.001,0,0.003,0C6.717,3.236,6.715,3.236,6.717,3.237z M7.099,4.917L7.099,4.917
					L7.099,4.917L7.099,4.917z M7.055,4.871l0,0.002c0,0.004,0.004,0.007,0.004,0.011l0,0C7.06,4.88,7.058,4.875,7.055,4.871
					L7.055,4.871z M6.993,5.097L6.993,5.097C6.984,5.089,6.975,5.079,6.966,5.073C6.975,5.081,6.976,5.096,6.993,5.097z
					 M6.891,4.314H6.889l0.001-0.003C6.889,4.313,6.891,4.313,6.891,4.314z M6.891,3.944c0-0.001,0-0.001,0-0.001h0h0h0l0,0
					C6.891,3.942,6.891,3.942,6.891,3.944z M6.899,3.913c0,0,0.001-0.001,0.003-0.005c0,0.003,0.001,0.001,0.001,0.003
					C6.903,3.911,6.901,3.913,6.899,3.913z M6.98,4.138c-0.001,0-0.001,0.002-0.001,0.002c0-0.002-0.003-0.003-0.003-0.004
					C6.979,4.137,6.979,4.138,6.98,4.138z M7.224,3.816H7.222c0.002,0,0.002-0.001,0.002-0.003C7.224,3.814,7.224,3.814,7.224,3.816
					z M7.239,3.755C7.237,3.751,7.237,3.749,7.234,3.746C7.234,3.75,7.237,3.751,7.239,3.755L7.239,3.755z M7.342,3.764
					C7.34,3.763,7.34,3.761,7.34,3.76h0.001C7.34,3.761,7.342,3.763,7.342,3.764z"/>
				<path style="fill-rule:evenodd;clip-rule:evenodd;" d="M6.036,5.197c0,0.003,0.007,0.007,0.01,0.006
					c0.005,0,0.007-0.006,0.003-0.011C6.048,5.19,6.043,5.187,6.04,5.187C6.038,5.19,6.035,5.195,6.036,5.197z"/>
				<path style="fill-rule:evenodd;clip-rule:evenodd;" d="M7.533,3.652C7.535,3.65,7.532,3.647,7.531,3.646
					C7.524,3.65,7.524,3.652,7.53,3.657C7.532,3.656,7.533,3.654,7.533,3.652z"/>
				<path style="fill-rule:evenodd;clip-rule:evenodd;" d="M1.811,3.767C1.826,3.77,1.839,3.765,1.846,3.749
					c-0.015-0.007-0.028-0.007-0.04,0.006C1.804,3.758,1.804,3.765,1.811,3.767z"/>
				<path style="fill-rule:evenodd;clip-rule:evenodd;" d="M3.738,5.194c-0.003,0.003-0.002,0.01,0.002,0.01
					c0.005,0,0.01-0.003,0.012-0.007c0-0.002-0.002-0.006-0.005-0.011C3.746,5.188,3.741,5.19,3.738,5.194z"/>
				<path style="fill-rule:evenodd;clip-rule:evenodd;" d="M2.254,3.652c0,0.002,0.003,0.004,0.005,0.005
					C2.263,3.654,2.263,3.65,2.257,3.646C2.257,3.648,2.254,3.651,2.254,3.652z"/>
			</g>
	</g>
</svg>
