<?xml version="1.0" encoding="utf-8"?>
<svg xmlns="http://www.w3.org/2000/svg" viewBox="10.376 15.392 4.732 3.322">
	<g>
			<g>
				<path style="fill-rule:evenodd;clip-rule:evenodd;" d="M14.466,17.159c-0.026-0.034-0.033-0.097-0.009-0.112
					c0.035-0.025,0.04-0.05,0.03-0.089c-0.005-0.021,0-0.049,0.011-0.066c0.037-0.053-0.019-0.088-0.019-0.132
					c-0.001-0.014-0.025-0.018-0.041-0.015c-0.045,0.009-0.061,0.066-0.111,0.066c0.006,0.042-0.029,0.05-0.054,0.067
					c-0.011,0.006-0.023,0.006-0.034,0.01c-0.017,0.005-0.034,0.013-0.049,0.004c-0.025-0.015-0.04-0.04-0.03-0.072
					c0.005-0.02,0.011-0.04-0.018-0.05c-0.019,0.019-0.023,0.063-0.067,0.05c0,0.001,0,0.002-0.002,0.004c0-0.002,0,0,0-0.002
					l0.002-0.002c-0.002-0.095,0.008-0.103,0.098-0.087c0.005,0,0.01,0.004,0.015,0.006c0.035,0.009,0.069-0.02,0.104,0
					c0.005-0.037,0.045-0.046,0.057-0.078c0.013-0.028,0.03-0.058,0.018-0.088c-0.029-0.073-0.059-0.151-0.127-0.197
					c-0.033-0.022-0.066-0.059-0.115-0.039l-0.004,0.005c-0.001,0-0.001,0-0.001,0c0.002-0.001,0.002-0.003,0.005-0.005
					c-0.005-0.012-0.013-0.026-0.01-0.037c0.01-0.036,0.003-0.061-0.037-0.069c-0.038-0.01-0.046-0.049-0.043-0.073
					c0.002-0.074-0.043-0.099-0.098-0.127c-0.115-0.055-0.118-0.032-0.088-0.152c0.001-0.008,0.005-0.014,0.005-0.022
					c0.003-0.017-0.005-0.035-0.02-0.037c-0.046-0.007-0.086-0.023-0.133,0.001c-0.053,0.027-0.11,0.054-0.173,0.056
					c-0.018,0.005-0.027-0.013-0.044-0.017h-0.001c-0.016-0.04-0.057-0.026-0.085-0.038c-0.018-0.006-0.013,0.009-0.012,0.018
					c0.004,0.022-0.014,0.016-0.023,0.02c-0.009-0.003-0.013-0.011-0.018-0.018c-0.015-0.018,0.002-0.053-0.021-0.062
					c-0.039-0.013-0.049-0.049-0.077-0.07c-0.035-0.026-0.057-0.08-0.109-0.027c-0.002,0.003-0.014,0.003-0.015,0
					c-0.023-0.035-0.066-0.022-0.098-0.04c-0.096-0.054-0.198-0.095-0.286-0.166c-0.038-0.033-0.085-0.07-0.135-0.065
					c-0.069,0.008-0.139-0.004-0.205,0.017c-0.014,0.018-0.029,0.032-0.048,0.044c-0.058,0.004-0.116,0.024-0.171,0.027
					c-0.049,0.001-0.046,0.018-0.049,0.049c-0.055,0.057-0.115,0.101-0.192,0.129c-0.049,0.017-0.106,0.019-0.148,0.058
					c-0.002,0.004-0.006,0.006-0.01,0.009c-0.008,0.002-0.013,0.006-0.018,0.007c0.009-0.005,0.015-0.015,0.027-0.016
					c-0.012,0.019-0.035,0.022-0.055,0.028c-0.04,0.016-0.075,0.035-0.106,0.064c-0.015,0.009-0.035,0.011-0.046,0.025
					c-0.04,0.052-0.088,0.086-0.148,0.104c-0.025,0.009-0.046,0.023-0.07,0.031c-0.05,0.015-0.1,0.024-0.148-0.004
					c-0.005-0.026,0.023-0.037,0.03-0.06c-0.035,0.017-0.078,0.019-0.107,0.045c-0.019,0.015-0.048,0.007-0.065,0.027h0.001
					c-0.051,0.001-0.086,0.036-0.125,0.063c-0.044,0.016-0.084,0.036-0.122,0.063c-0.007,0.01-0.022,0.008-0.031,0.016
					c-0.107,0.047-0.216,0.096-0.324,0.143c-0.005-0.001-0.01-0.003-0.015-0.003c-0.008,0.004-0.013,0.009-0.016,0.017
					c-0.002,0-0.002-0.001-0.002-0.001c0.005-0.005,0.011-0.01,0.018-0.016c-0.018-0.001-0.038-0.003-0.05,0.014
					c0.003,0.002,0.003,0.003,0.005,0.004l0,0c-0.006,0.005-0.013,0.011-0.018,0.016c0.007,0.011,0.021,0.013,0.032,0.015
					c-0.002,0.004-0.005,0.008-0.006,0.013c0.014,0.001,0.026-0.001,0.036-0.014l-0.002-0.001l0,0c0.001,0,0.001,0.001,0.002,0.001
					c0.01,0.001,0.027-0.001,0.027,0.002c0.024,0.066,0.07,0.044,0.115,0.034c0.02-0.005,0.04-0.019,0.058-0.015
					c0.067,0.016,0.134,0.006,0.2,0.009c0.026,0.001,0.046,0.006,0.051,0.034h0.001c-0.023-0.005-0.04,0.006-0.05,0.025
					c-0.017,0.032-0.044,0.059-0.073,0.079c-0.05,0.035-0.061,0.085-0.067,0.139c-0.002,0.025-0.002,0.052-0.002,0.076
					c0,0.001,0.001,0.001,0.002,0.001c0,0.002,0,0.002,0,0.002l-0.002-0.003c-0.038,0.005-0.071,0.014-0.093,0.049l0.005,0.005
					v0.002c-0.002-0.003-0.002-0.006-0.005-0.007c-0.042,0.009-0.042,0.044-0.047,0.076c-0.039,0.078-0.024,0.15,0.018,0.221
					c0.002,0.015,0.015,0.009,0.023,0.013c0,0.001,0,0.001,0,0.001c0.009,0.008,0.018,0.011,0.03,0.015l0.005-0.002l0.005,0.003
					c0.007,0.011,0.023,0.007,0.032,0.016L10.689,17.1c0.004,0.007,0.01,0.011,0.019,0.012c-0.001,0-0.001,0-0.002,0l0.002,0.002
					c0,0,0,0,0-0.002c0.01,0.024,0.03,0.023,0.048,0.017c0.02-0.008,0.038-0.011,0.058-0.013c0.006,0.009,0.015,0.019,0.023,0.014
					c0.044-0.023,0.084,0.005,0.127,0.004c0.025-0.001,0.038,0.014,0.035,0.038c-0.005,0.036,0.015,0.06,0.035,0.089
					c0,0,0,0,0-0.002c-0.018,0.025-0.017,0.049,0,0.074v-0.001c-0.003,0.029-0.005,0.059-0.003,0.09
					c0.003,0.027-0.012,0.06,0.017,0.082c-0.014,0.058-0.003,0.114-0.002,0.171c0,0.014,0.005,0.024,0.018,0.029
					c0.004,0.043-0.02,0.088,0.015,0.127c0.01,0.014,0.001,0.032,0.014,0.048l0.004,0.002l-0.002,0.005
					c0.001,0.048,0.002,0.099,0.06,0.111c0.032,0.009,0.043,0.023,0.052,0.054c0.009,0.031,0.034,0.052,0.073,0.036
					c0.043-0.015,0.091-0.006,0.136-0.021c0.029-0.009,0.06-0.003,0.09,0.01c0.054,0.023,0.056,0.022,0.086-0.029
					c0.01-0.017,0.023-0.033,0.042-0.024c0.02,0.009,0.039,0.02,0.059,0.027c0.014,0.005-0.005,0.027,0,0.043
					c0.003,0.01,0.005,0.019,0.018,0.023c0.028-0.021,0.055-0.044,0.083-0.065c0-0.002-0.002-0.002-0.005-0.005c0,0,0.002,0,0.002,0
					l0.002,0.005c0.033-0.001,0.035,0.029,0.049,0.048c-0.011,0.006-0.011,0.018-0.016,0.03v-0.002
					c-0.025,0.016-0.026,0.044-0.031,0.068c-0.005,0.026-0.011,0.058,0.017,0.077c0.024,0.018,0.049,0.005,0.072-0.006
					c0.006-0.004,0.014-0.008,0.021-0.011c0.047-0.012,0.087,0.029,0.078,0.078c-0.009,0.045-0.022,0.089-0.042,0.131
					c-0.016,0.035-0.007,0.046,0.031,0.049c0.055,0.007,0.108-0.006,0.16-0.015c0-0.003,0.002-0.005,0.003-0.009
					c0.027,0.008,0.054,0.017,0.083,0.005c0.027-0.014,0.057-0.017,0.085-0.028c0.005,0,0.01-0.002,0.015-0.002
					c0.063,0.016,0.127,0.013,0.189,0.033l-0.001-0.002c0.038,0.03,0.085,0.021,0.126,0.031l-0.001-0.001
					c0.025,0.014,0.051-0.011,0.078,0.001l0.002-0.002l0.004,0.002c0.055,0.016,0.079-0.06,0.134-0.046
					c0.002,0.006,0.007,0.012,0.014,0.015c0.033,0.028,0.064,0.056,0.099,0.08c0.032,0.04,0.082,0.031,0.123,0.043
					c0.046,0.039,0.108-0.001,0.151,0.034c0.015,0.01,0.033,0.015,0.042,0.002c0.032-0.037,0.068-0.026,0.107-0.018l0.002-0.004
					l0.003,0.003c0.01,0.011,0.021,0.01,0.032,0.002c0.005,0,0.011,0,0.016,0c0.01,0.009,0.023,0.007,0.032,0.015V18.65
					c0.037,0.044,0.085-0.009,0.126,0.016l-0.001-0.002c0.048,0.064,0.088,0.008,0.125-0.012c0.038-0.02,0.047-0.055,0.022-0.092
					c-0.012-0.019-0.012-0.045-0.029-0.061l0.001,0.002c-0.004-0.009-0.004-0.023-0.017-0.03c-0.004-0.01-0.002-0.021-0.005-0.03
					c-0.01-0.054,0.001-0.074,0.065-0.079c0.066-0.004,0.13,0.004,0.195,0.011l-0.003-0.002c0.014,0.018,0.032,0.011,0.05,0.011
					c0.017,0,0.038,0.007,0.047-0.015c0.009-0.021-0.007-0.033-0.02-0.046c-0.024-0.025-0.047-0.053-0.08-0.07
					c-0.019-0.031-0.042-0.06-0.077-0.075h-0.001h0.001l0,0l0,0c0.012-0.016,0.03-0.015,0.045-0.02
					c0.036-0.013,0.08-0.001,0.11-0.034l-0.003,0.002c0.044,0.009,0.082-0.009,0.119-0.025c0.023-0.01,0.046-0.021,0.072-0.02
					c0.012,0.008,0.024,0.016,0.034,0.016c0.008,0.001,0.011,0.014,0.019,0.009c0.031-0.02,0.064-0.039,0.087-0.072
					c0.031-0.043,0.019-0.102,0.064-0.137c0.032-0.023,0.035-0.055,0.012-0.088c-0.008-0.01-0.015-0.024-0.015-0.034
					c0-0.038-0.016-0.048-0.052-0.051c-0.044-0.003-0.064-0.023-0.053-0.064c0.012-0.042-0.009-0.058-0.036-0.074l-0.005-0.004
					l0.003-0.004c-0.006-0.014-0.003-0.028-0.018-0.037c0.001,0.001,0.002,0.001,0.002,0.001c0.005-0.022-0.015-0.036-0.018-0.056
					c0.014-0.016,0.044-0.002,0.05-0.028l-0.001,0.002c0.05,0.006,0.095,0.002,0.128-0.044c0-0.001-0.003-0.003-0.003-0.004l0,0
					l0.003,0.004c0.035-0.007,0.056-0.026,0.063-0.062c0.059-0.054,0.06-0.079,0.01-0.122C14.495,17.2,14.482,17.181,14.466,17.159z
					 M12.287,15.503c0.003,0.005,0.003,0.011,0.005,0.018c-0.002-0.007-0.006-0.012-0.012-0.016
					C12.282,15.504,12.285,15.503,12.287,15.503z M11.099,17.764c0.001,0.001,0.002,0.004,0.002,0.005c0-0.001-0.002,0-0.002,0
					C11.096,17.768,11.101,17.765,11.099,17.764z M10.644,16.873c0-0.002,0.001,0,0.001-0.002c0,0.002,0,0.004,0,0.006
					C10.646,16.875,10.643,16.874,10.644,16.873z M11.231,17.751c0,0,0.001,0,0.001-0.001
					C11.232,17.751,11.231,17.751,11.231,17.751L11.231,17.751z M10.786,16.621c0.005-0.01,0.013-0.019,0.018-0.03
					c0.003,0.012-0.004,0.022-0.002,0.034c-0.003,0.003-0.003,0.006-0.003,0.009c-0.002,0-0.002-0.003-0.005-0.003
					c-0.008,0-0.013,0.008-0.018,0.012C10.778,16.635,10.781,16.628,10.786,16.621z M10.983,16.45c0,0.001,0.002,0.001,0.002,0.002
					C10.983,16.451,10.983,16.451,10.983,16.45L10.983,16.45z M10.886,16.735c0-0.002,0.002-0.002,0.002-0.003
					c0.001,0,0,0.001,0.001,0.001C10.887,16.733,10.886,16.735,10.886,16.735z M10.917,16.815c0.004,0.002,0.009,0.007,0.015,0.006
					c-0.001,0.001-0.002,0-0.004,0.001C10.925,16.828,10.921,16.816,10.917,16.815z M10.939,16.905
					c0.001,0.003,0.005,0.005,0.003,0.006l0,0c-0.001-0.001-0.005-0.001-0.008-0.002C10.936,16.909,10.936,16.905,10.939,16.905z
					 M11.231,17.149c0-0.001,0-0.001,0-0.001c0.001,0.001,0.001,0.002,0.003,0.003C11.231,17.15,11.231,17.149,11.231,17.149z
					 M10.968,16.466c-0.002,0-0.003,0-0.005,0C10.965,16.465,10.966,16.466,10.968,16.466L10.968,16.466z M10.838,16.566v-0.001l0,0
					V16.566z M11.311,17.905c0,0-0.002,0.002-0.001,0.004c-0.001-0.002-0.001-0.002-0.001-0.002S11.309,17.905,11.311,17.905z
					 M11.568,15.933c-0.002,0.003-0.004,0.002-0.006,0.004c0.003-0.007,0.015-0.007,0.015-0.018
					C11.574,15.925,11.569,15.927,11.568,15.933z M11.419,16.046L11.419,16.046L11.419,16.046L11.419,16.046L11.419,16.046z
					 M10.931,16.242c0-0.004-0.005-0.004-0.005-0.006c0.002,0.001,0.005,0.002,0.009,0.002
					C10.934,16.239,10.932,16.241,10.931,16.242z M10.939,16.465h-0.002v-0.001L10.939,16.465z M11.091,17.54
					c0.002,0.001,0.003,0.001,0.003,0.002c-0.003,0-0.005-0.001-0.005,0.001c0,0.003,0.005,0.002,0.008,0.003v0.001
					c-0.005-0.001-0.01-0.004-0.015-0.005C11.086,17.542,11.088,17.54,11.091,17.54z M11.609,15.86
					c-0.007,0.012-0.015,0.022-0.02,0.038c0.002-0.012,0.005-0.021,0.011-0.03C11.602,15.864,11.606,15.863,11.609,15.86z
					 M10.563,16.336c0.005,0.006,0.01,0.006,0.02,0.006c-0.01,0.002-0.018-0.001-0.027,0C10.558,16.339,10.561,16.339,10.563,16.336
					z M10.613,16.797c-0.004,0.017-0.008,0.034-0.029,0.045l0,0C10.61,16.837,10.608,16.813,10.613,16.797z M11.071,17.434
					c-0.001-0.018,0.005-0.034,0.013-0.049c-0.01,0.029-0.005,0.059,0.002,0.09C11.081,17.461,11.072,17.448,11.071,17.434z
					 M11.15,17.97c0.01,0.007,0.015,0.017,0.031,0.018c0.01,0,0.021,0.007,0.022,0.017c0.004,0.019,0.015,0.018,0.023,0.027
					C11.214,17.992,11.188,17.977,11.15,17.97z M12.085,18.485L12.085,18.485c0.001,0,0.002,0,0.004,0
					C12.087,18.486,12.085,18.485,12.085,18.485z M13.786,16.043c0,0.003-0.005,0.008-0.007,0.01c-0.002,0-0.002-0.001-0.003,0
					c0.005-0.003,0.009-0.007,0.01-0.012C13.786,16.042,13.786,16.042,13.786,16.043z M13.759,15.899
					c-0.007-0.017-0.019-0.026-0.04-0.026C13.744,15.869,13.757,15.877,13.759,15.899z M13.943,16.337
					c-0.007,0.008-0.009,0.002-0.014,0c0.003-0.002,0.01-0.004,0.012-0.009C13.941,16.332,13.946,16.333,13.943,16.337z
					 M14.199,16.526c0-0.004,0-0.009,0.002-0.013c0.001-0.003,0.003,0.001,0.006,0.001C14.204,16.519,14.198,16.52,14.199,16.526z
					 M14.197,16.545c-0.002,0.001,0,0.001,0,0.003c-0.003-0.003-0.003-0.004-0.003-0.006C14.194,16.544,14.194,16.544,14.197,16.545
					z M14.467,16.846l-0.001-0.002c-0.001-0.01,0.004-0.019,0.001-0.028C14.47,16.825,14.467,16.835,14.467,16.846z M14.06,16.733
					c0.005-0.005,0.006-0.016,0.014-0.016c0.005,0,0.009,0.001,0.014,0C14.075,16.723,14.064,16.727,14.06,16.733z M13.864,16.056
					c-0.048-0.011-0.058-0.025-0.059-0.068C13.811,16.021,13.829,16.046,13.864,16.056z M14.367,17.737
					c0.004,0.006-0.001,0.01-0.001,0.015c-0.004-0.007,0.001-0.02-0.012-0.023l0,0C14.359,17.729,14.359,17.738,14.367,17.737z"/>
				<path style="fill-rule:evenodd;clip-rule:evenodd;" d="M15.002,17.371c-0.002-0.022-0.02-0.039-0.04-0.048
					c-0.021-0.009-0.042-0.006-0.057,0.011c-0.016,0.021-0.008,0.04,0.005,0.058c0.012,0.017,0.025,0.033,0.037,0.049
					c0.013,0.016,0.017,0.049,0.04,0.04c0.033-0.012,0.007-0.04-0.002-0.058C14.976,17.399,15,17.392,15.002,17.371z"/>
				<path style="fill-rule:evenodd;clip-rule:evenodd;" d="M14.657,17.188c0.025-0.016,0.013-0.04,0.031-0.053
					c0.014-0.011,0.013-0.021-0.004-0.029c-0.012-0.006-0.024,0.002-0.028,0.016c-0.004,0.014-0.001,0.032-0.019,0.037
					c-0.06,0.015-0.033,0.043-0.013,0.071c0.013,0.019,0.019,0.041,0.045,0.048c0.005-0.003,0.013-0.005,0.013-0.008
					c0-0.008-0.001-0.015-0.005-0.021C14.665,17.23,14.63,17.207,14.657,17.188z"/>
				<path style="fill-rule:evenodd;clip-rule:evenodd;" d="M14.015,15.839c-0.003,0.025-0.011,0.051,0.01,0.08
					C14.074,15.868,14.074,15.868,14.015,15.839z"/>
				<path style="fill-rule:evenodd;clip-rule:evenodd;" d="M14.643,17.031c-0.01-0.014-0.023-0.029-0.04-0.055
					c-0.016,0.034-0.035,0.057,0.002,0.071C14.611,17.051,14.635,17.056,14.643,17.031z"/>
				<path style="fill-rule:evenodd;clip-rule:evenodd;" d="M13.794,15.578c0.013,0.024,0.027,0.045,0.063,0.059
					C13.835,15.583,13.835,15.583,13.794,15.578z"/>
				<path style="fill-rule:evenodd;clip-rule:evenodd;" d="M14.803,17.117c-0.007-0.006-0.012-0.011-0.017-0.017v0.001
					c-0.001-0.044-0.049-0.051-0.058-0.09c-0.026,0.018-0.022,0.036-0.011,0.049c0.015,0.018,0.028,0.035,0.037,0.057
					c0,0.005,0,0.01,0,0.015c0.013,0.008,0.022,0.018,0.03,0.031c0.011,0.017,0.022,0.017,0.032,0
					c0.012,0.004,0.025,0.018,0.032,0.008c0.018-0.021-0.012-0.037-0.011-0.06C14.839,17.098,14.815,17.114,14.803,17.117z"/>
				<path style="fill-rule:evenodd;clip-rule:evenodd;" d="M14.697,17.222c0.005,0.001,0.017-0.004,0.019-0.009
					c0.006-0.023-0.012-0.03-0.038-0.036C14.68,17.195,14.674,17.217,14.697,17.222z"/>
				<path style="fill-rule:evenodd;clip-rule:evenodd;" d="M13.57,15.5c-0.001-0.01-0.008-0.018-0.017-0.021
					c-0.008-0.002-0.017-0.001-0.018,0.008c-0.004,0.015,0.008,0.021,0.017,0.025C13.566,15.514,13.57,15.509,13.57,15.5z"/>
				<path style="fill-rule:evenodd;clip-rule:evenodd;" d="M13.691,15.752c0.001-0.009-0.005-0.014-0.013-0.013
					c-0.005,0-0.016,0.002-0.018,0.008c-0.004,0.011,0.005,0.016,0.016,0.017C13.684,15.765,13.69,15.761,13.691,15.752z"/>
				<path style="fill-rule:evenodd;clip-rule:evenodd;" d="M15.07,17.556c-0.008,0-0.015,0.004-0.015,0.012
					c0,0.011,0.006,0.02,0.016,0.021c0.008,0.002,0.014-0.004,0.017-0.012C15.088,17.565,15.08,17.56,15.07,17.556z"/>
				<path style="fill-rule:evenodd;clip-rule:evenodd;" d="M14.5,17.111c0.002,0.011,0.013,0.017,0.023,0.016
					c0.009-0.002,0.013-0.008,0.01-0.018c-0.002-0.008-0.009-0.017-0.019-0.014C14.505,17.097,14.5,17.104,14.5,17.111z"/>
				<path style="fill-rule:evenodd;clip-rule:evenodd;" d="M14.92,17.237c-0.005-0.003-0.01-0.007-0.013-0.006
					c-0.002,0.002-0.005,0.008-0.005,0.013c0.003,0.001,0.009,0.007,0.013,0.005C14.918,17.248,14.918,17.24,14.92,17.237z"/>
				<path style="fill-rule:evenodd;clip-rule:evenodd;" d="M14.217,16.208c-0.005-0.007-0.013-0.007-0.019-0.005
					c-0.007,0.002-0.009,0.007-0.005,0.013c0.005,0.006,0.011,0.012,0.019,0.005C14.215,16.219,14.216,16.213,14.217,16.208z"/>
				<path style="fill-rule:evenodd;clip-rule:evenodd;" d="M13.89,15.683c-0.002-0.01-0.011-0.011-0.017-0.015
					c-0.007-0.003-0.012,0-0.012,0.006c-0.001,0.009,0.007,0.013,0.016,0.013C13.881,15.686,13.886,15.685,13.89,15.683z"/>
				<path style="fill-rule:evenodd;clip-rule:evenodd;" d="M13.616,15.592c-0.005-0.003-0.01-0.004-0.014-0.007
					c-0.001,0.005-0.006,0.011-0.004,0.014c0,0.003,0.008,0.004,0.012,0.006C13.611,15.601,13.614,15.596,13.616,15.592z"/>
				<path style="fill-rule:evenodd;clip-rule:evenodd;" d="M14.467,16.519c-0.002-0.004-0.003-0.009-0.007-0.011
					c-0.004-0.006-0.008-0.003-0.01,0.002c0.001,0.004,0.002,0.01,0.005,0.012C14.457,16.522,14.462,16.52,14.467,16.519z"/>
				<path style="fill-rule:evenodd;clip-rule:evenodd;" d="M14.942,17.605c0,0.004,0.005,0.008,0.007,0.012
					c0.002-0.004,0.006-0.008,0.006-0.012c0-0.005-0.004-0.008-0.006-0.012C14.947,17.598,14.942,17.601,14.942,17.605z"/>
				<path style="fill-rule:evenodd;clip-rule:evenodd;" d="M14.551,16.91c0.002,0,0.004-0.001,0.007-0.001
					c0-0.007-0.003-0.008-0.008-0.004C14.549,16.905,14.55,16.909,14.551,16.91z"/>
				<path style="fill-rule:evenodd;clip-rule:evenodd;" d="M14.507,16.573c-0.018-0.021-0.04-0.02-0.061-0.006
					c-0.016,0.012-0.017,0.025-0.002,0.038c0.022,0.022,0.043,0.02,0.063,0C14.523,16.594,14.523,16.584,14.507,16.573z"/>
				<polygon style="fill-rule:evenodd;clip-rule:evenodd;" points="14.765,17.527 14.769,17.532 14.776,17.528 14.771,17.524 				
					"/>
				<path style="fill-rule:evenodd;clip-rule:evenodd;" d="M14.839,17.431c0.006,0.001,0.008-0.002,0.004-0.008
					c0-0.001-0.004,0-0.005,0.002C14.838,17.427,14.838,17.429,14.839,17.431z"/>
				<polygon style="fill-rule:evenodd;clip-rule:evenodd;" points="14.705,17.421 14.71,17.423 14.713,17.417 14.706,17.416 				"/>
			</g>
	</g>
</svg>
