<?xml version="1.0" encoding="utf-8"?>
<svg xmlns="http://www.w3.org/2000/svg" viewBox="9.533 10.722 6.416 3.647">
	<g>
			<g>
				<path style="fill-rule:evenodd;clip-rule:evenodd;" d="M15.689,12.173c0.023-0.001,0.05-0.001,0.063-0.029
					c0-0.005-0.006-0.019-0.01-0.019c-0.026-0.001-0.048,0.01-0.063,0.039C15.684,12.171,15.686,12.173,15.689,12.173z"/>
				<path style="fill-rule:evenodd;clip-rule:evenodd;" d="M9.685,13.047c-0.016-0.008-0.035-0.002-0.05-0.012
					c-0.005,0.002-0.009,0.002-0.013-0.002c-0.007-0.013-0.02-0.014-0.033-0.014c0.005,0.004,0.01,0.01,0.015,0.014l0,0
					c-0.002-0.007-0.01-0.01-0.015-0.014c-0.008,0-0.017,0-0.025,0c-0.014,0.011-0.015,0.022,0.002,0.028h0.005l0.005,0.004
					c0.007,0.011,0.02,0.014,0.032,0.013c0.015,0.001,0.03,0.004,0.045,0.005c0.022,0.021,0.05,0.009,0.078,0.011
					c0.009,0.016,0.022,0.019,0.037,0.012c0.01-0.006,0.023-0.013,0.008-0.026c-0.021-0.026-0.051-0.013-0.078-0.015
					C9.695,13.049,9.69,13.048,9.685,13.047z"/>
				<path style="fill-rule:evenodd;clip-rule:evenodd;" d="M9.888,13.221c-0.01,0-0.021,0-0.031,0
					c-0.02,0.002-0.039,0.006-0.016,0.031c0.001,0.017-0.002,0.034,0.015,0.046c0.006,0.01,0.011,0.01,0.018,0
					c0.017-0.012,0.014-0.029,0.015-0.046c0.021-0.002,0.045,0.006,0.062-0.017c0.004-0.006,0.015-0.006,0.016-0.015
					c-0.01-0.017-0.021-0.017-0.032,0C9.918,13.211,9.903,13.211,9.888,13.221z"/>
				<path style="fill-rule:evenodd;clip-rule:evenodd;" d="M15.474,13.577c-0.008,0.01-0.008,0.022,0.001,0.031
					c0.005,0,0.01,0,0.016,0c0.011,0.009,0.021,0.009,0.03,0c0.009-0.01,0.009-0.022,0-0.031c-0.005-0.005-0.01-0.01-0.015-0.016
					C15.487,13.551,15.483,13.569,15.474,13.577z"/>
				<path style="fill-rule:evenodd;clip-rule:evenodd;" d="M15.16,10.754c-0.005-0.018-0.018-0.014-0.027-0.002
					c-0.013,0.01-0.015,0.023,0.003,0.028C15.153,10.786,15.165,10.773,15.16,10.754z"/>
				<path style="fill-rule:evenodd;clip-rule:evenodd;" d="M10.104,13.359c-0.021,0-0.042,0-0.061,0.001
					c-0.001,0-0.003,0.002-0.003,0.006c-0.002,0.002-0.001,0.006,0.003,0.01c0.01,0.008,0.02,0.008,0.03,0c0.016,0,0.032,0,0.047,0
					c0.013-0.003,0.038,0.005,0.036-0.014c-0.001-0.027-0.025-0.018-0.041-0.013C10.11,13.351,10.108,13.356,10.104,13.359z"/>
				<path style="fill-rule:evenodd;clip-rule:evenodd;" d="M15.754,12.009c-0.011,0-0.02,0.001-0.03,0.001
					c-0.005,0.005-0.012,0.01-0.017,0.015c-0.008,0.006-0.016,0.015-0.005,0.023c0.013,0.012,0.026,0.006,0.037-0.006
					c0.013-0.002,0.024-0.004,0.03-0.017C15.764,12.021,15.759,12.016,15.754,12.009z"/>
				<path style="fill-rule:evenodd;clip-rule:evenodd;" d="M14.716,14.038c0.004-0.002,0.007-0.01,0.006-0.014
					c-0.004-0.011-0.015-0.012-0.024-0.012c-0.005-0.002-0.01-0.002-0.015-0.002c0.001,0.006,0.002,0.011,0.002,0.016
					C14.692,14.042,14.702,14.042,14.716,14.038z"/>
				<path style="fill-rule:evenodd;clip-rule:evenodd;" d="M10.123,12.325c0-0.011-0.01-0.016-0.027-0.015
					c-0.002,0.001-0.01,0.008-0.01,0.014c0,0.015,0.013,0.011,0.023,0.011C10.116,12.336,10.125,12.333,10.123,12.325z"/>
				<path style="fill-rule:evenodd;clip-rule:evenodd;" d="M11.572,11.534c0.004-0.006,0-0.015-0.009-0.015
					c-0.006,0-0.014,0.003-0.019,0.009c-0.005,0.007,0.002,0.012,0.011,0.015C11.56,11.54,11.569,11.539,11.572,11.534z"/>
				<path style="fill-rule:evenodd;clip-rule:evenodd;" d="M15.582,13.499c-0.015,0.011-0.015,0.022,0,0.033
					c0.012,0.014,0.022,0.015,0.031-0.002l0,0l0,0l0,0c0.005-0.004,0.012-0.01,0.017-0.015c0.015-0.015,0.014-0.026-0.009-0.03
					C15.606,13.481,15.592,13.485,15.582,13.499z"/>
				<path style="fill-rule:evenodd;clip-rule:evenodd;" d="M10.268,12.301c-0.002-0.003-0.007-0.003-0.012-0.006
					c-0.003,0.005-0.006,0.01-0.005,0.014c0.002,0.002,0.008,0.003,0.013,0.005C10.265,12.31,10.268,12.305,10.268,12.301z"/>
				<path style="fill-rule:evenodd;clip-rule:evenodd;" d="M15.929,13.021c0.001-0.004,0-0.011-0.003-0.011
					c-0.009-0.004-0.014,0.002-0.018,0.008c-0.005,0.002-0.01,0.002-0.015,0.002c-0.005,0.004-0.01,0.01-0.015,0.014
					c-0.005,0.001-0.011,0.001-0.016,0.001c-0.005,0.005-0.011,0.009-0.016,0.014c-0.012,0-0.022,0.001-0.031,0.003
					c-0.013-0.002-0.025,0.002-0.033,0.014c-0.013,0.001-0.023,0.004-0.031,0.015c0.002,0.001,0.004,0.003,0.004,0.004l0,0
					l-0.004-0.004c-0.011,0.001-0.023,0.005-0.029,0.017l0.001,0.004l0,0c0-0.002-0.001-0.003-0.001-0.004
					c-0.017,0.001-0.035-0.003-0.047,0.015c-0.035-0.003-0.063,0.018-0.093,0.031c-0.061,0.028-0.071,0.024-0.108-0.03
					c0.005-0.01,0.011-0.02,0.016-0.029c0.023-0.002,0.052-0.017,0.048-0.031c-0.019-0.058,0.03-0.059,0.058-0.077
					c0.021-0.013,0.038-0.028,0.05-0.048c-0.002-0.001-0.003-0.003-0.005-0.005l0,0l0.005,0.005c0.043-0.02,0.063-0.061,0.093-0.094
					c-0.001-0.001-0.002-0.002-0.004-0.003l0,0l0.004,0.003c0.005-0.005,0.01-0.01,0.016-0.015l-0.003-0.003v-0.001
					c0.001,0.001,0.003,0.002,0.003,0.004c0.005-0.006,0.01-0.012,0.015-0.018v0.001c0.013-0.016,0.023-0.032,0.03-0.052
					l-0.003-0.004c-0.04-0.031-0.042-0.03-0.09,0.025c-0.031,0.005-0.061,0.018-0.079,0.045c-0.011,0.001-0.023,0.005-0.03,0.017
					l0.002,0.001l0,0c0,0,0-0.001-0.002-0.001c-0.021,0.002-0.045-0.005-0.063,0.014c0.002,0.001,0.003,0.003,0.004,0.004
					c0,0-0.001,0-0.002,0l-0.002-0.004c-0.016,0.004-0.033,0-0.045,0.018l0.004,0.003c-0.001,0-0.003,0-0.003,0
					c0-0.001-0.001-0.002-0.001-0.003c-0.059,0.001-0.116,0.01-0.17,0.031l0.001,0.002c0,0,0,0-0.001,0c0-0.001,0-0.001,0-0.002
					c-0.089-0.01-0.177,0.032-0.276,0.009c0.063-0.108,0.085-0.23,0.152-0.333c0.004-0.001,0.008-0.002,0.013-0.002
					c0.008-0.004,0.013-0.009,0.018-0.015c0.005-0.005,0.01-0.01,0.015-0.015c0.005-0.005,0.012-0.01,0.017-0.017v0.002
					c0.006-0.006,0.011-0.011,0.015-0.018c0.002-0.005,0.002-0.01,0.003-0.015c0.004-0.005,0.009-0.009,0.014-0.012l0.002-0.003
					c0.003-0.005,0.008-0.009,0.013-0.012c0.005-0.002,0.011-0.002,0.016-0.002c0.005-0.005,0.01-0.01,0.016-0.015h0.002
					c0.003-0.005,0.007-0.01,0.014-0.014c0.005,0,0.011-0.002,0.016-0.002c0.008-0.009,0.023-0.006,0.03-0.017v0.002
					c0.017-0.016,0.032-0.031,0.048-0.046c0.019-0.016,0.019-0.031,0-0.047v0.001c0,0-0.001,0-0.003,0
					c0.002,0,0.003-0.001,0.003-0.001c0.001-0.04,0.047-0.035,0.063-0.062c0.013,0,0.023-0.004,0.03-0.015
					c0-0.001-0.002-0.001-0.003-0.003c0,0,0,0,0.001,0l0.002,0.003c0.005-0.006,0.01-0.011,0.016-0.016
					c0.04-0.003,0.079-0.007,0.107-0.05c-0.031-0.013-0.065,0.019-0.086-0.019c-0.022-0.043,0.023-0.061,0.04-0.1
					c-0.037,0.011-0.065-0.004-0.093-0.002c-0.01-0.01-0.019-0.02-0.03-0.029c0-0.002-0.002-0.002-0.002-0.003l0,0l0.002,0.003
					c0.013-0.002,0.024-0.005,0.03-0.016l-0.001-0.002h0.001c0,0.001,0,0.001,0,0.002c0.013-0.001,0.025-0.004,0.031-0.015
					c0.017-0.002,0.035,0.002,0.047-0.016l0,0c0.007-0.011,0.023-0.006,0.029-0.017h0.008h0.008
					c0.027-0.003,0.051-0.012,0.077-0.031c-0.023-0.02-0.042-0.014-0.063-0.015c-0.004,0.001-0.008,0.001-0.013,0
					c-0.005-0.005-0.011-0.009-0.016-0.014c0.004-0.002,0.009-0.002,0.014-0.002c0.009-0.009,0.022-0.005,0.032-0.014
					c0.005-0.001,0.01-0.001,0.015-0.001c0.008-0.008,0.023-0.006,0.032-0.014c0.003-0.003,0.008-0.003,0.014-0.003
					c0.006-0.004,0.011-0.01,0.018-0.014v-0.002c0.01,0,0.02,0,0.029,0c0.005-0.005,0.011-0.01,0.017-0.015
					c0.001,0,0.003-0.002,0.004-0.005c0-0.003,0-0.007-0.004-0.01c-0.017,0-0.031,0-0.046,0c-0.013,0-0.023,0.001-0.03,0.014
					c-0.005,0.002-0.01,0.002-0.016,0.002c-0.005,0.004-0.01,0.008-0.016,0.011c-0.01,0.001-0.021,0.002-0.03,0.004
					c-0.009,0.009-0.023,0.005-0.032,0.015c-0.025,0.021-0.034-0.005-0.049-0.017v-0.001l0.001,0.001c0.001,0,0.001,0,0.004,0
					c0.006,0.028,0.02,0.038,0.044,0.017c-0.013-0.002-0.024-0.002-0.03-0.015c0.009-0.009,0.015-0.023,0.025-0.026
					c0.051-0.015,0.021-0.034,0.003-0.052c0-0.005,0-0.01,0-0.014c-0.005-0.006-0.01-0.011-0.015-0.016c-0.005,0-0.01,0-0.015,0
					c-0.005-0.031,0.011-0.054,0.033-0.074c0.034-0.027,0.034-0.06,0.014-0.096c0,0,0-0.002-0.001-0.002l0,0l0.001,0.002
					c0.068-0.017,0.068-0.017,0.061-0.094c0.022-0.003,0.047-0.007,0.038-0.035c-0.007-0.019-0.029-0.028-0.051-0.02
					c-0.018,0.006-0.038,0.011-0.059,0.006c-0.019-0.003-0.008-0.019-0.006-0.028c-0.002-0.002-0.004-0.003-0.005-0.004
					c0.001,0,0.001,0,0.001,0l0.004,0.004c0.023-0.015,0.044-0.03,0.004-0.049c-0.016-0.005-0.018-0.017-0.019-0.029
					c-0.001-0.001-0.004-0.002-0.004-0.004l0,0l0.004,0.004c0.019-0.001,0.029-0.011,0.031-0.03c0,0,0-0.001-0.001-0.001
					c0.001,0,0.001,0,0.001,0v0.001c0.005-0.005,0.011-0.01,0.016-0.015v-0.001l0,0v0.001c0.005-0.005,0.01-0.011,0.016-0.016
					c0.034-0.006,0.054-0.026,0.071-0.067c-0.046,0.015-0.074,0.032-0.104,0.05c-0.013,0.002-0.023,0.004-0.03,0.017
					c0.001,0.001,0.003,0.001,0.003,0.003l0,0l-0.003-0.003c-0.005,0.005-0.01,0.01-0.017,0.015l0.002,0.001l0,0
					c0,0,0-0.001-0.002-0.001c-0.011,0.001-0.023,0.004-0.029,0.015L15.57,11.3c0,0,0,0.002-0.001,0.002
					c-0.001-0.002-0.001-0.004-0.002-0.006c-0.024,0-0.044,0.004-0.039-0.036c0.01-0.077,0.036-0.16-0.054-0.213
					c-0.005-0.004-0.01-0.009-0.016-0.014l-0.003,0.004l0,0c0.001-0.001,0.002-0.003,0.003-0.004
					c-0.033-0.016-0.063-0.038-0.092-0.064c-0.002,0.002-0.004,0.004-0.004,0.006c0-0.002-0.001-0.002-0.001-0.002l0.005-0.005
					c-0.003-0.019-0.014-0.029-0.033-0.03c-0.001,0.001-0.001,0.003-0.001,0.005c0,0,0-0.002-0.001-0.002l0.002-0.003
					c-0.006-0.013-0.019-0.015-0.029-0.017c-0.002,0.001-0.002,0.003-0.002,0.004h-0.001l0.003-0.004
					c-0.006-0.005-0.012-0.01-0.017-0.015l-0.005,0.005c0,0.005,0.001,0.009,0.002,0.013l0,0c-0.001-0.004-0.002-0.009-0.002-0.013
					l0,0c0.002-0.002,0.004-0.004,0.005-0.005c0.015-0.028,0.015-0.046-0.025-0.046c-0.018,0.001-0.033,0-0.051-0.001l-0.004,0.005
					c-0.001,0-0.001-0.001-0.003-0.001c0.003-0.002,0.005-0.003,0.007-0.004c-0.002-0.026-0.005-0.055-0.039-0.058
					c-0.055-0.005-0.108-0.011-0.155,0.04c-0.077,0.089-0.162,0.17-0.268,0.228c-0.015,0.009-0.025,0.026-0.037,0.039
					c0.002,0.002,0.002,0.004,0.005,0.006l0,0c-0.003-0.002-0.003-0.005-0.005-0.006c-0.098,0.048-0.198,0.094-0.295,0.142
					c-0.025,0.014-0.059,0.02-0.076,0.047l0,0c-0.04-0.009-0.072,0.02-0.107,0.033c-0.104,0.038-0.215,0.055-0.316,0.104
					c-0.072,0.001-0.135,0.039-0.205,0.054c-0.015,0.003-0.023,0.019-0.024,0.035c-0.016,0.001-0.032,0.003-0.048,0.003
					c-0.005-0.004-0.012-0.008-0.018-0.012c-0.014,0-0.027,0-0.043,0c-0.007,0.009-0.023,0.006-0.031,0.017l0.002-0.002
					c-0.018,0.013-0.033,0.014-0.049,0v0.002c-0.037-0.062-0.042-0.063-0.082-0.009c-0.038,0.051-0.086,0.09-0.149,0.099
					c-0.048,0.006-0.096-0.002-0.153,0.023c0.017-0.021,0.022-0.029,0.027-0.036c0.011,0,0.021,0,0.032,0
					c0.008-0.01,0.008-0.021-0.002-0.031c-0.024,0-0.05,0-0.075,0c-0.006,0.005-0.011,0.011-0.016,0.016
					c-0.009,0.014-0.021,0.013-0.034,0.01c-0.045-0.021-0.092-0.006-0.139-0.01c-0.015-0.001-0.031-0.002-0.046-0.003
					c-0.005-0.004-0.01-0.008-0.015-0.013c-0.026,0-0.052-0.002-0.078-0.002c-0.005-0.008-0.015-0.015-0.022-0.005
					c-0.007,0.009-0.001,0.017,0.008,0.023c0.005,0,0.01,0,0.016,0.002c0.013,0.011,0.034-0.002,0.045,0.014l0.002,0.002
					c0.032,0.027,0.072,0.009,0.107,0.014c0.01,0.001,0.023,0.002,0.033,0.004c0.005,0.003,0.01,0.007,0.015,0.011
					c0.031,0.001,0.063,0.001,0.093,0.001c0,0.005,0,0.009-0.003,0.013c0.003,0.002,0.006,0.002,0.007,0.005
					c-0.001,0-0.001,0-0.001,0l-0.006-0.005c-0.097,0.001-0.195,0.002-0.293,0.003c-0.02-0.016-0.047-0.003-0.07-0.015
					c-0.008,0.003-0.015,0.002-0.022-0.003c-0.018-0.021-0.043-0.014-0.066-0.013h0.003c-0.02-0.018-0.048-0.004-0.07-0.016
					l-0.003,0.003l-0.005-0.003c-0.022-0.028-0.053-0.014-0.08-0.015l0.003,0.001c-0.018-0.021-0.045-0.001-0.063-0.017l0,0
					c-0.018-0.018-0.045-0.002-0.064-0.015l0.002,0.001c-0.017-0.021-0.045-0.001-0.063-0.017l0.001,0.001
					c-0.016-0.026-0.041-0.015-0.064-0.016c-0.005,0.002-0.01,0.001-0.012-0.003c-0.015-0.011-0.035-0.001-0.05-0.014
					c-0.005,0.004-0.009,0.003-0.012-0.001c-0.019-0.023-0.044-0.014-0.068-0.014c-0.003,0.003-0.007,0.003-0.01-0.001
					c-0.015-0.012-0.037-0.005-0.053-0.014l-0.005,0.002l-0.005-0.004c-0.018-0.017-0.044,0.002-0.063-0.015
					c-0.013-0.02-0.032-0.017-0.05-0.015c-0.005,0.001-0.007,0.001-0.011-0.002c-0.019-0.021-0.042-0.013-0.064-0.014
					c-0.015,0-0.03,0-0.043,0c-0.011,0.017,0.006,0.021,0.014,0.03c0.006,0.002,0.011,0.002,0.018,0.002
					c0.007,0.013,0.02,0.014,0.032,0.01h-0.001c0.006,0.016,0.019,0.018,0.032,0.015c-0.001,0.006-0.002,0.013-0.003,0.019
					c-0.011,0.006-0.015,0.018-0.015,0.029c-0.015,0.002-0.031,0.004-0.047,0.006c-0.005-0.002-0.01-0.004-0.014-0.006
					c-0.007,0.001-0.015,0.001-0.021,0.001c-0.004,0-0.006-0.001-0.01-0.002c-0.005-0.001-0.011,0-0.015,0.005
					c-0.008,0.005-0.013,0.011-0.02,0.017c-0.005,0.002-0.009,0-0.013-0.003c-0.013-0.017-0.033-0.02-0.046-0.01
					c-0.029,0.021,0.016,0.044-0.001,0.07c-0.015,0.001-0.033,0.001-0.05,0.003c-0.025,0.003-0.011,0.021-0.011,0.034
					c-0.009,0-0.018-0.001-0.026-0.003c-0.009,0-0.018,0.002-0.025,0.002c-0.01,0.005-0.018,0.004-0.025-0.002
					c-0.01-0.01-0.02-0.011-0.03,0.003l0.002-0.001c-0.011,0.005-0.026,0.002-0.032,0.018l0.001-0.002
					c-0.011,0.005-0.026,0.002-0.031,0.018v-0.001c-0.02,0.009-0.042,0.015-0.061,0.03c-0.021-0.001-0.044-0.001-0.066-0.003
					c0.015,0.025,0.031,0.047,0.065,0.044h-0.002c0.006,0.012,0.022,0.009,0.03,0.018h-0.002c0.018,0.011,0.033,0.022,0.05,0.03
					l-0.002-0.001c0.018,0.04,0.054,0.048,0.091,0.05c0.002-0.002,0.003-0.003,0.003-0.005c0,0.001,0,0.001,0,0.001l-0.003,0.004
					c0.013,0.017,0.03,0.014,0.048,0.014l0,0c0.009,0.01,0.023,0.009,0.032,0.015v-0.002c0.008,0.013,0.021,0.01,0.033,0.015h-0.002
					c0.007,0.014,0.023,0.011,0.034,0.015h-0.001c0.007,0.02,0.032,0.004,0.045,0.018h-0.001c0.009,0.009,0.024,0.008,0.034,0.015
					l-0.002-0.002c0.01,0.012,0.023,0.012,0.035,0.014h-0.003c0.006,0.015,0.023,0.011,0.033,0.016h-0.001
					c0.009,0.02,0.034,0.004,0.045,0.018c0.009,0.009,0.023,0.008,0.031,0.015v-0.001c0.009,0.011,0.023,0.01,0.034,0.015
					l-0.001-0.001c0.006,0.014,0.02,0.01,0.03,0.016c0,0,0,0.002,0,0l0,0l0,0l0,0c-0.021,0.026-0.052,0.015-0.077,0.019
					c-0.028,0.002-0.058-0.012-0.079,0.016c-0.009,0.006-0.018,0.005-0.026,0c-0.025,0.016-0.055,0.021-0.082,0.03l-0.005,0.004
					l-0.005-0.002c-0.074-0.01-0.148,0.001-0.22-0.002c-0.013,0-0.035,0.005-0.035,0.006c0.004,0.059-0.06,0.025-0.075,0.056
					c-0.027,0-0.052-0.001-0.08,0c-0.021,0-0.046-0.007-0.059,0.019l0.001-0.002c-0.052,0.002-0.107-0.021-0.158,0.015h0.003
					c-0.046,0.016-0.097-0.005-0.143,0.013c-0.005,0-0.01,0.001-0.015,0.001c-0.005-0.006-0.01-0.006-0.015,0
					c-0.014,0.006-0.027,0.008-0.04,0.002c-0.039,0.002-0.08-0.016-0.115,0.015c-0.009,0.005-0.016,0.006-0.025,0
					c-0.025,0.015-0.058-0.004-0.084,0.016h0.002c-0.005,0.002-0.005,0.007-0.005,0.011l0,0c0-0.004,0.002-0.009,0.005-0.011
					c-0.025-0.002-0.05-0.004-0.073,0.015c-0.043,0.035-0.092,0.063-0.148,0.075c-0.013,0.001-0.024,0.004-0.03,0.017
					c-0.014,0.006-0.026,0.01-0.043,0.003c-0.018-0.006-0.038-0.007-0.05,0.013c-0.002,0.004-0.008,0.004-0.01,0.002
					c-0.007,0.001-0.01,0.005-0.01,0.011c0,0,0-0.002-0.003-0.002c0.005-0.002,0.007-0.006,0.012-0.01
					c-0.02-0.002-0.038-0.005-0.055,0.011c-0.011,0.002-0.022,0.006-0.028,0.018c-0.013,0.001-0.024,0.003-0.032,0.015l0.003,0.004
					l0,0c0-0.001-0.003-0.002-0.003-0.004c-0.023,0.002-0.037,0.011-0.046,0.031l0.001,0.002l0,0c0,0,0-0.001-0.001-0.002
					c-0.021,0.001-0.038,0.011-0.048,0.031c-0.011,0.002-0.023,0.004-0.031,0.015c0.002,0.002,0.002,0.002,0.002,0.002l0,0
					l-0.002-0.002c-0.005,0.005-0.01,0.01-0.015,0.015v0.001l0,0v-0.001c-0.012,0.001-0.023,0.005-0.03,0.018
					c0,0,0.002,0.001,0.002,0.002l0,0L9.98,12.523c-0.005,0.005-0.01,0.01-0.015,0.015l0.002,0.001v0.001l-0.002-0.002
					c-0.006,0.005-0.011,0.01-0.018,0.015c0.002,0,0.002,0.002,0.005,0.002c-0.001,0-0.003,0.001-0.003,0.001l-0.002-0.002
					c-0.005,0.005-0.01,0.01-0.015,0.015c0.001,0,0.002,0.001,0.002,0.001v0.001l-0.002-0.002c-0.005,0.006-0.01,0.011-0.015,0.016
					l0,0c-0.005,0.005-0.01,0.01-0.015,0.015l0,0c0,0.001,0,0.001,0,0.001v-0.001c-0.006,0.005-0.011,0.011-0.016,0.016
					c-0.005,0.005-0.01,0.01-0.015,0.015l0.001,0.001l0,0L9.872,12.63c-0.011,0.001-0.024,0.002-0.03,0.013
					c0.001,0.002,0.002,0.003,0.003,0.005c-0.002,0-0.002,0-0.005,0l0.001-0.005c-0.006,0.001-0.012,0.002-0.017,0.003
					c-0.005,0.005-0.01,0.01-0.015,0.015c-0.022,0.017-0.015,0.041-0.016,0.063c-0.02,0.008-0.034,0.037-0.061,0.015
					c-0.013,0.002-0.028,0.002-0.025,0.019c0.002,0.011,0.015,0.011,0.025,0.012c0.012,0.006,0.015,0.019,0.015,0.031
					c-0.001,0-0.002,0.001-0.003,0.005c-0.001,0.004,0,0.008,0.003,0.01c0.038,0.014,0.042,0.009,0.046-0.046c0-0.01,0-0.02,0-0.031
					c0.006-0.005,0.011-0.01,0.016-0.015c0.005,0,0.01,0,0.015,0c0.005-0.005,0.01-0.01,0.015-0.015l-0.002-0.004
					c0,0,0.001,0,0.002-0.002c0,0.002,0,0.004,0,0.005c0.005-0.005,0.01-0.011,0.016-0.017l-0.002-0.001
					c0-0.001,0.001-0.001,0.001-0.002c0,0.001,0,0.002,0.001,0.003c0.044,0.004,0.064-0.018,0.063-0.061
					c0.005-0.005,0.01-0.01,0.017-0.015c0.005-0.005,0.01-0.01,0.015-0.015c0.006,0.004,0.014,0.008,0.019,0.013
					c0.014,0.015,0.021,0.038,0.049,0.027c0.022-0.01,0.025-0.031,0.025-0.052c-0.003-0.024,0.002-0.046,0.016-0.066
					c0.005-0.005,0.011-0.009,0.017-0.014l-0.002-0.001c0,0,0,0,0.001,0l0.002,0.001c0.011-0.003,0.022-0.005,0.03-0.017v-0.001l0,0
					v0.001c0.013-0.001,0.024-0.005,0.03-0.016c0.012-0.002,0.025-0.004,0.032-0.016c0.005-0.004,0.01-0.009,0.015-0.014v-0.001l0,0
					v0.001c0.018-0.002,0.035,0,0.047-0.016c0.012-0.001,0.023-0.004,0.03-0.015c0.033,0.004,0.062-0.011,0.093-0.017
					c-0.005,0.066-0.005,0.07-0.058,0.077c-0.042,0.005-0.053,0.026-0.053,0.062c-0.047,0.014-0.093,0.034-0.125,0.074
					c-0.029,0.039-0.015,0.071,0.035,0.071c0.015,0,0.032,0.017,0.05,0.001c-0.024-0.053-0.013-0.089,0.038-0.11
					c0.016-0.007,0.038,0,0.05-0.016c0.005-0.002,0.01-0.004,0.014-0.004c0.006-0.005,0.011-0.011,0.016-0.016v0.001
					c0.005-0.005,0.01-0.009,0.016-0.013c0.005-0.002,0.01-0.002,0.015-0.004c0.011,0,0.011,0.011,0.018,0.017
					c-0.002,0.021-0.025,0.043-0.014,0.065c0.034,0.059,0.034,0.127,0.068,0.185c0.026,0.047,0.059,0.091,0.114,0.107
					c0.001-0.002,0.002-0.003,0.002-0.005c0,0,0,0.002,0.001,0.002l-0.004,0.003c0.012,0.026,0.035,0.031,0.063,0.03
					c0.024,0,0.049,0.001,0.073,0.002c0.002-0.001,0-0.004,0.001-0.005c0.002,0.001,0.004,0,0.005,0.001l-0.006,0.004
					c-0.005,0.02-0.031,0.007-0.04,0.025c-0.015,0.002-0.029,0.004-0.043,0.005c-0.022,0.001-0.047-0.008-0.065,0.015
					c0,0-0.002-0.001-0.002,0l0,0h0.002c-0.009,0.009-0.024,0.005-0.031,0.014c-0.005,0.003-0.008,0.004-0.013,0.003
					c-0.015,0.011-0.036,0.002-0.05,0.017v-0.002c0.017-0.004,0.038,0.002,0.05-0.015c-0.027,0.001-0.056-0.01-0.08,0.011
					c-0.005,0.002-0.01,0.003-0.016,0.003c-0.034-0.001-0.069-0.004-0.062,0.048c-0.01,0.008-0.022,0.004-0.033,0.014
					c-0.003,0.001-0.007,0.002-0.012,0.002c-0.04-0.06-0.04-0.06-0.095-0.049c-0.006-0.004-0.011-0.008-0.015-0.015h-0.001
					c-0.042-0.022-0.026,0.014-0.031,0.03c-0.005,0.001-0.01,0.001-0.015,0.001c-0.027-0.003-0.056-0.005-0.084-0.007
					c-0.011,0-0.019,0.01-0.019,0.021c0,0.007,0.01,0.015,0.015,0.015c0.04-0.001,0.081,0.016,0.117-0.012c0.01,0,0.021,0,0.032,0
					c0.039,0.035,0.048,0.084,0.066,0.133c-0.017,0.008-0.038,0.002-0.05,0.019c-0.005,0.002-0.009,0.004-0.013,0.004
					c-0.032-0.002-0.065-0.002-0.096-0.003c-0.006-0.015-0.016-0.024-0.033-0.031c0.002-0.021-0.009-0.03-0.03-0.03
					c-0.004,0.006-0.01,0.01-0.015,0.016c-0.009,0.008-0.035,0.008-0.016,0.031c0.014,0.067,0.025,0.073,0.094,0.046
					c0.031,0,0.061,0.001,0.093,0.001c-0.003,0.03,0.008,0.054,0.036,0.069c0.022,0.014,0.038,0.005,0.041-0.022
					c0.021-0.001,0.042-0.001,0.063-0.001c0.006,0.003,0.008-0.003,0.012-0.007c0.001,0.002,0.004,0.002,0.005,0.003
					c-0.006,0.001-0.011,0.003-0.017,0.004c0,0.015,0,0.03,0,0.044c-0.015,0.001-0.029,0.002-0.044,0.002
					c-0.013,0.009-0.011,0.021-0.002,0.031c0.015,0,0.03,0.002,0.046,0.002c0,0.004,0,0.008,0,0.014
					c0.014,0.036,0.014,0.072,0,0.108c0.008,0.009,0.023,0.005,0.031,0.015c0.005-0.004,0.01-0.01,0.015-0.015
					c0.033,0.007,0.078-0.023,0.093,0.034c0.002,0.008,0.018,0.01,0.027,0.006c0.048-0.018,0.095-0.006,0.143-0.009
					c0.02,0.021,0.052,0.031,0.063,0.06c0.025,0.002,0.012-0.018,0.015-0.028v-0.001c0,0,0,0,0,0.001c0.002,0,0.002,0,0.005,0
					c-0.013,0.007-0.013,0.021-0.02,0.028c-0.008,0.006-0.017,0.008-0.025,0.004c-0.036-0.004-0.07-0.006-0.094,0.033
					c0.053,0.045,0.113,0.019,0.167,0.029c0.01,0.007,0.02,0.006,0.03-0.004c0-0.002-0.002-0.002-0.002-0.003
					c0.002,0.001,0.004,0.001,0.005,0.003h-0.001l0,0c-0.011,0-0.021,0.002-0.031,0.004c0,0.012,0.002,0.023,0.015,0.029
					c0,0.013,0.002,0.023,0.015,0.031c0.005,0.005,0.01,0.01,0.015,0.016l0.004-0.004c0.001,0,0.001,0,0.001,0
					c-0.002,0.001-0.002,0.002-0.005,0.004c0.005,0.038,0.035,0.057,0.063,0.078c0.005,0.006,0.01,0.01,0.015,0.014l0.005-0.004l0,0
					c-0.002,0.002-0.003,0.003-0.005,0.004c0,0.006,0,0.012,0,0.017c-0.015,0.021,0,0.034,0.015,0.046
					c0.007,0.014,0.018,0.025,0.032,0.033c0.005,0.004,0.01,0.008,0.015,0.014l0.005-0.004l0,0
					c-0.002,0.001-0.003,0.002-0.005,0.004c0.008,0.012,0.017,0.015,0.03,0.016c0,0,0.001-0.001,0.001-0.002
					c0.001,0.001,0.001,0.001,0.001,0.001l-0.002,0.001c0.005,0.006,0.011,0.01,0.016,0.016l0.005-0.006
					c0.002,0,0.002,0.002,0.002,0.002c-0.002,0.001-0.005,0.002-0.006,0.004c0.006,0.012,0.019,0.015,0.031,0.016
					c0.011,0.017,0.03,0.014,0.046,0.017c0.001-0.001,0.001-0.001,0.001-0.003c0,0.002,0,0.002,0,0.002l-0.001,0.001
					c0.006,0.011,0.019,0.014,0.031,0.015c0.014,0.017,0.033,0.016,0.053,0.012c0.01,0.016,0.032,0.005,0.043,0.018l0.006-0.002
					l0.007,0.004c0.015,0.01,0.034,0.003,0.049,0.012h-0.001c0.005,0.006,0.01,0.013,0.014,0.019c0.015,0,0.03,0.001,0.045,0.001
					l0.004-0.004l0,0c-0.002,0.002-0.002,0.003-0.004,0.004c0.024,0.023,0.053,0.011,0.079,0.016c0-0.002,0-0.002,0-0.004
					c0.001,0,0.002,0,0.002,0l-0.002,0.004c0.005,0.005,0.01,0.01,0.015,0.014c0.017,0.002,0.033,0.002,0.048,0.002
					c0-0.002,0-0.004,0-0.004s0.001,0,0.002,0l-0.002,0.004c0.01,0.017,0.029,0.014,0.045,0.016c0.019,0.02,0.043,0.014,0.065,0.012
					l0,0c0.019,0.017,0.045,0.004,0.066,0.016c0.019-0.004,0.039-0.004,0.056,0.002c0.024,0.025,0.053,0.014,0.08,0.014v-0.002
					c0.013,0.029,0.038,0.017,0.06,0.019c0,0,0-0.002,0.002-0.002l0,0l-0.002,0.002c0.015,0.023,0.04,0.014,0.06,0.018l0.005-0.006
					l0,0c-0.002,0.002-0.002,0.004-0.005,0.006c0.006,0.003,0.013,0.011,0.02,0.011c0.113,0.013,0.227,0.024,0.34,0.036
					c0.009,0.006,0.021,0.004,0.029,0.013c0.031,0.001,0.063,0.003,0.094,0.003c0.005,0.003,0.01,0.008,0.015,0.014
					c0.084-0.002,0.168-0.002,0.25-0.002v-0.001c0.003,0.007,0.009,0.007,0.014,0.001c0.005,0,0.01,0,0.015,0
					c0.009,0.006,0.019,0.009,0.029,0.009c0.014,0,0.027,0,0.041,0.001c0.046,0.007,0.091,0.014,0.139,0.019
					c0.105,0.01,0.213,0.005,0.32,0.006c0.007,0.014,0.016,0.023,0.035,0.02c0.017-0.004,0.037-0.004,0.058-0.007
					c0.018-0.009,0.036-0.017,0.058-0.015c0.13,0.015,0.257-0.027,0.388-0.017c0.014,0.001,0.024-0.004,0.035-0.014
					c0.009-0.001,0.017-0.003,0.025-0.003c0.033,0,0.066,0.003,0.1,0c0.024-0.001,0.055,0.012,0.076-0.016h-0.001
					c0.045-0.018,0.095,0.006,0.141-0.014l0.004-0.003l0.007,0.001c0.023,0,0.049,0.009,0.068-0.012
					c0.043,0,0.064-0.021,0.062-0.064c0.011-0.006,0.014-0.018,0.017-0.029l-0.002-0.002c0,0,0,0,0-0.002
					c0.002,0.002,0.002,0.004,0.002,0.004c0.029-0.006,0.055,0.01,0.08,0.017c0.022,0.008,0.042,0.008,0.064,0.002
					c0.058-0.014,0.108-0.041,0.15-0.082c-0.003-0.001-0.004-0.002-0.005-0.004l0,0l0.005,0.004c0.035-0.016,0.07-0.031,0.106-0.046
					c0.005-0.001,0.01-0.003,0.015-0.003c0.005,0,0.011,0,0.018,0c0-0.004,0-0.008,0-0.014c0.005-0.001,0.009-0.002,0.013-0.002
					c0.032-0.01,0.064-0.012,0.098,0.001h-0.002c0.005,0.005,0.011,0.011,0.016,0.017c0.032,0.027,0.058,0.016,0.078-0.017
					c0.016-0.01,0.016-0.021,0-0.031c-0.002-0.017,0.008-0.031,0.016-0.045l-0.003-0.004c0,0,0,0,0-0.001
					c0,0.001,0.003,0.004,0.003,0.005c0.027,0.003,0.055-0.019,0.082,0.001c0.042,0.029,0.049-0.002,0.058-0.032l-0.002-0.004l0,0
					c0.001,0.001,0.002,0.003,0.002,0.004c0.01-0.001,0.023,0.001,0.03-0.004c0.107-0.06,0.231-0.087,0.325-0.169v0.002
					c0.013-0.016,0.035-0.002,0.048-0.017c0.015-0.011,0.03-0.02,0.046-0.03h0.001c0.008-0.012,0.008-0.022-0.002-0.031
					c-0.021-0.002-0.04-0.002-0.062-0.002c-0.023-0.014-0.028-0.042-0.046-0.061c-0.005-0.005-0.011-0.01-0.014-0.016
					c0.001-0.006,0.001-0.011,0.001-0.018c0.005-0.003,0.009-0.008,0.013-0.014l-0.003-0.002v-0.002
					c0.001,0.002,0.003,0.004,0.003,0.004c0.006-0.004,0.013-0.01,0.017-0.014l-0.003-0.002c0,0,0,0,0-0.002
					c0.001,0.002,0.001,0.003,0.003,0.004c0.011-0.001,0.023-0.004,0.028-0.015c0.003-0.004,0.007-0.005,0.01-0.004
					c0.009-0.003,0.017-0.009,0.022-0.017l-0.002,0.002c0.001-0.002,0.002-0.004,0.003-0.006c0.002-0.002,0.002-0.006,0-0.007
					c-0.001-0.001-0.002,0-0.003,0c0.002-0.005,0.01-0.011,0.001-0.014c-0.021-0.005-0.047-0.001-0.069-0.005
					c-0.019-0.002-0.01-0.017-0.005-0.029c0.012-0.001,0.023-0.005,0.03-0.016c-0.003-0.002-0.003-0.003-0.005-0.004
					c0,0,0,0,0.001,0l0.004,0.004c0.005-0.006,0.01-0.01,0.015-0.014v-0.003l0,0c0,0.001,0,0.001,0,0.003
					c0.006-0.007,0.011-0.012,0.016-0.017v-0.003l0,0c0,0.002,0,0.002,0,0.003c0.005-0.005,0.011-0.011,0.016-0.017
					c0.024-0.001,0.049,0,0.057-0.033c-0.03-0.008-0.063,0.018-0.085-0.013l-0.004-0.001v-0.002
					c0.001,0.002,0.001,0.003,0.004,0.003c0.071-0.026,0.147-0.045,0.2-0.108c0.013-0.003,0.022-0.006,0.03-0.017l-0.003-0.004
					v-0.001c0,0.001,0.001,0.002,0.003,0.005c0.013-0.001,0.023-0.004,0.029-0.017l-0.002-0.004l0,0c0,0,0.002,0.003,0.002,0.004
					c0.013,0,0.025-0.004,0.033-0.015l-0.004-0.004c0,0,0,0,0-0.001c0.001,0.002,0.001,0.004,0.004,0.005
					c0.013-0.001,0.023-0.004,0.03-0.017l-0.002-0.002h0.002c0,0,0,0.001,0,0.002c0.012,0,0.024-0.002,0.031-0.015l-0.004-0.004
					c0.001,0,0.002-0.001,0.002-0.001c0,0.001,0,0.002,0.002,0.005c0.012-0.001,0.023-0.004,0.031-0.017
					c-0.002,0-0.003-0.001-0.003-0.002l0,0l0.003,0.002c0.005-0.005,0.01-0.01,0.015-0.015v-0.001l0,0v0.001
					c0.013-0.001,0.025-0.004,0.03-0.017c0.006-0.005,0.011-0.01,0.016-0.015h0.002c0.007-0.011,0.023-0.007,0.029-0.017l0,0
					C15.921,13.044,15.926,13.033,15.929,13.021z M13.266,11.674c0.003-0.001,0.003,0.001,0.004,0
					c-0.001,0.003-0.001,0.005-0.001,0.009C13.269,11.679,13.266,11.677,13.266,11.674z M13.316,11.682
					c-0.002-0.001-0.003-0.001-0.003-0.002C13.314,11.68,13.316,11.68,13.316,11.682z M13.559,11.677L13.559,11.677L13.559,11.677
					L13.559,11.677z M13.393,11.649c-0.004,0.002-0.009,0.008-0.013,0.011c0.003-0.003,0.004-0.005,0.006-0.01
					C13.389,11.648,13.392,11.651,13.393,11.649z M12.888,11.839c-0.005-0.002-0.007,0-0.013,0c0.003-0.004,0.01-0.003,0.01-0.008
					C12.89,11.834,12.887,11.837,12.888,11.839z M12.821,11.9c0.005,0.002,0.01,0.004,0.015,0.008
					c-0.002,0.001-0.007-0.002-0.005,0.003c-0.003-0.002-0.006-0.007-0.01-0.01C12.821,11.9,12.821,11.902,12.821,11.9z
					 M14.563,11.236c-0.001-0.001-0.003-0.003-0.003-0.004c0,0,0,0,0-0.001C14.56,11.233,14.563,11.235,14.563,11.236z
					 M15.303,13.498c0,0.001,0,0.001,0.002,0.001C15.303,13.499,15.303,13.499,15.303,13.498
					C15.303,13.499,15.303,13.499,15.303,13.498z M15.436,13.088c-0.002,0.01-0.005,0.018-0.005,0.029
					C15.431,13.106,15.434,13.098,15.436,13.088z M15.196,10.972c-0.001-0.002-0.001-0.002-0.002-0.002c0,0,0-0.001,0.001-0.001
					c0,0.001,0,0.001,0,0.001C15.195,10.972,15.195,10.971,15.196,10.972z M15.146,11.117c0,0.002,0,0.002,0,0.002
					c-0.023-0.015-0.045-0.023-0.079-0.02c0.004-0.009-0.001-0.016,0.001-0.023C15.079,11.099,15.102,11.112,15.146,11.117z
					 M14.84,11.196c-0.013-0.044-0.037-0.079-0.075-0.09c0.011-0.004,0.022-0.005,0.023,0.011c0.006,0.042,0.035,0.046,0.061,0.051
					C14.852,11.181,14.844,11.188,14.84,11.196z M15.302,13.702C15.303,13.702,15.303,13.702,15.302,13.702
					c0.001,0,0.001,0.002-0.001,0.002C15.301,13.704,15.302,13.704,15.302,13.702z M15.268,13.567c0-0.003,0.003-0.003,0.003-0.006
					c0,0,0.001,0,0.003,0l0,0l0,0C15.273,13.564,15.268,13.564,15.268,13.567z M15.354,13.372c0.015,0.009,0.012,0.017,0.007,0.025
					c0-0.01,0-0.02-0.009-0.025H15.354z M15.443,11.808c0,0.001-0.001,0.001,0,0.001c-0.001,0-0.001,0-0.003,0
					C15.442,11.808,15.443,11.808,15.443,11.808c-0.001-0.002-0.003-0.002-0.005-0.003l0,0c0.002,0,0.004,0.001,0.005,0.001
					C15.443,11.808,15.443,11.808,15.443,11.808z M15.37,12.285c-0.017,0.005-0.023,0.017-0.024,0.034
					C15.35,12.305,15.356,12.292,15.37,12.285z M15.583,11.663c0-0.007-0.009-0.02-0.013-0.029c0.008,0.006,0.016,0.01,0.024,0.018
					C15.588,11.654,15.588,11.659,15.583,11.663z M15.481,12.178c0.003-0.001,0.002-0.001,0.003-0.004c0,0.002,0,0.004,0,0.005
					C15.482,12.178,15.481,12.18,15.481,12.178z M15.474,11.233v0.002c-0.002,0-0.002,0.001-0.003,0.001
					C15.472,11.235,15.474,11.235,15.474,11.233z M14.898,13.899L14.898,13.899c-0.005-0.01-0.011-0.018-0.018-0.025
					c0.002,0,0.003-0.002,0.005-0.002C14.873,13.89,14.884,13.896,14.898,13.899z M14.915,13.858
					c-0.008-0.012-0.021-0.012-0.033-0.014c0,0,0,0,0.001,0c0.01,0.006,0.023,0.012,0.035,0.013
					C14.918,13.857,14.916,13.858,14.915,13.858z M15.296,12.421c-0.025,0.023-0.044,0.049-0.063,0.077
					c0.024-0.032,0.05-0.064,0.067-0.102c0.001,0.002,0,0.002,0,0.005C15.306,12.409,15.301,12.416,15.296,12.421z M15.596,11.426
					c0.003-0.002,0-0.009,0.004-0.011c0.004-0.002,0.009-0.004,0.011-0.006C15.601,11.411,15.601,11.42,15.596,11.426z
					 M15.568,11.31c0,0.001-0.001,0.001-0.001,0.002c-0.002,0-0.002,0-0.002,0C15.565,11.311,15.567,11.311,15.568,11.31z
					 M15.44,11.032c-0.03-0.004-0.058-0.014-0.07-0.046C15.379,11.022,15.403,11.037,15.44,11.032z M12.621,11.635
					c0,0.001-0.002,0.002-0.002,0.002l0,0L12.621,11.635L12.621,11.635z M12.12,11.638c0.002,0,0.006,0.002,0.01,0.002l0,0
					C12.127,11.639,12.123,11.639,12.12,11.638L12.12,11.638z M11.965,11.563c-0.002-0.002-0.005-0.003-0.007-0.005
					c0.003,0,0.006,0.002,0.01,0.002C11.966,11.561,11.965,11.561,11.965,11.563z M12.058,11.513c0,0,0,0.001-0.002,0.001
					C12.058,11.514,12.058,11.513,12.058,11.513z M11.989,11.559c-0.002-0.009-0.009-0.014-0.017-0.019
					C11.982,11.542,11.985,11.551,11.989,11.559z M11.816,11.448c-0.001,0.001-0.002,0.002-0.004,0.003c0-0.001,0-0.002,0-0.003
					C11.814,11.448,11.815,11.448,11.816,11.448z M11.051,13.546c0.005,0.001,0.009,0.002,0.013,0.008c-0.005,0-0.006,0-0.013,0.001
					C11.051,13.552,11.051,13.548,11.051,13.546z M10.743,13.436c0.001-0.001,0.001,0,0.002-0.001
					c-0.001,0.001-0.001,0.001-0.001,0.001S10.744,13.436,10.743,13.436z M10.691,13.26c0.003,0.003,0.008,0.002,0.01,0.006
					c-0.004-0.003-0.01,0.005-0.013-0.001C10.686,13.261,10.691,13.262,10.691,13.26z M10.744,13.16
					c0-0.001-0.001-0.001-0.002-0.002l0,0c0-0.002,0-0.003,0-0.004C10.741,13.155,10.741,13.159,10.744,13.16z M10.461,13.201
					c0.002,0,0.005,0,0.007,0c-0.01,0.003-0.018,0-0.03,0.006C10.447,13.203,10.454,13.203,10.461,13.201z M11.054,13.501
					c0,0.001,0.002,0.001,0.002,0.001c-0.001,0.004,0.003,0.011-0.005,0.013c-0.002,0-0.005,0-0.007,0.001
					C11.05,13.513,11.05,13.506,11.054,13.501z M11.082,13.84c0-0.001,0-0.003,0.002-0.004c0,0.001-0.001,0.001-0.001,0.001
					C11.082,13.839,11.082,13.84,11.082,13.84L11.082,13.84z M11.124,12.25c-0.013,0-0.026,0.004-0.031,0.002
					c0.004,0.001,0.007-0.003,0.011-0.004c0.01,0,0.018-0.002,0.027-0.004C11.129,12.246,11.127,12.25,11.124,12.25z M10.716,12.394
					c-0.013-0.002-0.024-0.002-0.033,0.014v-0.002c-0.001-0.022,0.015-0.014,0.025-0.018C10.714,12.389,10.714,12.394,10.716,12.394
					z M10.621,12.53c0,0.008-0.01,0.008-0.015,0.013c0.005-0.011,0.001-0.021-0.007-0.031C10.608,12.516,10.623,12.518,10.621,12.53
					z M10.696,12.984L10.696,12.984L10.696,12.984L10.696,12.984z M10.924,13.515c0.018,0.002,0.035,0.006,0.053,0.006
					c-0.004,0-0.008,0.002-0.013,0.002C10.95,13.521,10.938,13.517,10.924,13.515z M10.997,13.694c0,0.004,0,0.007,0.002,0.012
					c-0.005-0.002-0.001-0.008-0.005-0.009C10.995,13.696,10.997,13.696,10.997,13.694z M11.292,12.231
					c0-0.006,0.002-0.013,0.004-0.018c0.002,0,0.003-0.002,0.004-0.002C11.297,12.218,11.294,12.225,11.292,12.231z M11.149,12.214
					L11.149,12.214c0,0,0,0,0.002,0H11.149z M10.806,12.246c0-0.001-0.002,0-0.002-0.001L10.806,12.246L10.806,12.246z
					 M10.656,12.858c-0.001-0.002-0.002-0.002-0.005-0.003C10.654,12.856,10.655,12.856,10.656,12.858z M10.664,12.984
					c-0.004,0-0.007,0.002-0.013,0.002c0.001-0.005,0-0.01-0.002-0.014C10.654,12.975,10.659,12.979,10.664,12.984z M10.566,12.994
					c-0.002-0.006-0.005-0.01-0.01-0.013c0.006,0.003,0.012,0.008,0.02,0.01C10.574,12.993,10.568,12.993,10.566,12.994z
					 M11.479,12.122c0.002,0,0.005,0,0.007,0C11.484,12.123,11.482,12.122,11.479,12.122L11.479,12.122z M10.377,12.538l0.008-0.001
					c0.001,0.001-0.002,0.001,0,0.002c-0.004-0.002-0.009-0.004-0.014-0.002L10.377,12.538z M10.434,13.021
					c-0.002,0-0.002,0-0.003,0c0-0.001,0-0.003,0-0.004C10.431,13.018,10.432,13.019,10.434,13.021z M10.634,13.513L10.634,13.513
					L10.634,13.513L10.634,13.513z M10.725,13.544c0,0.002,0,0.003,0.001,0.004c-0.002-0.001-0.005-0.002-0.006-0.002
					C10.721,13.544,10.724,13.544,10.725,13.544z M10.789,13.67c0,0.001,0,0.001,0,0.001s-0.001,0-0.002,0
					C10.788,13.671,10.788,13.671,10.789,13.67z M11.487,14.089L11.487,14.089c0,0,0,0-0.001,0H11.487z M15.814,13.098
					c0-0.001,0-0.002,0-0.004c0,0,0.003,0,0.004,0C15.816,13.096,15.814,13.097,15.814,13.098z"/>
				<path style="fill-rule:evenodd;clip-rule:evenodd;" d="M12.623,11.551c-0.005-0.001-0.008-0.003-0.013-0.006
					c-0.003,0.003-0.007,0.005-0.011,0.007c0.004,0.001,0.009,0.005,0.011,0.005C12.615,11.558,12.618,11.554,12.623,11.551z"/>
				<path style="fill-rule:evenodd;clip-rule:evenodd;" d="M12.658,11.554c-0.005,0.004-0.006,0.008-0.002,0.012
					c0.002-0.001,0.004-0.004,0.004-0.005C12.661,11.558,12.659,11.557,12.658,11.554z"/>
				<polygon style="fill-rule:evenodd;clip-rule:evenodd;" points="9.682,12.861 9.676,12.859 9.674,12.865 9.68,12.868 				"/>
				<polygon style="fill-rule:evenodd;clip-rule:evenodd;" points="15.641,13.338 15.648,13.341 15.648,13.335 15.644,13.333 				
					"/>
				<path style="fill-rule:evenodd;clip-rule:evenodd;" d="M14.611,14.094c0.006,0,0.007-0.003,0.004-0.009
					c0,0-0.004,0.002-0.005,0.002C14.61,14.089,14.61,14.091,14.611,14.094z"/>
				<polygon style="fill-rule:evenodd;clip-rule:evenodd;" points="12.753,14.347 12.761,14.349 12.763,14.345 12.755,14.342 				
					"/>
			</g>
	</g>
</svg>
