<?xml version="1.0" encoding="utf-8"?>
<svg xmlns="http://www.w3.org/2000/svg" viewBox="1.439 10.627 6.912 3.363">
	<g>
			<g>
				<path style="fill-rule:evenodd;clip-rule:evenodd;" d="M4.713,10.831c0.015-0.001,0.03-0.001,0.045-0.002
					c0.03-0.02,0.065,0.002,0.094-0.014l-0.001-0.004c0.015,0,0.03,0.002,0.046,0.002c0.014-0.013,0.033-0.002,0.046-0.013
					c0.026,0,0.053-0.001,0.078-0.002c0.013,0,0.022,0,0.03-0.011c0.022-0.001,0.042-0.002,0.065-0.004
					c0.007-0.01,0.022-0.006,0.03-0.015c0.005-0.005,0.01-0.009,0.015-0.014c-0.013-0.016-0.029-0.01-0.045-0.005
					c-0.025,0.002-0.05,0.002-0.075,0.004c-0.022,0-0.045-0.009-0.064,0.011c-0.016,0.001-0.031,0.002-0.046,0.004
					c-0.024,0.018-0.055-0.003-0.079,0.015c-0.01,0-0.019,0-0.029,0c-0.018,0-0.035-0.003-0.047,0.013c-0.006,0-0.013,0-0.018,0
					c-0.005-0.002-0.01-0.002-0.015,0.002c-0.005,0.002-0.009,0.002-0.014,0.002c-0.044,0-0.087-0.006-0.13,0.003
					c-0.012,0.003-0.019,0.011-0.019,0.023c0,0.012,0.009,0.019,0.02,0.017C4.638,10.841,4.678,10.856,4.713,10.831z M5.025,10.785
					c0-0.002,0-0.002,0-0.002c0.005,0,0.011-0.002,0.018-0.002l0,0l0,0C5.037,10.781,5.031,10.777,5.025,10.785z M4.643,10.818
					L4.643,10.818c-0.005-0.002-0.012,0.001-0.018-0.002C4.63,10.819,4.638,10.817,4.643,10.818z"/>
				<path style="fill-rule:evenodd;clip-rule:evenodd;" d="M8.313,12.378c-0.001,0.002-0.001,0.003-0.004,0.004
					c-0.003-0.006-0.007-0.011-0.012-0.017c-0.001,0-0.001-0.001-0.003-0.001c0.003,0,0.003-0.001,0.005-0.001
					c-0.005-0.005-0.01-0.01-0.015-0.016L8.281,12.35c-0.001,0-0.002,0-0.002,0c0.001-0.001,0.002-0.001,0.005-0.002
					c-0.01-0.04,0.013-0.085-0.018-0.124c-0.001,0.002-0.002,0.003-0.004,0.004l0,0l0.004-0.004c-0.001-0.018-0.013-0.029-0.03-0.03
					c-0.001,0.001-0.003,0.002-0.003,0.004c0-0.002,0-0.002,0-0.002l0.003-0.002c-0.006-0.005-0.011-0.01-0.017-0.015l-0.005,0.004
					c-0.001,0-0.001-0.001-0.001-0.002c0.003,0,0.004,0,0.006-0.002c-0.005-0.005-0.01-0.011-0.015-0.016
					c-0.021-0.031-0.048-0.057-0.079-0.078c-0.005-0.005-0.01-0.01-0.015-0.015c-0.015-0.018-0.038-0.02-0.055-0.014
					c-0.063,0.024-0.134,0.014-0.194,0.047c-0.005,0-0.01,0-0.015,0c-0.004-0.006-0.009-0.005-0.013,0
					c-0.019-0.002-0.036-0.006-0.05,0.013l0.003,0.005c0,0.002-0.002,0-0.002,0c0-0.001-0.001-0.003-0.001-0.005
					c-0.021,0.003-0.046-0.005-0.064,0.014c0.001,0.002,0.002,0.004,0.005,0.005c-0.001,0-0.001,0-0.001,0l-0.004-0.005
					c-0.013,0.002-0.022,0.005-0.03,0.018l0.002,0.002c0,0,0,0,0,0.002c-0.001-0.002-0.001-0.002-0.002-0.004
					c-0.014-0.004-0.043,0.01-0.032-0.024c0.027-0.072,0.022-0.145,0-0.216c-0.013-0.038-0.013-0.067,0.039-0.086
					c-0.034-0.018-0.061-0.015-0.081-0.031c-0.023-0.046-0.051-0.087-0.108-0.095l-0.002,0.003c0,0,0,0,0-0.002
					c0,0,0.001,0,0.002-0.002c-0.002-0.026-0.036-0.041-0.031-0.067c0.006-0.035-0.009-0.038-0.036-0.039
					c-0.103-0.006-0.203,0.023-0.305,0.02c-0.005,0-0.013,0.007-0.018,0.012c-0.005,0-0.01,0-0.015,0
					c-0.011-0.01-0.022-0.01-0.03,0.002c0,0,0-0.001,0.001-0.001c-0.051-0.003-0.106,0.006-0.14-0.05
					c-0.011-0.019-0.036-0.014-0.056-0.011l-0.005,0.002L6.87,11.56c-0.012-0.018-0.034-0.007-0.05-0.015
					c-0.006-0.025-0.03-0.042-0.033-0.069c0.01-0.003,0.015-0.006,0.018-0.017c0.033,0.005,0.048-0.02,0.068-0.039
					c0.02-0.016,0.032-0.042,0.06-0.048c0.055-0.014,0.097-0.055,0.147-0.079c0.051-0.024,0.078-0.086,0.045-0.127
					c-0.033-0.044-0.033-0.094-0.053-0.139c-0.002-0.012-0.005-0.023-0.015-0.03L7.055,11l0,0c0-0.001,0.001-0.001,0.002-0.001
					c-0.002-0.044-0.011-0.086-0.033-0.125c-0.001-0.012-0.004-0.023-0.015-0.03l-0.005,0.004c0,0,0-0.002-0.001-0.002
					c0.001-0.001,0.003-0.001,0.006-0.002c-0.006-0.031-0.017-0.06-0.046-0.079c-0.001-0.013-0.005-0.024-0.017-0.03
					c-0.002,0.001-0.002,0.004-0.005,0.006c0,0,0,0,0-0.001l0.005-0.005c-0.005-0.005-0.01-0.01-0.015-0.015l-0.004,0.002
					c-0.001,0-0.001,0-0.001,0c0.001-0.001,0.002-0.001,0.005-0.002c-0.003-0.012-0.008-0.021-0.02-0.026l0,0L6.911,10.69
					c0,0,0,0,0,0.002l0,0c0,0,0,0,0,0.001c0-0.001,0-0.001,0-0.001c-0.001-0.009-0.006-0.014-0.015-0.018
					c-0.003,0.002-0.009,0.002-0.011-0.001c-0.051,0.008-0.104,0.005-0.155,0.019l0.003-0.002c-0.02-0.002-0.04-0.003-0.06,0.002
					c-0.021,0.006-0.038-0.002-0.052-0.02c-0.057,0.019-0.119,0.03-0.171,0.063c-0.025,0.003-0.056-0.014-0.075,0.017l0,0
					c-0.037,0.008-0.078,0.006-0.11,0.03h0.001c-0.019,0.015-0.046-0.005-0.063,0.018l0.001-0.002
					c-0.01,0.005-0.024,0.004-0.034,0.013l-0.004,0.005l-0.005-0.002c-0.022,0-0.045-0.002-0.069-0.002
					c-0.004,0.004-0.009,0.008-0.014,0.013c-0.067,0.016-0.135,0.033-0.203,0.049c-0.005,0.005-0.01,0.01-0.015,0.013
					c-0.058,0.006-0.113,0.026-0.173,0.019c-0.003,0.005-0.01,0.01-0.015,0.015c-0.005,0-0.01,0-0.015,0
					c-0.01-0.009-0.02-0.009-0.03,0c-0.04,0.001-0.08-0.008-0.112,0.019c-0.05,0.038-0.113,0.031-0.168,0.055
					c-0.027,0.013-0.051-0.027-0.077-0.019c-0.025,0.007-0.023,0.047-0.058,0.056c-0.038,0.01-0.075,0.014-0.113,0.014
					c-0.005,0.005-0.002,0.01,0,0.015l0,0c0-0.005,0-0.01,0-0.015c-0.006,0-0.011,0-0.016,0c0,0.005,0,0.01,0,0.015
					c-0.017,0-0.031,0-0.046,0c-0.005,0.005-0.01,0.011-0.015,0.016l-0.005,0.004l-0.005-0.003c-0.013-0.005-0.03,0.006-0.038-0.01
					c0.005-0.018,0.032-0.014,0.034-0.035c-0.051-0.008-0.082,0.009-0.098,0.057c-0.011,0-0.024-0.001-0.024-0.013
					c0.003-0.04-0.017-0.031-0.042-0.021c-0.022,0.01-0.026,0.029-0.025,0.05c-0.005,0-0.01,0-0.015,0
					c-0.006-0.004-0.011-0.002-0.016,0.001l0.002,0.003c-0.006-0.001-0.011-0.002-0.016-0.003c-0.019-0.002-0.048,0.006-0.04-0.029
					c0.005-0.025-0.006-0.033-0.028-0.033c-0.017,0.002-0.036-0.007-0.052,0.018c0.021,0.014,0.047,0.027,0.041,0.06
					c-0.019,0.014-0.041,0.002-0.061,0.013c-0.01,0-0.021,0.001-0.033,0.002c-0.032-0.03-0.032-0.03-0.035-0.103
					c-0.001-0.05,0.034-0.065,0.068-0.083c0.032-0.001,0.065-0.003,0.094,0.02c0.019,0.015,0.042,0.017,0.062-0.005
					c0.03,0,0.06,0.001,0.09-0.001c0.075-0.006,0.15-0.017,0.219-0.048l-0.001,0.002c0.04-0.014,0.084,0,0.125-0.013
					c0.015-0.016,0.037-0.019,0.058-0.019c0.007-0.001,0.015-0.004,0.021-0.005c0.015-0.006,0.031-0.002,0.046-0.009
					c0.05-0.002,0.095-0.013,0.14-0.031c-0.002-0.001-0.002-0.004-0.005-0.005c0,0,0,0,0.001,0l0.003,0.005
					c0.017-0.001,0.035,0.001,0.045-0.015l0.007-0.003h0.007c0.026-0.002,0.055,0.011,0.078-0.013
					c0.005-0.002,0.008-0.004,0.013-0.004c0.019,0.004,0.035-0.006,0.05-0.014c0.003,0,0.003-0.001,0.004-0.005
					c0.001-0.004,0-0.006-0.004-0.01c-0.04-0.025-0.081-0.041-0.13-0.017c-0.013,0.006-0.03,0.01-0.044,0.007
					c-0.096-0.023-0.179,0.01-0.261,0.055c0.002,0.001,0.003,0.003,0.005,0.003l0,0l-0.005-0.003
					c-0.013,0.001-0.022,0.003-0.03,0.015c-0.012,0.002-0.022,0.004-0.03,0.015c-0.01,0.002-0.019,0.002-0.029,0.004
					c-0.015-0.001-0.031,0.003-0.046-0.002c-0.071-0.026-0.14-0.006-0.209,0.01c-0.031,0.008-0.064,0.019-0.098,0.006
					c-0.026-0.01-0.058-0.025-0.044,0.03c0.003,0.014-0.017,0.016-0.03,0.016c-0.025,0.001-0.051,0.001-0.078,0.002
					c-0.002,0.002-0.007,0.002-0.01-0.001c-0.005-0.006-0.01-0.006-0.017,0c-0.003,0.003-0.007,0.003-0.012,0
					c-0.066-0.031-0.133-0.063-0.204-0.015c-0.011,0.003-0.022,0.003-0.033-0.002c-0.015-0.019-0.036-0.014-0.056-0.014
					C4.27,10.89,4.212,10.89,4.153,10.89c-0.001,0.001-0.001,0.003-0.001,0.005c0-0.001,0-0.001,0-0.002l0.001-0.003
					c-0.026-0.028-0.061-0.009-0.092-0.017c-0.011-0.016-0.029-0.014-0.045-0.016c-0.008-0.01-0.021-0.014-0.035-0.015
					c-0.017-0.002-0.011,0.018-0.021,0.022c-0.007,0.002-0.015,0.01-0.018,0.018c-0.005,0.01-0.027,0.005-0.023,0.024
					c0.002,0.012,0.006,0.025,0.016,0.034c0.002,0.021,0.013,0.036,0.031,0.046l0.004-0.003c0,0,0,0,0,0.002
					c-0.001,0-0.002,0-0.004,0.002c0.01,0.031,0.021,0.063,0.031,0.094c0,0.025,0.005,0.049,0.03,0.061
					c0.002-0.001,0.005-0.003,0.006-0.005l0,0L4.027,11.14c0.005,0.015,0.01,0.029,0.014,0.044
					c-0.018,0.002-0.037,0.002-0.053,0.009c-0.018,0.006-0.026,0.026-0.027,0.043c-0.001,0.022,0.019,0.017,0.032,0.021
					c0.014,0.003,0.026,0.016,0.029,0.032c0.004,0.02-0.018,0.021-0.027,0.03c-0.035,0.031-0.085,0.009-0.123,0.035
					c0.002,0.003,0.002,0.004,0.005,0.005l0,0l-0.005-0.005c-0.02,0.005-0.045-0.005-0.06,0.018l0.001,0.002H3.812
					c0-0.001,0-0.001,0-0.002c-0.028,0.002-0.057-0.009-0.08,0.014c0.002,0.002,0.005,0.003,0.006,0.006c-0.001,0-0.001,0-0.001,0
					l-0.005-0.006c-0.025,0.006-0.055-0.009-0.075,0.017l0.002,0.003c-0.001,0-0.002,0-0.002,0s0-0.002,0-0.003
					c-0.04,0.02-0.083-0.032-0.127,0.01c-0.034,0.03-0.094,0.013-0.138,0.035c-0.045,0.009-0.095-0.014-0.138,0.016l0.002,0.004
					c-0.001,0.001-0.002,0-0.002,0c0-0.002,0-0.003,0-0.004c-0.087,0-0.175,0-0.263-0.001l-0.004,0.005H2.986
					c0.002-0.002,0.003-0.003,0.005-0.005c-0.064-0.016-0.128-0.027-0.194-0.03c-0.034-0.001-0.064-0.005-0.091,0.019
					c-0.005,0.004-0.009,0.002-0.011-0.002c-0.006-0.012-0.018-0.015-0.03-0.016c-0.029-0.026-0.063-0.01-0.094-0.015
					c-0.001,0.001-0.002,0.002-0.002,0.005c0-0.001,0-0.001,0-0.001l0.002-0.004c-0.013-0.019-0.033-0.015-0.05-0.012v0.001
					c-0.012-0.018-0.035-0.007-0.05-0.018c-0.004,0.002-0.008,0.001-0.01-0.002c-0.006-0.013-0.018-0.015-0.031-0.014
					c-0.021-0.01-0.041-0.018-0.059,0.005v0.002c0.002,0.017,0.021,0.013,0.029,0.022c-0.006,0.006-0.014,0.011-0.02,0.018
					c-0.009-0.001-0.019-0.002-0.026-0.005c-0.015-0.005-0.03-0.007-0.044,0.005v-0.001c-0.003,0.003-0.006,0.005-0.01,0.006
					c0.003,0.002,0.006,0.005,0.01,0.007l-0.001-0.001c0.002,0.008,0.009,0.013,0.014,0.017c0.006,0.013,0.019,0.015,0.031,0.017
					c0-0.001,0-0.003,0-0.004c0,0.001,0.001,0.001,0.001,0.001l-0.001,0.003c0.006,0.011,0.018,0.015,0.03,0.016l0.005-0.005l0,0
					c-0.002,0.001-0.004,0.003-0.005,0.005c0.01,0.019,0.025,0.029,0.046,0.031l0.004-0.005c0.001,0,0.001,0,0.001,0
					c-0.001,0.002-0.004,0.003-0.005,0.005c0.021,0.04-0.012,0.026-0.029,0.029c-0.001,0.001-0.001,0.002-0.002,0.004
					c0-0.002,0-0.002,0-0.002L2.4,11.542c-0.007-0.011-0.018-0.015-0.03-0.016c-0.02-0.025-0.042,0.006-0.065-0.006
					c-0.058-0.035-0.115-0.022-0.17,0.01c-0.007-0.012-0.022-0.009-0.033-0.016l0.001,0.001c-0.016-0.021-0.044-0.001-0.063-0.017
					c0.001,0,0.001,0,0.001,0c-0.01-0.011-0.025-0.008-0.037-0.009C2.002,11.489,2,11.493,1.998,11.494
					c-0.045-0.01-0.089-0.016-0.138-0.005c0.015,0.029,0.035,0.035,0.058,0.038c0.013,0.019,0.03,0.015,0.048,0.016
					c-0.003-0.005-0.003-0.009-0.003-0.014c0.001,0,0.003,0,0.003,0c-0.003,0.004-0.003,0.009,0,0.014l0,0
					c0.01,0.009,0.023,0.006,0.035,0.014c0.005-0.001,0.008,0,0.013,0.003c0.009,0.006,0.022,0.004,0.03,0.014l0,0
					c0.01,0.008,0.023,0.006,0.033,0.014l-0.001-0.002c0.008,0.02,0.028,0.016,0.043,0.02c0.013,0.018,0.028,0.029,0.048,0.03
					l0.005-0.005l0,0c-0.002,0.002-0.002,0.004-0.005,0.005c0.01,0.019,0.025,0.028,0.047,0.031l0.002-0.004l0,0
					c0,0.001-0.002,0.002-0.002,0.004c0.035,0.035,0.074,0.066,0.125,0.076c0-0.001,0-0.002,0.001-0.004H2.34l-0.002,0.004
					c0.005,0.013,0.018,0.015,0.029,0.018c0.034,0.036,0.076,0.058,0.126,0.06V11.82l0,0v0.002c0.006,0.012,0.018,0.015,0.03,0.016
					c0-0.001,0-0.003,0.001-0.003h0.001l-0.003,0.003c0.008,0.011,0.018,0.014,0.03,0.016l0.005-0.005l0,0
					c-0.002,0.002-0.003,0.004-0.005,0.005c0.013,0.015,0.03,0.014,0.046,0.017l0.003-0.004l0,0
					c-0.001,0.002-0.002,0.002-0.003,0.004c0.051,0.049,0.119,0.054,0.181,0.072c0.059,0.017,0.12,0.024,0.18,0.034
					c0.02,0.003,0.035,0.01,0.04,0.031c0.006,0.025-0.015,0.027-0.031,0.034c-0.009,0.003-0.019,0.009-0.014,0.021
					c0.009,0.011,0.027,0,0.033,0.017c-0.015,0.011-0.033,0.003-0.05,0.007c0,0.006,0.004,0.01,0.006,0.014
					c-0.001,0-0.001,0-0.001,0c0-0.005-0.002-0.009-0.005-0.014c-0.003,0.002-0.007,0.002-0.011-0.002
					c-0.019-0.016-0.044,0-0.064-0.015c-0.028-0.013-0.057-0.013-0.087,0.001l-0.001-0.001l-0.003,0.001c0.001,0,0.001,0,0.001,0
					C2.746,12.1,2.775,12.097,2.791,12.1h0.007l0.005,0.003c0.01,0.017,0.035,0.011,0.045,0.03c-0.059,0-0.118,0-0.177,0
					c-0.017,0-0.041-0.006-0.049,0.014c-0.012,0.032-0.036,0.032-0.063,0.035c-0.02,0.002-0.039,0.013-0.04,0.038
					c0.018,0.011,0.037,0.005,0.055,0.005l0.005-0.002l0.005,0.004c0.012,0.014,0.035,0.003,0.049,0.015l-0.001-0.001
					c0.041,0.027,0.09,0.026,0.138,0.035c0.01,0.002,0.022,0.009,0.02,0.019c-0.005,0.017-0.022,0.008-0.035,0.01
					c0,0.001,0,0.002,0,0.002s0,0-0.001,0l0.001-0.002c-0.054-0.033-0.113-0.006-0.17-0.017c0,0.002,0,0.002,0,0.003
					c0,0,0,0-0.001,0l0.001-0.003c-0.02-0.025-0.05-0.01-0.075-0.016l-0.004,0.004l0,0c0.001-0.001,0.001-0.002,0.004-0.004
					c-0.069-0.055-0.131-0.011-0.178,0.028c-0.035,0.031-0.07,0.035-0.109,0.038c-0.019-0.002-0.039-0.004-0.058-0.006
					c-0.006-0.004-0.011-0.007-0.016-0.011c-0.015-0.001-0.03-0.001-0.046-0.003c-0.006-0.004-0.011-0.009-0.016-0.013
					c-0.015-0.001-0.03-0.001-0.045-0.001c-0.006-0.009-0.015-0.014-0.025-0.015c-0.01,0-0.022-0.002-0.025,0.01
					c-0.001,0.012,0.01,0.016,0.02,0.018c0.005,0.002,0.01,0.002,0.015,0.002c0.01,0.001,0.02,0.001,0.03,0.002
					c0.006,0.003,0.011,0.009,0.015,0.014c0.006,0,0.011,0.001,0.018,0.001c0.005,0.005,0.01,0.009,0.015,0.014
					c0.011,0,0.021,0,0.032,0L2.135,12.35c0.007,0.005,0.013,0.011,0.022,0.013c0.004,0,0.008,0.002,0.009,0.005
					c0.049,0.058,0.114,0.075,0.187,0.075c0-0.002,0-0.002,0.001-0.004h0.001l-0.002,0.004c0.021,0.02,0.05,0.023,0.076,0.031
					l0.004-0.004l0,0c-0.001,0.002-0.002,0.003-0.004,0.004c0.057,0.042,0.124,0.055,0.189,0.074
					c0.013,0.005,0.024-0.004,0.03-0.015c0.005,0,0.01,0,0.015,0.002c0.005,0.012,0.018,0.016,0.03,0.019l0.001-0.001
					c0.001,0,0,0.001,0,0.001H2.693c-0.016,0.038-0.055,0.031-0.085,0.044c-0.024,0.01-0.035,0.036-0.073,0.035
					c-0.153-0.006-0.308-0.004-0.46-0.002c-0.025,0-0.051-0.009-0.073,0.012c0.005,0.006,0.006,0.013,0.01,0.014
					c0.009,0.003,0.02,0.004,0.03,0.005c0.015,0.019,0.037,0.015,0.057,0.015c0.043,0,0.086,0,0.129,0c0,0,0-0.001,0.001-0.002
					c0,0.001,0.001,0.001,0.001,0.001l-0.002,0.001c0.058,0.03,0.118,0.011,0.178,0.013l0.005-0.002l0.005,0.004
					c0.007,0.011,0.02,0.015,0.033,0.016c0.129,0.023,0.258,0.043,0.383,0.079c0.001-0.002,0.002-0.003,0.002-0.003s0,0,0.001,0
					l-0.004,0.003c0,0.025-0.015,0.031-0.035,0.029c-0.036-0.004-0.07,0.009-0.104,0.019c0.034,0.014,0.066,0,0.099-0.006
					c-0.033,0.004-0.068,0.003-0.099,0.006l0.001,0.001c-0.01-0.02-0.027-0.02-0.046-0.019c-0.039,0-0.076,0-0.116,0.001
					c-0.008,0.005-0.015,0.004-0.022-0.001c-0.03-0.019-0.065,0.001-0.095-0.014l0.001,0.001C2.403,12.78,2.38,12.784,2.36,12.784
					c-0.06,0-0.12,0-0.181,0.002c-0.024-0.002-0.049-0.003-0.074-0.004c-0.085-0.029-0.173-0.011-0.259-0.01
					c-0.029,0.001-0.009,0.027-0.006,0.043c-0.002,0.005,0.002,0.008,0.002,0.011l0,0c-0.001-0.003-0.001-0.007-0.002-0.011
					c-0.056,0-0.114,0-0.171,0.001c-0.015-0.001-0.03-0.002-0.046-0.002c-0.013-0.003-0.025-0.008-0.037-0.008
					C1.56,12.801,1.532,12.799,1.5,12.79c0.019,0.031,0.039,0.038,0.062,0.04h0.001c0.012,0.014,0.034,0.001,0.047,0.015
					c0.015,0.001,0.03,0.001,0.045,0.003c0.041,0.026,0.085,0.009,0.128,0.013c-0.014-0.013-0.033-0.011-0.05-0.017c0,0,0,0,0-0.001
					c0.015,0.014,0.035,0.005,0.05,0.018c0.01,0,0.019,0.001,0.027,0.001c0.05,0.031,0.105,0.009,0.158,0.015l0.007-0.002
					l0.005,0.003c0.035,0.027,0.075,0.01,0.113,0.012L2.1,12.889l0.005,0.003c0.032,0.029,0.072,0.009,0.107,0.017
					c0.011,0.016,0.03,0.014,0.045,0.015c0.022,0.024,0.053,0.011,0.079,0.017c0-0.001,0.001-0.001,0.001-0.002l0,0L2.337,12.94
					c0.023,0.023,0.055,0.011,0.083,0.012l0.005-0.002l0.005,0.004c0.015,0.014,0.035,0.004,0.05,0.014l-0.002-0.002
					c0.05,0.021,0.105,0.021,0.155,0.034v-0.001c0.05,0.017,0.104,0.023,0.156,0.031l-0.001-0.001
					c0.009,0.022,0.027,0.018,0.045,0.019c0.005,0.005,0.01,0.01,0.015,0.015l0.005-0.004c0,0.002,0.001,0.002,0.002,0.003
					c-0.002,0-0.005,0.001-0.007,0.001c0.005,0.006,0.01,0.012,0.015,0.017l0.003-0.003c0.001,0,0,0.002,0.001,0.002
					c-0.001,0.001-0.001,0.001-0.004,0.001c0,0.011,0,0.023-0.012,0.027c-0.045-0.038-0.045-0.038-0.08,0.019
					c-0.026,0.027,0,0.035,0.016,0.047c0.001-0.002,0.002-0.002,0.004-0.004v0.002l-0.004,0.002
					c0.005,0.006,0.009,0.012,0.014,0.016l0.002-0.001l0,0c-0.001,0-0.001,0.001-0.002,0.001c0.009,0.031,0.018,0.063,0.049,0.078
					c0.001-0.001,0.001-0.003,0.004-0.004l0,0L2.85,13.266c0.006,0.011,0.019,0.015,0.03,0.017c0.001-0.002,0.001-0.003,0.002-0.003
					l0,0L2.88,13.282c0.005,0.004,0.01,0.008,0.016,0.014L2.9,13.292c0,0,0,0,0.001,0c-0.002,0.001-0.005,0.002-0.005,0.004
					c0.02,0.028,0.039,0.057,0.078,0.063c0-0.002,0.002-0.004,0.002-0.006c0,0,0.001,0,0.002,0l-0.005,0.006
					c0.02,0.028,0.039,0.057,0.078,0.063c0-0.003,0.002-0.004,0.002-0.006h0.001l-0.004,0.006c0.009,0.019,0.025,0.029,0.046,0.031
					c0-0.002,0.001-0.002,0.001-0.002l0,0l-0.001,0.002c0.005,0.005,0.01,0.01,0.016,0.015c0-0.001,0-0.003,0.001-0.005
					c0,0.002,0.001,0.002,0.001,0.002l-0.002,0.003c0.005,0.005,0.01,0.011,0.015,0.015c0.005,0.011,0.012,0.016,0.022,0.017
					c0.007,0.009,0.026,0.015,0.009,0.03c-0.017,0.002-0.034-0.002-0.046,0.013c-0.005,0.006-0.011,0.013-0.018,0.019
					c-0.005,0.005-0.009,0.012-0.014,0.016h0.001c-0.01,0.008-0.007,0.023-0.017,0.031h0.001c-0.006,0.004-0.011,0.011-0.016,0.016
					s-0.01,0.01-0.015,0.016c0,0.025,0,0.051,0,0.077c0.005,0.005,0.01,0.01,0.015,0.015v0.002c0.005,0.004,0.011,0.008,0.018,0.014
					H3.067c0.004,0.005,0.006,0.01,0.01,0.015c0.006,0.007,0.014,0.013,0.021,0.019c0.009,0.008,0.022,0.004,0.031,0.014
					c0.005-0.001,0.01-0.001,0.017-0.001l-0.003,0.004c0.005,0.003,0.01,0.003,0.015,0.001c0.005-0.002,0.01-0.004,0.016-0.005
					c0.005,0,0.01,0.001,0.015,0.001c0.006-0.005,0.011-0.01,0.017-0.016l0,0c0.027-0.003,0.039-0.021,0.012-0.035
					c-0.03-0.016-0.055-0.031-0.075-0.058c-0.01-0.011-0.009-0.021,0-0.031c0.005-0.005,0.011-0.005,0.017,0
					c0.005,0.005,0.01,0.011,0.016,0.017c0.004-0.007,0.01-0.011,0.015-0.017c0.005-0.005,0.005-0.013,0.002-0.019
					c-0.001-0.002-0.001-0.002-0.002-0.003c0.007-0.019,0.01-0.038,0-0.056c-0.002,0-0.002-0.002-0.004-0.006l0,0
					c0.001,0.002,0,0.004,0.004,0.006c0-0.006,0-0.01,0-0.014V13.56c0.022,0.002,0.04,0.012,0.055,0.025
					c0.045,0.037,0.17,0.1,0.23,0.112l0.005-0.001L3.487,13.7c0.017,0.015,0.041,0.021,0.063,0.028H3.549
					c0.007,0.011,0.022,0.009,0.032,0.015l-0.001-0.001c0.007,0.014,0.021,0.011,0.034,0.017l-0.002-0.002
					c0.007,0.014,0.022,0.012,0.032,0.017H3.642c0.01,0.015,0.028,0.011,0.042,0.017c0.002,0,0.004-0.002,0.006,0
					c0.045,0.024,0.09,0.045,0.14,0.046v-0.001c0.022,0.029,0.055,0.029,0.089,0.035c0.045,0.006,0.092,0.008,0.135,0.023
					c0.102,0.034,0.207,0.044,0.309,0.05c0.14,0.009,0.28,0.03,0.423,0.021c0.038-0.002,0.077,0.005,0.114,0.004
					c0.046,0,0.096,0.01,0.139-0.022c0.007-0.006,0.018-0.005,0.025,0c0.034,0,0.068,0.005,0.1-0.006
					c0.042-0.017,0.085-0.039,0.128,0.004c0.01,0.008,0.035,0,0.052,0.003c0.068,0.009,0.134-0.019,0.2-0.015
					c0.118,0.008,0.22-0.034,0.318-0.092c0.029-0.001,0.06,0.006,0.085-0.004c0.068-0.023,0.139-0.004,0.207-0.021
					c0.007-0.002,0.016-0.004,0.021,0.002c0.005,0.009-0.005,0.029,0.015,0.029c0.015-0.002,0.01-0.021,0.018-0.031
					c0.02-0.023,0.068-0.033,0.071-0.016c0.009,0.044,0.039,0.021,0.044,0.014c0.02-0.033,0.058-0.032,0.083-0.05
					c0-0.003-0.004-0.003-0.005-0.005c0,0,0.001,0,0.002,0l0.002,0.005c0.088-0.008,0.174-0.013,0.249-0.063
					c-0.001-0.003-0.004-0.003-0.006-0.005c0.001,0,0.002,0,0.002,0l0.004,0.005c0.059-0.003,0.118-0.007,0.155-0.063
					c-0.001,0-0.002-0.002-0.004-0.003l0,0l0.004,0.003c0.029-0.002,0.061,0.004,0.076-0.031l-0.002-0.004c0,0,0,0,0.001-0.002
					c0,0.003,0.001,0.006,0.001,0.006c0.03,0,0.058-0.007,0.078-0.031L6.96,13.572c0,0,0,0,0-0.001
					c0.001,0.002,0.002,0.004,0.002,0.004c0.062-0.021,0.124-0.043,0.173-0.092c-0.003-0.002-0.005-0.004-0.005-0.006l0,0
					l0.005,0.006c0.037-0.009,0.07-0.027,0.092-0.063c-0.002-0.003-0.003-0.004-0.005-0.006l0,0l0.005,0.006
					c0.02-0.002,0.037-0.012,0.045-0.031L7.27,13.386v-0.002c0.001,0.002,0.002,0.004,0.002,0.006
					c0.033-0.006,0.062-0.017,0.078-0.047c0.005-0.005,0.01-0.01,0.015-0.015l-0.002-0.004c0,0,0-0.001,0.001-0.001
					c0.001,0.001,0.001,0.002,0.001,0.005c0.031-0.003,0.047-0.024,0.064-0.046c-0.001-0.002-0.002-0.003-0.004-0.004l0,0
					l0.004,0.004c0.011-0.003,0.022-0.004,0.029-0.016c0.006-0.006,0.012-0.013,0.018-0.017c0.005-0.007,0.01-0.012,0.014-0.018
					c0.006-0.004,0.011-0.01,0.016-0.015s0.01-0.011,0.015-0.017c0-0.004,0-0.01,0-0.015c0.015-0.006,0.026-0.017,0.03-0.032v0.001
					c0.013-0.014,0.035,0,0.048-0.018l-0.002,0.001c0.01-0.007,0.025-0.004,0.034-0.014l0.003-0.002h0.006
					c0.014,0.001,0.029,0.001,0.037-0.013l-0.001-0.004h0.001c0,0.001,0,0.003,0,0.004c0.045-0.007,0.09-0.014,0.125-0.046
					l-0.004-0.004c0-0.002,0.001-0.002,0.001-0.003c0,0.003,0.001,0.004,0.002,0.007c0.038-0.002,0.075-0.002,0.112-0.002
					c0.023,0,0.039-0.005,0.043-0.029v-0.002l0,0v0.002c0.005-0.006,0.01-0.012,0.015-0.017v-0.001l0,0v0.001
					c0.017-0.001,0.034,0.003,0.045-0.014c0.005,0,0.01-0.001,0.016-0.003c0.013-0.014,0.034-0.001,0.046-0.015
					c0.016-0.003,0.031-0.006,0.029-0.026c-0.001-0.014-0.014-0.019-0.026-0.02c-0.018,0-0.035-0.001-0.048,0.014
					c0.008,0.008,0.024,0.002,0.037,0.003c-0.013-0.001-0.024-0.007-0.037-0.003l-0.002,0.002c-0.002,0.005-0.007,0.01-0.012,0.014
					c-0.005,0.001-0.01,0.002-0.015,0.002c-0.03-0.02,0.002-0.041,0-0.061l-0.006-0.005c0-0.001,0-0.001,0.001-0.002
					C8,12.904,8.001,12.906,8.003,12.909c0.016-0.014,0.049-0.017,0.042-0.046c-0.007-0.031,0.007-0.06,0.001-0.09
					c-0.014-0.059,0.009-0.101,0.051-0.141c0.035-0.034,0.078-0.045,0.123-0.051l0.007-0.002l0.005,0.003
					c0.008,0.006,0.012,0.005,0.015-0.004L8.246,12.58c0.01-0.002,0.014-0.009,0.019-0.015c0.031,0.002,0.046-0.02,0.054-0.045
					C8.331,12.472,8.339,12.425,8.313,12.378z M5.441,10.828c0,0.002,0,0.002,0,0.004C5.441,10.831,5.441,10.83,5.441,10.828
					L5.441,10.828L5.441,10.828L5.441,10.828L5.441,10.828z M1.979,12.815L1.979,12.815L1.979,12.815
					C1.979,12.815,1.979,12.815,1.979,12.815z M2.14,12.859c-0.005,0.002-0.01,0.004-0.016,0.004
					c0.002-0.001,0.004-0.002,0.006-0.005C2.133,12.859,2.138,12.858,2.14,12.859z M2.293,12.875c-0.007,0-0.015,0-0.022,0
					c0.001-0.001,0.004,0,0.005-0.001C2.282,12.875,2.288,12.874,2.293,12.875z M3.973,10.912c0-0.004-0.001-0.009,0.001-0.011
					c0.002-0.002,0.005,0,0.006-0.002C3.977,10.905,3.973,10.907,3.973,10.912z M2.228,11.604L2.228,11.604
					c0.001-0.002,0.003-0.005,0.005-0.007C2.231,11.599,2.23,11.602,2.228,11.604z M2.478,11.635v0.001
					c-0.002,0-0.002,0.001-0.005,0.003C2.475,11.637,2.478,11.638,2.478,11.635z M4.153,10.952L4.153,10.952L4.153,10.952
					L4.153,10.952z M7.507,11.811c-0.005-0.003-0.004-0.009-0.006-0.014c0.002,0.005,0.005,0.011,0.01,0.014
					C7.508,11.811,7.508,11.813,7.507,11.811z M7.893,12.97C7.893,12.969,7.893,12.969,7.893,12.97
					c0.001-0.001,0.003-0.001,0.003-0.002C7.896,12.969,7.895,12.969,7.893,12.97z M3.303,13.55c0.002,0,0.002-0.003,0.004-0.002
					c0,0-0.001,0.002-0.003,0.003C3.304,13.551,3.303,13.551,3.303,13.55z M3.369,11.531c0.002-0.005,0.005-0.01,0.006-0.015l0,0
					c-0.003,0.006-0.005,0.014-0.006,0.021c0-0.007-0.002-0.014-0.005-0.02l0,0C3.367,11.523,3.368,11.528,3.369,11.531z
					 M3.672,11.745c0.007,0.01,0.015,0.02,0.022,0.028c-0.005,0.001-0.015,0.004-0.024,0.006C3.666,11.771,3.662,11.76,3.672,11.745
					z M7.227,11.71c-0.008,0.001-0.011,0.007-0.015,0.012c0.001-0.003-0.001-0.007,0.001-0.009
					C7.218,11.711,7.221,11.711,7.227,11.71z M7.319,11.698c-0.002-0.001-0.003,0-0.006,0c0.003-0.001,0.005-0.002,0.006-0.004
					C7.319,11.695,7.319,11.697,7.319,11.698z M6.026,13.697l0.002-0.001c0,0,0.001,0,0.001,0.001
					C6.029,13.697,6.028,13.697,6.026,13.697z M4.057,13.648c0,0,0,0,0-0.002C4.057,13.648,4.057,13.648,4.057,13.648L4.057,13.648z
					 M2.938,12.979L2.938,12.979c-0.001,0-0.001,0-0.002,0C2.936,12.979,2.936,12.979,2.938,12.979z M2.743,11.664L2.743,11.664
					L2.743,11.664L2.743,11.664z M6.715,13.327L6.715,13.327L6.715,13.327L6.715,13.327z M5.756,13.585
					c-0.005-0.004-0.009,0.004-0.015,0.001c0.007-0.003,0.007-0.007,0.009-0.011C5.752,13.578,5.754,13.581,5.756,13.585z
					 M3.567,13.018l-0.004,0.004c0,0,0.001-0.004,0.001-0.002c0.001-0.002,0-0.002,0.001-0.003c0.029-0.02,0.058-0.042,0.082-0.069
					l0,0C3.612,12.963,3.581,12.979,3.567,13.018z M3.884,11.537c0,0,0,0,0-0.001C3.884,11.537,3.884,11.538,3.884,11.537
					L3.884,11.537z M6.074,11.16c0.001-0.001,0.002-0.001,0.002-0.003c0,0,0,0.002,0,0.003C6.077,11.16,6.075,11.16,6.074,11.16z
					 M7.374,12.973c-0.001,0-0.001-0.001-0.001,0c0,0,0,0,0.001-0.001V12.973z M6.516,13.184c0,0.002,0.001,0.002,0.002,0.004
					c-0.001,0-0.001-0.001-0.001-0.001C6.517,13.186,6.515,13.186,6.516,13.184z M4.076,11.775c0.003-0.004,0.004-0.011,0.01-0.011
					C4.081,11.767,4.079,11.771,4.076,11.775L4.076,11.775L4.076,11.775z M5.912,11.131c0.001,0.002,0.005,0.008,0.002,0.01
					c0-0.002-0.001-0.005-0.002-0.008C5.912,11.132,5.912,11.131,5.912,11.131z M6.589,11.771c0,0,0,0,0,0.001c0,0,0,0,0,0.001
					c0.003,0.002,0.01,0.002,0.006,0.006c-0.001,0.002-0.005-0.001-0.006-0.003c0-0.003,0-0.002,0-0.003v-0.001
					C6.588,11.771,6.589,11.771,6.589,11.771z M6.601,11.753c0.004-0.004,0.009,0,0.014,0.001c-0.005,0.002-0.008,0.003-0.01,0.008
					C6.604,11.758,6.597,11.757,6.601,11.753z M7.195,12.094c-0.01,0-0.018-0.001-0.026-0.001c0.003-0.005,0.009-0.011,0.01-0.015
					C7.184,12.085,7.19,12.088,7.195,12.094z M7.565,12.398c0-0.001,0-0.002,0-0.004c0,0,0.001,0,0.002,0
					C7.567,12.396,7.565,12.398,7.565,12.398z M4.916,13.481c0,0-0.004,0-0.002-0.002C4.913,13.481,4.916,13.481,4.916,13.481
					L4.916,13.481z M3.854,13.09c0.002,0,0.006,0,0.01,0c-0.002,0.004-0.006,0.007-0.007,0.011
					C3.855,13.097,3.853,13.094,3.854,13.09z M4.479,11.573c-0.001,0-0.005,0.002-0.005,0.002s0.001-0.004,0.001-0.002
					c0.005-0.006,0.014-0.011,0.021-0.014C4.493,11.565,4.482,11.566,4.479,11.573C4.478,11.574,4.48,11.573,4.479,11.573z
					 M6.677,12.293c0.005-0.008,0.003-0.014,0-0.021C6.689,12.277,6.687,12.285,6.677,12.293z M7.055,12.411L7.055,12.411
					C7.055,12.411,7.055,12.411,7.055,12.411S7.055,12.411,7.055,12.411z M4.742,13.244c0,0,0,0-0.001,0.002
					C4.742,13.244,4.742,13.244,4.742,13.244z M3.794,12.95c-0.002-0.002-0.002-0.004-0.005-0.006c0.001,0,0.002,0.002,0.005,0.002
					C3.794,12.948,3.794,12.948,3.794,12.95z M5.866,11.908L5.866,11.908C5.866,11.908,5.866,11.908,5.866,11.908z M5.848,12.523
					c0.001,0,0.001,0,0.001,0.002c-0.015-0.004-0.022,0.004-0.031,0.011C5.825,12.53,5.836,12.526,5.848,12.523z M5.776,12.454
					c0-0.002,0.001-0.002,0.001-0.002c0.001,0.001,0.001,0.002,0.001,0.003C5.777,12.455,5.779,12.454,5.776,12.454z M5.806,12.39
					c-0.002,0-0.002,0.002-0.005,0.003c0.001-0.001,0-0.003,0.002-0.003C5.804,12.39,5.804,12.389,5.806,12.39z M5.697,12.481
					c0.001,0.001,0.001,0.004,0.001,0.005c-0.002-0.001-0.002-0.002-0.005-0.003C5.695,12.482,5.696,12.481,5.697,12.481z
					 M5.721,12.583L5.721,12.583L5.721,12.583L5.721,12.583z M5.834,12.36c0.009-0.003,0.015-0.015,0.023-0.022
					C5.852,12.35,5.844,12.358,5.834,12.36z M5.972,12.398L5.972,12.398L5.972,12.398L5.972,12.398L5.972,12.398z M5.972,12.396
					c-0.005-0.004-0.008-0.009-0.01-0.014c-0.002-0.006-0.005-0.011-0.01-0.017l0,0c0.005,0.004,0.007,0.01,0.01,0.017
					C5.964,12.387,5.966,12.392,5.972,12.396L5.972,12.396z M5.66,12.027c-0.001-0.004-0.006-0.004-0.004-0.009
					c0.005,0.001,0.01-0.001,0.015-0.001C5.666,12.019,5.664,12.023,5.66,12.027z M4.052,12.421
					c0.007-0.001,0.006-0.009,0.012-0.011c-0.003,0.004-0.002,0.008-0.005,0.011C4.057,12.418,4.057,12.425,4.052,12.421z
					 M4.185,12.333c0-0.002,0,0,0-0.002c0.001,0.002,0,0.003,0,0.003c0.001,0,0.003,0.001,0.003,0.003l0,0
					c-0.003-0.003-0.005-0.006-0.008-0.009c0-0.003-0.001-0.005-0.001-0.008c0-0.002,0.001-0.001,0.001-0.002
					C4.182,12.323,4.177,12.33,4.185,12.333z M4.235,12.278c0.004,0,0.007-0.001,0.01-0.001C4.244,12.28,4.241,12.28,4.24,12.282
					C4.237,12.28,4.236,12.281,4.235,12.278z M4.141,12.652c0.001,0.002,0,0.004,0.001,0.005c-0.002,0.001-0.003,0.003-0.006,0.003
					C4.137,12.658,4.14,12.655,4.141,12.652z M4.317,12.526C4.317,12.526,4.317,12.526,4.317,12.526L4.317,12.526
					C4.317,12.526,4.317,12.525,4.317,12.526z M4.54,12.345c-0.005,0.004-0.013,0.003-0.018,0.003
					C4.527,12.346,4.534,12.346,4.54,12.345z M4.643,12.523L4.643,12.523L4.643,12.523L4.643,12.523z M4.573,12.954
					c0.011-0.002-0.002-0.004,0-0.006c0.005,0,0.011,0,0.012,0.007c-0.005-0.005-0.007,0.001-0.01,0.003
					C4.575,12.957,4.573,12.957,4.573,12.954z M4.63,13.023c0.001,0.003,0.002,0.006,0.005,0.008c-0.005,0-0.002-0.005-0.005-0.005
					C4.63,13.025,4.63,13.025,4.63,13.023z M4.808,12.272L4.808,12.272c0.008-0.003,0.004-0.012,0.013-0.014
					c0,0.006-0.01,0.006-0.01,0.013c-0.001,0.001-0.004,0.002-0.005,0.005C4.805,12.274,4.808,12.273,4.808,12.272z M4.76,12.332
					c0,0.002,0,0.002,0,0.002H4.759L4.76,12.332z M4.82,12.336L4.82,12.336L4.82,12.336L4.82,12.336z M5.26,11.867
					c0.001-0.002,0.002,0.002,0.003,0c-0.001,0-0.002,0.002-0.002,0.002C5.261,11.868,5.258,11.867,5.26,11.867z M5.178,12.083
					c0.002,0.002,0,0.002,0,0.004c0,0,0-0.002-0.001-0.002C5.178,12.085,5.177,12.082,5.178,12.083z M5.2,12.103
					c-0.001,0.003,0.001,0.005-0.001,0.008c0-0.001-0.001-0.001-0.002-0.002C5.197,12.106,5.198,12.104,5.2,12.103z M5.156,12.326
					c-0.001,0.004-0.001,0.009-0.004,0.012c-0.006,0-0.006-0.006-0.009-0.01C5.148,12.33,5.151,12.329,5.156,12.326z M5.263,12.002
					c0-0.002,0-0.004,0-0.005C5.263,11.998,5.265,12,5.263,12.002z M4.869,12.34c-0.001,0.003-0.004-0.001-0.006-0.001
					c0.004,0,0.006-0.001,0.009-0.001C4.871,12.338,4.871,12.338,4.869,12.34z M4.51,12.116L4.51,12.116L4.51,12.116L4.51,12.116
					l0.001,0.002L4.51,12.116L4.51,12.116z M4.369,12.46L4.369,12.46c0.001,0,0.001-0.002,0.001-0.004c0,0.001,0,0.001,0,0.001
					s0,0,0.001,0C4.37,12.458,4.37,12.46,4.369,12.46z M4.542,13.031c0.001,0,0,0.002,0,0.002c-0.001,0-0.002,0-0.004,0.001
					C4.538,13.033,4.54,13.033,4.542,13.031z M5.654,12.609c0,0.001,0,0.001,0,0.002C5.652,12.61,5.648,12.61,5.646,12.61
					C5.648,12.607,5.651,12.611,5.654,12.609z M5.666,11.874c-0.001,0-0.001-0.001-0.002-0.001c0.001,0,0.002-0.001,0.002-0.001
					C5.666,11.873,5.666,11.873,5.666,11.874z M4.624,11.933c-0.001,0.001-0.001,0.001-0.004,0.002l0,0
					C4.623,11.936,4.623,11.934,4.624,11.933z M4.25,12.64L4.25,12.64L4.25,12.64L4.25,12.64z M4.375,12.456
					c0.006-0.003,0.014-0.007,0.018-0.005c0.005,0.003,0.011,0.002,0.016,0.006C4.397,12.458,4.388,12.451,4.375,12.456z
					 M4.748,12.859c0-0.003-0.002-0.01-0.002-0.014C4.75,12.849,4.753,12.854,4.748,12.859z M4.887,12.994
					c0.004,0.003,0.004,0.005,0.004,0.008c-0.003,0.001-0.005,0.001-0.008,0.001C4.885,13,4.884,12.997,4.887,12.994z M6.142,11.928
					c0,0,0,0,0,0.001V11.928L6.142,11.928z M6.152,12.036c0,0.002,0,0.002,0,0.003C6.152,12.037,6.152,12.037,6.152,12.036
					L6.152,12.036z M5.021,11.911L5.021,11.911c0.001,0,0.001,0,0.002,0C5.022,11.911,5.022,11.911,5.021,11.911z M4.985,11.845
					l0.001-0.001c0,0.001,0.001,0.002,0.001,0.004C4.988,11.847,4.985,11.847,4.985,11.845z M4.788,11.739
					c-0.017-0.013-0.001-0.025,0.008-0.038c-0.002,0.026,0.005,0.047,0.021,0.061C4.807,11.753,4.798,11.748,4.788,11.739z
					 M4.481,12.065l-0.002,0.002C4.48,12.065,4.481,12.064,4.481,12.065C4.482,12.064,4.481,12.064,4.481,12.065z M3.584,12.735
					c-0.002,0.001-0.003,0.003-0.005,0.004v-0.001c-0.002-0.001-0.001-0.003-0.002-0.004c0.002-0.002,0.001,0.002,0.005,0.001
					c-0.001,0-0.002,0.001-0.002,0.003C3.582,12.736,3.582,12.736,3.584,12.735z M3.764,12.786c-0.001,0.001-0.002,0-0.005,0
					c0.001,0,0.002,0,0.002-0.001C3.763,12.786,3.764,12.786,3.764,12.786z M4.82,13.07L4.82,13.07c0,0.002,0.006,0.004,0.005,0.008
					c0,0.002,0,0.005-0.002,0.008H4.82C4.823,13.079,4.82,13.075,4.82,13.07z M5.994,11.57c0,0.001,0.002,0.001,0.001,0.002
					c-0.001,0.001-0.001-0.002-0.001,0C5.994,11.571,5.994,11.571,5.994,11.57z M5.861,11.831c0.006,0,0.013,0.001,0.02-0.002
					C5.874,11.832,5.868,11.829,5.861,11.831z M5.635,11.293h0.001c-0.002,0-0.002-0.001-0.005-0.001
					C5.63,11.29,5.628,11.29,5.627,11.289C5.63,11.29,5.632,11.292,5.635,11.293z M5.333,11.217L5.333,11.217H5.332l0,0H5.331
					C5.332,11.217,5.332,11.217,5.333,11.217z M5.007,11.356C5.007,11.356,5.007,11.356,5.007,11.356C5.004,11.36,5,11.362,5,11.369
					C5,11.364,5.003,11.36,5.007,11.356L5.007,11.356z M5.028,11.734c-0.001,0-0.001,0.002-0.002,0.003c0,0,0,0-0.001-0.001
					C5.025,11.735,5.025,11.734,5.028,11.734z M4.92,11.693c0.013-0.031-0.002-0.044-0.01-0.062c0.003,0.026,0.012,0.05,0.027,0.069
					C4.931,11.7,4.928,11.69,4.92,11.693z M4.56,11.591c0,0.005-0.007,0.004-0.007,0.008c0.001-0.005,0.007-0.009,0.007-0.015
					C4.56,11.586,4.559,11.589,4.56,11.591z M4.498,11.617L4.498,11.617c0,0.002-0.001,0.002-0.002,0.002
					C4.498,11.618,4.496,11.618,4.498,11.617z M3.548,12.738L3.548,12.738L3.548,12.738L3.548,12.738z M4.634,13.317
					c0,0.002,0.002-0.002,0.002,0C4.636,13.317,4.635,13.317,4.634,13.317C4.634,13.317,4.633,13.317,4.634,13.317z M6.944,13.254
					c-0.001,0.004-0.009,0.003-0.009,0.011c0,0-0.002,0-0.004,0C6.933,13.258,6.94,13.258,6.944,13.254z M7.31,12.948
					c0,0.002,0,0.005,0,0.007c-0.002-0.003-0.005,0-0.007-0.001C7.308,12.953,7.305,12.948,7.31,12.948z M7.348,12.8
					c0.001,0.001,0.002,0.002,0.002,0.003c0-0.001-0.001-0.001-0.002-0.002V12.8z M7.438,12.683c0.002-0.004,0-0.005,0-0.009
					c0.002,0.001,0.003,0.001,0.005,0.002C7.44,12.678,7.441,12.681,7.438,12.683z M7.388,12.606c-0.002-0.001-0.003,0-0.005-0.001
					c0.002,0,0.005,0,0.007,0C7.389,12.605,7.388,12.607,7.388,12.606z M6.913,11.871c0,0.002,0,0.007-0.004,0.002
					c0-0.002-0.001-0.004-0.002-0.006C6.907,11.868,6.911,11.868,6.913,11.871z M6.709,12.033L6.709,12.033
					c-0.002-0.002-0.005-0.005-0.007-0.006c0-0.002-0.001-0.002-0.002-0.003c-0.018-0.015-0.031-0.007-0.045,0.005
					c-0.001-0.002-0.002-0.004-0.002-0.005c0.001-0.002,0.003,0,0.005-0.002c0.014,0,0.027,0,0.041,0L6.7,12.024l0,0
					C6.702,12.028,6.705,12.032,6.709,12.033z M6.607,12.183c0.008-0.01,0-0.02-0.003-0.03C6.607,12.162,6.609,12.172,6.607,12.183z
					 M6.342,11.922c0.001,0.007,0.004,0.015,0.007,0.021C6.344,11.939,6.342,11.929,6.342,11.922z M6.054,11.451
					c0-0.006,0-0.011-0.005-0.015c0.005,0.001,0.009-0.005,0.013-0.001C6.07,11.442,6.059,11.446,6.054,11.451z M5.051,11.326
					c0.006-0.007,0.012-0.015,0.025-0.015C5.065,11.315,5.058,11.32,5.051,11.326z M4.991,11.306
					c0.007,0.006,0.015,0.013,0.015,0.022C5.005,11.316,4.998,11.313,4.991,11.306z M4.493,11.62v-0.001h0.001
					C4.493,11.62,4.493,11.62,4.493,11.62c0,0.002-0.001,0.002-0.001,0.004c-0.024,0.009-0.034,0.041-0.066,0.04
					C4.45,11.654,4.48,11.65,4.493,11.62z M4.339,11.823c-0.004,0.005-0.006,0.009-0.01,0.014c0.001-0.005-0.002-0.009-0.004-0.013
					C4.33,11.824,4.335,11.82,4.339,11.823z M4.201,11.513c0-0.002-0.001-0.002-0.001-0.002c0.001,0,0.002-0.001,0.002-0.001
					S4.201,11.511,4.201,11.513z M3.455,12.461c-0.001,0-0.001,0.002-0.001,0.002c-0.001,0,0-0.002-0.001-0.002
					C3.454,12.461,3.454,12.461,3.455,12.461z M3.719,13.078c0-0.002,0-0.003,0.001-0.004c0.001,0.001,0.001,0.002,0.001,0.004
					H3.719z M3.93,13.422c0,0-0.001,0.001-0.002,0.001c0-0.002,0-0.004-0.001-0.005C3.927,13.418,3.928,13.422,3.93,13.422z
					 M4.94,13.425c-0.006,0.012-0.01,0.025-0.011,0.037C4.928,13.446,4.934,13.436,4.94,13.425z M6.342,12.333
					c0,0.001,0,0.002,0,0.004C6.34,12.336,6.342,12.335,6.342,12.333L6.342,12.333z M6.357,12.531
					c0.002,0.002,0.007,0.001,0.01,0.001c-0.002,0.002-0.007,0.002-0.01,0.003C6.357,12.534,6.357,12.532,6.357,12.531z
					 M7.055,13.09c0.002-0.004-0.005-0.007,0-0.011c0.002,0,0.002,0.003,0.005,0.004C7.058,13.086,7.056,13.086,7.055,13.09z
					 M7.5,12.583c-0.001,0.002,0,0.002-0.001,0.004c0,0-0.003,0-0.006,0C7.496,12.587,7.498,12.585,7.5,12.583z M6.227,11.655
					c-0.003-0.003-0.002-0.006-0.003-0.009c0.003,0.001,0.006,0.001,0.01,0.001C6.229,11.65,6.229,11.654,6.227,11.655z
					 M6.23,11.486c0.001,0.001-0.001,0.001-0.001,0.002c0-0.001,0-0.002,0-0.003C6.229,11.486,6.23,11.486,6.23,11.486z
					 M6.004,11.106L6.004,11.106L6.004,11.106L6.004,11.106z M4.864,11.313c-0.005,0.001-0.01,0.004-0.017,0.005
					c0.005-0.002,0.008-0.006,0.01-0.006S4.863,11.313,4.864,11.313z M4.012,11.759L4.012,11.759c0.02-0.011,0.025-0.046,0.05-0.044
					c0.004,0,0.005-0.002,0.008-0.002c-0.022,0.01-0.05,0.014-0.055,0.046c-0.009,0.018,0.005,0.023,0.016,0.031
					c-0.001,0-0.001,0-0.001,0c0.007,0.02,0.023,0.031,0.046,0.031c0-0.002,0-0.003,0-0.003c0.014,0.006,0.032,0.005,0.033,0.007
					c-0.001-0.002-0.016,0-0.029-0.005c0,0,0,0-0.001,0c0,0,0,0,0.001,0c-0.002,0-0.002,0.001-0.004,0
					C4.062,11.807,4.044,11.8,4.027,11.79c0.001,0,0.001,0,0.002,0C4.024,11.78,4.02,11.769,4.012,11.759
					C4.012,11.759,4.012,11.76,4.012,11.759C4.012,11.759,4.012,11.759,4.012,11.759z M3.997,11.792
					c-0.005,0.002-0.011-0.001-0.018,0.002c0,0,0.001-0.001,0.002-0.002C3.987,11.792,3.992,11.793,3.997,11.792z M3.579,12.101
					L3.579,12.101c-0.002-0.003-0.006-0.006-0.01-0.01c-0.001-0.002-0.002-0.004-0.005-0.005c0-0.001,0,0,0-0.001
					c0.003,0.002,0.005,0.005,0.005,0.006c0.005,0.003,0.007,0.006,0.011,0.009C3.579,12.1,3.579,12.101,3.579,12.101z
					 M3.572,12.012L3.572,12.012c-0.002,0.004-0.005,0.008-0.008,0.011c-0.001,0-0.001,0-0.001,0
					C3.565,12.019,3.569,12.016,3.572,12.012z M3.424,11.992L3.424,11.992c0-0.001,0.001-0.001,0.001-0.001l0,0
					C3.425,11.991,3.425,11.992,3.424,11.992z M2.943,12.3v0.001H2.942c0,0-0.001,0-0.001-0.001C2.942,12.3,2.943,12.3,2.943,12.3z
					 M3.421,12.54c-0.012-0.011-0.027-0.014-0.045-0.013C3.393,12.527,3.407,12.531,3.421,12.54z M4.397,13.732
					c0,0.001,0,0.003-0.001,0.003c-0.001,0,0.001-0.002,0-0.003C4.397,13.732,4.397,13.732,4.397,13.732z M4.683,13.456
					c0.005-0.003,0.005-0.008,0.01-0.008c0.001,0.002,0,0.004,0.002,0.005l0.001-0.001c0.001,0.001,0.001,0.004,0.001,0.005
					c-0.001-0.001-0.001-0.003-0.002-0.004C4.69,13.45,4.688,13.456,4.683,13.456L4.683,13.456z M4.928,13.526c0,0,0,0,0.001,0
					c0,0,0,0,0,0.002C4.928,13.528,4.928,13.528,4.928,13.526z M5.036,13.374c0.005,0.004-0.002,0.01,0,0.013
					c-0.002-0.003-0.001-0.007-0.005-0.011C5.033,13.377,5.033,13.372,5.036,13.374z M5.081,13.17
					c0.001-0.004,0.002-0.007,0.005-0.01C5.083,13.163,5.082,13.166,5.081,13.17z M5.173,13.155c0,0,0,0.001,0,0.003
					c0-0.002-0.002,0.001-0.004-0.002C5.171,13.156,5.172,13.155,5.173,13.155z M5.888,13.271c0.002,0,0.009,0,0.01,0
					C5.894,13.271,5.892,13.271,5.888,13.271z M6.072,13.282c0.002,0.004,0.008,0.006,0.01,0.01
					c-0.005,0.001-0.005-0.006-0.01-0.006C6.072,13.284,6.073,13.283,6.072,13.282z M6.254,12.89c0.002-0.01,0-0.021-0.005-0.03
					c0.008,0.003,0.015,0.005,0.019,0.011C6.267,12.88,6.259,12.884,6.254,12.89z M7.761,12.764
					c0.005,0.013,0.012,0.025,0.018,0.038c-0.006-0.014-0.013-0.029-0.025-0.039C7.756,12.764,7.759,12.761,7.761,12.764z
					 M7.823,12.74c0.002,0,0.002,0,0.005-0.001C7.826,12.74,7.826,12.74,7.823,12.74z M7.13,11.854
					c0.004-0.006,0.005-0.011,0.005-0.016C7.135,11.843,7.135,11.849,7.13,11.854z M6.902,11.709c-0.001-0.001,0.002-0.002,0-0.004
					c0.002,0.001,0.002,0.004,0.004,0.004C6.905,11.71,6.904,11.708,6.902,11.709z M6.717,11.719c-0.002,0-0.002,0-0.004,0
					c0.001-0.001,0.001-0.002,0.001-0.004C6.715,11.717,6.717,11.718,6.717,11.719z M6.621,11.52L6.621,11.52
					c0.001,0,0.001,0,0.001,0S6.622,11.52,6.621,11.52z M6.139,11.325c0,0,0,0,0-0.002C6.139,11.325,6.14,11.325,6.139,11.325
					L6.139,11.325z M5.924,11.035L5.924,11.035c0,0,0,0.001,0.001,0.002C5.924,11.036,5.924,11.035,5.924,11.035z M5.537,11.079
					L5.537,11.079c-0.001,0,0,0,0.001,0C5.539,11.079,5.539,11.079,5.537,11.079z M5.519,11.105c0,0.001,0,0.001,0,0.002
					c0,0,0,0-0.001,0C5.519,11.106,5.519,11.106,5.519,11.105z M4.605,11.299c-0.001,0.003,0.005,0.007,0,0.011
					c-0.005,0.003-0.003-0.004-0.006-0.006C4.6,11.302,4.603,11.301,4.605,11.299z M3.827,11.883c0,0,0,0,0-0.001V11.883
					L3.827,11.883z M3.238,12.002L3.238,12.002c-0.001,0.001-0.001,0.005-0.004,0.003C3.236,12.005,3.236,12.003,3.238,12.002z
					 M3.255,11.958c-0.001-0.005-0.001-0.009-0.001-0.013c0-0.012-0.01-0.005-0.015-0.006c0-0.002,0-0.002,0-0.002
					c0.002,0.002,0.005,0.002,0.008,0.002c0.002,0.002,0.005,0.004,0.007,0.005c0.002,0,0.001,0.004,0.004,0.005
					C3.256,11.953,3.256,11.956,3.255,11.958z M2.934,12.734c-0.002,0-0.005-0.003-0.009-0.002
					C2.929,12.731,2.931,12.734,2.934,12.734z M3.164,13.09c-0.002-0.004-0.003-0.008-0.007-0.011c0.001,0,0.002-0.001,0.004-0.001
					C3.16,13.082,3.164,13.086,3.164,13.09z M3.319,13.124c-0.001-0.003,0-0.003-0.001-0.005c0.001,0.002,0.003,0.002,0.003,0.002
					C3.321,13.123,3.319,13.123,3.319,13.124z M3.589,13.096L3.589,13.096c0,0.001,0,0.002,0,0.002S3.589,13.097,3.589,13.096z
					 M4.21,13.523c0,0.001,0.001,0.001,0.001,0.002c0,0.002-0.001,0.002-0.002,0.002C4.21,13.524,4.21,13.523,4.21,13.523z
					 M4.175,13.725c-0.005,0.007-0.01,0.008-0.016,0.014c0.003-0.01-0.004-0.005-0.001-0.011C4.161,13.731,4.17,13.725,4.175,13.725
					z M4.63,13.696c0.001,0,0.002,0.001,0.002,0.001c-0.001,0-0.002,0.001-0.005,0.001C4.63,13.698,4.627,13.696,4.63,13.696z
					 M5.198,13.215c0.002,0.012,0.005,0.014,0.007,0.021c-0.005-0.003-0.011-0.001-0.016,0C5.193,13.229,5.196,13.223,5.198,13.215z
					 M7.891,12.238L7.891,12.238L7.891,12.238c0.002,0,0.002-0.001,0.002,0c0,0.001-0.001,0.001-0.002,0.004
					C7.891,12.241,7.891,12.24,7.891,12.238z M7.621,12.332c0,0.002,0.002,0.004,0.001,0.005c-0.002,0.002-0.003-0.003-0.006-0.002
					C7.618,12.335,7.619,12.333,7.621,12.332z M7.04,11.769c0-0.004,0-0.005,0-0.007c0.002,0.001,0.002,0,0.005,0.003
					C7.041,11.767,7.042,11.767,7.04,11.769z M6.626,10.993c0.003-0.001,0.006-0.005,0.011-0.005c0,0.002,0.002,0.005,0.002,0.008
					C6.637,10.993,6.629,10.995,6.626,10.993z M6.158,11.19c0.021-0.015,0.045-0.024,0.069-0.026
					C6.202,11.166,6.177,11.171,6.158,11.19z M3.831,11.749c-0.001,0.004,0.004,0.004,0.004,0.008
					c-0.002-0.003-0.004-0.005-0.007-0.008C3.83,11.749,3.83,11.749,3.831,11.749z M3.734,11.745c0,0.002,0,0.002,0,0.002
					l-0.002-0.002H3.734z M3.332,11.542H3.33c0,0,0,0-0.001,0C3.33,11.542,3.33,11.542,3.332,11.542z M2.74,11.649
					C2.741,11.649,2.741,11.649,2.74,11.649c0.001,0.002,0.001,0.002,0.001,0.002H2.738c0-0.001,0-0.002,0-0.002H2.74z
					 M2.741,12.691c0.01-0.005,0.018-0.01,0.028-0.013c0.005-0.001,0.007,0.001,0.011,0.001C2.766,12.684,2.751,12.676,2.741,12.691
					L2.741,12.691z M3.928,13.764c-0.001,0.001-0.001,0.001-0.001,0.003c-0.004-0.008-0.008-0.014-0.01-0.02
					C3.921,13.751,3.924,13.759,3.928,13.764z M4.032,13.63c0.001,0,0.001,0,0.002,0c-0.001,0-0.002,0.001-0.002,0.001V13.63z
					 M4.17,13.419c0.001-0.001,0.003-0.002,0.005-0.004c0,0.002-0.001,0.003-0.001,0.004C4.172,13.419,4.17,13.419,4.17,13.419
					v0.002c-0.002-0.002-0.005-0.003-0.008-0.004C4.166,13.415,4.165,13.421,4.17,13.419z M4.16,13.753
					c0.013-0.002,0.03,0.01,0.022,0.031c-0.007-0.012-0.015-0.023-0.026-0.033C4.157,13.751,4.157,13.753,4.16,13.753z
					 M5.243,13.784c-0.002,0-0.002,0.002-0.003,0.002c-0.001,0,0.001-0.002,0-0.002C5.241,13.784,5.242,13.784,5.243,13.784z
					 M5.494,13.753c-0.002,0.011,0.003,0.018,0.005,0.027c-0.007-0.01-0.016-0.014-0.027-0.012
					C5.479,13.763,5.486,13.763,5.494,13.753z M6.063,13.653c0.001-0.002,0.003,0,0.006-0.001c0,0.001-0.001,0.001-0.001,0.003
					C6.066,13.655,6.064,13.653,6.063,13.653z M6.815,13.491c0,0.004-0.005,0.004-0.005,0.006c-0.001,0-0.002,0-0.002,0
					C6.81,13.495,6.813,13.493,6.815,13.491z M6.914,13.513c0-0.002,0-0.002,0.001-0.003c0,0.001,0,0.003,0,0.003
					S6.915,13.513,6.914,13.513z M7.304,13.125l-0.001-0.001l0,0C7.304,13.124,7.304,13.125,7.304,13.125
					c0.001,0,0.002,0.002,0.003,0.002c-0.01,0.025-0.005,0.046,0.019,0.061c-0.001,0-0.004,0-0.006,0
					C7.315,13.168,7.31,13.146,7.304,13.125z M7.859,12.92c-0.001,0.003-0.003,0.006-0.003,0.009c0-0.004,0.001-0.008,0-0.011
					C7.856,12.92,7.859,12.919,7.859,12.92z M7.413,11.864c0.01,0.002,0.021,0.009,0.03,0.017
					C7.433,11.874,7.423,11.868,7.413,11.864z M5.774,10.945c-0.002-0.003-0.005-0.001-0.008-0.003
					c0.006-0.001,0.013-0.006,0.018-0.009C5.781,10.937,5.776,10.939,5.774,10.945z M4.748,11.192L4.748,11.192
					c-0.007,0.001-0.015,0.005-0.02,0.011c0-0.002-0.001-0.002-0.001-0.004c0.006-0.002,0.011-0.005,0.019-0.007
					C4.745,11.192,4.747,11.192,4.748,11.192z M2.692,11.623L2.692,11.623c-0.007-0.007-0.016-0.009-0.025-0.011
					c0.001,0,0.001,0,0.001,0C2.676,11.615,2.683,11.619,2.692,11.623z M2.909,11.891c-0.001-0.001-0.005,0-0.005-0.001
					c-0.005-0.005-0.01-0.003-0.015-0.007C2.894,11.888,2.902,11.885,2.909,11.891z M3.319,12.065c0,0.002,0,0.002,0,0.002
					s0,0.002-0.001,0.002H3.316C3.318,12.067,3.319,12.067,3.319,12.065z M2.772,12.505c-0.009,0.004-0.014,0.011-0.021,0.019
					c0,0,0-0.001-0.001-0.001c0.009-0.005,0.015-0.011,0.019-0.021C2.771,12.502,2.77,12.503,2.772,12.505z M2.781,12.701
					c0.006,0.004,0.013,0,0.02,0.002c-0.01,0.003-0.02,0.004-0.026,0.011C2.776,12.71,2.778,12.706,2.781,12.701z M2.711,12.97
					c-0.001,0-0.001,0-0.002,0l0,0C2.709,12.97,2.711,12.969,2.711,12.97L2.711,12.97z M3.412,13.593
					c-0.004,0.01-0.005,0.023-0.011,0.021c-0.001-0.001-0.004-0.001-0.006-0.001C3.404,13.61,3.409,13.602,3.412,13.593z
					 M3.764,13.669c0,0.004,0.005,0.008,0.003,0.014c-0.003-0.008-0.006-0.014-0.01-0.021C3.759,13.663,3.762,13.666,3.764,13.669z
					 M3.817,13.727c-0.005,0.008-0.01,0.016-0.018,0.023C3.807,13.743,3.812,13.735,3.817,13.727z M5.051,13.78
					c0.001,0.001,0.001,0.001,0.002,0.002c-0.001,0.002-0.002,0.002-0.002,0.002C5.049,13.782,5.052,13.782,5.051,13.78z
					 M7.906,12.966L7.906,12.966l0.001,0.002H7.906C7.906,12.968,7.906,12.968,7.906,12.966z M7.965,12.74
					c-0.001,0.005,0.001,0.009,0.002,0.012c0,0.001,0,0.001,0,0.001C7.968,12.75,7.963,12.745,7.965,12.74z M8.006,12.198
					c0.002-0.001,0.002-0.004,0.002-0.005c0.005-0.009,0.015-0.003,0.022-0.005C8.023,12.191,8.013,12.191,8.006,12.198z
					 M8.159,12.329c-0.002,0.001-0.004-0.002-0.005-0.002c0-0.001,0-0.002,0-0.005C8.156,12.326,8.156,12.325,8.159,12.329z
					 M8.079,12.178c0,0.002,0.001,0.004,0,0.006c0-0.002,0-0.004-0.001-0.006C8.079,12.178,8.079,12.178,8.079,12.178z M8.124,12.43
					c0.01-0.002,0.011,0.008,0.018,0.011c-0.008-0.001-0.016-0.002-0.024,0C8.121,12.439,8.119,12.431,8.124,12.43z M8.033,12.116
					v0.002c-0.005,0-0.008,0-0.012,0c0.004-0.003,0.009-0.002,0.012-0.006C8.033,12.112,8.033,12.114,8.033,12.116z M7.627,12.158
					c0.001,0.002,0.002,0.002,0.005,0.004C7.629,12.162,7.628,12.158,7.627,12.158z M6.608,10.782
					c-0.001-0.016-0.004-0.04-0.013-0.046c0.005-0.001,0.009,0,0.014,0C6.598,10.752,6.608,10.767,6.608,10.782z M4.34,11.139
					c-0.012-0.009-0.02-0.025-0.035-0.031c0.003-0.001,0.003,0.003,0.005,0.001c0-0.001-0.001-0.002,0-0.003v0.003
					C4.311,11.127,4.316,11.142,4.34,11.139c0-0.001,0.002,0,0.002-0.001c0,0-0.001,0.001,0,0.001
					C4.341,11.139,4.341,11.139,4.34,11.139z M2.773,11.494L2.773,11.494L2.773,11.494L2.773,11.494L2.773,11.494z M2.603,11.469
					c0-0.007-0.006-0.01-0.002-0.018c0,0,0,0,0.001,0C2.597,11.459,2.603,11.462,2.603,11.469z M2.369,11.574L2.369,11.574
					L2.369,11.574L2.369,11.574z M2.227,11.65h0.001c0,0.002,0,0.006,0,0.009l0,0C2.229,11.657,2.23,11.653,2.227,11.65z
					 M2.355,11.633c0.005,0.006,0,0.013-0.001,0.018c-0.001-0.01-0.009-0.014-0.018-0.015C2.343,11.631,2.348,11.627,2.355,11.633z
					 M2.866,12.256c-0.001,0-0.001,0-0.003,0c0.001,0,0.001-0.002,0.003-0.002V12.256z M2.478,12.458
					c0.001,0,0.002,0.001,0.005,0.001c-0.002,0.002-0.003,0-0.005,0.002C2.478,12.458,2.478,12.458,2.478,12.458z M2.725,12.536
					c0,0.001,0,0.002,0,0.004H2.723C2.725,12.539,2.723,12.538,2.725,12.536z M3.653,13.505c0.008-0.006,0.01,0.008,0.017,0.008
					c-0.008,0-0.014,0.002-0.02,0.006C3.653,13.515,3.649,13.509,3.653,13.505z M7.613,13.094L7.613,13.094L7.613,13.094
					L7.613,13.094L7.613,13.094z M7.799,13.031c0,0.002,0,0.003,0,0.006C7.799,13.035,7.798,13.033,7.799,13.031
					C7.798,13.031,7.798,13.031,7.799,13.031z M8.019,12.661H8.017C8.019,12.661,8.019,12.66,8.019,12.661
					C8.019,12.66,8.019,12.661,8.019,12.661v-0.002c0.001,0.002,0.002,0,0.005,0.002v0.001C8.021,12.661,8.02,12.661,8.019,12.661z
					 M8.281,12.394c0.001,0.002,0,0.004,0.001,0.005c-0.007-0.002-0.014,0.002-0.021,0.005C8.269,12.401,8.276,12.402,8.281,12.394z
					 M8.033,12.085c0,0.003,0,0.005,0,0.008c-0.002-0.002-0.002-0.005-0.005-0.008C8.031,12.085,8.031,12.085,8.033,12.085z
					 M7.05,11.642c0-0.002,0.002-0.005,0-0.008c0.002,0,0.002,0.002,0.005,0.002C7.052,11.637,7.051,11.639,7.05,11.642z
					 M6.989,11.625c-0.004,0-0.006,0-0.009-0.002C6.982,11.625,6.986,11.625,6.989,11.625z M6.802,11.461
					c0.042-0.025,0.083-0.05,0.094-0.102c0.001,0,0.004,0,0.006,0l0,0l0,0C6.869,11.393,6.83,11.421,6.802,11.461z M7.063,11.227
					c-0.002,0-0.002,0.003-0.007,0.003c0.007,0.013,0.002,0.022,0,0.034l0,0c0.006-0.012,0.014-0.024-0.003-0.034
					c0.003-0.001,0.003,0,0.003,0c-0.001-0.005-0.003-0.009-0.001-0.014C7.058,11.22,7.06,11.225,7.063,11.227z M4.333,10.91
					c-0.002-0.002-0.008,0-0.01-0.002c0.002,0,0.005,0,0.008,0C4.33,10.91,4.331,10.908,4.333,10.91z M2.496,11.485
					c0.01-0.006,0.018-0.024,0.022-0.044c-0.007,0.014-0.016,0.027-0.012,0.047C2.503,11.488,2.5,11.486,2.496,11.485z
					 M2.587,11.586c-0.001,0.002-0.002,0-0.004,0.002c-0.012-0.022-0.036-0.02-0.055-0.031C2.548,11.566,2.569,11.573,2.587,11.586z
					 M2.896,12.123c-0.001,0-0.001,0-0.002,0l0,0C2.894,12.123,2.894,12.122,2.896,12.123z M2.643,12.151
					c-0.001,0.001-0.003,0-0.005,0.001c-0.001-0.001-0.002,0.001-0.005-0.001C2.637,12.149,2.641,12.151,2.643,12.151z
					 M2.815,12.309c-0.004,0.001-0.006,0.006-0.01,0.007c-0.006,0.002-0.011-0.004-0.016-0.004
					C2.798,12.314,2.806,12.312,2.815,12.309z M1.734,12.833L1.734,12.833c0.001,0,0,0,0,0.001
					C1.734,12.833,1.734,12.833,1.734,12.833z M2.831,13.033c0.002-0.006-0.005-0.006-0.005-0.01
					c0.002,0.003,0.005,0.007,0.007,0.01l0,0C2.833,13.033,2.832,13.033,2.831,13.033z M3.023,13.347
					c-0.001,0.006-0.005,0.01-0.002,0.018l0,0C3.021,13.356,3.022,13.352,3.023,13.347z M5.674,13.899
					c0.02-0.004,0.038-0.015,0.055-0.023c-0.012,0.009-0.025,0.021-0.042,0.022C5.683,13.898,5.679,13.898,5.674,13.899z
					 M5.796,13.844c-0.002-0.003-0.004-0.003-0.005-0.004c0.002,0,0.005,0.001,0.008,0.001C5.799,13.841,5.796,13.843,5.796,13.844z
					"/>
				<path style="fill-rule:evenodd;clip-rule:evenodd;" d="M3.521,11.348c-0.011,0.031-0.055,0.02-0.069,0.05
					C3.523,11.401,3.523,11.401,3.521,11.348z"/>
				<path style="fill-rule:evenodd;clip-rule:evenodd;" d="M2.68,11.324c0.005,0.006,0.009,0.013,0.016,0.016v-0.001
					c0.007,0.011,0.022,0.009,0.033,0.016c0.005,0,0.009,0,0.012,0.002c0.009,0.013,0.02,0.014,0.033,0.013
					c-0.005-0.005-0.01-0.01-0.016-0.015c0,0,0,0,0.001,0c0.004,0.006,0.009,0.011,0.015,0.015l0,0
					c0.015,0.019,0.044-0.001,0.062,0.016H2.833c0.014,0.014,0.035,0.002,0.047,0.015l0,0c0.028,0.03,0.065,0.012,0.098,0.015
					c0.009,0.001,0.018,0.002,0.028,0.003c0.019,0.013,0.043-0.001,0.063,0.013c0.01,0,0.018,0,0.025,0
					c0.034-0.011,0.067-0.011,0.1,0l0.005-0.002l0.004,0.001c0.099,0.025,0.171-0.029,0.244-0.081
					c-0.138,0.011-0.275,0.026-0.413,0.023c-0.01-0.001-0.02-0.001-0.03-0.002c-0.022-0.025-0.052-0.011-0.08-0.013
					c-0.015-0.001-0.028-0.004-0.043-0.005c-0.014-0.009-0.034,0.001-0.048-0.011c-0.005,0-0.01-0.002-0.014-0.004
					c-0.012-0.016-0.03-0.012-0.047-0.012c-0.005-0.002-0.01-0.003-0.015-0.003c-0.006-0.003-0.013-0.01-0.019-0.012
					c-0.019,0-0.037,0-0.055,0c-0.001,0-0.004,0.001-0.005,0.003C2.676,11.317,2.676,11.32,2.68,11.324L2.68,11.324z"/>
				<path style="fill-rule:evenodd;clip-rule:evenodd;" d="M5.281,10.736c0.027-0.014,0.067,0.016,0.09-0.026
					C5.332,10.697,5.306,10.719,5.281,10.736z"/>
				<path style="fill-rule:evenodd;clip-rule:evenodd;" d="M7.558,11.627c0.005-0.014-0.002-0.018-0.009-0.019
					c-0.014-0.004-0.024,0-0.031,0.012c-0.005,0.01,0.005,0.013,0.011,0.014C7.541,11.635,7.553,11.637,7.558,11.627z"/>
				<path style="fill-rule:evenodd;clip-rule:evenodd;" d="M5.566,10.69c0.015-0.001,0.03-0.001,0.045-0.002
					c0.007-0.002,0.016-0.002,0.02-0.007c0.01-0.013,0-0.022-0.01-0.022c-0.03,0-0.061-0.012-0.087,0.014
					c-0.004,0-0.008,0.001-0.013,0.001c-0.01,0.002-0.02,0.006-0.021,0.019c-0.001,0.01,0.008,0.01,0.016,0.01
					C5.534,10.705,5.552,10.707,5.566,10.69z"/>
				<path style="fill-rule:evenodd;clip-rule:evenodd;" d="M3.652,11.325c-0.002-0.006-0.008-0.009-0.013-0.005
					c-0.006,0.004-0.012,0.009-0.018,0.014c0.005,0.002,0.01,0.005,0.014,0.005C3.644,11.339,3.65,11.335,3.652,11.325z"/>
				<path style="fill-rule:evenodd;clip-rule:evenodd;" d="M3.588,11.336c-0.004-0.003-0.009-0.004-0.014-0.006
					c0,0.005-0.005,0.01-0.004,0.014c0.001,0.002,0.008,0.004,0.011,0.005C3.584,11.345,3.587,11.34,3.588,11.336z"/>
				<path style="fill-rule:evenodd;clip-rule:evenodd;" d="M1.459,12.786c0,0.004,0.008,0.004,0.013,0.006
					c0.001-0.003,0.005-0.01,0.005-0.012c-0.002-0.004-0.009-0.004-0.012-0.006C1.462,12.779,1.457,12.784,1.459,12.786z"/>
				<path style="fill-rule:evenodd;clip-rule:evenodd;" d="M6.632,10.656c-0.003-0.004-0.008-0.006-0.013-0.009
					c-0.005,0.001-0.009,0.007-0.004,0.011c0.004,0.003-0.002,0.02,0.011,0.01C6.629,10.665,6.632,10.659,6.632,10.656z"/>
				<path style="fill-rule:evenodd;clip-rule:evenodd;" d="M5.926,10.732c0.001-0.014-0.011-0.011-0.02-0.013
					c-0.015,0-0.03,0-0.045,0.002c-0.01,0.009-0.01,0.02,0,0.03c0.015,0,0.03,0,0.045,0C5.917,10.747,5.926,10.742,5.926,10.732z"/>
				<path style="fill-rule:evenodd;clip-rule:evenodd;" d="M6.861,11.504c-0.001,0.004,0,0.009,0.001,0.013
					c0.002-0.002,0.009-0.003,0.011-0.006c0.004-0.005,0-0.01-0.006-0.009C6.865,11.502,6.861,11.502,6.861,11.504z"/>
				<polygon style="fill-rule:evenodd;clip-rule:evenodd;" points="6.987,11.5 6.99,11.493 6.984,11.491 6.982,11.498 				"/>
				<path style="fill-rule:evenodd;clip-rule:evenodd;" d="M6.044,13.851c0.002,0,0.005-0.002,0.006-0.002
					c0.001-0.006-0.001-0.008-0.009-0.004C6.042,13.845,6.044,13.849,6.044,13.851z"/>
				<polygon style="fill-rule:evenodd;clip-rule:evenodd;" points="5.078,11.042 5.084,11.046 5.081,11.039 				"/>
			</g>
	</g>
</svg>
