<?xml version="1.0" encoding="utf-8"?>
<svg xmlns="http://www.w3.org/2000/svg" viewBox="10.782 19.907 3.921 3.302">
	<g>
			<g>
				<path style="fill-rule:evenodd;clip-rule:evenodd;" d="M14.667,21.098L14.67,21.1c-0.013-0.018-0.027-0.031-0.043-0.048
					c0,0.001,0,0.001,0,0.001l-0.002-0.001c0,0,0,0,0.002,0c-0.036-0.039,0.007-0.09-0.024-0.132l0.002,0.002
					c-0.018-0.03-0.024-0.062-0.045-0.091l0.002,0.002c-0.039-0.053-0.051-0.116-0.065-0.179v0.002
					c-0.014-0.017-0.009-0.04-0.018-0.058c0.006-0.024,0.014-0.048,0.021-0.072c-0.003-0.001,0.002-0.009,0.002-0.014
					c0,0.007-0.002,0.016,0.005,0.016c0.082-0.042,0.074-0.109,0.057-0.183c-0.006-0.003-0.006-0.01-0.002-0.015
					c-0.002-0.006-0.007-0.004-0.012-0.005c0.001,0,0.003,0,0.003-0.001c0-0.017,0.001-0.033-0.013-0.046
					c-0.01-0.012-0.008-0.033-0.025-0.042v0.004c-0.013-0.038-0.037-0.064-0.066-0.091l0.002,0.003
					c-0.003-0.014-0.011-0.021-0.023-0.021c-0.002-0.014-0.01-0.022-0.023-0.026l0.003,0.004c-0.003-0.014-0.013-0.021-0.023-0.026
					l0.001,0.002c-0.003-0.011-0.013-0.018-0.021-0.025l0.001,0.003c-0.015-0.03-0.034-0.056-0.069-0.065h0.002
					c-0.016-0.023-0.042-0.032-0.066-0.046h0.002c0-0.008,0-0.017,0.002-0.025c-0.008,0-0.015,0-0.023,0c-0.03,0-0.059,0-0.088,0
					c-0.081,0-0.162,0-0.242,0c-0.25,0-0.498,0-0.748,0c0.012,0.057,0.069,0.056,0.103,0.081c0.001,0.003,0,0.004,0,0.004
					c-0.022-0.028-0.048-0.055-0.103-0.085c-0.016,0-0.029,0-0.044,0c-0.014,0-0.029,0-0.044,0c-0.008,0-0.016,0-0.023,0
					c-0.008,0-0.016,0-0.022,0c-0.006,0-0.015,0-0.022,0c-0.021,0-0.044,0-0.066,0c-0.007,0-0.015,0-0.021,0
					c-0.029,0-0.059,0-0.089,0c-0.095,0-0.19,0-0.285,0c0.007,0.035,0.059,0.039,0.06,0.072c0,0.003,0.002,0.004,0.002,0.006
					c-0.018-0.03-0.028-0.062-0.063-0.078c-0.184,0-0.367,0-0.551,0c-0.058,0-0.118,0-0.175,0c-0.095,0-0.19,0-0.286,0
					c-0.051,0-0.104,0-0.154,0c-0.043,0-0.087,0-0.132,0c-0.044,0-0.088,0-0.131,0c-0.002,0.001-0.004,0.005-0.006,0.009v-0.001
					l0.006-0.008c-0.015,0-0.029,0-0.044,0c-0.038,0.054-0.085,0.101-0.098,0.169c-0.002,0.014-0.011,0.034-0.022,0.036
					c-0.067,0.021-0.055,0.075-0.058,0.125c0.002,0,0.005,0,0.005,0.002v0.002l-0.005-0.004c-0.034,0.026-0.038,0.069-0.052,0.107
					c-0.028,0.067-0.015,0.12,0.051,0.158c0.006,0.004,0.006,0.007,0.006,0.013c0,0.014,0.005,0.024,0.018,0.031
					c0.017,0.024,0.043,0.021,0.065,0.024c0.002-0.004,0.002-0.005,0.002-0.008c0.001,0,0.002,0,0.003,0.003l-0.006,0.005
					c0.007,0.006,0.015,0.014,0.023,0.021l0.005-0.004l0,0c-0.002,0.001-0.002,0.004-0.005,0.004c0,0.031,0.02,0.056,0.042,0.072
					c0.075,0.055,0.105,0.128,0.092,0.218c0.005-0.001,0.013-0.005,0.018-0.009c0,0.003,0,0.004,0,0.005
					c-0.007-0.001-0.012-0.002-0.018,0.004c0.004,0.008,0.003,0.013-0.002,0.018c-0.016,0.044-0.015,0.088-0.003,0.131
					c0.006,0.007,0.008,0.012,0.005,0.02c0.01,0.014,0.008,0.033,0.02,0.045c0.013,0.013,0.009,0.036,0.028,0.045l-0.002-0.003
					c0.007,0.016,0.005,0.036,0.023,0.047L11.177,21.2c0.01,0.015,0.009,0.034,0.021,0.048c0.014,0.012,0.009,0.032,0.024,0.043
					h-0.002c0.002,0.024,0.002,0.047,0.005,0.071c-0.018,0.01-0.015,0.029-0.024,0.047c0.006,0.013,0.004,0.025-0.002,0.037
					c-0.019,0.015-0.003,0.06-0.049,0.051c-0.007-0.02-0.025-0.022-0.04-0.027c-0.003,0-0.003,0.002-0.005,0.002
					c-0.02-0.015-0.033-0.042-0.065-0.033c-0.048,0.014-0.065,0.05-0.063,0.102c0.007,0.078-0.002,0.157-0.023,0.235l0,0
					c-0.033,0.06-0.03,0.118-0.002,0.179c0.014,0.037,0.019,0.078,0.046,0.109c0.003,0.025,0.016,0.042,0.043,0.043
					c0.042,0.024,0.086,0.045,0.113,0.089c0.006,0.008,0.014,0.015,0.02,0.022l0.005-0.007c0.002,0,0.002,0.002,0.003,0.002
					c-0.003,0.001-0.006,0.003-0.008,0.005c0.01,0.016,0.027,0.021,0.045,0.021c0-0.002,0.002-0.004,0.002-0.007
					c0,0.001,0,0.001,0.002,0.001l-0.005,0.006c0.007,0.007,0.014,0.015,0.021,0.021c0.009,0.021,0.024,0.036,0.044,0.045
					l0.007-0.007l0,0c-0.002,0.001-0.005,0.005-0.007,0.007c0.067,0.073,0.123,0.162,0.22,0.199
					c0.002-0.002,0.002-0.004,0.005-0.008c0,0.002,0,0.002,0,0.002l-0.005,0.006c0.042,0.066,0.104,0.107,0.175,0.133l0.005-0.008
					c0.002,0,0.002,0,0.002,0c-0.002,0.003-0.005,0.005-0.007,0.008c0.058,0.052,0.118,0.102,0.2,0.11c0-0.003,0-0.004,0-0.007
					c0,0.003,0.002,0.003,0.002,0.003l-0.002,0.004c0.007,0.015,0.025,0.019,0.043,0.023l0.004-0.005l0,0
					c-0.002,0.001-0.004,0.004-0.004,0.005c0.01,0.015,0.025,0.019,0.042,0.021l0.005-0.006l0,0
					c-0.001,0.002-0.002,0.004-0.005,0.006c0.01,0.016,0.027,0.02,0.044,0.023c0.016,0.023,0.036,0.04,0.066,0.042
					c0.08,0.057,0.167,0.098,0.265,0.11c0-0.002,0.003-0.002,0.003-0.004l0,0l-0.003,0.004c0.047,0.033,0.1,0.044,0.155,0.043
					v-0.003h0.003l-0.003,0.003c0.038,0.031,0.089,0.027,0.133,0.044c0-0.002,0-0.005,0.002-0.009c0.001,0.001,0.002,0,0.003,0.001
					l-0.005,0.008c0.007,0.018,0.025,0.021,0.042,0.022c0.014,0.019,0.031,0.02,0.051,0.019c-0.002-0.006-0.005-0.013-0.008-0.019
					c0.002,0,0.002,0,0.004,0c-0.002,0.007-0.004,0.015,0.004,0.019l0.01-0.003l0.008,0.005c0.014,0.013,0.032,0.012,0.047,0.02
					l-0.002-0.003c0.058,0.032,0.127,0.03,0.178,0.012c0.005-0.003,0.012-0.003,0.018-0.004c0.01-0.003,0.02,0.005,0.029,0.001
					c0.051-0.018,0.098-0.025,0.148-0.026c0.085-0.001,0.167,0.013,0.25-0.018c0.022-0.009,0.051-0.005,0.075,0.005
					c0.06,0.033,0.082-0.026,0.117-0.051c0.013-0.009,0.003-0.026-0.011-0.035c-0.019-0.013-0.039-0.009-0.061-0.008
					c0.049-0.094,0.119-0.152,0.235-0.135c0.054,0.008,0.099-0.001,0.13-0.059c0.022-0.039,0.069-0.053,0.114-0.052
					c0.099,0.008,0.183-0.04,0.273-0.063c-0.002-0.001-0.005-0.005-0.006-0.007h0.001l0.005,0.007
					c0.018-0.001,0.033-0.007,0.043-0.023l-0.005-0.005l0,0c0.002,0.001,0.002,0.002,0.005,0.005
					c0.036-0.021,0.059-0.054,0.089-0.08c0.063-0.052,0.086-0.111,0.091-0.196c0.005-0.106,0.025-0.217,0.087-0.311
					c0.016-0.027,0.027-0.053-0.002-0.076c-0.002,0-0.006,0.001-0.009,0.001c-0.008-0.004-0.015-0.009-0.016-0.02
					c-0.013-0.002-0.021-0.011-0.021-0.023c-0.019-0.009-0.024-0.024-0.023-0.043c-0.022-0.02-0.023-0.042-0.022-0.068
					c0.001,0,0.003,0,0.003,0c-0.008-0.029,0.035-0.06,0-0.089c-0.005-0.041-0.027-0.063-0.067-0.066
					c0,0.002-0.003,0.006-0.004,0.007c0,0-0.002,0-0.002-0.001l0.006-0.006c-0.008-0.007-0.016-0.015-0.021-0.021
					c-0.001-0.018-0.005-0.034-0.022-0.047c-0.003-0.018-0.008-0.032-0.022-0.042c-0.003,0.002-0.004,0.006-0.005,0.007
					c0-0.001,0-0.001,0-0.001l0.005-0.006c-0.008-0.009-0.015-0.016-0.021-0.023l-0.003,0.001l0,0c0.001,0,0.001-0.001,0.003-0.001
					c-0.003-0.018-0.007-0.034-0.023-0.043l-0.008,0.005c-0.001-0.001,0-0.001-0.001-0.004c0.003,0,0.005-0.001,0.009-0.001
					c-0.004-0.022,0.003-0.05-0.023-0.064l-0.003,0.002l-0.001-0.001c0.001,0,0.002-0.001,0.004-0.001
					c0-0.025,0.002-0.051-0.023-0.068c-0.007-0.007-0.013-0.015-0.021-0.02l-0.005,0.005H14.25c0.002-0.002,0.005-0.004,0.007-0.005
					c0.003-0.097,0.005-0.101,0.085-0.131c0.025,0.03,0.061,0.017,0.091,0.021c0.001-0.001,0.002-0.004,0.003-0.005l0,0
					l-0.003,0.005c0.015,0.025,0.04,0.021,0.063,0.024l0.007-0.006c0.035,0.004,0.073,0.015,0.108,0
					c0.012-0.003,0.002-0.018,0.008-0.026c0.004-0.001,0.007,0.003,0.012-0.001c0.005-0.009,0.008-0.018,0.01-0.027
					c0.003-0.013,0.003-0.024,0.009-0.035c0.009-0.014,0.018-0.026,0.021-0.043l-0.003,0.002
					C14.686,21.12,14.69,21.108,14.667,21.098z M13.557,22.879L13.557,22.879L13.557,22.879L13.557,22.879z M11.803,20.271
					L11.803,20.271c0,0.004,0.006,0.004,0.006,0.008c0-0.002-0.003-0.002-0.005-0.004c-0.002-0.005-0.006-0.011-0.011-0.014
					C11.795,20.263,11.8,20.266,11.803,20.271z M12.518,20.083c0,0,0.001,0.002,0.002,0.002c-0.002-0.002-0.005-0.002-0.006-0.004
					C12.515,20.083,12.518,20.081,12.518,20.083z M10.979,20.412C10.979,20.411,10.979,20.411,10.979,20.412l-0.002-0.001
					C10.979,20.411,10.979,20.411,10.979,20.412C10.979,20.411,10.979,20.411,10.979,20.412z M14.229,21.11
					c-0.001-0.013-0.008-0.023-0.014-0.036c0.011,0.006,0.011,0.021,0.026,0.024C14.237,21.102,14.234,21.106,14.229,21.11z
					 M11.747,22.391c0-0.001,0-0.001,0-0.004c0,0,0,0,0-0.001C11.747,22.387,11.747,22.39,11.747,22.391z M13.053,20.705
					c-0.003,0-0.002-0.006-0.007-0.006c-0.003-0.007-0.009-0.012,0-0.017C13.033,20.695,13.048,20.699,13.053,20.705z
					 M11.615,21.951c0.005-0.002,0.003-0.006,0.006-0.009C11.62,21.945,11.618,21.949,11.615,21.951
					C11.615,21.951,11.615,21.951,11.615,21.951z M13.241,21.91C13.241,21.911,13.241,21.911,13.241,21.91
					C13.241,21.91,13.241,21.909,13.241,21.91C13.242,21.909,13.241,21.91,13.241,21.91z M12.473,22.458
					c0,0,0.001-0.001,0.002-0.001c0,0.001-0.001,0.001-0.001,0.001C12.473,22.458,12.473,22.458,12.473,22.458z M12.14,21.049
					c0,0,0.001,0,0.001-0.001v0.001H12.14z M12.087,20.9c0.021,0.002,0.038,0.013,0.048,0.03
					C12.125,20.92,12.105,20.909,12.087,20.9z M12.661,22.453c-0.004,0.001-0.008-0.003-0.013-0.003c0.003,0,0.007-0.001,0.01-0.001
					C12.657,22.45,12.662,22.449,12.661,22.453z M12.646,22.304c0,0.002,0,0,0,0.002c-0.02-0.011-0.033,0.007-0.05,0.013
					C12.613,22.316,12.632,22.316,12.646,22.304z M12.363,22.501c0.007-0.021-0.004-0.031-0.015-0.044l0,0
					C12.352,22.472,12.359,22.487,12.363,22.501L12.363,22.501z M11.956,22.178c-0.021-0.017-0.043-0.031-0.069-0.034
					c-0.012,0-0.01-0.014-0.018-0.019C11.895,22.149,11.925,22.164,11.956,22.178z M12.188,22.347v-0.003
					c0.002,0,0.004-0.001,0.005-0.001C12.191,22.343,12.19,22.344,12.188,22.347z M12.063,21.489c0,0.002,0.002,0.004,0.002,0.006
					c-0.002-0.002-0.002-0.002-0.002-0.004C12.063,21.491,12.063,21.491,12.063,21.489z M11.99,21.999c0,0-0.001,0.001-0.002,0.001
					c0.002-0.004,0.002-0.004,0.002-0.006C11.99,21.995,11.989,21.996,11.99,21.999z M12.505,22.266
					c-0.005,0.002-0.007,0.009-0.015,0.009c-0.005-0.003-0.007-0.009-0.01-0.016C12.489,22.266,12.498,22.266,12.505,22.266z
					 M12.198,21.598c0-0.002,0-0.002,0-0.003c0,0,0,0,0.001,0C12.198,21.596,12.198,21.596,12.198,21.598z M11.829,21.716
					c-0.013,0.003-0.038-0.001-0.042-0.021c-0.001-0.015-0.001-0.024,0.001-0.039C11.79,21.684,11.805,21.702,11.829,21.716
					L11.829,21.716z M11.865,22.259c-0.002,0-0.005,0.003-0.007,0.003C11.86,22.262,11.862,22.259,11.865,22.259z M12.473,22.325
					c0.002,0.002,0.008,0.002,0.013,0.005c-0.003,0.002-0.003,0.005-0.005,0.008C12.481,22.334,12.474,22.329,12.473,22.325z
					 M13.001,22.149c0-0.002-0.004-0.003-0.005-0.006c0-0.001,0-0.001,0-0.001c0.003,0.001,0.005,0.004,0.007,0.005
					C13.001,22.147,13.003,22.149,13.001,22.149z M13.041,21.266c-0.007,0,0-0.006-0.003-0.006c0.003,0,0.005,0.001,0.009,0
					C13.043,21.261,13.046,21.266,13.041,21.266z M12.715,22.283c-0.003,0.001-0.007,0.001-0.012,0.004
					c0.002-0.004,0.01,0,0.012-0.007c0.002,0,0-0.001,0.002-0.001c0,0-0.002,0.001,0,0.004H12.715z M12.438,21.511
					c-0.003,0-0.004-0.001-0.005-0.001C12.433,21.51,12.435,21.511,12.438,21.511z M12.063,22.414c0,0.001,0,0.003,0,0.005
					c0-0.004-0.006-0.002-0.006-0.005C12.059,22.414,12.06,22.414,12.063,22.414z M12.453,22.551c0-0.003-0.001-0.004-0.001-0.005
					c0.001,0,0,0.002,0.001,0.002C12.453,22.551,12.453,22.551,12.453,22.551z M12.826,22.524c0.002,0,0.002,0.001,0.004,0.001
					c-0.002,0-0.002,0-0.003,0C12.827,22.525,12.826,22.525,12.826,22.524z M13.181,20.8c-0.003,0-0.005-0.006-0.01-0.006
					c0.005,0,0.009,0.003,0.015,0.003C13.184,20.797,13.184,20.8,13.181,20.8z M13.169,21.976c-0.006,0.006-0.011,0.01-0.016,0.012
					C13.158,21.986,13.163,21.979,13.169,21.976z M12.513,20.713c-0.005,0.007-0.002,0.007-0.007,0.014
					c-0.006-0.005-0.002-0.014-0.005-0.022C12.504,20.708,12.51,20.714,12.513,20.713z M11.931,20.81
					c-0.016-0.002-0.021-0.017-0.024-0.035c0,0,0,0,0.003,0C11.907,20.798,11.92,20.807,11.931,20.81z M11.99,20.984
					c-0.007,0.009-0.015,0.02-0.03,0.016c0,0.004,0,0-0.002,0c0.012-0.002,0.022-0.011,0.03-0.02
					C11.987,20.982,11.99,20.982,11.99,20.984z M11.758,21.446c-0.003-0.008-0.003-0.013-0.007-0.017c0.004,0,0.006,0,0.009,0.001
					C11.757,21.435,11.761,21.44,11.758,21.446z M11.658,21.4h-0.001c0.001,0,0.001,0,0.003-0.001V21.4H11.658z M11.46,21.38
					c-0.005-0.004-0.005-0.008-0.01-0.009c0.003-0.002,0.005,0.001,0.008,0C11.457,21.372,11.46,21.376,11.46,21.38z M11.703,22.149
					c0.002,0,0.003,0,0.004,0c-0.001,0.002-0.002,0.002-0.002,0.003c-0.002,0-0.003-0.001-0.003-0.001S11.702,22.149,11.703,22.149z
					 M12.487,22.646c-0.001,0.021,0.006,0.045-0.029,0.042C12.475,22.684,12.494,22.676,12.487,22.646z M12.918,22.628
					L12.918,22.628L12.918,22.628z M12.979,22.441c0.004,0.009,0.002,0.021,0.004,0.03c-0.008-0.005-0.014-0.013-0.02-0.01
					C12.968,22.457,12.967,22.445,12.979,22.441z M13.193,22.161c-0.002-0.003,0.008-0.003,0.013-0.006
					c-0.005,0.006-0.01,0.014-0.014,0.022C13.191,22.17,13.196,22.168,13.193,22.161z M13.379,22.083
					c-0.003-0.003,0-0.007-0.001-0.011c0,0,0,0,0-0.001c0.003,0.004-0.002,0.009,0.003,0.012
					C13.379,22.083,13.379,22.083,13.379,22.083z M12.799,20.984c-0.001-0.002,0-0.005-0.001-0.008
					c0.001,0.003,0.001,0.006,0.003,0.006C12.801,20.982,12.801,20.985,12.799,20.984z M11.907,20.737
					c-0.002,0.002-0.004,0.004-0.005,0.006l0,0C11.903,20.741,11.905,20.739,11.907,20.737z M11.604,21.3L11.604,21.3L11.604,21.3
					L11.604,21.3z M11.772,22.412L11.772,22.412c0,0,0,0-0.001,0.002v-0.002H11.772z M13.221,22.47
					c-0.001,0.001,0.003,0.001,0.002,0.002c-0.003,0-0.002-0.002-0.004-0.002C13.22,22.47,13.221,22.47,13.221,22.47z
					 M13.601,21.935c-0.002,0.001,0,0.003-0.002,0.005c-0.002,0-0.002-0.004-0.004-0.005C13.597,21.935,13.599,21.935,13.601,21.935
					z M14.013,21.777c0,0,0,0-0.001,0c0,0,0.003,0,0.003-0.002c-0.003,0-0.003,0-0.005,0c0.005-0.002,0.005-0.007,0.007-0.011
					c-0.001,0.004-0.001,0.007-0.002,0.011l0,0C14.013,21.775,14.015,21.777,14.013,21.777z M14.347,20.699
					C14.347,20.7,14.347,20.7,14.347,20.699c0.004,0.005,0.006,0.006,0.008,0.009C14.354,20.702,14.347,20.704,14.347,20.699z
					 M14.012,21.022c-0.002,0.003-0.005,0.003-0.006,0.003c-0.002,0-0.002,0-0.002,0C14.007,21.025,14.01,21.022,14.012,21.022
					L14.012,21.022z M13.258,20.646c-0.004-0.006-0.004-0.011-0.007-0.015c0.003,0.002,0.007,0.006,0.009,0.008
					C13.258,20.64,13.26,20.644,13.258,20.646z M12.584,20.589c0.003,0.004,0.011,0.005,0.014,0.009
					c0.001,0.004,0.001,0.005,0.003,0.009C12.595,20.599,12.588,20.595,12.584,20.589z M11.86,20.567L11.86,20.567
					c0,0.004-0.004,0.004-0.004,0.007C11.856,20.571,11.858,20.568,11.86,20.567z M11.377,20.574
					c-0.005,0.054,0.023,0.078,0.05,0.107c-0.023-0.021-0.065-0.021-0.067-0.049C11.357,20.611,11.372,20.594,11.377,20.574z
					 M11.402,20.334c0.009-0.021,0-0.046,0.017-0.064c0.01-0.013,0.02-0.004,0.03,0.003C11.423,20.285,11.415,20.31,11.402,20.334z
					 M11.396,21.533L11.396,21.533L11.396,21.533L11.396,21.533l-0.001-0.001c0.001,0,0.001,0.001,0.003,0.001
					C11.397,21.533,11.397,21.533,11.396,21.533z M11.506,22.047c0,0.005,0,0.011-0.002,0.016c0,0,0,0-0.002,0
					c0.004-0.005,0.005-0.011,0.002-0.016H11.506z M11.307,22.125c0,0.002,0.002,0,0.003,0.002
					c-0.003,0.001-0.005-0.002-0.007-0.002C11.303,22.125,11.304,22.127,11.307,22.125z M11.352,22.127L11.352,22.127
					c0.01,0.005,0.019,0.008,0.029,0.01l0,0C11.371,22.135,11.362,22.128,11.352,22.127z M11.751,22.41c0.001,0,0.004,0,0.004,0.002
					c-0.003,0-0.005,0-0.008,0.002L11.751,22.41z M13.286,22.765L13.286,22.765L13.286,22.765L13.286,22.765z M14.284,21.142
					c0.008,0.014,0.013,0.034,0.024,0.035c-0.011,0.004-0.017,0.003-0.027,0.006C14.29,21.166,14.284,21.154,14.284,21.142z
					 M14.362,21.128c-0.007-0.008,0.005-0.005,0.006-0.009c0.002,0.004,0.002,0.009,0.007,0.013
					C14.37,21.129,14.363,21.132,14.362,21.128z M13.962,20.781C13.961,20.781,13.962,20.78,13.962,20.781L13.962,20.781
					L13.962,20.781z M13.429,20.656c0.005-0.017,0.005-0.033,0.008-0.05c0,0.018,0.005,0.037,0.007,0.055
					C13.439,20.66,13.433,20.661,13.429,20.656z M12.906,20.541c0.02,0,0.042-0.01,0.063-0.007c-0.023-0.003-0.045,0.003-0.065,0.01
					C12.906,20.544,12.903,20.541,12.906,20.541z M12.058,20.61c0.005,0,0.007,0.001,0.01,0.004
					C12.065,20.611,12.06,20.611,12.058,20.61z M11.925,20.175c0.002-0.009,0.002-0.007,0.005-0.018
					c0,0.002,0.002,0.002,0.002,0.006C11.929,20.166,11.927,20.172,11.925,20.175z M11.877,20.959c0,0,0,0,0,0.003l0,0
					c0,0.001,0,0.001,0,0.001c-0.001,0-0.001,0-0.001,0s0,0,0.001-0.001V20.959z M11.452,21.986
					c0.011,0.018,0.025,0.034,0.033,0.053c-0.004-0.001-0.007-0.003-0.01-0.005C11.478,22.012,11.46,22.004,11.452,21.986z
					 M12.99,22.987c0.003,0,0.009-0.004,0.011-0.003c-0.009,0.018-0.004,0.034,0,0.051c0,0,0,0-0.003,0.001
					C13.003,23.018,13.001,23.001,12.99,22.987z M13.179,22.964L13.179,22.964c-0.001,0.009,0.005,0.014,0.01,0.021l0,0
					C13.186,22.978,13.181,22.971,13.179,22.964z M13.821,20.081c-0.001,0.002-0.005,0-0.007,0c0.005-0.003,0.01-0.007,0.012-0.009
					C13.826,20.078,13.824,20.078,13.821,20.081z M13.679,20.351c0.003,0.002,0.007,0,0.011,0.002
					c-0.011-0.007-0.013,0.006-0.023,0.004C13.674,20.358,13.669,20.348,13.679,20.351z M13.584,20.44
					c0.004,0.002-0.005,0.006-0.005,0.011c0.001-0.005,0.002-0.011,0.002-0.017C13.584,20.437,13.581,20.438,13.584,20.44z
					 M13.223,20.368c0.001,0,0.003,0,0.006,0C13.226,20.37,13.226,20.368,13.223,20.368z M12.875,20.13
					c-0.002,0-0.002,0-0.002-0.003C12.873,20.127,12.873,20.13,12.875,20.13L12.875,20.13z M12.728,20.351
					c0.002,0,0.002-0.002,0.002-0.003C12.728,20.349,12.731,20.351,12.728,20.351z M11.137,20.063
					c-0.002,0.001-0.005,0.001-0.006,0.003c0-0.002,0.001-0.002,0-0.002c0.001-0.001,0.002-0.001,0.004-0.001H11.137z
					 M11.079,20.242c0,0.003-0.005,0.008-0.01,0.012c0.004-0.009,0.005-0.017,0.008-0.024
					C11.078,20.236,11.077,20.236,11.079,20.242z M14.382,21.663c-0.005-0.001-0.01-0.003-0.015,0.002
					c-0.001,0.002-0.003,0.002-0.003,0.004c0-0.002,0-0.002,0-0.002c0.002,0,0.002-0.002,0.003-0.002
					C14.372,21.665,14.377,21.665,14.382,21.663L14.382,21.663z M14.537,20.377c0.001-0.003,0.005-0.005,0.005-0.009
					C14.542,20.372,14.537,20.374,14.537,20.377z M14.482,20.272c-0.003,0-0.005,0.002-0.008,0.002
					c0.003-0.002,0.003-0.004,0.004-0.005C14.479,20.271,14.479,20.272,14.482,20.272z M14.282,20.135
					C14.282,20.135,14.282,20.135,14.282,20.135S14.282,20.135,14.282,20.135L14.282,20.135z M13.774,19.974
					c-0.003,0.001-0.008,0.005-0.011,0.009c0-0.004,0-0.008,0-0.009C13.767,19.97,13.771,19.975,13.774,19.974z M12.753,20.047
					c-0.005-0.001-0.007-0.009-0.012-0.009c0.001-0.001,0-0.001,0.003-0.005C12.743,20.041,12.748,20.042,12.753,20.047z
					 M10.874,20.509v-0.001c0.01,0.009,0.019,0.015,0.017,0.031l0.003,0.002c0,0,0,0,0,0.002c0-0.002-0.001-0.002-0.003-0.004H10.89
					C10.894,20.521,10.889,20.513,10.874,20.509z M10.962,21.78h-0.001l-0.002-0.002C10.96,21.778,10.961,21.778,10.962,21.78z
					 M13.481,23.053c0.002-0.002,0.004-0.004,0.005-0.005c0,0.001,0,0.003,0,0.005C13.485,23.053,13.483,23.053,13.481,23.053z
					 M14.257,21.383c-0.001,0-0.002,0-0.002,0l-0.003-0.001c0-0.002,0-0.002,0-0.004C14.255,21.38,14.255,21.382,14.257,21.383z"/>
				<path style="fill-rule:evenodd;clip-rule:evenodd;" d="M13.784,23.129c-0.013,0.01-0.004,0.024,0.009,0.033h0.001
					c0.008,0.008,0.016,0.014,0.021,0.021c0.009,0,0.015,0,0.023,0c0.008,0.008,0.014,0.008,0.021-0.002c0-0.006,0-0.012,0-0.02
					c-0.008-0.007-0.014-0.014-0.023-0.023C13.824,23.12,13.806,23.111,13.784,23.129z"/>
			</g>
	</g>
</svg>
