<?xml version="1.0" encoding="utf-8"?>
<svg xmlns="http://www.w3.org/2000/svg" viewBox="16.945 20.813 6.219 2.105">
	<g>
			<g>
				<path style="fill-rule:evenodd;clip-rule:evenodd;" d="M23.102,21.451c0.008,0.015,0.021,0.021,0.035,0.018
					c0.007-0.002,0.008-0.008,0.005-0.013C23.13,21.442,23.116,21.443,23.102,21.451z"/>
				<path style="fill-rule:evenodd;clip-rule:evenodd;" d="M22.659,21.444c-0.043,0.003-0.085,0-0.128,0c0,0.002,0,0.002,0,0.003
					c0-0.001,0-0.001,0-0.001v-0.002c-0.042-0.027-0.09-0.009-0.135-0.014c0.019-0.018,0.046-0.024,0.063-0.049
					c0.015-0.021,0.01-0.041-0.017-0.04c-0.058,0.001-0.111-0.026-0.169-0.016c-0.01,0-0.017,0-0.027,0c-0.03,0-0.063,0-0.093,0
					c0.005,0.005,0.013,0.01,0.018,0.015c-0.002,0.001-0.005,0-0.006,0.001c-0.004-0.006-0.005-0.014-0.012-0.016
					c-0.005,0-0.01,0-0.015-0.002c0-0.001,0-0.001-0.005-0.004c-0.003-0.001-0.007,0-0.01,0.006
					c-0.006-0.002-0.009-0.002-0.016-0.002c-0.036-0.029-0.08-0.007-0.12-0.015c-0.01-0.021-0.024-0.035-0.045-0.045
					c-0.005,0-0.01,0-0.015,0c0.005-0.01,0.01-0.021,0.015-0.03c0.013,0,0.023-0.003,0.03-0.015c0.015,0,0.03,0,0.045,0
					c0.013,0,0.022-0.003,0.03-0.014c0.01,0,0.021,0,0.031,0c0.015,0.009,0.028,0.009,0.044,0c0.005-0.002,0.01-0.002,0.015-0.002
					c0.01,0,0.019,0,0.03,0c0.009-0.01,0.023-0.006,0.029-0.014c0.016-0.001,0.03-0.001,0.047-0.001c0.015-0.012,0.03-0.012,0.046,0
					c0.01,0,0.019,0,0.03,0c0.034-0.005,0.072,0.013,0.105-0.014c0.045-0.001,0.09-0.001,0.135-0.001
					c0.005-0.006,0.01-0.011,0.015-0.016c0.016,0,0.03,0,0.045-0.001c0.008-0.009,0.023-0.005,0.03-0.013
					c0.021-0.001,0.04-0.001,0.061-0.003c0.005-0.003,0.01-0.008,0.015-0.014c0.035,0,0.07,0,0.106-0.001
					c0.008-0.009,0.021-0.005,0.03-0.014c0.015,0,0.029,0,0.045-0.001c0.044-0.002,0.044-0.002,0.03-0.03c-0.016,0-0.03,0-0.046,0
					c-0.016-0.021-0.038-0.013-0.06-0.015c-0.01,0-0.021,0-0.03,0c0,0.001-0.001,0.003-0.006,0.005c-0.003,0.001-0.007,0-0.01-0.005
					c-0.035,0-0.07,0-0.105,0c-0.015-0.02-0.035-0.014-0.055-0.016c-0.048,0-0.095,0-0.141,0c-0.019,0-0.04,0-0.059,0
					c-0.018-0.021-0.04-0.013-0.061-0.015c-0.086,0-0.171,0-0.258-0.001c-0.021-0.022-0.05-0.011-0.075-0.015
					c-0.01,0-0.019,0-0.029,0c-0.026-0.031-0.069,0-0.098-0.024c0.024-0.074,0.021-0.085-0.056-0.079
					c-0.093,0.008-0.18-0.021-0.265-0.042c-0.097-0.023-0.193-0.023-0.289-0.031c-0.097-0.008-0.194-0.009-0.292-0.006
					c-0.151,0.007-0.304,0.003-0.455,0.003c-0.021,0-0.042-0.003-0.061,0.001c-0.111,0.021-0.225,0.017-0.335,0.029
					c-0.035,0.002-0.069,0.009-0.103,0.013c-0.033-0.003-0.066-0.009-0.098-0.013c-0.111-0.012-0.226-0.008-0.335-0.027
					c-0.021-0.004-0.04-0.002-0.061-0.002c-0.152-0.001-0.306,0.004-0.457-0.002c-0.098-0.004-0.195-0.004-0.291,0.005
					c-0.096,0.009-0.192,0.009-0.288,0.031c-0.086,0.02-0.173,0.049-0.265,0.042c-0.078-0.006-0.082,0.006-0.057,0.079
					c-0.029,0.023-0.071-0.006-0.098,0.023c-0.01,0-0.019,0.002-0.03,0.002c-0.024,0.004-0.054-0.01-0.073,0.014
					c-0.088,0-0.173,0-0.258,0.001c-0.021,0.001-0.044-0.008-0.061,0.014c-0.02,0-0.04,0.002-0.059,0.002c-0.048,0-0.094,0-0.141,0
					c-0.019,0-0.041-0.004-0.055,0.014c-0.035,0-0.071,0.001-0.107,0.001c-0.004,0.004-0.007,0.005-0.01,0.004
					c-0.004-0.002-0.007-0.003-0.007-0.004c-0.009,0-0.019,0-0.03,0c-0.019,0.002-0.042-0.008-0.059,0.015c-0.015,0-0.03,0-0.045,0
					c-0.014,0.027-0.013,0.027,0.03,0.03c0.015,0,0.029,0,0.045,0c0.009,0.01,0.022,0.005,0.029,0.015
					c0.037,0.002,0.072,0.002,0.107,0.002c0.006,0.004,0.012,0.009,0.016,0.014c0.02,0.001,0.041,0.001,0.06,0.001
					c0.009,0.009,0.024,0.005,0.031,0.014c0.016,0.001,0.03,0.001,0.045,0.001c0.006,0.004,0.011,0.009,0.016,0.016
					c0.045,0,0.09,0,0.135,0c0.032,0.026,0.07,0.009,0.105,0.015c0.01,0,0.02,0,0.03,0c0.015-0.013,0.029-0.013,0.045,0
					c0.016,0,0.031,0,0.046,0c0.009,0.009,0.022,0.005,0.03,0.016c0.01-0.002,0.021-0.002,0.031-0.002
					c0.005,0,0.009,0.002,0.014,0.002c0.015,0.009,0.028,0.009,0.044,0.001c0.01,0,0.021,0,0.032,0
					c0.007,0.011,0.017,0.013,0.029,0.014c0.015,0,0.029,0,0.045,0c0.006,0.011,0.018,0.014,0.029,0.015
					c0.006,0.009,0.012,0.02,0.016,0.029c-0.004,0.001-0.009,0.001-0.014,0.001c-0.021,0.009-0.035,0.024-0.047,0.045
					c-0.038,0.007-0.084-0.015-0.12,0.016c-0.006,0-0.01,0-0.015,0c-0.004-0.004-0.006-0.006-0.01-0.004
					c-0.004,0.001-0.005,0.002-0.005,0.004c-0.006,0-0.009,0-0.015,0c-0.007,0.003-0.007,0.011-0.012,0.016
					c-0.002,0-0.003,0.001-0.005,0c0.005-0.006,0.011-0.011,0.017-0.016c-0.031,0-0.063,0-0.094,0c-0.009,0-0.018,0-0.026,0
					c-0.057-0.011-0.112,0.017-0.17,0.016c-0.024,0-0.03,0.019-0.015,0.041c0.015,0.024,0.042,0.03,0.063,0.048
					c-0.045,0.005-0.093-0.014-0.135,0.016l0,0c0,0.001,0,0.001,0,0.001v-0.001c-0.043,0-0.086,0.002-0.128,0
					c-0.101-0.006-0.198,0.006-0.298,0.015c-0.03,0.004-0.062-0.012-0.093-0.001c-0.002,0.026,0.016,0.041,0.03,0.041
					c0.046-0.003,0.093,0.028,0.14,0.005c0.011,0,0.021,0.001,0.03,0.003c0.072,0.014,0.146,0.036,0.218,0.041
					c0.155,0.013,0.306,0.05,0.457,0.079c0.023,0.005,0.038,0.021,0.049,0.042c0.001,0.001,0.002,0.001,0.002,0.001v0.002
					l-0.002-0.003c-0.021,0.004-0.044-0.006-0.061,0.017l0.003,0.001c0,0-0.002,0-0.003,0v-0.001
					c-0.115-0.01-0.227,0.019-0.342,0.016c-0.023-0.001-0.049,0.008-0.071,0.016c-0.027,0.009-0.027,0.026-0.007,0.044
					c0.005,0.013,0.016,0.015,0.027,0.016c0.013,0.02,0.026,0.035,0.048,0.044l0.002-0.001l0,0
					c-0.001,0.001-0.002,0.001-0.002,0.001c-0.003,0.033,0.006,0.059,0.045,0.062c0-0.001,0-0.003,0.001-0.003l0,0l-0.001,0.003
					c0.006,0.012,0.017,0.015,0.029,0.015v-0.002c0,0,0,0,0.002,0c-0.002,0.001-0.002,0.002-0.002,0.002
					c0.055,0.025,0.101,0.074,0.166,0.075c0,0,0.001-0.001,0.001-0.002l0.001,0.001l-0.002,0.001c0.05,0.014,0.069,0.061,0.104,0.09
					c0.001,0,0.003-0.001,0.003-0.002c0,0.001,0,0.001,0,0.001l-0.003,0.001c0.008,0.013,0.018,0.016,0.03,0.017
					c0-0.001,0.001-0.001,0.001-0.001l0,0l-0.001,0.001c0.01,0.014,0.021,0.014,0.031-0.001c0.025,0,0.05,0,0.075,0
					c0.019,0.011,0.033,0.026,0.045,0.045l0.001,0.006v0.008c0.004,0.006,0.009,0.012,0.016,0.017
					c0.002,0.024,0.018,0.055-0.026,0.063c-0.033,0.005-0.038,0.035-0.049,0.06v-0.001c-0.013,0.018-0.027,0.034-0.045,0.046V22.32
					c-0.008,0.004-0.012,0.01-0.017,0.015c-0.111,0-0.209,0.037-0.294,0.109c-0.023,0.021-0.016,0.044,0.005,0.058
					c0,0.002-0.001,0.002-0.003,0.002c0.003,0,0.003,0.002,0.006,0c0.005,0.004,0.005,0.009,0.012,0.012
					c0.005,0.001,0.011,0,0.016,0c0.026,0,0.053,0.005,0.077,0.013c0.005,0.004,0.005,0.014,0.01,0.019
					c0.006,0.021,0.022,0.035,0.02,0.058c0.001,0.001,0.002,0.001,0.003,0.003h-0.001l-0.002-0.002
					c-0.048-0.002-0.071,0.038-0.104,0.062c-0.013,0.014-0.032,0.001-0.045,0.015c-0.021,0.003-0.045-0.007-0.059,0.016
					c-0.011,0-0.021,0-0.03,0c-0.023,0.002-0.045,0.009-0.057,0.03c-0.002,0.005,0,0.017,0.004,0.02
					c0.022,0.014,0.047,0.016,0.067-0.006l0,0c0.003-0.004,0.007-0.005,0.011-0.004c0.003,0.001,0.005,0.003,0.005,0.004
					c0.005,0,0.01,0,0.015,0c0.025-0.004,0.053,0.01,0.075-0.015c0.01,0,0.019,0,0.03,0c0.049-0.003,0.099,0.005,0.147-0.006
					c0.02-0.005,0.045-0.001,0.055,0.016c0.012,0.024-0.017,0.03-0.032,0.041c-0.032,0.026-0.07,0.044-0.112,0.059
					c0.032,0.03,0.076,0.021,0.108,0.04l0,0c0.054,0.026,0.11,0.025,0.165,0c0.005,0,0.009,0,0.014,0
					c0.026-0.002,0.056,0.012,0.076-0.015c0.026-0.003,0.056,0.011,0.077-0.015l0,0c0.034-0.006,0.072,0.014,0.104-0.016
					c0.005-0.001,0.009-0.001,0.014,0c0.021-0.001,0.045,0.008,0.062-0.015c0.005,0,0.01,0,0.015,0c0.011-0.009,0.02-0.009,0.03,0
					c0.005,0.002,0.008,0.005,0.01,0.004c0.004-0.002,0.006-0.003,0.006-0.004c0.005,0,0.01,0.001,0.015,0.001
					c0.006,0.005,0.011,0.009,0.015,0.014c0.012,0.001,0.021,0.001,0.033,0.003c0.055,0.019,0.107,0.024,0.162-0.003
					c0.013,0,0.025-0.002,0.031-0.015c0.005-0.002,0.01-0.002,0.016,0c0.037,0.031,0.073-0.008,0.113-0.003
					c0.025,0.003,0.05-0.016,0.079-0.001c0.014,0.008,0.028-0.001,0.041-0.012c0.01-0.007,0.022-0.018,0.033-0.012
					c0.036,0.019,0.068,0.001,0.102-0.003c0.007,0,0.015,0,0.023,0c0.059,0.009,0.117,0.015,0.178,0.001
					c0.007-0.001,0.015-0.001,0.022-0.001c0.003,0.001,0.006,0.003,0.009,0.003c0.009,0.003,0.016,0.007,0.022,0.02
					c-0.033,0.01-0.065,0.02-0.097,0.029c0.117-0.004,0.232,0.023,0.348-0.003c0.029-0.006,0.061-0.003,0.09-0.004
					c0.043,0,0.086,0.003,0.127-0.013c0.051-0.021,0.106-0.019,0.16-0.018c0.011,0.001,0.022,0.001,0.031,0.001
					c0.01,0,0.018,0,0.027,0c0.015-0.001,0.031,0,0.046-0.001c0.055-0.001,0.106-0.002,0.157,0.018
					c0.042,0.017,0.085,0.013,0.126,0.014c0.03,0,0.062-0.004,0.092,0.003c0.113,0.027,0.229,0,0.346,0.004
					c-0.031-0.011-0.063-0.021-0.096-0.029c0.006-0.013,0.015-0.018,0.022-0.02c0.002-0.002,0.005-0.003,0.009-0.003
					c0.009-0.001,0.016-0.001,0.023,0c0.061,0.014,0.118,0.008,0.178,0c0.007-0.001,0.015-0.001,0.023,0
					c0.032,0.003,0.065,0.021,0.102,0.003c0.011-0.007,0.023,0.003,0.034,0.012c0.012,0.011,0.025,0.017,0.04,0.011
					c0.028-0.014,0.055,0.005,0.08,0.001c0.038-0.005,0.074,0.035,0.112,0.002c0.005,0,0.01,0,0.015,0.002
					c0.008,0.013,0.021,0.015,0.031,0.014c0.056,0.027,0.109,0.022,0.164,0.004c0.01-0.002,0.021-0.003,0.031-0.003
					c0.004-0.005,0.009-0.01,0.015-0.014c0.006-0.001,0.011-0.001,0.016-0.003c0,0.002,0.001,0.003,0.005,0.004
					c0.004,0.003,0.006,0,0.01-0.004c0.01-0.007,0.021-0.007,0.031,0c0.005,0,0.011,0,0.016,0.002
					c0.015,0.022,0.04,0.013,0.059,0.014c0.005,0,0.01,0,0.016,0.001c0.031,0.029,0.069,0.009,0.104,0.016v-0.002
					c0.021,0.026,0.05,0.013,0.075,0.017c0.021,0.025,0.05,0.011,0.077,0.014c0.006,0,0.008,0,0.013,0.001
					c0.056,0.024,0.111,0.025,0.165-0.001v0.001c0.033-0.022,0.077-0.011,0.11-0.04c-0.042-0.015-0.08-0.032-0.112-0.059
					c-0.016-0.013-0.045-0.018-0.032-0.041c0.008-0.017,0.034-0.021,0.055-0.017c0.048,0.01,0.098,0.004,0.147,0.005
					c0.01,0.002,0.021,0.002,0.03,0.002c0.021,0.023,0.05,0.011,0.075,0.014c0.005,0,0.01,0,0.015,0.001
					c0-0.001,0-0.004,0.005-0.005c0.003-0.002,0.008,0,0.01,0.005v-0.001c0.021,0.023,0.044,0.02,0.066,0.006
					c0.004-0.003,0.007-0.015,0.004-0.02c-0.011-0.023-0.032-0.029-0.055-0.03c-0.01-0.002-0.021,0-0.03,0
					c-0.015-0.022-0.04-0.014-0.059-0.016c-0.013-0.014-0.034-0.002-0.046-0.015c-0.033-0.025-0.057-0.063-0.104-0.063l-0.003,0.001
					l0,0c0,0,0.002-0.001,0.003-0.001c-0.004-0.022,0.015-0.039,0.02-0.059c0.004-0.004,0.005-0.014,0.011-0.018
					c0.024-0.008,0.05-0.013,0.077-0.013c0.005,0,0.01,0,0.015-0.001c0.007-0.002,0.008-0.008,0.013-0.011c0.001,0,0.003,0,0.004,0
					c-0.001-0.001-0.001-0.001-0.001-0.002c0.019-0.015,0.027-0.038,0.004-0.059c-0.084-0.073-0.182-0.108-0.294-0.108
					c-0.006-0.006-0.009-0.011-0.016-0.015l0,0c-0.018-0.013-0.032-0.027-0.045-0.045l0,0c-0.013-0.023-0.018-0.055-0.05-0.061
					c-0.043-0.007-0.027-0.037-0.025-0.063c0.005-0.005,0.01-0.01,0.016-0.016V22.13v-0.006c0.011-0.021,0.025-0.035,0.045-0.046
					c0.024,0.001,0.05,0.001,0.075,0.001c0.01,0.015,0.021,0.015,0.031,0h-0.002v-0.001c0,0.001,0.002,0.001,0.002,0.001
					c0.012-0.001,0.023-0.004,0.029-0.016l-0.001-0.002l0,0c0,0,0,0.001,0.001,0.002c0.036-0.029,0.057-0.077,0.106-0.09
					l-0.002-0.002V21.97c0,0.002,0.002,0.003,0.002,0.004c0.065-0.002,0.11-0.05,0.165-0.075c0-0.001-0.001-0.002-0.002-0.002
					c0.001,0,0.001,0,0.001,0l0.001,0.002c0.013-0.001,0.022-0.003,0.03-0.016l-0.003-0.002c0,0,0,0,0-0.001
					c0.002,0.001,0.003,0.003,0.003,0.003c0.037-0.003,0.046-0.027,0.045-0.06c-0.001-0.001-0.002-0.001-0.002-0.001V21.82
					l0.002,0.002c0.021-0.01,0.035-0.026,0.047-0.045c0.011-0.001,0.024-0.004,0.028-0.015c0.021-0.019,0.021-0.035-0.008-0.044
					c-0.023-0.008-0.047-0.017-0.072-0.017c-0.115,0.003-0.227-0.026-0.342-0.016c0,0.001,0,0.001,0,0.002c-0.001,0-0.001,0-0.001,0
					l0.001-0.002c-0.016-0.021-0.038-0.013-0.06-0.016l-0.001,0.001l0,0c0-0.001,0-0.001,0.001-0.001
					c0.011-0.021,0.026-0.039,0.049-0.044c0.152-0.028,0.303-0.065,0.456-0.077c0.073-0.007,0.146-0.027,0.218-0.043
					c0.009-0.001,0.021-0.001,0.03-0.002c0.049,0.024,0.094-0.007,0.142-0.005c0.014,0,0.031-0.016,0.028-0.04
					c-0.031-0.011-0.061,0.003-0.092,0.001C22.856,21.452,22.758,21.44,22.659,21.444z M22.421,21.364L22.421,21.364v0.002
					C22.421,21.364,22.421,21.364,22.421,21.364z M22.504,21.109c0.005,0,0.008,0,0.013,0.001c-0.007-0.001-0.009-0.001-0.016-0.001
					C22.503,21.109,22.503,21.109,22.504,21.109z M22.438,21.1c0.003,0.001,0.005,0.001,0.005,0.002
					c0.004,0.001,0.008,0.001,0.011,0.001c0.002,0.002,0.005,0.002,0.007,0.003c-0.002,0-0.01,0-0.012-0.001
					c-0.006-0.005-0.011-0.003-0.014-0.003C22.437,21.101,22.438,21.1,22.438,21.1z M22.015,21.051c0.001,0.001,0.004,0,0.006,0.001
					H22.02c-0.001,0.001-0.004,0.001-0.006,0.001C22.014,21.053,22.014,21.052,22.015,21.051z M17.592,21.11
					c0.005-0.001,0.008-0.001,0.013-0.001c0,0,0,0,0.001,0C17.6,21.11,17.597,21.109,17.592,21.11z M17.659,21.105
					c-0.004,0-0.01,0-0.014,0c0.003,0,0.005-0.001,0.008-0.001c0.004-0.002,0.006,0,0.01-0.002c0.001-0.001,0.004-0.001,0.005-0.003
					c0.001,0.001,0.004,0.002,0.004,0.002C17.668,21.103,17.663,21.1,17.659,21.105z M18.087,21.053L18.087,21.053
					c0.002-0.001,0.005-0.001,0.005-0.002c0.002,0.001,0.002,0.002,0.003,0.004C18.092,21.055,18.09,21.053,18.087,21.053z
					 M17.687,21.367c0,0,0-0.001-0.001-0.003c0.001,0,0.001,0,0.001,0S17.687,21.366,17.687,21.367z M17.606,21.466
					c0-0.001,0-0.001,0-0.003l0,0C17.606,21.465,17.606,21.465,17.606,21.466z M17.709,21.458L17.709,21.458
					c0.002-0.003,0.005-0.006,0.005-0.01C17.712,21.452,17.711,21.455,17.709,21.458z M17.725,21.519c0-0.001,0-0.003,0-0.004
					c0,0.001,0,0.003,0.002,0.004C17.726,21.519,17.725,21.519,17.725,21.519z M17.97,21.838c0,0-0.001,0-0.003,0
					c0.003-0.002,0.003-0.003,0.004-0.003C17.971,21.836,17.97,21.836,17.97,21.838z M18.043,21.612
					c0-0.001,0.002-0.001,0.002-0.003c0.002,0.003,0.004,0.004,0.005,0.006C18.047,21.615,18.045,21.612,18.043,21.612z
					 M18.058,21.643L18.058,21.643v0.001l0,0l0,0l0,0V21.643z M18.058,22.012c0-0.002,0.001-0.004,0-0.005V22.012L18.058,22.012z
					 M17.849,22.607v-0.002C17.85,22.607,17.85,22.605,17.849,22.607C17.85,22.607,17.85,22.607,17.849,22.607z M17.889,22.573
					L17.889,22.573c0.001-0.005,0.003-0.006,0.003-0.01l0.002-0.004c0.001,0.001,0,0.001,0.001,0.002
					C17.89,22.565,17.89,22.568,17.889,22.573z M17.956,22.783h-0.002c0.018-0.001,0.021-0.015,0.028-0.024
					C17.975,22.768,17.965,22.774,17.956,22.783z M18.232,20.948c0-0.003-0.003-0.004,0-0.006c0,0,0,0,0.001-0.001
					C18.232,20.942,18.232,20.946,18.232,20.948z M18.298,21.333c0-0.002,0.002-0.002,0.003-0.006
					c0.002,0.001,0.003,0.001,0.004,0.002C18.303,21.332,18.3,21.331,18.298,21.333z M18.345,21.763L18.345,21.763
					c0.003,0,0.002-0.004,0.004-0.004C18.348,21.76,18.347,21.761,18.345,21.763z M18.478,21.79c0-0.001,0-0.003,0-0.004
					c0.01,0.01,0.013,0.019,0.003,0.034C18.489,21.807,18.485,21.798,18.478,21.79z M18.54,22.575c0,0.002,0,0.002,0,0.003
					c0-0.001,0-0.001,0-0.001V22.575c0-0.001,0-0.002,0-0.002s0,0.001,0.003,0.002C18.54,22.575,18.54,22.575,18.54,22.575z
					 M18.601,22.427c0,0-0.002,0-0.003-0.001C18.599,22.426,18.601,22.426,18.601,22.427c0-0.001,0-0.001,0.001-0.001
					C18.602,22.427,18.601,22.427,18.601,22.427z M18.619,22.565c0,0,0-0.001,0.001-0.001l0,0
					C18.62,22.563,18.62,22.565,18.619,22.565z M18.658,22.815c0.001-0.001,0.001-0.002,0.001-0.004
					c0.001,0.002,0.001,0.003,0.001,0.004C18.66,22.815,18.659,22.815,18.658,22.815z M18.955,21.397
					c-0.002,0.002-0.005,0.002-0.006,0.005c0,0-0.001,0-0.001-0.002C18.95,21.4,18.953,21.398,18.955,21.397z M18.95,21.857
					c-0.001-0.001,0-0.002-0.002-0.005c0,0,0,0.001,0,0.003c-0.002-0.002-0.002-0.002-0.003-0.003c0.001,0,0.001,0,0.003,0v-0.001
					c0.004,0.004,0.007,0.007,0.01,0.012C18.953,21.863,18.952,21.86,18.95,21.857z M19.038,21.114c0,0,0.001,0,0.003,0
					c-0.002,0-0.003,0.001-0.003,0.003C19.038,21.115,19.038,21.114,19.038,21.114z M19.05,21.178
					c-0.004,0.004-0.008,0.008-0.009,0.013h-0.003C19.043,21.188,19.046,21.182,19.05,21.178z M19.038,21.265L19.038,21.265
					L19.038,21.265L19.038,21.265z M19.032,22.184c0.006,0.003,0.011,0.004,0.016,0.004c-0.004,0.002-0.007,0.005-0.013,0.005
					C19.033,22.191,19.033,22.188,19.032,22.184z M19.083,22.712c-0.001,0.003-0.005,0-0.008,0.001
					c-0.002-0.003-0.001-0.009-0.005-0.011C19.075,22.704,19.075,22.712,19.083,22.712v-0.001c0,0.001,0.001-0.001,0.003,0
					C19.084,22.711,19.084,22.712,19.083,22.712z M19.077,22.257c-0.009,0.011-0.021,0.021-0.034,0.028
					c0.027,0,0.043-0.014,0.045-0.044c0.002,0.004,0.004,0.004,0.005,0.007C19.086,22.248,19.081,22.252,19.077,22.257z
					 M19.173,21.657L19.173,21.657L19.173,21.657L19.173,21.657z M19.25,22.127c-0.002-0.002,0-0.002-0.002-0.003
					c0.002,0,0.002,0,0.003,0C19.251,22.125,19.251,22.125,19.25,22.127z M19.339,22.321c0-0.001,0-0.001,0-0.001
					c0.001,0,0.002,0.001,0.002,0.001S19.34,22.321,19.339,22.321z M19.419,21.63c-0.003-0.001-0.003-0.001-0.004-0.003v-0.001
					C19.416,21.627,19.417,21.629,19.419,21.63L19.419,21.63z M19.483,20.954c0.005,0,0.004-0.005,0.008-0.005
					c0,0.002,0,0.002,0,0.006C19.488,20.954,19.487,20.955,19.483,20.954z M19.579,21.386
					C19.579,21.385,19.579,21.385,19.579,21.386c0.001-0.001,0.002-0.001,0.002,0C19.579,21.385,19.579,21.386,19.579,21.386z
					 M19.655,21.599c0-0.001-0.002-0.001-0.002-0.001L19.655,21.599C19.656,21.598,19.655,21.598,19.655,21.599z M19.678,22.495
					c-0.002-0.001,0.001-0.002-0.002-0.003c0.003,0,0.008-0.002,0.009-0.002C19.684,22.493,19.68,22.493,19.678,22.495z
					 M19.794,22.199c-0.001,0-0.003,0-0.003-0.001c0-0.002,0-0.002,0-0.003c0,0.003,0.004,0.004,0.007,0.005
					C19.795,22.2,19.795,22.2,19.794,22.199z M19.836,22.114c0-0.003,0-0.004,0-0.005c0.002,0,0.002,0,0.002,0
					C19.836,22.11,19.839,22.111,19.836,22.114z M19.854,20.928c0.003,0,0.006,0,0.006,0c0,0.013,0.008,0.017,0.017,0.021
					C19.864,20.948,19.856,20.941,19.854,20.928z M20.137,22.787c0.001-0.001,0.001-0.001,0.002-0.001
					c-0.012-0.003-0.023,0.001-0.033,0c-0.047-0.004-0.092-0.012-0.137,0c0.002,0.001,0.003,0,0.004,0.001
					c-0.014,0.001-0.026-0.001-0.04,0c0.003,0,0.004,0,0.006,0c0.008-0.001,0.016-0.001,0.021-0.001c0.004-0.002,0.008-0.003,0.01,0
					c0.025-0.002,0.053-0.004,0.079-0.005c0.031,0.001,0.062,0.005,0.091,0.005c0.003-0.002,0.008-0.002,0.012,0
					c0.005,0,0.01,0.001,0.015,0.001C20.156,22.786,20.146,22.787,20.137,22.787z M20.231,20.948
					c0.008-0.006,0.017-0.009,0.017-0.021c0.001,0,0.004,0,0.005,0C20.251,20.94,20.244,20.948,20.231,20.948z M20.271,22.112
					c-0.001-0.002,0-0.002-0.001-0.003c0-0.002,0,0,0.001,0C20.271,22.11,20.271,22.111,20.271,22.112z M20.316,22.198
					c-0.001,0-0.002,0-0.002,0.001c-0.003,0-0.003,0-0.005,0c0.002-0.001,0.006-0.003,0.007-0.005
					C20.316,22.196,20.316,22.195,20.316,22.198z M20.43,22.494c-0.003-0.002-0.005-0.001-0.008-0.004
					c0.003,0,0.006,0.002,0.009,0.002C20.43,22.493,20.432,22.493,20.43,22.494z M20.452,21.598L20.452,21.598
					c0-0.002,0.001-0.002,0.001-0.002C20.453,21.598,20.452,21.596,20.452,21.598z M20.527,21.385c0,0,0,0,0.001-0.002
					c0,0.002,0.001,0.002,0.001,0.002C20.529,21.386,20.528,21.385,20.527,21.385z M20.617,20.955c0-0.004,0-0.004,0-0.007
					c0.002,0,0.002,0.005,0.006,0.005C20.619,20.954,20.619,20.953,20.617,20.955z M20.692,21.626c0,0.001-0.001,0.003-0.003,0.004
					l0,0C20.69,21.629,20.692,21.627,20.692,21.626L20.692,21.626z M20.77,22.32c-0.002,0-0.002,0.001-0.002,0.001
					C20.768,22.32,20.768,22.32,20.77,22.32C20.77,22.32,20.77,22.32,20.77,22.32z M20.857,22.125L20.857,22.125
					C20.857,22.124,20.857,22.124,20.857,22.125C20.857,22.125,20.858,22.125,20.857,22.125z M20.934,21.656L20.934,21.656
					c0,0,0,0,0.001,0C20.934,21.656,20.934,21.656,20.934,21.656z M21.07,21.113C21.07,21.114,21.07,21.114,21.07,21.113
					c-0.002,0.001-0.003,0.001-0.003,0C21.067,21.113,21.068,21.113,21.07,21.113z M21.07,21.19c-0.002,0.001-0.003,0-0.003,0
					c-0.002-0.005-0.005-0.009-0.01-0.012C21.063,21.181,21.065,21.187,21.07,21.19z M21.07,21.265L21.07,21.265c0,0,0,0-0.002,0
					C21.07,21.265,21.07,21.265,21.07,21.265z M21.031,22.713c-0.001-0.001-0.006,0-0.006-0.001c-0.003,0-0.003-0.002-0.003-0.002
					s0.001,0.001,0.003,0c0,0,0,0.001,0,0.002c0.006,0,0.007-0.009,0.012-0.011C21.032,22.704,21.034,22.71,21.031,22.713z
					 M21.03,22.255c-0.004-0.005-0.009-0.007-0.016-0.007c0-0.004,0.003-0.004,0.005-0.007c0.002,0.029,0.017,0.044,0.046,0.044
					C21.052,22.278,21.04,22.267,21.03,22.255z M21.072,22.192c-0.006-0.001-0.01-0.003-0.014-0.005
					c0.007-0.001,0.012-0.002,0.017-0.004C21.074,22.187,21.075,22.19,21.072,22.192z M21.16,21.4c-0.001,0-0.003,0-0.003,0.002
					c0-0.003-0.002-0.004-0.006-0.005C21.155,21.397,21.156,21.4,21.16,21.4z M21.16,21.854C21.16,21.853,21.16,21.853,21.16,21.854
					c-0.003,0.002-0.003,0.002-0.003,0.003c-0.002,0.002-0.003,0.006-0.007,0.007c0.002-0.005,0.005-0.008,0.01-0.012
					C21.16,21.852,21.16,21.852,21.16,21.854C21.16,21.853,21.16,21.853,21.16,21.854C21.16,21.853,21.16,21.853,21.16,21.854z
					 M21.446,22.815c0-0.002,0.002-0.002,0.002-0.004c0,0,0,0.002,0.001,0.004C21.448,22.815,21.448,22.815,21.446,22.815z
					 M21.486,22.562c0.002,0,0.002,0,0.002,0v0.002C21.488,22.563,21.488,22.562,21.486,22.562z M21.508,22.427
					c0-0.001-0.002,0-0.002-0.001C21.507,22.426,21.507,22.426,21.508,22.427c0-0.001,0-0.003,0.001-0.001
					C21.508,22.426,21.508,22.427,21.508,22.427z M21.568,22.577l-0.002-0.002c0,0,0,0-0.001,0c0.001-0.001,0.001-0.002,0.001-0.002
					s0,0.001,0,0.002L21.568,22.577L21.568,22.577z M21.631,21.789c-0.009,0.009-0.013,0.017-0.004,0.029
					c-0.01-0.014-0.007-0.023,0.004-0.032V21.789z M21.762,21.763c-0.001-0.003-0.001-0.003-0.004-0.005
					c0.003,0.001,0.003,0.003,0.006,0.003C21.764,21.763,21.764,21.763,21.762,21.763z M21.802,21.328
					c0.002,0,0.004-0.001,0.004-0.001c0.001,0.002,0.004,0.002,0.005,0.005C21.809,21.331,21.806,21.331,21.802,21.328z
					 M21.876,20.946c-0.001,0,0-0.004-0.003-0.005c0.002,0,0.002,0,0.003,0C21.877,20.944,21.875,20.944,21.876,20.946z
					 M22.259,22.605L22.259,22.605L22.259,22.605L22.259,22.605z M22.214,22.56l0.001,0.002c0,0.004,0.004,0.007,0.004,0.011l0,0
					C22.219,22.568,22.218,22.565,22.214,22.56L22.214,22.56z M22.152,22.783L22.152,22.783c-0.009-0.009-0.018-0.018-0.027-0.024
					C22.134,22.768,22.136,22.782,22.152,22.783z M22.05,22.01h-0.001l0.001-0.003C22.049,22.008,22.05,22.009,22.05,22.01z
					 M22.051,21.644c0-0.001-0.001-0.001-0.001-0.001h0.001H22.05c0.001,0,0.001,0,0.001,0l0,0
					C22.051,21.643,22.051,21.643,22.051,21.644z M22.059,21.613c0-0.001,0.002-0.002,0.004-0.005c0,0.003,0.001,0.001,0.001,0.003
					C22.063,21.611,22.06,21.613,22.059,21.613z M22.14,21.836c-0.001,0-0.001,0.002-0.001,0.002c0-0.002-0.003-0.003-0.003-0.004
					C22.139,21.835,22.139,21.836,22.14,21.836z M22.384,21.518c-0.001,0-0.003,0-0.003,0c0.002,0,0.002-0.002,0.003-0.003
					C22.384,21.516,22.384,21.516,22.384,21.518z M22.398,21.457c-0.002-0.004-0.002-0.006-0.005-0.009
					C22.394,21.452,22.396,21.453,22.398,21.457L22.398,21.457z M22.501,21.466C22.5,21.465,22.5,21.463,22.5,21.462h0.001
					C22.5,21.463,22.501,21.465,22.501,21.466z"/>
				<path style="fill-rule:evenodd;clip-rule:evenodd;" d="M21.195,22.882c0.001,0.003,0.008,0.007,0.011,0.006
					c0.005,0,0.007-0.006,0.003-0.011c-0.001-0.002-0.006-0.005-0.01-0.006C21.197,22.875,21.194,22.88,21.195,22.882z"/>
				<path style="fill-rule:evenodd;clip-rule:evenodd;" d="M22.692,21.355c0.002-0.002-0.001-0.005-0.002-0.006
					c-0.007,0.004-0.007,0.006-0.001,0.011C22.691,21.359,22.692,21.357,22.692,21.355z"/>
				<path style="fill-rule:evenodd;clip-rule:evenodd;" d="M16.971,21.469c0.016,0.003,0.028-0.002,0.035-0.018
					c-0.015-0.007-0.028-0.008-0.04,0.006C16.964,21.461,16.964,21.467,16.971,21.469z"/>
				<path style="fill-rule:evenodd;clip-rule:evenodd;" d="M18.898,22.879c-0.004,0.003-0.003,0.01,0.002,0.01
					s0.01-0.003,0.013-0.007c0-0.002-0.003-0.006-0.005-0.011C18.905,22.873,18.9,22.875,18.898,22.879z"/>
				<path style="fill-rule:evenodd;clip-rule:evenodd;" d="M17.414,21.355c0,0.002,0.003,0.004,0.005,0.005
					c0.004-0.003,0.004-0.007-0.002-0.011C17.417,21.352,17.414,21.354,17.414,21.355z"/>
			</g>
	</g>
</svg>
