<?xml version="1.0" encoding="utf-8"?>
<svg xmlns="http://www.w3.org/2000/svg" viewBox="2.136 15.616 5.517 2.369">
	<g>
			<g>
				<path style="fill-rule:evenodd;clip-rule:evenodd;" d="M7.589,15.883c0,0.002-0.002,0.003-0.002,0.003l0,0L7.589,15.883
					c-0.042-0.035-0.098-0.055-0.123-0.108c-0.005-0.007-0.01-0.012-0.015-0.017c-0.007-0.048-0.061-0.053-0.085-0.086
					c-0.02-0.031-0.053-0.036-0.087-0.036c-0.08-0.003-0.158,0.014-0.238,0.001c-0.018-0.003-0.035,0.005-0.054,0.005
					c-0.113,0.001-0.214,0.051-0.322,0.077C6.581,15.74,6.49,15.75,6.408,15.79c-0.018,0.002-0.035-0.001-0.046,0.016
					c0.001,0.001,0.003,0.002,0.004,0.004H6.364l-0.003-0.004c-0.016,0.001-0.035-0.001-0.046,0.016l0.002,0.003
					c0,0-0.001,0-0.001,0.001c0-0.001-0.001-0.002-0.001-0.004c-0.034,0.018-0.077,0.007-0.108,0.031v0.003l0,0c0,0,0-0.001,0-0.003
					c-0.054,0.007-0.107,0.008-0.16,0.021c-0.126,0.031-0.251,0.066-0.378,0.1c-0.028,0.009-0.059,0.016-0.085,0.034
					c-0.025,0.006-0.055-0.01-0.075,0.018c0.025,0,0.05-0.001,0.075-0.003l0,0c-0.001,0.002-0.002,0.002-0.005,0.003
					c-0.022-0.01-0.046-0.012-0.07,0c-0.012,0.013-0.032,0.003-0.047,0.013c-0.007,0.001-0.018,0.002-0.026,0.005
					c-0.079,0.004-0.159,0.018-0.234,0.034c-0.12,0.025-0.241,0.04-0.363,0.057c-0.026,0.004-0.055,0.008-0.074,0.033h0.001
					c-0.112-0.021-0.223,0.018-0.335,0.015c-0.01-0.001-0.018,0.007-0.025,0.016l-0.003,0.003l-0.006-0.002
					C4.39,16.199,4.39,16.203,4.391,16.21c-0.001,0-0.002-0.002-0.002-0.002c0.002-0.003,0.005-0.007,0.007-0.011
					c-0.015-0.007-0.03-0.013-0.05-0.012c-0.172,0.008-0.343,0.03-0.515,0.025c-0.058-0.001-0.119-0.003-0.175,0.005
					c-0.087,0.012-0.175,0.003-0.262,0.012c-0.002,0.002-0.005,0.001-0.007,0c-0.047,0.01-0.096,0.012-0.144-0.002
					c0.01-0.023,0.046-0.005,0.055-0.033c-0.005-0.004-0.007-0.011-0.013-0.011c-0.117-0.001-0.235-0.001-0.353-0.002
					c-0.015,0-0.03,0-0.045-0.001c-0.005-0.006-0.011-0.006-0.017,0c-0.011,0-0.021,0-0.031,0c-0.052-0.012-0.103-0.013-0.155,0.001
					c-0.015,0.011-0.031,0.011-0.046,0c-0.006-0.005-0.013-0.007-0.02-0.004H2.617c-0.022-0.009-0.047-0.009-0.073-0.013
					c-0.01,0-0.02,0.002-0.03,0.002c-0.038-0.033-0.083-0.009-0.125-0.018c-0.01-0.013-0.022-0.02-0.038-0.008
					c-0.008,0.009-0.002,0.018,0.007,0.023c0.01,0,0.02,0,0.03,0c0.01,0.012,0.021,0.014,0.035,0.017
					c0.02,0.002,0.055-0.01,0.053,0.025c-0.002,0.031-0.036,0.02-0.058,0.02c-0.058-0.001-0.115-0.023-0.175-0.013l-0.005,0.003
					l-0.003-0.003c-0.021-0.028-0.052-0.014-0.079-0.018c0,0.005,0,0.011,0,0.016c0,0.031,0,0.063,0,0.094c0,0.098,0,0.196,0,0.294
					c0,0.016,0,0.031,0,0.048c0,0.015,0,0.029,0,0.046c0,0.019,0,0.041,0,0.061c0,0.077,0,0.155,0,0.233c0,0.094,0,0.187,0,0.28
					c0,0.103,0,0.206,0,0.311c0.035,0.014,0.047-0.011,0.063-0.03c-0.007,0.012-0.025,0.018-0.063,0.03c0,0.005,0,0.01,0,0.015
					c0,0.094,0,0.187,0,0.279c0,0.021,0,0.042,0,0.063c0,0.005,0,0.01,0,0.015c0.085-0.009,0.169,0.014,0.253,0.012
					c0.046,0,0.092-0.024,0.138-0.007c0.04,0.014,0.083,0.014,0.123,0.011c0.103-0.009,0.207-0.011,0.31-0.012
					c0.193-0.004,0.383-0.033,0.576-0.035c0.01,0,0.021,0,0.031-0.002c0.094-0.02,0.189-0.022,0.284-0.026
					c0.167-0.008,0.333,0.023,0.501,0.015c0.054-0.002,0.109-0.004,0.16-0.02c0.064-0.02,0.131-0.022,0.191-0.008
					c0.098,0.025,0.194,0.015,0.291,0.009c0.083-0.006,0.169-0.01,0.247-0.052c0.059-0.032,0.117-0.064,0.188-0.056
					c0.02,0.001,0.043-0.008,0.06-0.017c0.128-0.07,0.273-0.068,0.412-0.089c0.137-0.021,0.275-0.028,0.411-0.06
					c0.036-0.009,0.076-0.017,0.114-0.019c0.109-0.005,0.213-0.036,0.318-0.058c0.115-0.023,0.23-0.045,0.347-0.068
					c0.046-0.01,0.098-0.01,0.136-0.048v0.002c0.013-0.015,0.033-0.003,0.045-0.016c0.022-0.007,0.037-0.023,0.05-0.042
					c-0.019,0.001-0.038,0.005-0.056,0.006c-0.01-0.003-0.025,0.003-0.038,0.004c-0.004,0.002-0.009,0.004-0.013,0.004
					c-0.034,0.005-0.062-0.019-0.096-0.012c-0.066,0.016-0.134,0.03-0.203,0.025c-0.018-0.001-0.035,0-0.048,0.018
					c-0.005,0-0.01,0-0.014-0.002c-0.001-0.006-0.001-0.012-0.001-0.019c0.007-0.013,0.017-0.014,0.03-0.014
					c0.01-0.008,0.022-0.006,0.033-0.013c0.005,0,0.011,0,0.018,0c0.01,0.007,0.02,0.007,0.03-0.001
					c0.004-0.001,0.009-0.002,0.013-0.002c0.009-0.008,0.022-0.007,0.031-0.015c0,0,0.001-0.001,0.001,0l0.001-0.001H7.028
					c0.01-0.01,0.018-0.022,0-0.026c-0.01-0.002-0.021,0.005-0.032,0.004c-0.014,0-0.029,0.005-0.042,0.006
					c-0.006,0-0.013,0-0.018-0.001c-0.015-0.006-0.03-0.007-0.045,0.001c-0.01,0.002-0.02,0.002-0.03,0.003
					c-0.042,0.005-0.087-0.017-0.125,0.014c-0.005,0.001-0.01,0.001-0.015,0.001c0,0.006,0,0.012,0,0.017c-0.002,0-0.002,0-0.004,0
					c0.002-0.005,0.006-0.009,0.004-0.017c-0.029,0-0.056,0.003-0.085,0.008c-0.045,0.01-0.094,0.022-0.143-0.011
					c0.012-0.007,0.017-0.011,0.025-0.013c0.078-0.024,0.163-0.01,0.241-0.044c0.031-0.013,0.064-0.03,0.102-0.023
					c0.013,0.002,0.047,0,0.055-0.039c-0.059,0.02-0.111,0.013-0.182,0.013c0.102-0.044,0.188-0.082,0.274-0.118
					c0.014-0.006,0.031-0.005,0.046-0.004c0.079,0.008,0.119-0.019,0.144-0.099v-0.005c-0.001-0.009-0.008-0.017-0.015-0.021l0,0
					c-0.02-0.072-0.093-0.095-0.142-0.139l0.001,0.003c-0.018-0.061-0.02-0.061-0.09-0.066c-0.001,0.001-0.003,0.004-0.003,0.005
					c0,0-0.001,0-0.002-0.001l0.005-0.004c-0.005-0.005-0.01-0.011-0.015-0.016c-0.002-0.02-0.013-0.029-0.03-0.032
					c-0.022-0.015-0.042-0.031-0.065-0.046c0,0.001-0.001,0.002-0.002,0.003l0,0l0.002-0.003c-0.005-0.008-0.011-0.013-0.02-0.013
					c-0.005,0-0.007,0-0.011-0.004c-0.011-0.006-0.024-0.008-0.036-0.012c-0.004,0.002-0.008,0.002-0.01-0.002
					c-0.018-0.026,0-0.044,0.02-0.057c0.044-0.033,0.088-0.067,0.136-0.095c0.019-0.012,0.034-0.023,0.042-0.043
					c0.02-0.059,0.064-0.089,0.118-0.111c0.02-0.009,0.042-0.016,0.058-0.035c0.025-0.003,0.046-0.012,0.063-0.031l-0.004-0.005
					c0.001,0,0.001,0,0.001,0c0,0.002,0.001,0.003,0.002,0.005c0.071-0.007,0.135-0.046,0.208-0.054
					c0.018-0.002,0.029-0.022,0.008-0.04c-0.009-0.006-0.018-0.011-0.02-0.026c0.01-0.005,0.021-0.011,0.032-0.019
					c0.038-0.022,0.068-0.063,0.123-0.036c0.009,0.005,0.03-0.008,0.04-0.017C7.649,16.042,7.646,15.945,7.589,15.883z
					 M6.176,15.888L6.176,15.888L6.176,15.888L6.176,15.888z M2.294,17.652c-0.001-0.003-0.002-0.007-0.004-0.009
					c0.002,0.002,0.006,0.004,0.008,0.009C2.296,17.652,2.295,17.653,2.294,17.652z M2.281,17.612c0-0.001,0-0.001,0-0.001
					c0.002-0.002,0.002-0.004,0.006-0.003C2.284,17.607,2.284,17.611,2.281,17.612z M2.281,17.653L2.281,17.653c0,0,0,0,0,0.001
					C2.281,17.653,2.281,17.653,2.281,17.653z M7.461,15.837c0,0.001,0,0.001,0,0.002c-0.001,0,0,0.002-0.002,0.003
					C7.461,15.841,7.459,15.838,7.461,15.837z M6.456,17.223c0,0.002-0.002,0.002-0.002,0.003c-0.001-0.003-0.003,0-0.005-0.003
					c0.011-0.007,0.021-0.018,0.022-0.04c0-0.003,0.005-0.006,0.008-0.01C6.47,17.187,6.46,17.199,6.46,17.214
					C6.46,17.218,6.456,17.22,6.456,17.223z M2.648,17.852c0-0.002,0.001-0.004,0.001-0.007C2.649,17.848,2.647,17.85,2.648,17.852z
					 M6.427,15.944C6.428,15.944,6.428,15.944,6.427,15.944c0,0.001-0.001,0.001-0.004,0.001
					C6.424,15.944,6.425,15.945,6.427,15.944z M3.241,17.692c-0.001,0.02-0.026,0.015-0.034,0.036c0,0.001,0-0.001,0,0
					c0.017-0.008,0.032-0.018,0.032-0.036H3.241z M2.659,17.742c0.01-0.002,0.013-0.01,0.014-0.02
					C2.677,17.731,2.67,17.737,2.659,17.742z M2.437,17.079c0.005-0.002,0.01-0.002,0.014-0.005
					c-0.001,0.004-0.005,0.003-0.006,0.005C2.441,17.078,2.439,17.079,2.437,17.079z M4.856,16.535c0,0,0.001,0,0.002,0
					C4.859,16.535,4.857,16.536,4.856,16.535c0,0.005,0.002,0.007,0.004,0.011C4.856,16.544,4.859,16.539,4.856,16.535L4.856,16.535
					L4.856,16.535L4.856,16.535z M5.452,16.626c0.015,0.018,0.021,0.011,0.032,0.014c-0.01-0.005-0.02-0.005-0.03-0.009
					C5.453,16.629,5.455,16.631,5.452,16.626z M7.356,15.914c-0.01,0.003-0.013,0.013-0.015,0.022
					c0.006-0.006,0.011-0.014,0.012-0.022C7.355,15.914,7.356,15.914,7.356,15.914z M7.06,16.118c0.001,0,0.001,0,0.002,0
					c-0.001,0.001-0.003,0.001-0.006,0.003C7.057,16.119,7.059,16.119,7.06,16.118z M6.507,16.776
					C6.507,16.776,6.508,16.776,6.507,16.776c-0.002,0.005,0,0.01-0.001,0.014c-0.002-0.001,0-0.004-0.002-0.005v-0.001
					C6.504,16.781,6.505,16.779,6.507,16.776c0,0-0.001,0-0.001-0.001c0.028-0.017,0.028-0.047,0.033-0.073
					C6.533,16.728,6.521,16.753,6.507,16.776z M5.446,16.739L5.446,16.739L5.446,16.739L5.446,16.739z M6.159,17.357
					c-0.002,0.005-0.006,0.008-0.006,0.015C6.15,17.365,6.155,17.362,6.159,17.357z M3.528,16.732L3.528,16.732L3.528,16.732
					L3.528,16.732z M5.553,16.83c-0.012-0.005-0.027-0.005-0.035-0.018c-0.006-0.01,0.005-0.014,0.009-0.021
					C5.529,16.813,5.54,16.824,5.553,16.83z M6.205,17.058c0,0.003,0.001,0.004,0,0.005C6.203,17.06,6.2,17.058,6.199,17.056
					C6.201,17.056,6.203,17.058,6.205,17.058z M5.973,17.359c-0.003-0.006-0.008-0.014-0.013-0.021
					c0.007-0.004,0.014-0.001,0.02,0.008C5.981,17.352,5.975,17.354,5.973,17.359z M5.049,17.54c0-0.004-0.002-0.008-0.005-0.011
					l0,0c0,0.003,0.002,0.004,0.004,0.007C5.05,17.537,5.053,17.538,5.049,17.54z M3.839,16.729c-0.001,0-0.001,0.002-0.001,0.002
					v-0.002H3.839z M4.145,16.542c0.004,0.007,0.009,0.011,0.012,0.017c-0.002,0.003-0.006,0.004-0.006,0.008
					C4.148,16.559,4.146,16.551,4.145,16.542z M4.997,16.815L4.997,16.815c-0.001,0.001-0.002,0.002-0.005,0.004
					c0.001-0.002,0-0.004,0.001-0.006C4.994,16.815,4.995,16.813,4.997,16.815z M5.665,16.928c-0.02-0.011-0.042-0.009-0.063-0.01
					c0.021,0,0.041,0.009,0.063,0.006C5.665,16.925,5.665,16.927,5.665,16.928z M6.188,16.497c-0.001,0-0.002-0.001-0.002-0.001
					s0,0,0-0.001C6.187,16.496,6.187,16.496,6.188,16.497z M5.887,17.016c0,0.002,0,0.004-0.002,0.005
					c0,0.001,0.002,0.002,0.002,0.004c-0.003,0.004-0.006,0.009-0.007,0.013c0-0.002,0-0.003,0.001-0.004l0,0
					c0.001-0.002,0-0.003,0.001-0.004c0.001-0.003,0.002-0.005,0.002-0.009c0-0.001,0-0.001,0-0.003c0-0.001,0-0.001,0.001-0.004
					C5.887,17.014,5.887,17.014,5.887,17.016z M5.991,16.799c-0.001,0-0.001,0-0.001,0v-0.001
					C5.99,16.798,5.993,16.798,5.991,16.799z M6.149,16.753c-0.008-0.004-0.013-0.012-0.021-0.009c0-0.002,0-0.002,0-0.002
					C6.135,16.745,6.143,16.749,6.149,16.753z M5.933,16.607c0-0.004,0-0.008,0-0.01c0.002-0.005,0.007-0.003,0.01-0.003
					C5.938,16.599,5.934,16.602,5.933,16.607z M5.987,16.8v-0.001c0,0,0.001,0,0.001,0.001H5.987L5.987,16.8
					C5.987,16.8,5.987,16.802,5.987,16.8C5.987,16.8,5.987,16.8,5.987,16.8z M5.475,17.1L5.475,17.1L5.475,17.1L5.475,17.1z
					 M5.355,17.271L5.355,17.271h0.001H5.355z M4.966,17.296C4.966,17.298,4.966,17.297,4.966,17.296L4.966,17.296
					C4.966,17.297,4.966,17.297,4.966,17.296C4.966,17.297,4.968,17.294,4.966,17.296z M5.221,17.15
					c0.002,0.001,0.003-0.001,0.006-0.001c-0.018,0.002-0.029,0.013-0.034,0.03c0-0.003,0.001-0.006,0-0.007
					C5.187,17.15,5.204,17.145,5.221,17.15z M5.222,17.222c-0.002-0.001-0.005,0-0.007,0c-0.014-0.002-0.015-0.01-0.017-0.017
					C5.204,17.214,5.212,17.22,5.222,17.222z M4.914,17.385c-0.005-0.002-0.01-0.002-0.015,0
					C4.904,17.385,4.909,17.382,4.914,17.385z M5.329,17.048c0.017,0.001,0.028,0.013,0.04,0.021
					C5.357,17.06,5.344,17.052,5.329,17.048z M5.684,17.122c-0.006,0.001-0.01,0.001-0.015,0.002
					c0.004-0.005,0.006-0.011,0.004-0.018C5.677,17.11,5.681,17.115,5.684,17.122z M4.704,16.9c0,0.001,0,0.001,0,0.002
					c-0.001,0,0,0.002-0.002,0.002C4.704,16.902,4.701,16.9,4.704,16.9z M6.528,16.153l0.002,0.003
					C6.53,16.156,6.529,16.153,6.528,16.153z M6.304,16.142c0.003,0.011,0.001,0.017-0.004,0.021
					C6.304,16.156,6.31,16.152,6.304,16.142z M6.223,16.226c-0.002,0-0.005,0-0.009,0c-0.001,0-0.001,0-0.001-0.001
					c0.002,0.001,0.005,0.001,0.007,0C6.22,16.225,6.223,16.225,6.223,16.226z M5.493,16.908c-0.001-0.002-0.002-0.002-0.004-0.003
					c0.003,0,0.005,0.001,0.006,0C5.496,16.908,5.493,16.905,5.493,16.908z M5.367,16.904c0,0.001,0.002,0.002,0.002,0.004
					c-0.002-0.003-0.005,0-0.007-0.003C5.364,16.905,5.366,16.905,5.367,16.904z M4.561,16.938L4.561,16.938
					c0,0.002,0,0.002,0,0.002l0,0C4.561,16.938,4.561,16.938,4.561,16.938z M3.285,17.474c-0.001,0.001-0.001-0.002-0.002,0
					c0-0.003,0-0.004,0.001-0.007C3.285,17.47,3.282,17.472,3.285,17.474z M4.141,16.856c0-0.001-0.004-0.003-0.004-0.003
					s0.003,0.002,0.001,0c0.01,0.004,0.015,0.016,0.022,0.021c0,0.002-0.002,0-0.002,0.002c0-0.011-0.01-0.011-0.015-0.016
					C4.142,16.86,4.142,16.857,4.141,16.856z M4.087,17.021c-0.001,0,0,0.001-0.001,0.001l0,0
					C4.085,17.022,4.085,17.021,4.087,17.021z M4.188,17.074L4.188,17.074H4.187H4.188z M2.964,16.853c0.001,0,0.003,0,0.003,0
					s0,0-0.001,0H2.964z M3.095,16.739v-0.002V16.739z M3.353,17.157c-0.002,0.002-0.002,0.005-0.005,0.007
					c0-0.002,0.002-0.005,0.001-0.007C3.35,17.157,3.35,17.157,3.353,17.157z M3.226,16.932c-0.004-0.001-0.004-0.007-0.006-0.009
					c0.005,0.001,0.01,0.001,0.015-0.001C3.232,16.927,3.232,16.933,3.226,16.932z M3.302,17.265c0,0.009,0.001,0.019,0.002,0.028
					c-0.002-0.02-0.014-0.03-0.035-0.027C3.281,17.265,3.291,17.262,3.302,17.265z M3.516,17.155
					c-0.001,0.002-0.001,0.005-0.002,0.005c-0.001,0-0.003-0.001-0.006-0.001C3.51,17.158,3.513,17.158,3.516,17.155z M3.417,17.087
					c-0.001,0-0.002,0-0.002-0.002c0.001,0.002,0.001-0.001,0.002,0C3.417,17.087,3.417,17.087,3.417,17.087z M3.057,17.062V17.06
					c0.001-0.001,0.002,0.001,0.002,0C3.06,17.062,3.057,17.06,3.057,17.062z M2.699,16.878L2.699,16.878L2.699,16.878L2.699,16.878
					z M2.852,17.157c0.002,0,0.002,0,0.002,0c-0.001,0.002-0.002,0.006-0.005,0.008C2.85,17.162,2.854,17.16,2.852,17.157z
					 M3.29,17.378L3.29,17.378c-0.01,0.005,0.005-0.011,0.003,0c0,0.004,0.001,0.004,0.001,0.008
					C3.292,17.383,3.292,17.381,3.29,17.378z M4.236,16.847c-0.007-0.001-0.013,0.007-0.02,0.007
					c0.006-0.003,0.013-0.003,0.018-0.008C4.233,16.846,4.236,16.846,4.236,16.847z M4.037,16.638c0.001,0,0.003,0.001,0.003,0.001
					c-0.001,0-0.001,0-0.001,0L4.037,16.638z M3.172,16.565v-0.002c0,0,0.001,0,0.002,0C3.175,16.565,3.172,16.563,3.172,16.565z
					 M3.079,16.974c-0.001,0.003-0.002,0.006-0.004,0.007c-0.009,0.005-0.014,0-0.02-0.001C3.063,16.979,3.071,16.979,3.079,16.974z
					 M2.607,16.8c-0.003,0.004-0.005,0-0.008,0.002c0-0.003,0.005,0,0.005-0.004C2.605,16.798,2.605,16.8,2.607,16.8z M3.633,17.349
					c0-0.003-0.002-0.004-0.001-0.007c0.004,0.001,0.006,0.001,0.01,0.001C3.638,17.346,3.635,17.346,3.633,17.349z M3.848,17.312
					c0,0,0,0,0,0.002c-0.001-0.002-0.001-0.002-0.001-0.002C3.848,17.312,3.848,17.312,3.848,17.312z M4.423,17.36
					c-0.006-0.006-0.015-0.009-0.022-0.012c-0.002-0.002-0.006-0.004-0.01-0.006l0,0l0,0c0.002,0.002,0.005,0.002,0.006,0.003
					c-0.001-0.001-0.003,0-0.006-0.003c0.003,0,0.005,0.004,0.007,0.004c0.001,0,0.002,0.002,0.002,0.002
					c0.008,0.002,0.015,0.006,0.021,0.01C4.423,17.358,4.423,17.359,4.423,17.36L4.423,17.36c0,0.002,0.002,0.003,0.002,0.004
					C4.425,17.363,4.425,17.362,4.423,17.36z M5.304,17.396L5.304,17.396L5.304,17.396z M5.415,17.398
					c0.002-0.001,0.009-0.003,0.01-0.001c0,0.001-0.001,0.002-0.002,0.002C5.419,17.399,5.417,17.398,5.415,17.398z M6.13,16.924
					C6.13,16.924,6.13,16.924,6.13,16.924s0.001,0,0.003,0C6.131,16.924,6.13,16.924,6.13,16.924z M6.223,16.874
					c0.001,0,0.001-0.001,0.002,0c-0.002,0,0,0.003-0.002,0.004C6.223,16.877,6.223,16.875,6.223,16.874z M6.4,16.611
					c0.03-0.031,0.067-0.004,0.099-0.013V16.6C6.464,16.581,6.427,16.586,6.4,16.611z M6.427,16.485
					c-0.009-0.023,0.01-0.033,0.023-0.047l0,0c-0.021,0.01-0.022,0.031-0.02,0.053C6.428,16.488,6.428,16.487,6.427,16.485z
					 M7.001,15.887L7,15.886C7,15.886,7,15.886,7.001,15.887L7.001,15.887L7.001,15.887z M5.033,16.594
					c-0.001,0-0.004,0.001-0.006,0.001c0.001-0.001,0.005-0.002,0.005-0.004C5.032,16.593,5.033,16.593,5.033,16.594z M4.334,16.825
					c0-0.003,0.004-0.001,0.004-0.004C4.337,16.824,4.336,16.824,4.334,16.825z M3.858,16.878v0.001c0-0.004-0.005-0.006-0.005-0.01
					C3.854,16.873,3.86,16.877,3.858,16.878z M2.514,16.859L2.514,16.859c0,0.001,0,0.002-0.001,0.002c-0.001,0,0,0-0.001,0
					C2.514,16.861,2.514,16.86,2.514,16.859z M2.544,17.11c-0.001,0-0.002,0-0.005-0.001c0.001,0,0.002,0,0.002-0.001
					C2.542,17.109,2.544,17.109,2.544,17.11z M2.997,17.496c-0.001,0-0.001,0-0.002,0c0.001-0.002,0-0.002,0.001-0.003
					C2.996,17.494,2.997,17.494,2.997,17.496z M3.803,17.185c0-0.004-0.009-0.001-0.005-0.006c0.002-0.004,0.009,0.001,0.013-0.002
					C3.808,17.18,3.804,17.182,3.803,17.185z M5.687,17.31c0.005-0.007,0.013-0.009,0.015-0.017
					c0.002,0.003,0.006,0.004,0.007,0.008C5.704,17.3,5.695,17.306,5.687,17.31z M6.084,17.242c-0.004,0-0.009,0.003-0.013,0.005
					C6.076,17.245,6.079,17.24,6.084,17.242z M6.16,16.924L6.16,16.924c0.005,0.001,0.01-0.002,0.014-0.001
					C6.17,16.923,6.165,16.924,6.16,16.924z M6.47,16.723L6.47,16.723L6.47,16.723L6.47,16.723z M6.484,16.541
					c-0.006,0.009-0.017,0.021-0.024,0.013c-0.005-0.009-0.009-0.018-0.014-0.028c0.011,0.012,0.026,0.017,0.041,0.015
					C6.487,16.541,6.485,16.539,6.484,16.541z M6.621,16.287c0,0,0-0.001-0.001-0.001c0.011,0.006,0.019,0,0.029-0.003
					C6.638,16.286,6.63,16.287,6.621,16.287z M5.655,16.634c0.001,0.004,0.002,0.009,0.005,0.014
					c-0.006,0.004-0.014,0.001-0.02,0.005C5.647,16.646,5.652,16.643,5.655,16.634z M4.883,16.68c-0.001-0.001-0.002,0.002-0.004,0
					c0.001-0.001,0.001-0.005,0.002-0.006C4.881,16.677,4.884,16.678,4.883,16.68z M4.685,16.582c0.001,0,0.001,0.002,0.001,0.002
					v0.001C4.686,16.584,4.685,16.584,4.685,16.582z M4.376,16.893C4.376,16.893,4.376,16.893,4.376,16.893
					S4.376,16.893,4.376,16.893L4.376,16.893z M4.334,16.763c0.001,0,0.001,0,0.002,0c0.003,0,0,0.005,0.001,0.005
					C4.337,16.767,4.337,16.763,4.334,16.763z M4.022,16.481c-0.004-0.019-0.013-0.033-0.034-0.039c0.001,0,0.002,0,0.002,0
					c0.027,0,0.022,0.025,0.032,0.037C4.023,16.481,4.021,16.479,4.022,16.481z M3.894,16.65c-0.002,0-0.002,0-0.005,0
					c0.001-0.003,0.005-0.003,0.006-0.004C3.896,16.647,3.893,16.648,3.894,16.65z M3.698,16.52
					c-0.006-0.006-0.013-0.012-0.015-0.022c-0.001-0.002-0.002-0.004-0.003-0.007c0.009,0.006-0.004-0.002,0.003,0.006
					C3.685,16.506,3.691,16.514,3.698,16.52L3.698,16.52z M3.699,16.536c0.001,0.005,0.003,0.009,0.003,0.013
					c-0.002,0.009-0.007,0.004-0.014,0.002C3.694,16.548,3.703,16.546,3.699,16.536z M3.382,16.723c0-0.001,0-0.001,0-0.003
					c0.001,0.002,0.001,0.002,0.001,0.002S3.384,16.723,3.382,16.723z M2.887,16.568c0-0.001-0.001-0.001-0.001-0.001
					C2.887,16.568,2.886,16.567,2.887,16.568L2.887,16.568z M2.654,16.551L2.654,16.551c0,0,0.001,0,0.002,0
					C2.656,16.551,2.654,16.551,2.654,16.551z M2.628,16.521c-0.001-0.009-0.005-0.017-0.01-0.022
					c0.003,0.002,0.009,0.003,0.01,0.007C2.63,16.511,2.627,16.517,2.628,16.521z M2.437,17.497L2.437,17.497L2.437,17.497
					L2.437,17.497z M2.544,17.528c0,0.001,0,0.001,0,0.001c-0.002-0.001-0.005,0.002-0.007,0
					C2.539,17.529,2.542,17.528,2.544,17.528z M2.669,17.467c0.001,0,0.001-0.002,0.002-0.001c-0.01,0.024,0.006,0.035,0.022,0.046
					C2.681,17.501,2.677,17.482,2.669,17.467z M2.991,17.496c0-0.002,0-0.002,0-0.003c0,0.001,0.001,0.001,0.001,0.003
					C2.992,17.496,2.992,17.496,2.991,17.496c0,0,0,0,0,0.001C2.991,17.496,2.99,17.496,2.991,17.496L2.991,17.496z M3.774,17.338
					c0.004-0.004,0.009-0.009,0.009-0.013c-0.007-0.032,0.008-0.027,0.028-0.017c0.002,0.001,0.007,0.001,0.01,0.001
					C3.795,17.303,3.778,17.31,3.774,17.338z M3.865,17.498c0.008-0.009,0.015-0.014,0.023-0.005
					c0.005,0.007,0.002,0.014,0.006,0.018C3.883,17.507,3.88,17.494,3.865,17.498z M4.704,17.524c0.02,0.018,0.008,0.024-0.01,0.033
					c-0.005,0.002-0.008,0.006-0.013,0.01C4.697,17.56,4.699,17.54,4.704,17.524z M5.092,17.622L5.092,17.622
					c-0.001,0-0.001,0-0.003,0C5.09,17.622,5.09,17.622,5.092,17.622z M5.747,17.496l0.002-0.002c0,0.002-0.001,0.002-0.001,0.003
					C5.747,17.497,5.749,17.496,5.747,17.496z M5.765,17.261L5.765,17.261L5.765,17.261L5.765,17.261z M6.443,16.938
					c0.002-0.006,0.007-0.009,0.013-0.009C6.45,16.929,6.447,16.929,6.443,16.938z M6.67,16.221c0.008,0.001,0.013,0.004,0.02,0.001
					C6.683,16.226,6.678,16.222,6.67,16.221z M7.153,15.932L7.153,15.932C7.153,15.931,7.153,15.931,7.153,15.932
					c-0.002-0.007-0.007-0.011-0.008-0.017c0.003,0.005,0.006,0.013,0.011,0.017C7.156,15.931,7.155,15.932,7.153,15.932z
					 M6.734,16.008c0-0.001,0.001-0.002,0.002-0.005c0.002,0.003,0.006,0,0.009,0.002C6.742,16.006,6.738,16.007,6.734,16.008z
					 M6.408,15.994c-0.001-0.001-0.002-0.001-0.002-0.002c0,0.001,0.002,0,0.004,0.001C6.408,15.993,6.408,15.993,6.408,15.994z
					 M4.764,16.508c0-0.002,0-0.003-0.002-0.004c0.001-0.002,0.002-0.002,0.002-0.003c0.002,0.003,0.004,0.005,0.005,0.007
					C4.768,16.508,4.766,16.508,4.764,16.508z M4.69,16.588c0.001,0.001,0.002,0.002,0.004,0.003c0,0.003,0,0.002,0,0.003
					C4.694,16.593,4.694,16.589,4.69,16.588z M3.713,16.678c-0.017-0.017-0.01-0.032-0.001-0.048
					c-0.003,0.036,0.011,0.057,0.048,0.057C3.745,16.692,3.729,16.695,3.713,16.678z M3.61,16.631L3.61,16.631L3.61,16.631
					L3.61,16.631z M3.545,16.693c-0.003,0-0.002-0.003-0.005-0.005c0.002-0.001,0.004-0.002,0.005-0.005
					C3.545,16.688,3.546,16.691,3.545,16.693z M2.714,17.457c-0.005,0.009-0.022,0.004-0.036,0.004
					c0.006,0.001,0.006-0.008,0.011-0.008c0.016-0.001,0.032,0.001,0.043-0.016c0.003-0.004,0.004-0.011,0.004-0.017
					c0.005-0.01,0.019-0.003,0.022-0.017c0.002,0.008,0.005,0.008,0.006,0.014C2.748,17.413,2.732,17.42,2.714,17.457z
					 M2.826,17.514c-0.001,0-0.001,0-0.001,0c-0.001-0.002-0.002-0.003-0.002-0.004C2.822,17.511,2.824,17.512,2.826,17.514z
					 M2.948,17.653L2.948,17.653L2.948,17.653L2.948,17.653z M4.615,17.549c0.004,0.005,0.011,0.006,0.015,0.009
					C4.626,17.554,4.617,17.554,4.615,17.549z M4.714,17.605c0.007,0.016-0.001,0.032-0.001,0.046
					c0.001-0.016-0.01-0.025-0.019-0.035C4.699,17.608,4.704,17.6,4.714,17.605z M5.775,17.541
					c-0.001-0.003-0.002-0.004-0.004-0.007c0.005,0.003,0.009,0.006,0.016,0.006c-0.001,0-0.002,0.002-0.003,0.002
					C5.781,17.542,5.775,17.542,5.775,17.541z M6.258,17.128c-0.002,0-0.002-0.003-0.004-0.003c0.001,0.003,0.004,0.003,0.004,0.006
					l0,0c-0.001-0.002-0.002-0.002-0.005-0.003c0.001-0.001,0-0.001,0.001-0.003c0.001-0.001,0.001,0,0.002-0.001
					C6.256,17.125,6.256,17.127,6.258,17.128z M7.124,16.07c0,0,0,0,0,0.002C7.124,16.07,7.124,16.07,7.124,16.07L7.124,16.07
					L7.124,16.07c0.004,0.003,0.007-0.002,0.011-0.001c-0.001,0-0.001,0-0.001,0.001C7.131,16.07,7.127,16.07,7.124,16.07z
					 M7.147,15.827c0.001-0.003,0.003-0.003,0.005-0.006c0.001,0,0.001,0.002,0.001,0.002C7.152,15.825,7.15,15.824,7.147,15.827z
					 M7.102,15.762h0.001c0,0,0,0.001,0.001,0.001C7.104,15.763,7.104,15.762,7.102,15.762z M6.596,15.963L6.596,15.963
					L6.596,15.963L6.596,15.963z M5.682,16.18c0,0,0,0,0-0.001c0.002,0.002,0.005,0.001,0.007,0.001
					C5.687,16.181,5.685,16.177,5.682,16.18z M5.58,16.382c0,0,0.004,0,0.002,0.002c0,0.001,0,0.001,0,0.002
					C5.582,16.385,5.581,16.384,5.58,16.382z M5.447,16.35L5.447,16.35L5.447,16.35L5.447,16.35z M4.833,16.411
					c0,0.001-0.001,0.002,0,0.002c-0.012,0.003-0.022,0-0.029-0.006C4.813,16.411,4.821,16.42,4.833,16.411z M4.123,16.38
					c0.002,0.005,0.005,0.009,0.008,0.013C4.127,16.389,4.122,16.388,4.123,16.38z M3.764,16.394
					c0.014,0.019,0.031,0.023,0.047,0.027c-0.034-0.006-0.069-0.008-0.104-0.002c0.007-0.007,0.015-0.009,0.022-0.017
					C3.738,16.395,3.756,16.382,3.764,16.394z M3.639,16.416C3.64,16.416,3.64,16.415,3.639,16.416c0.003,0,0.003-0.001,0.005,0
					C3.643,16.416,3.64,16.415,3.639,16.416z M3.588,16.464c-0.01-0.002-0.02-0.004-0.026-0.013
					C3.569,16.457,3.578,16.461,3.588,16.464z M2.712,16.391C2.71,16.39,2.714,16.39,2.712,16.391h0.002
					C2.713,16.391,2.712,16.391,2.712,16.391z M2.942,17.777c0,0.001,0,0.003,0,0.003l0,0C2.942,17.778,2.942,17.778,2.942,17.777z
					 M2.959,17.803c0.002,0,0.002,0,0.005,0c-0.011,0.01-0.005,0.019-0.001,0.028C2.955,17.822,2.955,17.813,2.959,17.803z
					 M3.333,17.622c-0.002,0.001-0.006,0.001-0.009,0.001C3.326,17.621,3.33,17.622,3.333,17.622z M4.281,17.731
					c0-0.002,0-0.002,0-0.002s0.001,0,0.002,0.002C4.282,17.731,4.282,17.731,4.281,17.731z M6.36,17.258c0,0,0,0-0.001,0
					C6.36,17.258,6.36,17.258,6.36,17.258z M6.639,16.92c-0.001,0.002-0.001-0.001-0.002,0c0.001,0,0.001,0,0.004,0H6.639z
					 M6.891,16.941c0,0,0.003-0.002,0.003,0H6.892C6.891,16.941,6.891,16.941,6.891,16.941z M6.986,15.785
					c0.002,0.003,0.005,0,0.009,0.003c-0.005,0-0.011,0-0.016,0C6.981,15.785,6.983,15.787,6.986,15.785z M6.348,15.957
					c0,0.002,0,0.004,0,0.005l0,0C6.348,15.961,6.348,15.959,6.348,15.957z M6.225,15.981L6.225,15.981c0,0,0,0,0-0.001l0,0V15.981z
					 M5.475,16.261C5.475,16.262,5.475,16.262,5.475,16.261C5.475,16.262,5.475,16.262,5.475,16.261z M5.122,16.365L5.122,16.365
					L5.122,16.365L5.122,16.365z M5.062,16.339c0.009-0.003,0.018-0.003,0.021-0.012C5.078,16.333,5.069,16.339,5.062,16.339z
					 M4.579,16.459c-0.002-0.002-0.004-0.003-0.005-0.006c0.002,0.002,0.003,0.003,0.005,0.004V16.459z M3.462,16.368
					c0.002,0.002,0.002,0.003,0.004,0.004c-0.001,0-0.001-0.001-0.002,0C3.464,16.371,3.462,16.37,3.462,16.368z M3.39,16.39
					c-0.005,0.004-0.013,0-0.02,0c0.02,0.004,0.042,0.019,0.06-0.011c0,0.002,0.001,0.002,0.001,0.003
					C3.421,16.377,3.41,16.375,3.39,16.39z M2.458,16.455c0-0.002,0-0.003-0.001-0.005c0.002,0.002,0.007,0,0.01,0.001
					C2.464,16.453,2.461,16.451,2.458,16.455z M2.437,16.448c-0.005-0.017-0.007-0.033-0.01-0.054
					c0.002,0.014,0.007,0.024,0.012,0.034C2.44,16.435,2.434,16.442,2.437,16.448z M2.437,16.466c0.001,0.003-0.002,0.005,0,0.008
					v0.001c-0.001,0-0.002,0-0.002,0s0.001,0,0.002-0.001c-0.002,0-0.002,0.001-0.005,0.003C2.434,16.474,2.436,16.47,2.437,16.466z
					 M2.577,17.823c-0.002,0.007,0.002,0.013,0,0.02c-0.002-0.007-0.002-0.013-0.005-0.02C2.573,17.823,2.574,17.823,2.577,17.823z
					 M2.744,17.838c0.005,0.007,0.003,0.011,0.005,0.017c-0.001,0.007-0.001,0.013-0.002,0.02
					C2.75,17.862,2.754,17.853,2.744,17.838z M3.165,17.777L3.165,17.777L3.165,17.777L3.165,17.777L3.165,17.777h0.001H3.165z
					 M3.34,17.795c0.009,0,0.018,0,0.025,0C3.357,17.795,3.349,17.795,3.34,17.795z M4.329,17.795c0,0.001,0.002,0,0.002,0.001
					c-0.002,0-0.005,0.004-0.008,0.005C4.325,17.799,4.327,17.798,4.329,17.795z M5.416,17.7c0.001-0.003,0.004,0,0.006-0.003
					c0.002,0.003,0.005,0.006,0.01,0.008c-0.003,0-0.004,0-0.005,0C5.422,17.705,5.419,17.7,5.416,17.7z M6.394,17.422L6.394,17.422
					c0.006-0.002,0.011-0.008,0.016-0.01l0,0C6.405,17.414,6.399,17.417,6.394,17.422z M6.896,16.847
					c-0.001-0.003-0.004-0.007,0.002-0.004c0,0,0,0.003,0.001,0.004C6.898,16.847,6.897,16.847,6.896,16.847z M6.723,16.442
					c0.007-0.001,0.009-0.008,0.018-0.005c-0.001,0.008-0.002,0.014-0.002,0.021C6.741,16.447,6.729,16.447,6.723,16.442z
					 M7.081,16.177c0.006-0.002,0.015-0.01,0.021-0.006C7.095,16.166,7.088,16.176,7.081,16.177z M7.339,15.774L7.339,15.774
					L7.339,15.774L7.339,15.774c0.015-0.012,0.027-0.022,0.015-0.044c0,0,0,0,0.001,0c0.001,0.017-0.019,0.026-0.015,0.045
					L7.339,15.774z M6.498,15.863c-0.005,0-0.006,0.006-0.011,0.006c0.003-0.002,0.009-0.005,0.012-0.008
					C6.498,15.861,6.498,15.863,6.498,15.863z M4.025,16.325c0,0.005,0.006,0.01,0.005,0.01c-0.001,0-0.002,0.001-0.002,0.001
					C4.028,16.332,4.025,16.328,4.025,16.325z M3.45,16.317c0-0.007-0.005-0.005-0.005-0.01c0.005,0.003,0.014-0.003,0.02-0.004
					C3.46,16.309,3.455,16.313,3.45,16.317z M3.373,16.305c0.005-0.005,0.011-0.008,0.011-0.019
					C3.385,16.297,3.379,16.301,3.373,16.305z M2.279,16.597c-0.002-0.003-0.007,0-0.01-0.007c0.014,0,0.006-0.014,0.011-0.02
					C2.279,16.58,2.276,16.591,2.279,16.597z M2.572,17.894C2.572,17.894,2.572,17.894,2.572,17.894
					c0,0.001-0.001,0.001-0.002,0.001C2.569,17.894,2.572,17.894,2.572,17.894z M2.75,17.888v-0.002h0.005h0.007
					c0,0.002,0.001,0,0.002,0.002C2.759,17.888,2.754,17.888,2.75,17.888z M3.598,17.782c0.002,0,0.005,0.004,0.01,0.007
					c-0.004,0.001-0.003,0.001-0.005,0.002c-0.006-0.002-0.015-0.002-0.021-0.004C3.586,17.785,3.593,17.785,3.598,17.782z
					 M6.393,17.404c0,0,0-0.001,0.001-0.001c0,0.001,0.001,0.001,0.001,0.001S6.394,17.404,6.393,17.404z M6.39,17.296
					c0.008-0.008,0.008-0.018,0.013-0.025c0.002-0.004,0.009-0.001,0.013-0.002C6.403,17.274,6.399,17.287,6.39,17.296z
					 M6.588,17.165c-0.002,0.006-0.002,0.008-0.005,0.012c0-0.004,0-0.01-0.001-0.014C6.584,17.164,6.585,17.164,6.588,17.165z
					 M6.906,16.381C6.906,16.381,6.906,16.381,6.906,16.381L6.906,16.381L6.906,16.381z M7.465,16.011
					C7.466,16.011,7.466,16.012,7.465,16.011c0.001,0.002-0.001,0.002-0.001,0.004C7.462,16.013,7.466,16.013,7.465,16.011z
					 M7.573,15.899L7.573,15.899h0.002C7.574,15.9,7.574,15.899,7.573,15.899z M7.499,15.85c0.003,0.002,0.006,0.006,0.01,0.009
					C7.505,15.856,7.502,15.852,7.499,15.85z M7.461,15.82c0,0.001,0,0.003-0.001,0.004c-0.005-0.004-0.007-0.005-0.011-0.008
					C7.454,15.816,7.457,15.82,7.461,15.82z M6.961,15.713c-0.013-0.006-0.025-0.009-0.038,0.001
					c0.001-0.001,0.002-0.001,0.004-0.002c0.002-0.007-0.001-0.013-0.001-0.019c0.009-0.001,0.018-0.001,0.028-0.002
					C6.954,15.699,6.956,15.707,6.961,15.713z M6.301,15.856c0-0.001,0.001-0.001,0.001-0.003c0.001,0.002,0.002,0.003,0.004,0.004
					c-0.001,0-0.001,0.002-0.004,0.002C6.303,15.856,6.303,15.856,6.301,15.856z M2.612,16.257
					c-0.001,0.004-0.005,0.007-0.002,0.011l0,0l0,0c-0.002-0.004-0.002-0.007-0.002-0.011C2.609,16.257,2.61,16.257,2.612,16.257z
					 M2.24,17.565c-0.001,0.008,0.003,0.013,0.01,0.017c-0.002,0.003-0.003,0.003-0.006,0.005
					C2.248,17.577,2.238,17.573,2.24,17.565z M5.402,17.752c0.01,0.003,0.018-0.005,0.027-0.005
					c-0.022,0.008-0.045,0.009-0.065,0.017C5.377,17.76,5.388,17.75,5.402,17.752z M5.735,17.666
					c0.027-0.003,0.055-0.008,0.083-0.01c-0.07,0.011-0.14,0.032-0.21,0.05C5.649,17.69,5.689,17.671,5.735,17.666z M6.41,17.342
					v-0.001c0.013,0.017,0.03,0.024,0.05,0.024c0,0.002,0,0.002,0.001,0.002C6.443,17.36,6.43,17.343,6.41,17.342z M6.806,16.715
					c0.001-0.001,0.002-0.002,0.005-0.004c-0.002,0,0,0.006-0.002,0.004C6.807,16.715,6.806,16.715,6.806,16.715z M6.706,16.692
					c0.001-0.002-0.002-0.006,0-0.009C6.706,16.687,6.705,16.69,6.706,16.692L6.706,16.692z M5.647,16.023
					c0.002-0.002,0.001-0.003,0.002-0.004l0,0C5.649,16.021,5.648,16.021,5.647,16.023c0,0.002,0,0.004,0,0.006
					c-0.002-0.002-0.001-0.005-0.003-0.006C5.645,16.023,5.647,16.023,5.647,16.023z M5.444,16.062c0-0.001,0-0.001,0-0.002
					c0.001,0,0.002,0.001,0.002,0.001C5.447,16.063,5.444,16.06,5.444,16.062z M3.461,16.242c-0.001,0.003-0.005,0-0.006,0.001
					c-0.005-0.002-0.009-0.005-0.014-0.006C3.448,16.238,3.455,16.241,3.461,16.242z M2.858,16.194c0.015,0.002,0.03,0,0.045-0.001
					c-0.029-0.001-0.056,0.012-0.084,0.019C2.833,16.206,2.842,16.193,2.858,16.194z M2.196,16.931
					c0.018-0.003,0.033-0.014,0.047-0.021c-0.017,0.009-0.03,0.023-0.042,0.037C2.199,16.941,2.194,16.938,2.196,16.931z
					 M2.244,17.534c0.001,0.008-0.002,0.019-0.005,0.029c0.002-0.01-0.002-0.017-0.003-0.025
					C2.236,17.536,2.241,17.538,2.244,17.534z M6.891,17.42c-0.002,0.002-0.003,0.005-0.005,0.007c-0.001,0-0.002,0-0.002,0
					C6.886,17.425,6.888,17.423,6.891,17.42z"/>
				<path style="fill-rule:evenodd;clip-rule:evenodd;" d="M3.353,16.21c0.025,0,0.05,0,0.076,0c0.011-0.031-0.024-0.017-0.031-0.03
					c-0.02,0-0.04,0-0.06,0c-0.002,0-0.002,0.001-0.005,0.005c0,0.003,0,0.006,0.003,0.01C3.342,16.199,3.348,16.205,3.353,16.21z"
					/>
				<path style="fill-rule:evenodd;clip-rule:evenodd;" d="M2.284,16.188c0-0.009-0.01-0.012-0.015-0.014
					c-0.008-0.003-0.013-0.002-0.013,0.005c-0.001,0.009,0.005,0.013,0.014,0.014C2.275,16.192,2.284,16.19,2.284,16.188z"/>
				<polygon style="fill-rule:evenodd;clip-rule:evenodd;" points="3.635,16.173 3.634,16.167 3.628,16.17 3.629,16.176 				"/>
				<path style="fill-rule:evenodd;clip-rule:evenodd;" d="M3.749,16.159c0-0.001-0.004,0.002-0.006,0.002
					c0.001,0.002,0.002,0.005,0.002,0.006C3.753,16.168,3.753,16.166,3.749,16.159z"/>
				<path style="fill-rule:evenodd;clip-rule:evenodd;" d="M4.058,16.127c-0.005,0.003-0.005,0.006,0,0.012
					c0-0.003,0.002-0.004,0.002-0.006C4.062,16.131,4.06,16.128,4.058,16.127z"/>
			</g>
	</g>
</svg>
