<?xml version="1.0" encoding="utf-8"?>
<svg xmlns="http://www.w3.org/2000/svg" viewBox="2.069 6.576 5.651 2.482">
	<g>
			<g>
				<path style="fill-rule:evenodd;clip-rule:evenodd;" d="M7.65,8.714C7.638,8.712,7.625,8.723,7.615,8.71
					C7.578,8.657,7.532,8.68,7.487,8.695C7.462,8.701,7.432,8.686,7.411,8.711l0.001,0.002c0,0,0,0-0.001,0c0-0.001,0-0.001,0-0.002
					C7.39,8.71,7.366,8.72,7.35,8.697V8.696c0,0,0,0,0-0.001c0,0.001,0,0.001,0,0.002c0.033-0.007,0.065-0.011,0.097-0.02
					c0.039-0.012,0.069-0.034,0.066-0.08C7.481,8.574,7.438,8.604,7.411,8.572l0.006-0.001h0.006c0.005-0.004,0.001-0.009,0-0.014
					c0.001,0,0.001,0,0.003,0c0,0.005-0.002,0.009-0.003,0.014c0.014,0.001,0.026,0,0.034-0.014L7.456,8.554h0.001
					c0,0.001,0,0.002,0,0.003c0.016,0,0.032,0.001,0.047-0.001C7.522,8.554,7.512,8.54,7.512,8.531c0.003-0.003,0.005,0,0.005-0.003
					C7.519,8.523,7.52,8.517,7.52,8.512c-0.001-0.001,0.002-0.001,0-0.002c-0.02-0.01-0.042,0.001-0.063,0
					c0-0.001,0.001-0.001,0.001-0.001c-0.031-0.008-0.061-0.01-0.094,0C7.34,8.51,7.313,8.51,7.287,8.511
					C7.285,8.516,7.29,8.52,7.29,8.523H7.287c0-0.003,0-0.009,0-0.012c-0.015,0-0.031,0-0.047-0.001v0.001l0,0
					c-0.015,0-0.03,0-0.045,0c-0.013,0.015-0.038,0-0.05,0.019V8.528c0.016-0.007,0.038-0.001,0.05-0.017
					C7.175,8.51,7.153,8.51,7.132,8.51C7.176,8.483,7.141,8.45,7.14,8.42C7.137,8.392,7.111,8.382,7.082,8.387
					c-0.015,0-0.029-0.001-0.042-0.001c-0.002-0.031-0.022-0.04-0.05-0.047C6.907,8.32,6.826,8.325,6.744,8.325
					C6.71,8.301,6.664,8.301,6.635,8.266c0.034-0.015,0.077,0.011,0.108-0.018c0.016,0,0.031,0,0.047,0
					c0.006,0.004,0.011,0.004,0.015-0.001c0.016,0,0.031,0.001,0.047,0.001c0.016,0.008,0.031,0.009,0.046-0.001
					c0.005,0,0.01,0,0.015-0.001c0.009-0.01,0.01-0.02,0-0.03c-0.005,0-0.01,0-0.015,0c-0.005,0.005-0.01,0.005-0.016,0
					c-0.017,0-0.031-0.001-0.046-0.001c-0.048-0.012-0.089-0.043-0.14-0.046c-0.005-0.005-0.01-0.01-0.015-0.015
					c-0.01,0-0.02,0-0.03,0c-0.005,0.006-0.012,0.005-0.017,0C6.577,8.154,6.519,8.147,6.461,8.154
					C6.457,8.157,6.453,8.157,6.449,8.153C6.404,8.129,6.355,8.131,6.306,8.14c-0.01-0.001-0.019-0.001-0.027-0.003
					c-0.005-0.005-0.01-0.005-0.015,0c-0.016,0-0.032-0.001-0.047-0.002c0.002-0.027,0.019-0.043,0.045-0.042
					c0.075,0.002,0.147-0.022,0.223-0.018c0.063,0.005,0.126-0.006,0.19-0.01c0.05-0.002,0.095-0.034,0.147-0.02
					c0.015,0,0.03,0,0.046,0c0.018-0.018,0.044,0.001,0.061-0.015c0.003,0,0.003-0.002,0.004-0.005c0.001-0.004,0-0.008-0.004-0.01
					c-0.025,0-0.051-0.001-0.077-0.001c-0.02,0.001-0.037-0.009-0.045-0.029c0.01,0,0.02-0.001,0.03-0.002c0-0.005,0-0.011,0-0.017
					h0.002c-0.002,0.005-0.005,0.01-0.002,0.017c0.066-0.001,0.132,0,0.199-0.011c0.069-0.011,0.142-0.004,0.213-0.004
					C7.29,7.968,7.33,7.963,7.365,7.937c0.01,0,0.019-0.001,0.027-0.001C7.435,7.929,7.481,7.953,7.52,7.919H7.519
					c0.009-0.008,0.026-0.005,0.031-0.02V7.894C7.526,7.871,7.5,7.883,7.474,7.888c-0.005,0-0.01,0.001-0.015,0.001
					C7.452,7.891,7.447,7.891,7.44,7.891c0.002,0.003,0.002,0.009,0.004,0.012c-0.001,0-0.004,0-0.004,0
					c0-0.003,0.005-0.007,0-0.012c-0.004,0.001-0.009,0-0.013-0.001C7.396,7.86,7.357,7.882,7.325,7.873
					C7.312,7.869,7.291,7.869,7.306,7.844c0.018-0.029,0.016-0.031-0.014-0.031c-0.077,0-0.15-0.028-0.223-0.049
					C7.075,7.76,7.08,7.756,7.084,7.751c0.011,0,0.022,0,0.033,0C7.147,7.76,7.18,7.763,7.209,7.749H7.208
					C7.25,7.748,7.295,7.762,7.34,7.709C7.277,7.725,7.235,7.69,7.192,7.69c-0.115,0-0.228-0.014-0.34-0.018
					c-0.01-0.001-0.02-0.001-0.03-0.001C6.82,7.642,6.794,7.636,6.774,7.626l0,0C6.769,7.62,6.764,7.615,6.759,7.61
					c0-0.005,0-0.01,0-0.015c0.005-0.001,0.01-0.001,0.014-0.001C6.779,7.59,6.784,7.585,6.791,7.579
					c0.019-0.011,0.035-0.028,0.046-0.046l0,0c0.005-0.005,0.01-0.01,0.015-0.014c0.01,0,0.02-0.001,0.03-0.003
					c0.01-0.008,0.024-0.005,0.033-0.014c0.01,0,0.02-0.001,0.031-0.001c0.012-0.014,0.034-0.002,0.046-0.015
					c0.003-0.005,0-0.009,0-0.014c0,0,0,0,0.001,0c0,0.005,0,0.009-0.001,0.014c0.021,0,0.045,0.005,0.063-0.002
					c0.035-0.015,0.086,0.004,0.107-0.045l0,0c0.006-0.004,0.011-0.01,0.016-0.015H7.177c0.05-0.063,0.041-0.091-0.03-0.108
					c-0.01,0-0.02,0-0.03,0c-0.005-0.003-0.025,0-0.013-0.014c0.01-0.01,0.03-0.018,0.042-0.015c0.07,0.015,0.12-0.034,0.184-0.043
					C7.287,7.19,7.229,7.213,7.177,7.205c0.038-0.056,0.034-0.061-0.026-0.083C7.12,7.11,7.096,7.128,7.068,7.13
					c-0.004,0-0.009,0-0.014-0.001c0-0.011,0-0.02-0.001-0.031C7.06,7.093,7.064,7.088,7.069,7.083l0.005-0.002h0.007
					C7.1,7.075,7.12,7.07,7.127,7.041c-0.055-0.001-0.103-0.02-0.15,0.011c-0.005,0.005-0.01,0.005-0.015,0
					c0.002-0.011-0.042-0.021,0-0.033c0.04-0.011,0.076-0.031,0.12-0.049C7.04,6.944,7.009,6.972,6.977,6.973
					c-0.013-0.016-0.03-0.018-0.048-0.015c-0.05,0.009-0.092-0.006-0.123-0.048c-0.022-0.025-0.052-0.011-0.08-0.014
					c-0.005,0-0.009,0-0.014-0.001c-0.016-0.008-0.039-0.008-0.046-0.03C6.658,6.855,6.644,6.859,6.634,6.85l0.001,0.001
					C6.61,6.837,6.584,6.841,6.559,6.848c-0.006,0-0.013,0-0.018-0.001C6.524,6.818,6.513,6.779,6.464,6.804l0.001-0.001
					c-0.006,0-0.011,0-0.017,0c-0.015,0-0.03,0-0.045,0.001c-0.022,0-0.042,0-0.065,0C6.336,6.81,6.34,6.813,6.341,6.817l0,0
					c0-0.004-0.002-0.009-0.002-0.013c-0.005,0-0.009,0-0.013-0.001c-0.006,0-0.012,0-0.018,0c0,0.005,0,0.01,0,0.015l0,0
					c0.001-0.005,0.004-0.01,0-0.015c-0.01,0-0.02,0-0.03,0c-0.02,0.012-0.042,0.012-0.063,0v0.001
					C6.214,6.792,6.211,6.779,6.208,6.768C6.205,6.748,6.194,6.73,6.175,6.735C6.141,6.744,6.186,6.768,6.168,6.783
					C6.144,6.779,6.116,6.758,6.092,6.787c-0.011,0-0.021-0.001-0.031-0.001C6.056,6.782,6.05,6.777,6.045,6.773h0.001
					C5.983,6.707,5.903,6.724,5.828,6.726c-0.01,0-0.02-0.001-0.031-0.001C5.761,6.708,5.722,6.728,5.686,6.712l0.002,0.001
					C5.645,6.682,5.591,6.69,5.543,6.678C5.516,6.672,5.491,6.664,5.46,6.668c-0.13,0.018-0.26,0.02-0.39-0.001
					C5.002,6.655,4.934,6.641,4.865,6.65l0,0C4.842,6.633,4.821,6.607,4.789,6.634c-0.005,0-0.011-0.001-0.016-0.001
					C4.757,6.619,4.737,6.628,4.72,6.619L4.715,6.622L4.711,6.618C4.7,6.599,4.68,6.598,4.662,6.602
					c-0.036,0.01-0.1-0.041-0.103,0.046C4.559,6.659,4.537,6.666,4.526,6.661C4.5,6.648,4.476,6.658,4.451,6.663
					C4.375,6.675,4.297,6.69,4.219,6.677c-0.11-0.018-0.22-0.011-0.33-0.014c0,0.001,0,0.002,0,0.004c-0.002,0-0.002,0-0.002,0
					l0.002-0.004c-0.033-0.029-0.073-0.009-0.11-0.015c0,0.001,0,0.002,0,0.004c0,0-0.001,0-0.002,0l0.002-0.004
					c-0.02-0.026-0.05-0.011-0.075-0.018C3.667,6.61,3.626,6.608,3.586,6.603C3.53,6.595,3.494,6.625,3.483,6.683
					c-0.002,0.01-0.005,0.02-0.014,0.026c-0.046,0.03-0.043,0.072-0.026,0.115c0.008,0.024,0.005,0.04-0.012,0.055
					C3.41,6.899,3.406,6.923,3.407,6.951C3.41,6.987,3.402,7.017,3.356,7.022C3.333,7.023,3.323,7.044,3.333,7.061
					c0.03,0.06-0.011,0.101-0.033,0.15c-0.014,0.033-0.032,0.04-0.065,0.042c-0.07,0.005-0.143,0.013-0.213,0.022
					c-0.028,0.005-0.055,0.008-0.083,0C2.878,7.261,2.768,7.304,2.733,7.355C2.728,7.361,2.726,7.369,2.726,7.376
					C2.73,7.446,2.7,7.513,2.698,7.582c0,0.029-0.003,0.049-0.027,0.065C2.653,7.656,2.643,7.67,2.66,7.689
					c0,0.025,0.013,0.055-0.02,0.067C2.588,7.775,2.539,7.8,2.479,7.799C2.386,7.796,2.291,7.812,2.212,7.863
					c-0.044,0.029-0.09,0.07-0.093,0.134C2.117,8.036,2.104,8.072,2.095,8.109c-0.005,0.022-0.01,0.046,0,0.067
					c0.013,0.033,0.007,0.066,0.007,0.1c0.003,0,0.004,0.001,0.005,0.001V8.28L2.102,8.277c-0.01,0.005-0.01,0.011,0,0.017
					l0.004-0.002l0.001,0.001c-0.002,0-0.002,0.001-0.005,0.001C2.105,8.311,2.101,8.328,2.119,8.34l0.003-0.003v0.001
					c0,0-0.002,0.001-0.003,0.001C2.12,8.362,2.13,8.377,2.15,8.387l0.002-0.004c0.002,0.001,0,0.002,0,0.002
					c0,0.001-0.002,0.001-0.002,0.001C2.142,8.414,2.137,8.441,2.125,8.465C2.107,8.501,2.1,8.536,2.105,8.575h0.001l0,0
					C2.11,8.574,2.115,8.572,2.117,8.57l0,0C2.115,8.571,2.11,8.571,2.106,8.575C2.088,8.636,2.095,8.697,2.104,8.759
					C2.107,8.76,2.108,8.764,2.106,8.768C2.105,8.783,2.105,8.796,2.117,8.806L2.12,8.805l0,0c0,0.001-0.001,0.001-0.002,0.001
					C2.12,8.819,2.122,8.83,2.135,8.837c0.005,0.005,0.01,0.01,0.015,0.015V8.852h0.001C2.15,8.853,2.15,8.853,2.15,8.853
					c0.005,0.005,0.01,0.01,0.015,0.015l0.001-0.001c0.001,0,0.001,0,0.001,0.001c-0.001,0-0.002,0-0.002,0
					C2.17,8.874,2.175,8.879,2.18,8.884l0.001-0.001l0,0c-0.001,0-0.001,0.001-0.001,0.001C2.185,8.889,2.19,8.894,2.195,8.9
					C2.2,8.905,2.205,8.91,2.211,8.915C2.216,8.92,2.222,8.925,2.228,8.93l0.005-0.005l0,0C2.23,8.926,2.229,8.928,2.228,8.93
					c0.065,0.046,0.14,0.059,0.218,0.067c0.114,0.014,0.23,0,0.344,0.025c0.053,0.011,0.106,0.015,0.162,0.016
					c0.155,0.001,0.308-0.015,0.46-0.029c0.15-0.014,0.3-0.009,0.45-0.005C4.138,9.014,4.415,9.006,4.69,8.989
					C4.721,8.986,4.751,8.995,4.782,8.99c0.14-0.025,0.282-0.021,0.423-0.027c0.146-0.008,0.292-0.008,0.438-0.004
					c0.204,0.005,0.408,0.004,0.613,0c0.125-0.001,0.25-0.009,0.376-0.014C6.646,8.944,6.658,8.94,6.667,8.929
					c0.005-0.001,0.01-0.001,0.015-0.001c0.005,0.006,0.01,0.006,0.015-0.001L6.695,8.928c0.037,0.014,0.071,0.016,0.11,0.002
					c0.038-0.015,0.079-0.016,0.119-0.018c0.045,0,0.089-0.007,0.129-0.031c0.009,0.004,0.019,0.011,0.027,0.011
					C7.2,8.881,7.315,8.856,7.427,8.821C7.426,8.82,7.425,8.819,7.424,8.817h0.001l0.002,0.004C7.44,8.82,7.451,8.817,7.458,8.805
					L7.455,8.803c0,0,0.001-0.001,0.002-0.001c0,0.001,0,0.002,0,0.004C7.535,8.772,7.627,8.783,7.7,8.73
					C7.687,8.705,7.667,8.714,7.65,8.714z M6.28,6.852C6.279,6.854,6.279,6.857,6.279,6.861C6.279,6.858,6.279,6.854,6.28,6.852
					C6.279,6.852,6.279,6.852,6.28,6.852z M6.544,8.268C6.54,8.267,6.538,8.27,6.534,8.27c0.003-0.002,0.006-0.006,0.01-0.007
					C6.544,8.265,6.544,8.267,6.544,8.268z M2.615,8.905c-0.002-0.001-0.002,0.001-0.005,0c0.002-0.001,0.002-0.001,0.005-0.004
					C2.615,8.903,2.615,8.904,2.615,8.905z M4.705,6.963l0.002-0.001C4.707,6.963,4.705,6.962,4.705,6.963L4.705,6.963z
					 M6.448,6.897c0.001,0,0,0.001,0.001,0.001c-0.001,0-0.001,0-0.002,0C6.446,6.897,6.448,6.897,6.448,6.897z M6.526,8.79
					C6.524,8.789,6.525,8.788,6.524,8.786l0,0c0.002-0.001,0-0.005,0.001-0.007C6.526,8.784,6.525,8.786,6.526,8.79z M2.926,7.393
					c0.001,0,0.001,0,0.002,0C2.929,7.396,2.931,7.4,2.931,7.405c0,0.001,0.002,0.004,0.002,0.005c0,0,0,0.001,0,0
					c0-0.002-0.002-0.004-0.002-0.005C2.929,7.399,2.928,7.394,2.923,7.388c0-0.009-0.005-0.017-0.005-0.025
					C2.92,7.373,2.916,7.385,2.926,7.393z M4.009,7.08c0.002,0,0.002-0.001,0.002,0c0,0.006-0.008,0.02,0.001,0.025
					c-0.001,0-0.001,0-0.002,0C4.004,7.096,4.001,7.086,4.007,7.077C4.007,7.077,4.008,7.08,4.009,7.08z M6.415,8.018
					c-0.001-0.001,0-0.001-0.001-0.002h0.001C6.417,8.009,6.417,8.014,6.415,8.018z M6.614,8.82c-0.002,0-0.005,0.001-0.008,0
					C6.604,8.819,6.602,8.817,6.602,8.815c-0.01-0.019,0.01-0.02,0.018-0.027c0.007-0.001,0.013-0.006,0.02-0.004
					C6.622,8.789,6.606,8.796,6.614,8.82z M4.367,8.792c-0.001,0,0-0.001-0.003-0.001c0-0.001,0.003,0,0.003-0.001
					C4.367,8.792,4.367,8.792,4.367,8.792z M2.22,8.116c0,0,0,0.001,0.002,0.002c0,0.002-0.001,0.005,0,0.006
					C2.219,8.123,2.217,8.122,2.215,8.12C2.217,8.118,2.217,8.117,2.22,8.116z M5.981,8.169c-0.001,0-0.002,0-0.002,0
					c0-0.001,0.002-0.001,0.002-0.002c0.002-0.001,0.002-0.002,0.002-0.004c0,0.001,0,0.001,0,0.002c0,0-0.001,0.001-0.002,0.001
					C5.981,8.167,5.981,8.168,5.981,8.169z M6.124,8.51L6.124,8.51L6.124,8.51L6.124,8.51z M6.369,8.387
					c0.005,0.009,0.009,0.015,0.015,0.024C6.379,8.406,6.372,8.408,6.368,8.403C6.365,8.4,6.369,8.394,6.369,8.387z M6.807,8.54
					C6.807,8.54,6.807,8.54,6.807,8.54s0-0.001,0.001-0.001C6.808,8.54,6.807,8.539,6.807,8.54z M6.528,8.583
					c0.001,0,0.004,0,0.006,0c-0.002,0,0,0.002-0.002,0.002C6.529,8.587,6.53,8.583,6.528,8.583z M6.603,8.667
					c0.001-0.011,0.003-0.024-0.004-0.035c-0.009,0.01-0.016,0.021-0.025,0.03c0,0,0.001,0,0,0c0.025,0.002,0.018-0.021,0.025-0.031
					C6.598,8.643,6.599,8.655,6.603,8.667L6.603,8.667z M6.309,8.646c0.013-0.002,0.029,0,0.04-0.019
					c-0.005,0.005-0.007,0.01-0.012,0.014C6.326,8.651,6.315,8.666,6.309,8.646z M6.28,8.479c0.001-0.002,0.001-0.004,0.004-0.005
					c0.001,0,0.002,0,0.004,0.001C6.285,8.477,6.281,8.475,6.28,8.479z M6.279,8.481C6.271,8.488,6.266,8.496,6.261,8.505
					C6.268,8.497,6.279,8.491,6.279,8.481L6.279,8.481z M6.256,8.512c0,0.001,0.002,0.006,0.002,0.006L6.255,8.515
					C6.256,8.514,6.256,8.514,6.256,8.512z M6.35,8.696C6.352,8.699,6.346,8.7,6.346,8.703C6.345,8.7,6.336,8.697,6.334,8.695
					C6.339,8.694,6.343,8.701,6.35,8.696z M2.7,7.943c-0.002,0-0.001-0.001-0.002-0.002c0.002,0,0.005-0.001,0.008-0.002
					C2.703,7.94,2.7,7.94,2.7,7.943z M2.911,8.325L2.911,8.325L2.911,8.325L2.911,8.325z M3.016,7.873
					c0,0.003-0.005,0.003-0.004,0.006C3.011,7.878,3.011,7.876,3.011,7.875C3.012,7.875,3.013,7.872,3.016,7.873z M2.963,8.686
					C2.967,8.684,2.96,8.685,2.968,8.681c0.02-0.01,0.045-0.016,0.056-0.036c0,0.001,0.001,0,0.001,0.001
					C2.996,8.646,2.983,8.672,2.963,8.686z M3.779,7.494c0,0.001,0.002,0.002,0.002,0.004C3.779,7.495,3.779,7.496,3.776,7.494
					C3.776,7.494,3.778,7.495,3.779,7.494z M4.121,7.095L4.121,7.095L4.121,7.095L4.121,7.095z M5.304,8.635
					c-0.001,0-0.001,0-0.004,0c0-0.001,0.002-0.001,0.002-0.001S5.303,8.635,5.304,8.635z M3.718,8.495
					c-0.001,0-0.001-0.001-0.001-0.001l0.002-0.001C3.719,8.494,3.718,8.494,3.718,8.495z M5.311,7.301
					c0,0.005,0.001,0.011,0.007,0.014c0.014,0.002,0.029,0.009,0.011,0.022c-0.004,0.004-0.006,0.01-0.011,0.014
					C5.325,7.333,5.323,7.315,5.311,7.301z M5.538,7.354L5.538,7.354L5.538,7.354L5.538,7.354z M5.528,7.602
					C5.528,7.602,5.528,7.602,5.528,7.602c0-0.001,0,0,0-0.001C5.528,7.602,5.528,7.602,5.528,7.602z M5.1,7.727
					c0.009,0.001,0.007-0.01,0.015-0.011C5.105,7.72,5.105,7.73,5.103,7.742C5.102,7.735,5.103,7.731,5.1,7.727z M5.203,7.852
					L5.203,7.852C5.208,7.853,5.215,7.849,5.22,7.853C5.215,7.847,5.209,7.855,5.203,7.852z M5.093,7.883
					C5.107,7.865,5.127,7.86,5.14,7.848C5.11,7.858,5.1,7.871,5.095,7.885C5.095,7.884,5.093,7.884,5.093,7.883z M5.145,7.843
					L5.145,7.843L5.145,7.843c0.002,0,0.002,0.005,0.005,0.005C5.147,7.851,5.145,7.843,5.14,7.847
					C5.143,7.845,5.145,7.844,5.145,7.843L5.145,7.843z M5.025,8.251c-0.001,0-0.002-0.003-0.003-0.003
					c-0.001,0,0-0.005-0.001-0.006C5.022,8.245,5.022,8.248,5.025,8.251z M5.223,8.238c0-0.002,0.001-0.002,0.001-0.004
					c0.001,0.006,0.003,0.01,0.003,0.015C5.227,8.246,5.225,8.241,5.223,8.238z M5.083,8.074c0.001,0,0.001,0.001,0.002,0.001
					c0,0.001,0,0.001,0,0.002c0-0.001-0.001-0.002-0.002-0.002C5.083,8.076,5.083,8.076,5.083,8.074z M5.13,8.321
					c0.003,0.002,0.007,0.002,0.01,0.005C5.138,8.325,5.135,8.322,5.13,8.321C5.131,8.321,5.131,8.321,5.13,8.321z M5.661,7.605
					C5.66,7.605,5.66,7.605,5.661,7.605c0.001-0.003,0.005-0.009,0.004-0.014l0.001,0.001C5.661,7.594,5.661,7.6,5.661,7.605z
					 M5.578,7.386C5.588,7.389,5.596,7.394,5.602,7.4C5.593,7.397,5.583,7.396,5.573,7.395C5.576,7.391,5.578,7.393,5.578,7.386z
					 M5.258,7.433c0,0-0.001,0-0.002,0c0.001,0,0.002-0.001,0.002-0.001V7.433z M5.045,8.042c0.002,0.001,0.006-0.002,0.009,0
					c0.001,0.001,0.004,0.003,0.005,0.005C5.055,8.043,5.05,8.044,5.045,8.042z M4.99,8.245c0,0.001,0,0.001,0,0.002l0,0
					C4.99,8.246,4.99,8.246,4.99,8.245z M4.362,8.298C4.357,8.303,4.359,8.31,4.358,8.314C4.357,8.308,4.354,8.301,4.362,8.298z
					 M3.732,8.352c0.001,0.002,0.002,0.004,0.004,0.005c-0.001,0-0.002-0.002-0.004-0.003V8.352z M3.705,8.162
					c0.001-0.008,0.001-0.018,0.006-0.021c0.002-0.002,0.007-0.005,0.01-0.007c-0.007,0.01-0.012,0.02-0.012,0.032
					C3.709,8.165,3.705,8.165,3.705,8.162z M4.028,7.943C4.027,7.944,4.027,7.947,4.025,7.948C4.027,7.945,4.027,7.944,4.028,7.943z
					 M4.266,8.004c0,0-0.001,0-0.001-0.001c0,0,0.001,0,0.003,0C4.267,8.003,4.267,8.004,4.266,8.004z M4.059,8.208
					c0,0.001,0.002,0.001,0.002,0.004C4.059,8.213,4.059,8.211,4.057,8.211C4.058,8.209,4.059,8.209,4.059,8.208z M4.049,8.016
					c0.002-0.002,0.005-0.002,0.007-0.004C4.054,8.013,4.052,8.013,4.049,8.016z M3.781,8.114C3.775,8.111,3.769,8.107,3.759,8.107
					c0.002-0.001,0.005-0.004,0.008-0.005C3.776,8.1,3.778,8.109,3.781,8.114z M3.829,8.028L3.829,8.028L3.829,8.028L3.829,8.028z
					 M3.824,8.027c-0.01-0.005-0.03-0.014-0.04-0.022C3.799,8.011,3.808,8.027,3.824,8.027z M4.246,8.341
					C4.244,8.34,4.244,8.34,4.244,8.34S4.244,8.34,4.246,8.341L4.246,8.341z M4.322,7.229L4.322,7.229L4.322,7.229L4.322,7.229z
					 M4.463,7.408C4.464,7.408,4.464,7.408,4.463,7.408c0,0.001,0,0.001-0.001,0.001L4.463,7.408z M4.497,7.994L4.497,7.994
					L4.497,7.994L4.497,7.994z M4.517,7.878c0.001-0.004,0.005-0.006,0.005-0.01c-0.005,0.02,0.005,0.049,0.013,0.075
					C4.53,7.919,4.524,7.898,4.517,7.878z M4.581,7.579c-0.002,0-0.006,0-0.009,0.001c0-0.001,0-0.001,0-0.001
					C4.575,7.579,4.577,7.579,4.581,7.579L4.581,7.579z M4.347,7.745c0.002-0.001,0.015,0.005,0.02,0.01
					c0.001,0.001,0,0.005,0.001,0.006C4.359,7.755,4.35,7.75,4.337,7.747C4.342,7.745,4.343,7.749,4.347,7.745z M4.821,8.519
					c0.003,0.013,0.006,0.02,0.011,0.031C4.827,8.546,4.819,8.543,4.821,8.537C4.824,8.531,4.82,8.525,4.821,8.519z M4.448,7.176
					L4.448,7.176L4.448,7.176L4.448,7.176z M3.832,7.873C3.832,7.874,3.832,7.874,3.832,7.873C3.832,7.874,3.832,7.874,3.832,7.873
					L3.832,7.873z M3.714,7.92c-0.007-0.01-0.01-0.01-0.019-0.022c0.003-0.01,0.009-0.016,0.015-0.024
					C3.707,7.891,3.711,7.905,3.714,7.92z M4.029,8.5C4.027,8.499,4.024,8.496,4.021,8.495c0.015,0,0.028,0.004,0.035,0.015
					C4.049,8.505,4.039,8.496,4.029,8.5z M4.252,8.431C4.254,8.437,4.25,8.442,4.254,8.448C4.252,8.447,4.252,8.447,4.25,8.446
					C4.25,8.441,4.252,8.436,4.252,8.431z M4.61,8.318c-0.001,0-0.001-0.001-0.003-0.001c0.001,0,0.003,0,0.003-0.001
					C4.61,8.317,4.61,8.317,4.61,8.318z M4.672,8.256C4.666,8.248,4.655,8.247,4.66,8.232c0.009,0.004,0.015,0.009,0.022,0.014
					C4.68,8.247,4.675,8.253,4.672,8.256z M5.05,8.465c0.005,0,0.002,0.007,0.007,0.007c-0.031,0.001-0.063,0.006-0.09,0.029
					C4.991,8.477,5.019,8.467,5.05,8.465z M5.119,8.712C5.119,8.712,5.119,8.712,5.119,8.712L5.119,8.712L5.119,8.712z M5.203,8.563
					v0.002c0,0,0,0.001-0.001,0.001C5.203,8.565,5.2,8.563,5.203,8.563z M5.445,8.298C5.463,8.296,5.46,8.31,5.468,8.321v0.001
					c-0.01-0.015-0.022-0.026-0.042-0.031C5.433,8.292,5.438,8.3,5.445,8.298z M5.541,7.271c0.002-0.021,0.015-0.042,0.035-0.06
					c0,0,0,0,0.001,0C5.543,7.221,5.545,7.249,5.541,7.271z M4.495,7.191c-0.009-0.002-0.02,0.002-0.03,0.004
					C4.475,7.192,4.484,7.199,4.495,7.191C4.495,7.191,4.495,7.191,4.495,7.191S4.495,7.191,4.495,7.191L4.495,7.191z M3.131,8.104
					C3.14,8.107,3.143,8.12,3.153,8.118c0,0.005-0.005,0.007-0.007,0.011C3.146,8.121,3.137,8.112,3.131,8.104z M3.252,8.216
					c0.001,0,0.001,0.001,0.002,0.001C3.253,8.218,3.253,8.216,3.252,8.216L3.252,8.216z M3.322,8.352
					C3.323,8.35,3.326,8.35,3.329,8.348C3.326,8.35,3.326,8.352,3.323,8.354C3.323,8.354,3.322,8.354,3.322,8.352z M3.347,8.103
					c-0.004,0.002-0.01,0.001-0.011,0.009C3.331,8.108,3.321,8.103,3.321,8.098C3.329,8.103,3.338,8.105,3.347,8.103z M3.827,8.626
					c-0.003,0.005,0,0.008-0.005,0.013c-0.001,0.001-0.003,0-0.005,0.002C3.821,8.636,3.824,8.631,3.827,8.626z M4.047,8.666
					c0-0.003,0.002-0.006,0.002-0.01C4.049,8.66,4.047,8.664,4.047,8.666z M4.373,8.472C4.388,8.456,4.41,8.445,4.399,8.416
					c0,0.001,0,0.001,0.001,0.001c0-0.001-0.001-0.001-0.001-0.001s0.001,0,0.002,0.001c-0.001,0-0.001,0-0.001,0
					C4.393,8.436,4.377,8.451,4.373,8.472L4.373,8.472z M4.691,8.376c0.001-0.002,0.005-0.001,0.006-0.002
					c0,0.002-0.002,0.005-0.002,0.007C4.695,8.378,4.69,8.378,4.691,8.376z M4.944,8.757c0,0.001,0,0.001,0.001,0.001l0,0
					c-0.001,0-0.001,0-0.001,0C4.944,8.757,4.944,8.757,4.944,8.757z M5.473,8.372C5.472,8.377,5.468,8.381,5.465,8.385
					C5.468,8.381,5.472,8.377,5.473,8.372z M5.482,8.277c0.001,0.001,0,0.001,0.001,0.003C5.482,8.278,5.483,8.278,5.482,8.277z
					 M6.001,7.525C5.999,7.525,6,7.524,5.999,7.524c0.002-0.002,0.005-0.006,0.007-0.009C6.003,7.518,6.006,7.524,6.001,7.525z
					 M6.001,7.272C6.005,7.276,6.006,7.28,6.006,7.279c0.01-0.005-0.001,0.006-0.003,0C5.995,7.271,5.997,7.261,5.994,7.252h0.001
					C5.996,7.259,5.996,7.266,6.001,7.272z M6.015,7.642C6.015,7.642,6.014,7.642,6.015,7.642L6.015,7.642
					C6.014,7.642,6.014,7.642,6.015,7.642z M6.492,7.137c0,0.001,0,0.001,0.001,0.001c-0.001,0-0.001,0-0.001,0
					S6.492,7.139,6.492,7.137z M6.446,7.064C6.441,7.053,6.428,7.053,6.421,7.043c0.002,0.002,0.005-0.004,0.007,0
					C6.435,7.051,6.441,7.057,6.446,7.064L6.446,7.064z M5.738,7.582c0,0,0,0.001-0.001,0.001C5.738,7.582,5.738,7.582,5.738,7.58
					C5.738,7.582,5.738,7.58,5.738,7.582z M5.407,7.231C5.405,7.23,5.405,7.23,5.405,7.23c-0.007-0.017-0.012-0.034-0.02-0.05h0.001
					C5.387,7.2,5.4,7.213,5.407,7.231z M4.109,7.226c0,0.001-0.004-0.004-0.005-0.004c0.003,0.001,0.004,0.002,0.008,0.002
					C4.112,7.226,4.109,7.225,4.109,7.226z M3.461,7.422c-0.007,0.011,0,0.025-0.003,0.037C3.471,7.43,3.451,7.416,3.429,7.405
					C3.441,7.408,3.454,7.409,3.461,7.422z M3.391,8.526H3.389C3.389,8.526,3.39,8.526,3.391,8.526z M3.639,8.54
					c0,0.001,0,0.002-0.001,0.003c0-0.001-0.001-0.001-0.001-0.002C3.636,8.54,3.639,8.541,3.639,8.54z M3.618,8.605
					c0.001-0.004,0.006-0.006,0.006-0.01C3.624,8.599,3.619,8.601,3.618,8.605z M5.298,8.712c-0.015-0.014-0.015-0.032-0.01-0.05
					c0.001-0.004,0.003-0.006,0.005-0.009C5.278,8.68,5.283,8.7,5.3,8.711C5.3,8.711,5.298,8.714,5.298,8.712z M5.375,8.456
					c0,0.004,0.005,0.002,0.007,0.004l0,0c-0.005-0.003-0.01-0.005-0.015-0.006c0.008,0.002,0.015,0,0.023-0.004
					c-0.001,0-0.003,0-0.003,0.001C5.383,8.451,5.375,8.45,5.375,8.456z M6.059,8.557c0.001-0.014,0.015-0.026,0.03-0.032
					C6.075,8.531,6.063,8.542,6.059,8.557z M6.146,8.788c0.001,0,0.002-0.001,0.005,0c0.01,0.007,0.016,0.019,0.025,0.027
					c0.015,0.017,0.03,0.031,0.04,0.053C6.215,8.869,6.214,8.87,6.214,8.87C6.199,8.836,6.171,8.813,6.146,8.788z M6.376,7.708
					C6.38,7.707,6.381,7.704,6.385,7.704C6.384,7.707,6.386,7.708,6.386,7.71c-0.003,0-0.012,0.006-0.02,0.007
					C6.372,7.714,6.374,7.711,6.376,7.708z M6.501,7.474c0,0.001,0.005,0.001,0.006,0.002C6.505,7.478,6.501,7.482,6.499,7.484
					C6.501,7.481,6.497,7.475,6.501,7.474z M6.292,7.155c0.002-0.019-0.008-0.03-0.021-0.039c0.002,0,0.006-0.002,0.009,0.003
					C6.283,7.131,6.288,7.144,6.292,7.155C6.292,7.156,6.292,7.156,6.292,7.155z M4.99,7.004C4.99,7.004,4.99,7.004,4.99,7.004
					L4.99,7.004L4.99,7.004z M4.105,7.056c0.001,0,0.001,0.001,0.002,0.001C4.109,7.059,4.109,7.06,4.109,7.061
					C4.109,7.06,4.107,7.059,4.105,7.056z M3.581,8.074c0.001,0.001,0,0.001,0,0.002C3.581,8.076,3.581,8.074,3.581,8.074
					S3.581,8.073,3.581,8.074z M2.958,7.796c0,0-0.001-0.001-0.002-0.001C2.957,7.795,2.958,7.795,2.958,7.796L2.958,7.796z
					 M2.268,8.141v0.005L2.265,8.141C2.268,8.141,2.268,8.141,2.268,8.141z M2.78,8.71C2.778,8.719,2.778,8.728,2.774,8.735
					c-0.001,0.004-0.006,0-0.009,0.004C2.771,8.73,2.778,8.721,2.78,8.71z M2.993,8.854c0-0.001,0-0.002,0-0.004
					c0,0,0.002-0.001,0.002,0C2.995,8.852,2.995,8.853,2.993,8.854z M3.188,8.566L3.188,8.566L3.188,8.566L3.188,8.566z
					 M3.429,8.606c0-0.001,0-0.002,0-0.003C3.429,8.604,3.429,8.605,3.429,8.606z M5.353,8.774c-0.002,0.007,0,0.015,0.002,0.022
					C5.345,8.789,5.348,8.783,5.353,8.774z M5.44,8.432c0,0,0,0,0.001,0C5.438,8.434,5.436,8.437,5.433,8.44l0,0
					C5.436,8.437,5.438,8.435,5.44,8.432z M5.676,8.502L5.676,8.502c0,0-0.001,0-0.002-0.001C5.674,8.502,5.676,8.501,5.676,8.502z
					 M6.275,8.893c0-0.004,0.001-0.007,0.004-0.01c0,0.001-0.001,0.003,0,0.005c0,0.002-0.002,0.005-0.002,0.007
					C6.276,8.894,6.276,8.894,6.275,8.893z M6.356,8.623c0-0.001,0-0.001,0-0.001c0-0.001,0.001-0.001,0.001-0.002
					c0.002,0,0.005,0.002,0.008,0.002C6.363,8.623,6.359,8.62,6.356,8.623z M6.927,8.57l0.002-0.004c0,0.001,0,0.002,0,0.004l0,0
					H6.927z M6.852,8.508V8.51l0,0V8.508c0-0.001,0.001-0.002,0-0.003c0.007,0.003,0.012,0.002,0.02,0.003
					C6.864,8.508,6.858,8.506,6.852,8.508z M6.488,8.477c-0.001,0-0.001-0.001-0.001-0.001c0.002,0,0.004,0.001,0.005,0.001
					C6.492,8.476,6.489,8.479,6.488,8.477z M6.241,8.416c0,0-0.002,0-0.002,0.001V8.416C6.239,8.415,6.241,8.416,6.241,8.416z
					 M6.492,7.586C6.493,7.586,6.493,7.586,6.492,7.586c0.002,0.001,0.005-0.001,0.007,0C6.497,7.588,6.494,7.586,6.492,7.586z
					 M6.707,7.466C6.71,7.48,6.707,7.494,6.7,7.51c-0.001,0-0.001,0-0.001,0C6.714,7.498,6.709,7.481,6.707,7.466z M6.787,7.335
					c0.001,0.002,0.005,0.002,0.005,0.006c-0.013,0.006-0.029,0.011-0.04,0.011C6.767,7.353,6.779,7.348,6.787,7.335z M6.051,6.923
					c0-0.001,0-0.001-0.003-0.001c0.003-0.001,0.003,0,0.003-0.001C6.052,6.922,6.051,6.922,6.051,6.923z M5.716,7.022
					c-0.002,0.001-0.008,0.004-0.01,0.002c-0.007,0,0-0.003-0.001-0.006C5.708,7.017,5.711,7.026,5.716,7.022
					C5.716,7.021,5.716,7.021,5.716,7.022z M5.389,6.913c-0.001-0.018-0.01-0.029-0.016-0.041c0,0,0,0,0-0.001
					c0.005,0.019,0.01,0.037,0.018,0.042C5.391,6.913,5.391,6.913,5.389,6.913z M4.882,6.912c-0.005-0.008-0.015-0.008-0.02-0.015
					C4.87,6.902,4.876,6.908,4.885,6.91C4.884,6.91,4.882,6.911,4.882,6.912z M4.462,6.833c-0.01-0.002-0.022-0.003-0.023-0.01
					c0.02-0.01,0.023-0.018,0.034-0.025C4.467,6.811,4.464,6.822,4.462,6.833z M4.125,6.952C4.127,6.95,4.127,6.948,4.127,6.946
					c0.001,0.001,0,0.004,0.001,0.005C4.127,6.951,4.127,6.952,4.125,6.952z M3.812,7.331c0.005-0.002,0.007-0.005,0.011-0.009
					C3.819,7.326,3.816,7.33,3.812,7.331z M3.409,7.264c0,0,0,0-0.001,0c0.001-0.004,0.001-0.006,0.001-0.01
					c0-0.002,0.002-0.003,0.002-0.005C3.411,7.253,3.407,7.259,3.409,7.264z M3.378,7.301c0.002,0.001,0.005,0,0.008-0.001
					C3.383,7.306,3.381,7.304,3.378,7.301z M3.201,7.747c0.004,0,0.008-0.007,0.013-0.002c0.001,0.002,0.002,0.005,0.005,0.007
					C3.212,7.748,3.207,7.747,3.201,7.747z M2.786,7.776v0.001c-0.005-0.014,0-0.029-0.013-0.04l0,0
					C2.777,7.751,2.78,7.764,2.786,7.776z M2.74,7.764C2.74,7.764,2.74,7.764,2.74,7.764L2.74,7.764L2.74,7.764z M2.31,8.012
					c0.005,0.004,0.011,0.005,0.014,0.01C2.32,8.024,2.317,8.028,2.315,8.029C2.315,8.023,2.313,8.018,2.31,8.012z M2.39,8.615
					L2.39,8.615L2.39,8.615z M2.726,8.904c0.01,0,0.011,0.005,0.017,0.008L2.74,8.91C2.735,8.908,2.733,8.905,2.726,8.904z
					 M3.209,8.894c0.001,0.011-0.003,0.025,0.011,0.032l0,0C3.216,8.917,3.211,8.905,3.209,8.894z M4.457,8.908
					C4.457,8.909,4.457,8.909,4.457,8.908C4.457,8.909,4.457,8.909,4.457,8.908L4.457,8.908z M6.592,8.828
					C6.59,8.829,6.588,8.832,6.586,8.832C6.584,8.83,6.585,8.828,6.584,8.826C6.586,8.826,6.588,8.829,6.592,8.828z M6.066,8.153
					c-0.001,0-0.003-0.001-0.005-0.001v0.004c-0.006,0.002-0.01,0.009-0.013,0.015c-0.001-0.001-0.002,0-0.002-0.001
					c0.005-0.005,0.01-0.01,0.015-0.014c0,0-0.002-0.001-0.004-0.001c0.001-0.001,0.001-0.002,0.004-0.002
					c0.005-0.005,0.01-0.01,0.015-0.014l0,0C6.066,8.14,6.063,8.145,6.066,8.153z M7.023,7.904c0.001,0,0.003,0,0.006,0
					c0,0.001,0.001,0.001,0.002,0.002C7.029,7.904,7.026,7.907,7.023,7.904z M6.872,7.742C6.873,7.739,6.877,7.74,6.878,7.736
					c0.001,0,0.001,0,0.001,0C6.887,7.731,6.895,7.725,6.904,7.73C6.889,7.723,6.883,7.738,6.872,7.742z M6.797,7.431
					c0.001-0.002,0.002-0.003,0.002-0.006C6.8,7.426,6.807,7.428,6.809,7.429C6.804,7.43,6.802,7.43,6.797,7.431z M6.452,6.908
					L6.452,6.908C6.45,6.904,6.449,6.902,6.449,6.899l0,0C6.449,6.903,6.452,6.906,6.452,6.908z M5.622,6.752
					C5.621,6.753,5.621,6.753,5.618,6.753c0,0.001-0.002,0.001,0,0.004c0.002,0.009-0.011-0.001-0.002-0.002
					c0.001-0.001,0.002,0,0.002-0.001c0,0,0.001,0,0.001-0.001C5.621,6.752,5.621,6.752,5.622,6.752z M4.7,7.028
					c0,0.001-0.002,0.001-0.002,0.002c0-0.001,0-0.001,0-0.002H4.7z M4.484,6.75L4.484,6.75c0-0.002,0.002-0.002,0.002-0.003
					C4.486,6.748,4.486,6.75,4.484,6.75z M4.049,7.072c0.002,0.002-0.001,0.005,0,0.007C4.045,7.076,4.045,7.076,4.042,7.073
					C4.044,7.072,4.049,7.076,4.049,7.072z M3.952,7.036c0,0,0.001-0.001,0.002-0.001c0-0.001-0.001-0.001-0.001-0.002
					c0,0,0.001,0,0.001-0.001C3.96,7.021,3.969,7.012,3.981,7.01c-0.014,0.003-0.02,0.015-0.027,0.025c-0.001,0.001,0,0.001,0,0.002
					C3.954,7.036,3.952,7.037,3.952,7.036z M3.283,7.288c-0.002,0.001-0.003,0-0.005,0.001c0-0.001,0-0.001,0.002-0.001
					C3.281,7.288,3.282,7.288,3.283,7.288z M2.615,7.858c-0.005-0.002-0.007,0-0.013-0.002C2.61,7.853,2.618,7.845,2.625,7.84
					C2.623,7.848,2.618,7.852,2.615,7.858z M2.245,8.072c-0.003-0.001,0-0.004-0.003-0.005c0.003,0.001,0.003,0.004,0.005,0.004
					C2.248,8.071,2.246,8.072,2.245,8.072z M2.197,8.431L2.197,8.431c0,0,0,0,0-0.001V8.431z M2.252,8.541
					C2.248,8.536,2.24,8.534,2.235,8.531C2.24,8.532,2.249,8.537,2.252,8.541z M2.365,8.745c0.003,0.012-0.003,0.026-0.006,0.04
					c-0.001,0-0.001,0-0.001,0C2.37,8.75,2.365,8.719,2.351,8.688C2.359,8.706,2.36,8.726,2.365,8.745z M7.345,8.608
					c-0.001,0-0.002-0.002-0.004-0.003C7.345,8.604,7.35,8.604,7.352,8.6l0,0C7.35,8.603,7.347,8.605,7.345,8.608z M7.318,8.587
					c0-0.001,0.001-0.001,0.002-0.002C7.322,8.587,7.322,8.59,7.325,8.592C7.324,8.59,7.318,8.591,7.318,8.587z M6.216,8.2
					L6.216,8.2L6.216,8.2L6.216,8.2z M7.112,7.925c-0.01,0-0.02-0.005-0.028-0.005c0.014,0.002,0.028,0.006,0.045,0.002
					c0-0.001,0.001-0.001,0.001-0.001C7.125,7.916,7.131,7.92,7.135,7.923l0,0c-0.003,0-0.005-0.001-0.006,0
					c0,0.001-0.001,0.001-0.001,0.002C7.122,7.925,7.117,7.925,7.112,7.925z M6.819,7.075c0.002-0.002,0.006-0.001,0.01-0.002
					c0,0,0.001,0.001,0.003,0.002C6.828,7.075,6.824,7.075,6.819,7.075z M4.79,6.75c0,0,0,0.002-0.003,0.002
					c0,0,0-0.001-0.002-0.001C4.787,6.75,4.79,6.75,4.79,6.75z M3.821,7.135c0.001-0.005,0.006-0.004,0.01-0.006
					c-0.002,0.004-0.001,0.006,0,0.009C3.829,7.135,3.824,7.137,3.821,7.135z M4.114,8.959c0.014-0.001,0.025-0.006,0.038-0.006
					c0.01,0,0.018-0.002,0.027,0c0-0.001,0,0.001,0,0c0.001,0,0.002,0,0.002,0c0.002,0.001,0.004,0.001,0.004,0.001
					c0-0.005-0.001-0.005-0.006-0.001c-0.019-0.001-0.039,0-0.058,0.006C4.119,8.959,4.117,8.959,4.114,8.959z M7.061,8.755
					c0.008,0.006,0.009-0.003,0.014,0.001c-0.005,0-0.01,0.004-0.015,0.005C7.061,8.76,7.06,8.757,7.061,8.755z M7.452,8.751
					c0.001,0,0.003,0,0.003,0c0.002,0,0,0.003,0,0.003C7.455,8.754,7.455,8.752,7.452,8.751z M7.242,8.723
					c-0.001,0-0.002,0.001-0.004,0.001c0-0.002,0.001-0.006,0.001-0.006c0.001,0,0.002,0,0.002,0
					C7.241,8.719,7.241,8.721,7.242,8.723z M7.46,8.511c-0.002,0.001-0.004,0-0.005,0.001c0-0.001,0-0.001,0-0.001
					C7.458,8.511,7.458,8.511,7.46,8.511z M7.148,8.541H7.147c0-0.001,0-0.002,0-0.004C7.147,8.539,7.147,8.54,7.148,8.541z
					 M6.237,8.157C6.236,8.158,6.234,8.16,6.234,8.161C6.231,8.16,6.236,8.16,6.232,8.157C6.234,8.157,6.236,8.157,6.237,8.157z
					 M6.619,7.983C6.619,7.982,6.619,7.982,6.619,7.983L6.619,7.983C6.619,7.982,6.619,7.982,6.619,7.983z M7.47,7.922
					c0-0.002-0.002-0.004-0.002-0.006C7.47,7.917,7.472,7.919,7.472,7.92C7.472,7.92,7.47,7.92,7.47,7.922z M6.759,7.611
					c-0.005-0.006-0.01-0.009-0.018-0.007l0,0C6.747,7.606,6.753,7.608,6.759,7.611z M6.268,6.826
					C6.254,6.828,6.239,6.834,6.225,6.833C6.211,6.832,6.201,6.824,6.188,6.822C6.214,6.83,6.241,6.831,6.268,6.826z M5.411,6.708
					v0.001C5.411,6.708,5.411,6.708,5.411,6.708L5.411,6.708z M3.707,6.647c-0.003,0-0.003,0-0.003,0
					C3.701,6.643,3.701,6.639,3.699,6.635l0,0C3.7,6.641,3.704,6.643,3.707,6.647z"/>
				<path style="fill-rule:evenodd;clip-rule:evenodd;" d="M7.272,7.377c0.003,0,0.005,0,0.008,0c0.012,0.01,0.025,0.016,0.039,0
					c-0.001,0-0.001-0.001-0.001-0.001l0,0l0.001,0.001c0.01-0.005,0.01-0.01,0-0.016C7.309,7.348,7.295,7.345,7.28,7.348
					C7.257,7.353,7.257,7.364,7.272,7.377L7.272,7.377z"/>
				<path style="fill-rule:evenodd;clip-rule:evenodd;" d="M7.212,8.487C7.215,8.483,7.217,8.48,7.218,8.475
					C7.215,8.474,7.209,8.471,7.206,8.47C7.205,8.474,7.2,8.479,7.201,8.482C7.202,8.485,7.208,8.486,7.212,8.487z"/>
				<polygon style="fill-rule:evenodd;clip-rule:evenodd;" points="6.927,6.91 6.92,6.907 6.919,6.915 6.924,6.916 				"/>
				<polygon style="fill-rule:evenodd;clip-rule:evenodd;" points="7.407,7.731 7.402,7.73 7.4,7.736 7.405,7.739 				"/>
			</g>
	</g>
</svg>
