<?xml version="1.0" encoding="utf-8"?>
<svg xmlns="http://www.w3.org/2000/svg" viewBox="17.698 6.204 4.716 2.9">
	<g>
			<g>
				<polygon style="fill-rule:evenodd;clip-rule:evenodd;" points="21.992,7.992 21.992,7.992 21.992,7.992 				"/>
				<path style="fill-rule:evenodd;clip-rule:evenodd;" d="M22.207,6.254L22.207,6.254l-0.002-0.003
					c-0.018,0.001-0.028,0.014-0.035,0.027c0,0,0,0.001,0.001,0.002l0,0L22.17,6.278c-0.008,0.004-0.009,0.011-0.011,0.018l0.002,0
					l0,0l-0.002,0c-0.016,0.011-0.028,0.026-0.051,0.03c-0.018,0.002-0.035,0.015-0.047,0.033c0.002,0,0.002,0,0.003,0.002h-0.001
					l-0.002-0.002c-0.04-0.004-0.04-0.004-0.051,0.027c-0.001,0.005-0.003,0.011-0.003,0.017l0,0
					c-0.002,0.006-0.002,0.014-0.009,0.018c-0.009,0.016-0.018,0.032-0.018,0.051c-0.018,0.052-0.041,0.103-0.054,0.157
					c-0.009,0.037-0.01,0.074-0.032,0.104c-0.01,0.003-0.014,0.018-0.027,0.017c-0.003,0-0.005-0.001-0.008,0
					c-0.07,0.02-0.14,0.041-0.209,0.063c-0.011,0.004-0.021,0.008-0.033,0.006c-0.018,0-0.031,0.006-0.046,0.018
					c0.002,0.001,0.004,0.001,0.004,0.002l0,0c-0.001,0-0.002-0.002-0.004-0.002c-0.011,0-0.024,0.005-0.033-0.007
					c0.002-0.001,0.006-0.001,0.009-0.001c0.005-0.005,0.013-0.002,0.017-0.009c0.007,0,0.014-0.001,0.019-0.007
					c0.008,0,0.014-0.002,0.018-0.009c0.003,0,0.005,0,0.009-0.001c0.013-0.001,0.026,0.005,0.035-0.009
					c0.028-0.006,0.019-0.027,0.019-0.044c0.004-0.012,0.018-0.019,0.018-0.034c0.005-0.003,0.01-0.007,0.017-0.01
					c0.002-0.002,0.005-0.005,0.009-0.009c0.023,0.003,0.048,0,0.07-0.009c0.019-0.003,0.014,0.023,0.029,0.024
					c0.013-0.012,0.018-0.027,0.024-0.042c0.007-0.012,0.019-0.021,0.033-0.025c0.014-0.004,0.025-0.012,0.025-0.028
					c-0.005-0.005-0.01-0.002-0.014-0.002c-0.041,0.005-0.075,0.034-0.115,0.04c-0.021,0.002-0.044-0.002-0.063,0.009
					c-0.003,0-0.007,0-0.009,0c-0.008,0-0.014,0.002-0.018,0.009c-0.016,0.003-0.03,0.009-0.044,0.018
					c-0.008,0.001-0.016,0-0.021,0.002c-0.027,0.009-0.058,0.01-0.085,0.022c-0.014,0.005-0.03,0.004-0.041-0.009
					c-0.011-0.013-0.003-0.023,0.005-0.035C21.492,6.657,21.5,6.644,21.5,6.631c0-0.043,0.03-0.062,0.063-0.073
					c0.03-0.011,0.057-0.025,0.082-0.041c0.003-0.003,0.007-0.005,0.01-0.009c0.019-0.001,0.032-0.013,0.047-0.02
					c0.008-0.002,0.015-0.009,0.012-0.018c-0.003-0.008-0.012-0.007-0.019-0.005c-0.016,0.007-0.027,0.009-0.031-0.013
					c0.004-0.002,0.006-0.004,0.009-0.009c0-0.002,0-0.003,0.001-0.005c0.037-0.013,0.074-0.022,0.105-0.047v0.001
					c0.02,0.011,0.028-0.005,0.038-0.017c0.003,0,0.005,0,0.007-0.001c0.014-0.009,0.029-0.011,0.044-0.018c0.003,0,0.007,0,0.01,0
					c0.004-0.005,0.013-0.004,0.017-0.009c0.004-0.006,0.013-0.003,0.018-0.009c0.006,0,0.011,0,0.018,0
					c0.005-0.001,0.011-0.001,0.016-0.003c0.007-0.003,0.02-0.006,0.014-0.016c-0.005-0.011-0.014,0.001-0.021,0.002
					c-0.013-0.007-0.022-0.007-0.035,0c-0.011,0-0.021-0.002-0.026,0.008c-0.007,0-0.012,0-0.018,0.001
					c-0.015,0-0.026,0.005-0.036,0.017c-0.003,0-0.005,0.002-0.008,0c-0.014-0.002-0.034,0.008-0.036-0.017
					c0.023-0.008,0.048-0.016,0.07-0.023c0.014-0.004,0.029-0.006,0.036-0.022c0,0-0.001-0.001-0.003-0.002c0.002,0,0.002,0,0.002,0
					l0.001,0.002c0.02,0,0.037-0.005,0.054-0.018c0.002,0,0.005,0,0.008,0c0.003-0.003,0.006-0.006,0.009-0.009l0,0
					c0.01-0.007,0.016-0.017,0.014-0.034c-0.02,0.009-0.042,0.002-0.058,0.016c-0.003,0-0.005,0-0.008,0
					c-0.018-0.002-0.032,0.002-0.049,0.008c-0.021,0.008-0.02-0.022-0.037-0.021c-0.009,0-0.017-0.002-0.026,0.002
					c-0.016,0.005-0.031,0.004-0.048,0c-0.01-0.004-0.02-0.006-0.03-0.004c-0.051,0.011-0.104,0.011-0.157,0.016
					c-0.032,0.004-0.066,0.004-0.098,0.018c0,0,0.001,0.001,0.002,0.002H21.46l-0.001-0.002c-0.024,0.003-0.05-0.014-0.071,0.008
					l0.002,0.002c-0.001,0-0.001,0.001-0.001,0.002c0-0.001,0-0.002-0.001-0.004c-0.05-0.001-0.102,0.003-0.149,0.013
					c-0.113,0.023-0.229,0.022-0.345,0.03c-0.071,0.005-0.142,0.014-0.213,0.014c-0.062-0.001-0.121,0.017-0.182,0.029
					c-0.027,0.006-0.055,0.004-0.079,0.021l0.002,0.002c-0.002,0-0.002,0.001-0.002,0.001c0-0.001,0-0.002,0-0.003
					c-0.078,0-0.154,0.019-0.231,0.034c-0.057,0.011-0.114,0.023-0.171,0.036c-0.149,0.032-0.301,0.057-0.446,0.103
					c-0.035,0.011-0.071,0.019-0.108,0.024c-0.04,0.004-0.076,0.017-0.113,0.027c-0.047,0.011-0.09,0.023-0.138,0.029
					c-0.081,0.011-0.161,0.023-0.24,0.051c-0.003,0.003,0,0.007,0.002,0.01l-0.002-0.002c0-0.002,0-0.005,0-0.007
					c-0.003,0.002-0.005,0.005-0.008,0.008c-0.027,0.025-0.058,0.047-0.095,0.052c-0.031,0.004-0.063,0.013-0.094,0.021
					c-0.065,0.015-0.129,0.034-0.194,0.051c0,0.001,0.001,0.001,0.001,0.001l0,0l-0.001-0.001c-0.015,0-0.03,0.001-0.044,0.001
					c-0.005,0.005-0.013,0.002-0.018,0.007c-0.052,0.01-0.104,0.018-0.155-0.007c-0.005-0.001-0.01,0.003-0.014,0.007
					c-0.023,0.015-0.04,0.035-0.046,0.063c-0.003,0.004-0.005,0.006-0.008,0.009c0,0,0.002,0,0.003,0
					c0,0.001-0.001,0.001-0.001,0.001l-0.002-0.001c-0.002,0.002-0.006,0.006-0.009,0.009v0.001c0,0.001,0,0,0,0.001
					c0-0.001,0-0.002,0-0.002c-0.009,0-0.018,0-0.026,0c-0.005,0.006-0.012,0.004-0.018,0.01c-0.002,0.002-0.006,0.005-0.009,0.009
					h0.002c0,0.001-0.002,0.001-0.002,0.001c0-0.001,0-0.001,0-0.001c-0.025-0.003-0.042,0.016-0.06,0.029
					c-0.01,0.007-0.017,0.015-0.028,0.015c-0.003,0-0.007,0-0.009,0c-0.015,0.004-0.017,0.02-0.028,0.028
					c-0.005-0.03-0.021-0.015-0.035-0.01c-0.01,0.001-0.019-0.001-0.027,0.01c-0.005,0-0.011,0-0.016,0c-0.004,0-0.007,0-0.011,0
					c-0.002,0.002-0.006,0.005-0.009,0.007c-0.002,0.004-0.006,0.006-0.009,0.009v0.001c-0.002,0.002-0.005,0.005-0.009,0.007
					l-0.001,0.001c-0.001,0.003-0.005,0.006-0.007,0.009l0,0c-0.003,0.003-0.007,0.006-0.009,0.009l0,0
					c-0.004,0.002-0.007,0.006-0.009,0.009l0,0c-0.007,0.005-0.012,0.008-0.017,0.013c-0.006,0.005-0.012,0.011-0.005,0.019
					c0.002,0.004,0.01,0.004,0.015,0.004c0.007,0,0.012-0.002,0.014-0.007c0.004-0.001,0.007-0.001,0.009-0.001
					c0.004-0.002,0.008-0.005,0.01-0.007c0.007,0,0.012,0,0.018,0c-0.002-0.004-0.006-0.006-0.009-0.01l0,0
					c0.003,0.004,0.007,0.006,0.009,0.01c0.003,0,0.007,0,0.009,0c0.003-0.004,0.007-0.006,0.011-0.009c0.002,0,0.005,0,0.009-0.001
					c0.003-0.005,0.012-0.003,0.018-0.009c0.009,0,0.017,0,0.025,0c0.003,0,0.007,0,0.009,0c0.011,0.021,0.011,0.021,0.026,0
					c0.004-0.002,0.007-0.006,0.011-0.009c0.005-0.006,0.011-0.006,0.018,0c0,0.008,0.001,0.014,0.008,0.018
					c-0.003,0.013-0.006,0.024-0.01,0.035l0.002,0.001l0,0c-0.002,0-0.002-0.001-0.002-0.001c-0.051-0.011-0.095,0.015-0.142,0.027
					c0,0,0,0.001,0.002,0.001l0,0l-0.002-0.001c-0.017,0.002-0.034,0.006-0.052,0.009c-0.004,0.004-0.007,0.006-0.011,0.009l0,0
					c-0.002,0.004-0.005,0.006-0.009,0.009c-0.002,0.002-0.002,0.006,0,0.009l0,0c0.004,0.004,0.007,0.006,0.009,0.009
					C17.938,7.179,17.912,7.17,17.9,7.193c0.021-0.009,0.049,0.009,0.052-0.026c0.002,0,0.005,0,0.009,0
					c0,0.017,0.014,0.017,0.026,0.017c0.006,0.005,0.006,0.01,0,0.017c-0.007,0-0.013,0.001-0.018,0.001
					c-0.003,0.002-0.007,0.006-0.009,0.009c-0.004,0-0.007,0-0.009,0c-0.003,0.002-0.002,0.005,0,0.008c0,0,0,0-0.002,0
					c0-0.003,0.002-0.005,0.002-0.008c-0.004,0-0.007,0-0.011,0c-0.007,0-0.014,0.001-0.018,0.009c-0.002,0-0.005,0-0.009,0
					c-0.003,0.006-0.012,0.004-0.017,0.009c-0.017-0.001-0.03,0.001-0.044,0.01c-0.004-0.004-0.007-0.006-0.011-0.01
					c-0.01,0.001-0.02,0.004-0.022,0.015c-0.002,0.01,0.008,0.011,0.014,0.011c0.003-0.002,0.007-0.005,0.009-0.009
					c0.017,0.01,0.034,0.009,0.052,0.01c0.039,0.003,0.049,0.012,0.057,0.044c0.002,0.004,0.002,0.006,0,0.009
					C17.95,7.315,17.95,7.32,17.95,7.326l0.003,0.002l0,0c0-0.001-0.001-0.002-0.003-0.002c-0.009,0.007-0.014,0.019-0.016,0.03
					c-0.004,0.01-0.009,0.014-0.02,0.015c-0.002,0.002-0.006,0.006-0.008,0.009c-0.025,0.005-0.023,0.028-0.025,0.044
					c-0.004,0.018-0.005,0.036-0.017,0.049c-0.028,0.032-0.031,0.072-0.038,0.111c-0.013,0.001-0.024-0.002-0.035-0.009
					c-0.007-0.005-0.013-0.005-0.018,0c0.015,0.024,0.035,0.041,0.059,0.056c0.03,0.021,0.031,0.029,0.022,0.066
					c-0.004,0.019-0.008,0.038-0.012,0.055c0.002,0,0.002,0,0.003,0.001l0,0l-0.003-0.001c-0.012,0.01-0.007,0.023-0.009,0.035
					c0.002,0,0.003,0,0.003,0.001v0.001l-0.003-0.002c-0.012,0.01-0.006,0.023-0.01,0.035l0.003,0.002l0,0
					c-0.001-0.001-0.001-0.002-0.003-0.002c-0.013,0.019-0.018,0.042-0.016,0.063c0.001,0,0.001,0,0.001,0c0,0.001,0,0.001,0,0.001
					L17.81,7.885c-0.013,0.009-0.007,0.024-0.011,0.035l0.003,0.001l0,0c-0.001,0-0.003,0-0.003-0.001
					c-0.012,0.019-0.016,0.04-0.017,0.063c-0.012,0.02-0.019,0.042-0.016,0.065c0.002-0.001,0.005-0.002,0.007-0.003l0,0
					c-0.003,0-0.006,0-0.007,0.003l0.001,0.004l-0.003,0.004c-0.006,0.007-0.001,0.019-0.007,0.027l0.001-0.001
					c-0.009,0.002-0.01,0.009-0.011,0.018c-0.002,0.008-0.002,0.019-0.002,0.027c-0.009,0.007-0.007,0.019-0.006,0.027
					c-0.001,0.006-0.003,0.011-0.003,0.017c-0.011,0.01-0.006,0.023-0.007,0.036v0.004v0.003c-0.015,0.015-0.009,0.033-0.011,0.051
					c0.013-0.003,0.017-0.009,0.017-0.016c0.002,0,0,0,0,0c0.016-0.009,0.009-0.022,0.011-0.035c0.007,0.004,0.008,0.01,0.008,0.019
					c0.004,0,0.007,0,0.009,0c0,0,0.002,0,0.002,0.001c-0.004-0.001-0.007-0.003-0.011-0.001c0,0.011-0.001,0.023-0.002,0.035
					c-0.01,0.014-0.004,0.03-0.005,0.044c0,0.006,0,0.011,0,0.016c0.01,0.012,0.011,0.025,0.016,0.037
					c0,0.007-0.001,0.012-0.001,0.02c-0.001,0.006-0.002,0.015-0.001,0.021c0,0.009-0.005,0.019,0,0.026
					c0.015-0.002,0.017-0.014,0.021-0.022c0-0.004,0-0.006,0.001-0.01c0.018-0.017,0.017-0.039,0.017-0.06c-0.002,0-0.002,0-0.002,0
					c0-0.001,0-0.001,0-0.001l0.002,0.001c0.012-0.01,0.007-0.024,0.01-0.037c0.01-0.03,0.019-0.06,0.03-0.09
					c0.005,0.007,0.002,0.015,0.005,0.022c0.016,0.035,0.018,0.065-0.019,0.091c-0.015,0.01-0.015,0.03,0.002,0.042
					c0.014,0.011,0.018,0.025,0.026,0.039c0.014,0.024,0.017,0.054,0.039,0.074c0.02,0.019,0.036,0.039,0.015,0.067
					c-0.005,0.007-0.005,0.021-0.001,0.03c0.013,0.03,0.005,0.057-0.019,0.087c0.022-0.002,0.036,0.007,0.052,0.01l0,0
					c-0.005,0.033,0.013,0.062,0.039,0.071c0.03,0.014,0.057,0.033,0.087,0.042c0.068,0.02,0.126,0.063,0.192,0.086
					c0.013,0.004,0.023,0.012,0.031,0.024c0.018,0.02,0.039,0.023,0.063,0.023c0.018,0,0.035,0.005,0.052,0.009
					c0.05,0.013,0.099,0.033,0.151,0.029c0.004-0.001,0.009,0.001,0.013,0.004c0.036,0.027,0.077,0.021,0.117,0.021c0,0,0,0,0-0.001
					c0.001,0,0.001,0,0.001,0.001h-0.001c0.035,0.013,0.07,0.02,0.104,0.035c0.007,0.004,0.014,0.001,0.021,0.001V9.021
					c0.001,0,0.001,0,0.001,0l-0.001,0.001c0.021,0.014,0.041,0.014,0.062,0.001c-0.003-0.001-0.007-0.001-0.009-0.001
					c0.002-0.001,0.005,0,0.006-0.001c0.003,0,0.002,0.002,0.003,0.002c0.019-0.001,0.036-0.001,0.054-0.001
					c0.012,0.006,0.024,0.006,0.036,0c0.008,0,0.017,0,0.026,0c0.004,0.007,0.012,0.009,0.018,0.009l0,0
					C19.005,9.039,19,9.05,19.016,9.049c0.014,0,0.026,0.004,0.037,0.009c0.003,0,0.005,0,0.009,0
					c0.021-0.005,0.043-0.005,0.061,0.009c0.013,0.008,0.024,0.006,0.036,0.001c0.012,0,0.022-0.001,0.035-0.001
					c0.002-0.002,0-0.006-0.001-0.009h0.001c0,0.003,0,0.006,0,0.009c0.032,0,0.066,0.015,0.098,0.01
					c0.006,0.009,0.013,0.009,0.018,0V9.075l0,0c0,0.001,0,0.001,0,0.001c0.074,0,0.149,0,0.224,0c0.013,0,0.025-0.001,0.039,0.003
					c0.038,0.012,0.074,0.001,0.11-0.012l-0.001-0.001c0,0,0,0,0.001,0c0,0,0,0,0,0.001c0.054,0.001,0.104-0.005,0.157-0.018
					c0.094-0.02,0.191-0.026,0.285-0.047c0.109-0.026,0.218-0.051,0.326-0.08c0.037-0.01,0.078-0.014,0.109-0.042l0,0l0,0l0,0
					c0.039-0.003,0.075-0.013,0.107-0.035h-0.001c0,0,0,0,0.001,0l0,0c0.021-0.001,0.043-0.009,0.062-0.021
					c0.035-0.022,0.074-0.043,0.114-0.055c0.07-0.022,0.134-0.052,0.195-0.092c0.087-0.059,0.179-0.11,0.27-0.165
					c0.021-0.013,0.038-0.033,0.063-0.04c0.013-0.005,0.016,0.002,0.017,0.012c0,0.002,0,0.004-0.001,0.006
					c-0.022,0.02-0.029,0.044-0.023,0.075c0.017-0.006,0.023-0.017,0.023-0.031l0,0c0.002-0.002,0.008-0.005,0.009-0.01
					l-0.001,0.001c0.007-0.004,0.005-0.013,0.011-0.018c0.014,0.007,0.029,0.018,0.044,0.001c0.002-0.003,0.006-0.006,0.009-0.008
					c0.004-0.004,0.006-0.008,0.009-0.01l-0.001-0.002l0,0l0.001,0.002c0.022-0.002,0.032-0.019,0.045-0.035
					c0,0-0.001-0.001-0.003-0.002l0,0l0.003,0.002c0.018-0.001,0.027-0.012,0.035-0.027h-0.001l0,0h0.001
					c0.004-0.002,0.006-0.006,0.009-0.009c-0.003,0-0.007,0-0.01,0l0,0l0,0l0,0V8.417c0.003,0.003,0.006,0.004,0.01,0.001
					c0.004-0.002,0.006-0.005,0.009-0.007c0.002,0,0.006,0,0.009,0c0.002,0.011-0.004,0.026,0.01,0.035v0.002v0.004
					c0,0.011-0.004,0.026,0.014,0.026c0.014,0,0.013-0.014,0.013-0.024c-0.003-0.03,0.004-0.058,0.026-0.08
					c0,0.02,0,0.039,0.027,0.02c0.023,0.017,0.03,0.006,0.039-0.018c0.006-0.015-0.007-0.04,0.021-0.046
					c0.025-0.005,0.031,0.017,0.045,0.03c0.02,0.018,0.033,0.016,0.05-0.007c0.01-0.015,0.019-0.033,0.023-0.053
					c0.013-0.074,0.032-0.147,0.063-0.218c-0.001,0-0.001-0.001-0.003-0.001h0.002l0.001,0.001c0.018,0.01-0.005,0.046,0.019,0.046
					c0.019,0,0.021-0.034,0.031-0.049c0.002-0.002,0.002-0.006,0.002-0.009l0,0c0.009-0.006,0.001-0.02,0.009-0.026l0,0
					c0.003-0.002,0.007-0.006,0.008-0.01c0-0.002,0.002-0.005,0.003-0.008c0.004-0.002,0.006-0.007,0.006-0.012
					c0.002-0.004,0.002-0.01,0.003-0.015c0.003-0.002,0.004-0.005,0.008-0.009c0.005-0.005,0.004-0.012,0.007-0.018l0,0
					c0.007-0.003,0.006-0.012,0.011-0.018l0,0c0.006-0.005,0.003-0.014,0.009-0.019c0-0.002,0-0.006,0.001-0.009
					c0.04-0.05,0.063-0.109,0.089-0.167c-0.001,0-0.003-0.001-0.004-0.001c0.001,0,0.001,0,0.001,0l0.003,0.001
					c0.006-0.004,0.008-0.01,0.009-0.018h-0.001l0,0h0.001c0.002-0.002,0.006-0.006,0.009-0.009c0.01-0.006,0.007-0.016,0.009-0.026
					c0.007-0.005,0.007-0.013,0.007-0.02c-0.001-0.002,0-0.005,0.002-0.007c0.005-0.005,0.004-0.013,0.007-0.019l-0.001,0.001
					c0.012-0.008,0.004-0.02,0.012-0.028l-0.002,0.001c0.021-0.02,0.029-0.044,0.029-0.07l-0.001-0.001l0,0c0,0,0.001,0,0.001,0.001
					c0.017-0.019,0.021-0.042,0.024-0.064c0.013-0.058,0.021-0.118,0.063-0.164c0.001-0.001,0-0.002,0.001-0.004
					c-0.001,0-0.001,0-0.001-0.001l0,0l0.001,0.001c0.002-0.002,0.005-0.006,0.008-0.01c0.007-0.004,0.008-0.009,0.008-0.016
					c0.004-0.004,0.007-0.006,0.011-0.01c0.004-0.006,0.004-0.012,0-0.018c-0.004-0.003-0.007-0.006-0.011-0.01
					c-0.002-0.002-0.006-0.005-0.007-0.008l-0.001-0.001c-0.004-0.002-0.004-0.005,0-0.009c0-0.002,0-0.005,0-0.009
					c0,0-0.002,0-0.003-0.001c-0.003-0.001-0.004-0.001-0.006,0.001c-0.008-0.004-0.009-0.01-0.008-0.018l-0.003-0.001
					c0,0,0,0,0-0.001c0.002,0.001,0.002,0.001,0.003,0.002c0.015-0.046,0.026-0.094,0.031-0.144c0.006-0.052,0.027-0.104,0.03-0.157
					c-0.002,0-0.003,0-0.004,0c0.001-0.001,0.001-0.001,0.001-0.003l0.003,0.003c0.001-0.003,0.005-0.004,0.005-0.006
					c0.009-0.063,0.026-0.125,0.021-0.189c-0.002,0-0.002,0-0.002,0c0-0.001,0-0.001,0-0.001c0-0.014,0.002-0.028,0.003-0.042l0,0
					l0,0c0,0,0,0,0,0c-0.014,0.013-0.014,0.028-0.003,0.042l0.002,0.001c0.002-0.006,0.007-0.009,0.01-0.015
					c0.014-0.036,0.005-0.074,0.007-0.111l0,0c0,0,0,0,0,0c-0.001-0.006-0.001-0.01-0.001-0.015c0.016-0.011,0.01-0.027,0.01-0.042
					c0.003-0.063-0.016-0.125-0.009-0.189c0.015-0.017,0.013-0.04,0.017-0.058c0.007-0.032-0.023-0.063-0.051-0.055
					c-0.025,0.008-0.044,0.004-0.066-0.005c-0.025-0.01-0.049-0.009-0.068,0.01C22.205,6.252,22.206,6.252,22.207,6.254z
					 M22.26,7.195c-0.001,0.002-0.003,0.004-0.004,0.005c-0.001-0.002,0-0.005,0-0.006c0.001,0,0.003,0.001,0.003,0
					C22.259,7.195,22.26,7.195,22.26,7.195z M18.003,8.729c0.001-0.001-0.001-0.002,0-0.003c0.001,0.001,0.001,0.002,0.001,0.005
					l0,0C18.004,8.729,18.004,8.729,18.003,8.729z M18.849,6.767L18.849,6.767C18.849,6.767,18.849,6.767,18.849,6.767L18.849,6.767
					c-0.001,0-0.001,0-0.002,0C18.848,6.768,18.848,6.768,18.849,6.767C18.849,6.767,18.849,6.767,18.849,6.767z M20.093,6.457
					c-0.003,0.001-0.004,0.001-0.007,0.002c0-0.001,0-0.001,0-0.001C20.089,6.458,20.09,6.457,20.093,6.457z M21.503,6.447
					L21.503,6.447L21.503,6.447L21.503,6.447z M20.929,8.695c0.001,0,0.001,0,0.001,0.001h-0.001c0-0.001-0.002-0.001-0.003-0.001
					C20.927,8.692,20.929,8.695,20.929,8.695z M18.136,7.151c0-0.001,0-0.002,0.003-0.002C18.139,7.148,18.137,7.15,18.136,7.151
					C18.136,7.151,18.136,7.151,18.136,7.151z M21.486,6.777c0-0.001,0-0.002,0.001-0.003c0,0,0.002,0.001,0.002,0.001
					C21.487,6.775,21.486,6.777,21.486,6.777z M22.135,6.848c0.007-0.002,0.014-0.007,0.021-0.011
					c-0.003,0.001-0.004,0.002-0.007,0.004C22.145,6.843,22.14,6.846,22.135,6.848L22.135,6.848z M22.321,6.728
					c0.001,0.002,0,0.002-0.002,0.004l0,0C22.319,6.73,22.321,6.73,22.321,6.728z M22.123,6.847c0-0.003,0-0.003,0-0.003
					s0.002,0,0.003,0C22.125,6.846,22.125,6.847,22.123,6.847L22.123,6.847z M18.147,7.485c0,0.001,0.001,0.001,0.002,0.001
					c0,0,0,0-0.001,0h-0.001V7.485z M21.972,7.3c0,0,0.001,0,0.001,0.001l0,0C21.972,7.301,21.972,7.3,21.972,7.3L21.972,7.3z
					 M22.09,7.353L22.09,7.353L22.09,7.353L22.09,7.353z M21.567,8.045c0-0.001-0.001,0-0.002-0.001
					C21.566,8.045,21.567,8.045,21.567,8.045z M18.083,7.705l0.001-0.002c0,0.001,0.002,0.002,0.003,0.002
					C18.086,7.705,18.084,7.705,18.083,7.705z M21.187,8.495c-0.002-0.002-0.004-0.002-0.007-0.003
					c0.001-0.001,0.003-0.001,0.004-0.001l0,0c0.001,0,0.001,0,0.001,0C21.185,8.491,21.187,8.492,21.187,8.495z M20.612,8.724
					c0.003-0.001,0.007-0.002,0.011-0.001C20.619,8.723,20.615,8.723,20.612,8.724z M19.258,6.782c-0.001,0-0.002,0-0.002,0
					s0.002,0,0.004,0H19.258z M21.628,6.97c0.008,0.002,0.011,0,0.017-0.006l0,0c-0.006,0.002-0.011,0.005-0.017,0.009
					C21.628,6.971,21.628,6.971,21.628,6.97z M18.5,7.47c0.004,0.001,0.007,0,0.01,0c-0.003,0.001-0.005,0.003-0.009,0.003
					C18.499,7.473,18.501,7.473,18.5,7.47z M19.799,6.633c0,0.001,0.001,0.001,0.001,0.001C19.799,6.634,19.799,6.634,19.799,6.633
					C19.799,6.634,19.799,6.634,19.799,6.633z M20.502,6.458c0.007-0.001,0.016,0.001,0.016-0.01l0,0l0,0l0,0
					C20.515,6.454,20.509,6.46,20.502,6.458z M21.927,7.64C21.926,7.64,21.926,7.64,21.927,7.64L21.927,7.64
					C21.926,7.639,21.926,7.64,21.927,7.64z M21,8.483c0-0.001,0-0.001-0.002-0.002c0.002,0.004,0.006,0,0.007,0.002
					C21.004,8.483,21.002,8.485,21,8.483z M18.81,6.99L18.81,6.99c0,0,0.002,0,0.001,0.001C18.812,6.99,18.81,6.99,18.81,6.99z
					 M20.128,6.581L20.128,6.581L20.128,6.581C20.128,6.581,20.128,6.581,20.128,6.581z M21.353,7L21.353,7c0,0.006,0,0.011,0,0.016
					c-0.008-0.003-0.012-0.008-0.015-0.015l0,0c-0.002,0.01,0.002,0.016,0.015,0.014C21.356,7.01,21.356,7.004,21.353,7z
					 M21.704,7.465l-0.001,0.001c0-0.001,0.002-0.004,0.001-0.006c0.001,0,0.003,0,0.004,0C21.708,7.462,21.705,7.464,21.704,7.465z
					 M18.673,7.361c0.001-0.008-0.007-0.006-0.012-0.01C18.665,7.355,18.669,7.357,18.673,7.361L18.673,7.361z M21.264,8.286
					c-0.001,0-0.001-0.001-0.001-0.001S21.263,8.285,21.264,8.286L21.264,8.286L21.264,8.286L21.264,8.286
					C21.264,8.286,21.264,8.285,21.264,8.286z M18.582,8.476L18.582,8.476L18.582,8.476c-0.001-0.001,0-0.002-0.001-0.005l0,0
					l0.001,0.002C18.582,8.475,18.582,8.476,18.582,8.476z M18.38,8.427c0.002-0.001,0.005,0,0.008-0.001v0.001
					C18.385,8.427,18.382,8.427,18.38,8.427z M18.864,7.565L18.864,7.565L18.864,7.565L18.864,7.565z M20.66,6.588
					c-0.006,0.003-0.002,0.007,0,0.01v0c-0.001-0.002-0.002-0.003-0.002-0.006C20.658,6.592,20.658,6.589,20.66,6.588z
					 M20.757,6.918L20.757,6.918L20.757,6.918L20.757,6.918z M20.855,8.463C20.855,8.462,20.855,8.462,20.855,8.463
					C20.855,8.462,20.855,8.462,20.855,8.463L20.855,8.463z M18.389,8.053L18.389,8.053c-0.001,0.001-0.001,0.001-0.001,0.001
					S18.388,8.053,18.389,8.053L18.389,8.053z M18.388,8.056L18.388,8.056L18.388,8.056L18.388,8.056L18.388,8.056z M19.079,7.331
					c0,0.001,0.003,0.001,0.003,0.002c-0.002-0.001-0.004-0.001-0.006-0.001C19.078,7.331,19.078,7.33,19.079,7.331z M20.951,7.885
					C20.951,7.885,20.951,7.885,20.951,7.885L20.951,7.885L20.951,7.885L20.951,7.885z M20.89,7.885
					c-0.001,0-0.001-0.002-0.001-0.002l0,0C20.89,7.884,20.891,7.885,20.89,7.885z M19.04,8.31L19.04,8.31L19.04,8.31
					c0.003,0.001,0.003,0.002,0.005,0.005c0.002,0.002-0.001,0.005-0.001,0.006c-0.001,0-0.001,0-0.001,0
					C19.042,8.317,19.044,8.312,19.04,8.31z M18.466,7.175c0,0.001,0,0.001,0,0.002C18.466,7.176,18.466,7.176,18.466,7.175
					L18.466,7.175z M19.07,7.101c0.001,0.001,0,0.002-0.001,0.003c-0.002,0-0.002,0.001-0.002,0
					C19.069,7.104,19.07,7.102,19.07,7.101L19.07,7.101z M20.753,7.843c0-0.003-0.001-0.006-0.001-0.009
					c0.001,0,0.004,0.004,0.006,0.004c0.002,0,0.002,0.001,0.004,0.001C20.76,7.84,20.756,7.84,20.753,7.843z M20.484,6.788
					c-0.001,0.001-0.001,0.004-0.001,0.005l0,0l0,0l0,0c-0.002,0.001-0.003,0-0.003,0.001C20.481,6.792,20.484,6.791,20.484,6.788
					C20.484,6.788,20.484,6.788,20.484,6.788z M20.88,7.062c-0.002,0.001-0.003,0.002-0.003,0.004
					C20.877,7.064,20.88,7.063,20.88,7.062z M19.297,8.563c0.004,0,0.008-0.002,0.009-0.007c0.002,0.005,0.002,0.007,0.005,0.011
					C19.306,8.563,19.303,8.566,19.297,8.563z M19.435,8.207c0.001,0.001,0,0.004,0,0.005c-0.002-0.001-0.001-0.004-0.002-0.004
					C19.435,8.207,19.435,8.208,19.435,8.207z M19.079,7.725c-0.001,0-0.001,0-0.001,0.001C19.078,7.725,19.078,7.725,19.079,7.725
					C19.078,7.725,19.078,7.724,19.079,7.725z M20.934,7.101L20.934,7.101L20.934,7.101L20.934,7.101z M19.74,8.528
					C19.74,8.528,19.74,8.528,19.74,8.528S19.74,8.528,19.74,8.528z M19.76,8.467c0.003,0,0.005-0.001,0.008-0.002
					C19.766,8.467,19.763,8.467,19.76,8.467z M20.46,8.227L20.46,8.227c0,0,0,0,0.002,0C20.46,8.227,20.46,8.227,20.46,8.227z
					 M19.723,8.397c0.001,0,0.001,0.001,0.001,0.001c-0.001-0.001-0.003-0.001-0.004-0.001C19.721,8.398,19.721,8.397,19.723,8.397z
					 M19.736,8.401C19.733,8.402,19.731,8.4,19.729,8.4c-0.001,0-0.001-0.001-0.002-0.003c0.004,0.001,0.007,0.004,0.011,0.003
					c0,0-0.001,0-0.001,0.001l0,0C19.737,8.401,19.737,8.401,19.736,8.401z M19.64,8.43c-0.001-0.002-0.004-0.002-0.004-0.005
					c0,0,0.003,0,0.003-0.001C19.639,8.426,19.639,8.427,19.64,8.43z M20.479,8.35c0-0.001-0.002-0.001-0.002-0.002
					c0,0,0,0.001,0.002,0c0,0.001,0.001,0.001,0.001,0.001C20.48,8.35,20.479,8.35,20.479,8.35z M20.562,8.188L20.562,8.188
					L20.562,8.188L20.562,8.188z M19.639,8.056L19.639,8.056L19.639,8.056L19.639,8.056L19.639,8.056L19.639,8.056L19.639,8.056z
					 M19.233,7.976c0.001,0.001,0.002,0.002,0.003,0.004c-0.002,0-0.003-0.003-0.005-0.001C19.231,7.976,19.233,7.976,19.233,7.976z
					 M19.276,8.013c-0.003,0.001-0.003,0.001-0.006,0.001c0-0.001,0.001-0.002,0.001-0.003C19.274,8.012,19.274,8.012,19.276,8.013z
					 M19.322,8.041l-0.003-0.002L19.322,8.041L19.322,8.041c0.001,0,0.001,0,0.001,0.001C19.323,8.041,19.322,8.041,19.322,8.041z
					 M19.675,8.063L19.675,8.063L19.675,8.063L19.675,8.063z M19.799,8.1L19.799,8.1c-0.002,0-0.002,0-0.002,0H19.799z
					 M19.405,8.485L19.405,8.485c0.002,0,0.002-0.001,0.002,0C19.407,8.485,19.407,8.485,19.405,8.485z M19.721,8.502
					c0.002,0,0.002,0,0.002,0l0,0H19.721z M19.872,8.421c0.002,0,0.002,0,0.002,0.002l-0.003,0.001
					C19.871,8.423,19.871,8.421,19.872,8.421z M19.68,7.939c-0.003,0-0.005-0.001-0.009,0.002c-0.003-0.002,0-0.005-0.001-0.008
					C19.672,7.936,19.677,7.938,19.68,7.939z M18.99,7.775c0.001,0.001,0.001,0.001,0.001,0.004l0,0
					C18.99,7.778,18.991,7.776,18.99,7.775z M21.032,7.336L21.032,7.336c0,0.001-0.004,0.003-0.005,0.003c0,0,0.001-0.001,0-0.003
					C21.029,7.336,21.031,7.336,21.032,7.336L21.032,7.336z M20.214,7.211L20.214,7.211L20.214,7.211
					c0.001,0.001,0.001,0.001,0.001,0.001c0,0.001,0,0.001,0,0.002C20.214,7.213,20.215,7.213,20.214,7.211L20.214,7.211z
					 M20.42,7.47c-0.001-0.001-0.002-0.001-0.002-0.002c0,0.001,0.001,0,0.002,0C20.42,7.469,20.42,7.469,20.42,7.47z M20.134,7.575
					c0.001,0,0.003,0,0.003,0l0,0l0,0l0,0c0,0.001,0,0.001,0,0.001l-0.002,0.001C20.135,7.576,20.135,7.576,20.134,7.575z
					 M20.446,7.319c-0.005-0.001-0.01-0.001-0.012-0.006C20.437,7.317,20.441,7.317,20.446,7.319z M20.03,7.593
					c-0.002-0.001-0.003-0.001-0.004-0.002c0.001,0,0.002,0.001,0.004,0C20.03,7.591,20.03,7.591,20.03,7.593z M20.126,7.593
					c0.002,0.001,0.002,0.003,0.002,0.005C20.128,7.596,20.128,7.594,20.126,7.593C20.125,7.594,20.126,7.594,20.126,7.593z
					 M20.403,7.309c0,0,0,0-0.002,0l0,0V7.308C20.401,7.309,20.403,7.309,20.403,7.309z M20.169,7.47c0,0,0-0.001,0-0.002
					C20.169,7.469,20.169,7.47,20.169,7.47z M20.137,7.62c0,0,0.001,0,0.002,0.002c-0.002-0.001-0.002-0.002-0.004-0.002H20.137z
					 M20.418,7.239c0,0,0.001,0,0.002,0C20.419,7.239,20.418,7.239,20.418,7.239S20.418,7.239,20.418,7.239z M19.85,7.646
					c0.002,0,0.002,0,0.003,0c0,0.001,0,0.002,0,0.004h-0.001C19.852,7.649,19.852,7.648,19.85,7.646z M20.622,7.654
					C20.623,7.654,20.623,7.654,20.622,7.654L20.622,7.654L20.622,7.654C20.623,7.654,20.623,7.654,20.622,7.654L20.622,7.654z
					 M20.405,7.593c0-0.001,0.001-0.002,0.001-0.002s0.002,0.001,0.003,0.001C20.408,7.591,20.406,7.591,20.405,7.593z M20.553,7.46
					c0,0,0-0.001,0.002-0.001l0,0C20.555,7.459,20.553,7.459,20.553,7.46L20.553,7.46z M20.707,7.268
					c-0.003-0.003-0.005-0.004-0.005-0.008C20.703,7.262,20.707,7.265,20.707,7.268z M19.841,7.593c0,0,0,0,0.002,0
					C19.841,7.594,19.841,7.593,19.841,7.593L19.841,7.593z M19.825,7.629L19.825,7.629l-0.003-0.001L19.825,7.629z M20.648,7.663
					h0.001l0,0H20.648z M20.947,7.308c0.002,0.002,0.005,0.005,0.005,0.007C20.951,7.313,20.949,7.31,20.947,7.308z M20.589,7.255
					L20.589,7.255c0-0.001,0-0.002,0-0.005l0,0C20.589,7.252,20.587,7.253,20.589,7.255z M20.396,7.202
					c-0.001,0-0.004,0-0.005-0.001c0-0.001,0-0.002,0-0.004C20.392,7.2,20.393,7.201,20.396,7.202z M20.205,7.29
					c0.001,0,0.001,0,0.003,0c0,0,0,0,0,0.001C20.206,7.29,20.206,7.291,20.205,7.29z M20.199,7.38h-0.002V7.379
					C20.199,7.379,20.199,7.379,20.199,7.38z M20.462,7.724c0.001,0.001,0.002,0,0.002,0.002c0,0,0,0-0.001,0.001
					C20.463,7.725,20.462,7.725,20.462,7.724z M20.499,7.185c0,0.001-0.001,0-0.001,0.001c0-0.001,0-0.001,0-0.002
					C20.498,7.184,20.499,7.184,20.499,7.185z M20.163,7.239L20.163,7.239c0-0.001,0-0.001-0.002-0.001c0.002,0,0.003,0,0.003,0.001
					C20.164,7.239,20.164,7.239,20.163,7.239L20.163,7.239L20.163,7.239z M19.719,7.522c0,0,0,0-0.002,0c0,0,0,0,0-0.001
					C19.719,7.521,19.719,7.522,19.719,7.522z M19.614,7.744l0.002-0.002c0.002,0,0.004-0.004,0.006-0.004
					C19.62,7.74,19.617,7.742,19.614,7.744z M20.846,7.435c-0.001,0-0.002,0-0.004,0C20.844,7.435,20.845,7.435,20.846,7.435z
					 M19.661,7.41C19.661,7.41,19.661,7.41,19.661,7.41c-0.001-0.001,0-0.001,0-0.002C19.661,7.409,19.661,7.409,19.661,7.41z
					 M19.698,7.451c0.002,0,0.002,0,0.003,0H19.7C19.7,7.451,19.7,7.451,19.698,7.451z M19.597,7.496L19.597,7.496L19.597,7.496
					L19.597,7.496z M20.648,7.771L20.648,7.771L20.648,7.771L20.648,7.771z M20.962,7.611c0-0.001,0-0.001,0-0.002
					c0.002,0.001,0,0.001,0.002,0.002C20.962,7.611,20.962,7.611,20.962,7.611z M20.965,7.211c-0.001,0-0.003,0-0.004,0
					c-0.006-0.006-0.013,0-0.018,0c0.006,0,0.014,0,0.018,0c0,0,0,0,0.001,0C20.962,7.211,20.964,7.211,20.965,7.211z M20.669,7.193
					L20.669,7.193c0-0.002,0-0.005,0-0.006l0,0C20.668,7.188,20.669,7.192,20.669,7.193z M19.991,7.066c0,0,0,0.001,0,0.002
					c0,0,0-0.001,0.001,0c0.002,0,0.002,0.002,0,0.002v0.001c0-0.001,0.002-0.004-0.001-0.004c-0.003-0.001-0.004-0.001-0.005,0
					c0.001-0.002,0.002-0.002,0.005-0.005C19.991,7.063,19.99,7.066,19.991,7.066z M20.004,7.285c-0.001,0-0.004,0.003-0.005,0
					c-0.002-0.001-0.002-0.002-0.002-0.003C20,7.284,20.001,7.285,20.004,7.285z M19.62,7.562c0.001-0.001,0.002-0.001,0.002-0.001
					S19.621,7.56,19.62,7.562z M20.659,7.735L20.659,7.735L20.659,7.735L20.659,7.735z M20.926,7.628
					c0,0.001-0.002,0.002-0.004,0.003c0-0.001,0.002-0.001,0-0.002C20.924,7.629,20.925,7.628,20.926,7.628z M21.12,7.473
					c0,0,0-0.001,0-0.002c0.001,0,0.002,0,0.002,0S21.121,7.473,21.12,7.473z M20.973,7.43c0.001-0.001,0-0.002,0-0.004
					c0.001,0,0.002,0,0.002,0S20.974,7.428,20.973,7.43z M20.335,7.02c-0.002,0.001-0.002-0.002-0.003-0.004
					c0.003,0.001,0.006,0.001,0.01,0.001C20.34,7.019,20.338,7.019,20.335,7.02z M20.492,6.979c0-0.001,0-0.004,0.001-0.006
					C20.493,6.976,20.492,6.979,20.492,6.979C20.492,6.979,20.492,6.979,20.492,6.979z M20.455,6.911
					c-0.001,0-0.001-0.001-0.002-0.001C20.453,6.908,20.454,6.911,20.455,6.911L20.455,6.911z M19.373,7.215L19.373,7.215
					C19.373,7.216,19.373,7.216,19.373,7.215C19.373,7.216,19.372,7.215,19.373,7.215z M19.576,7.768
					c-0.003-0.001-0.008-0.002-0.011,0c0-0.002,0.002-0.003,0.002-0.007C19.571,7.765,19.573,7.765,19.576,7.768z M18.99,7.769
					c0,0.002,0,0.004,0.001,0.005c0,0,0,0-0.001,0.001c0-0.001,0.001-0.004,0-0.005c0,0.001,0,0.001,0,0.001
					S18.989,7.771,18.99,7.769c-0.001,0.001,0,0.001,0,0.001S18.99,7.771,18.99,7.769z M18.835,7.862
					c0-0.004-0.008-0.008-0.001-0.011c-0.001,0.002-0.001,0.005,0.001,0.007C18.835,7.859,18.835,7.862,18.835,7.862L18.835,7.862z
					 M19.447,8.442c-0.002,0.002-0.003,0.003-0.005,0.006c0-0.003,0-0.005,0-0.007C19.444,8.441,19.444,8.443,19.447,8.442z
					 M19.915,8.667c0.002,0.002,0.001,0.005,0.004,0.005c-0.002,0.001-0.002,0.001-0.004,0.002
					C19.915,8.672,19.915,8.67,19.915,8.667z M20.013,8.61c0,0,0.002,0.001,0.004,0.001C20.014,8.611,20.014,8.61,20.013,8.61z
					 M19.781,8.525L19.781,8.525L19.781,8.525L19.781,8.525L19.781,8.525L19.781,8.525L19.781,8.525z M20.767,8.322
					c0.003-0.001,0.006-0.001,0.007-0.001c0-0.001,0.001,0,0.002-0.001c0,0.002-0.001,0.003-0.001,0.006
					C20.773,8.325,20.77,8.323,20.767,8.322z M20.917,8.273L20.917,8.273L20.917,8.273L20.917,8.273z M19.653,7.859
					c-0.001,0-0.001-0.001-0.002-0.001C19.652,7.858,19.652,7.859,19.653,7.859z M20.864,7.779L20.864,7.779L20.864,7.779
					L20.864,7.779z M21.149,7.46h-0.001H21.149L21.149,7.46z M21.108,7.43c0-0.008-0.005-0.01-0.009-0.014l0,0
					c0.004,0.005,0.007,0.009,0.009,0.013C21.108,7.43,21.108,7.43,21.108,7.43z M20.125,6.907L20.125,6.907L20.125,6.907
					L20.125,6.907L20.125,6.907z M19.768,7.016C19.768,7.015,19.768,7.015,19.768,7.016L19.768,7.016
					C19.768,7.015,19.768,7.015,19.768,7.016z M18.706,7.241L18.706,7.241c-0.001,0-0.002,0-0.002-0.001
					C18.704,7.241,18.705,7.241,18.706,7.241z M19.133,7.513L19.133,7.513L19.133,7.513L19.133,7.513z M19.363,7.762
					c0,0.001-0.001,0.002-0.003,0.003c0.002,0.001,0.003,0.002,0.003,0.002c-0.003-0.001-0.005-0.001-0.007-0.002
					c0,0,0.003,0,0.006-0.001C19.362,7.763,19.363,7.763,19.363,7.762L19.363,7.762L19.363,7.762z M18.775,7.899L18.775,7.899
					L18.775,7.899L18.775,7.899z M19.315,8.243L19.315,8.243L19.315,8.243L19.315,8.243z M19.462,8.266c0.001,0,0.001-0.001,0.004,0
					c-0.001,0-0.001,0.001-0.003,0.002C19.463,8.267,19.462,8.266,19.462,8.266z M19.896,8.508L19.896,8.508L19.896,8.508
					L19.896,8.508L19.896,8.508z M19.843,8.463C19.843,8.463,19.844,8.463,19.843,8.463L19.843,8.463
					c0.006-0.003,0.01-0.01,0.014-0.015C19.853,8.454,19.846,8.457,19.843,8.463C19.844,8.463,19.843,8.462,19.843,8.463
					L19.843,8.463L19.843,8.463z M20.446,8.463c0-0.001,0.002-0.001,0.002-0.001s0,0,0,0.001H20.446z M20.769,8.378
					C20.77,8.378,20.77,8.378,20.769,8.378c0.002,0.001,0.004,0.001,0.004,0.002C20.77,8.38,20.77,8.38,20.769,8.378z M21.27,7.442
					c0,0,0.002,0,0.003-0.001c0,0.001-0.001,0.001-0.001,0.002C21.27,7.442,21.27,7.442,21.27,7.442z M18.853,7.167
					c0,0,0.001,0,0.001-0.001C18.854,7.167,18.854,7.166,18.853,7.167C18.854,7.167,18.854,7.167,18.853,7.167z M19.18,7.39
					c-0.003-0.005-0.006-0.009-0.011-0.011C19.174,7.38,19.177,7.384,19.18,7.39z M18.499,7.872c0-0.002,0.001-0.005,0.001-0.007
					C18.5,7.867,18.499,7.869,18.499,7.872z M18.679,7.959c-0.003,0.002-0.001,0.006-0.004,0.007
					C18.678,7.965,18.678,7.962,18.679,7.959z M18.901,8.043c0.001,0,0.003,0.001,0.003,0.001s-0.002,0-0.003,0
					C18.901,8.044,18.901,8.044,18.901,8.043z M18.945,8.056L18.945,8.056L18.945,8.056L18.945,8.056z M19.098,8.552
					c0,0-0.002,0.001-0.002,0.002C19.096,8.554,19.097,8.552,19.098,8.552L19.098,8.552z M19.373,8.541
					c0.001,0.001,0.003,0.002,0.004,0.004C19.376,8.543,19.374,8.542,19.373,8.541z M19.59,8.674L19.59,8.674
					c0.002,0.001,0.002,0.001,0.005,0.002c0,0-0.001,0.001-0.001,0.002C19.592,8.676,19.591,8.675,19.59,8.674z M19.897,8.507
					c0.001-0.001,0.002-0.001,0.005-0.004c0.001,0.001,0.003,0.002,0.004,0.005C19.902,8.508,19.901,8.506,19.897,8.507z
					 M19.861,8.517C19.86,8.517,19.86,8.517,19.861,8.517L19.861,8.517L19.861,8.517L19.861,8.517
					C19.86,8.516,19.86,8.516,19.861,8.517C19.86,8.516,19.86,8.516,19.861,8.517z M21.158,8.223l-0.001,0.001
					C21.157,8.223,21.157,8.223,21.158,8.223C21.157,8.223,21.157,8.223,21.158,8.223z M21.147,8.134c-0.001,0-0.003,0-0.005,0
					c0.002-0.001,0.004-0.001,0.005-0.002C21.147,8.134,21.147,8.134,21.147,8.134z M21.139,7.639c0.001,0,0.002,0,0.004,0.001
					C21.141,7.639,21.139,7.639,21.139,7.639z M21.524,7.165c0.001,0.001,0.002,0.001,0.002,0.003c-0.001,0-0.001,0-0.002,0.001
					C21.524,7.167,21.524,7.166,21.524,7.165z M21.534,7.132c-0.01,0.005-0.022,0.003-0.026-0.009
					C21.517,7.127,21.524,7.131,21.534,7.132z M21.369,7.106L21.369,7.106c0,0,0,0,0,0.001l0,0c0,0,0,0.001-0.002,0.001
					C21.367,7.107,21.369,7.107,21.369,7.106L21.369,7.106V7.104C21.369,7.104,21.37,7.104,21.369,7.106
					C21.369,7.106,21.369,7.106,21.369,7.106L21.369,7.106z M21.107,7.046c-0.001-0.001-0.001,0.001-0.003,0
					c-0.001,0,0.002-0.001,0-0.001C21.106,7.044,21.106,7.044,21.107,7.046z M19.894,6.886c0.001,0,0.001,0.001,0.001,0.001h-0.001
					C19.894,6.887,19.893,6.886,19.894,6.886z M18.909,7.441L18.909,7.441L18.909,7.441L18.909,7.441z M18.6,7.859
					c-0.001,0-0.002,0-0.002,0c0-0.001,0.001-0.001,0.002-0.001C18.6,7.858,18.6,7.858,18.6,7.859z M18.487,8.057l0.003,0.004
					c-0.002,0-0.002,0-0.003,0.001c-0.001-0.001-0.001-0.001-0.001-0.001C18.486,8.06,18.487,8.058,18.487,8.057z M19.414,8.631
					c0,0,0,0-0.001,0c0,0,0,0,0-0.001C19.414,8.631,19.414,8.631,19.414,8.631z M20.428,8.525c-0.008,0-0.014,0.001-0.02,0.002
					C20.414,8.525,20.42,8.523,20.428,8.525z M20.787,8.448c0,0,0.001,0,0.002,0C20.788,8.448,20.787,8.448,20.787,8.448z
					 M20.935,8.401c0.004-0.004,0.005-0.004,0.008-0.006c0,0.002-0.003,0.002-0.003,0.005C20.938,8.4,20.938,8.401,20.935,8.401z
					 M21.335,7.5L21.335,7.5c0.001,0.001,0.001,0.001,0.001,0.002C21.336,7.501,21.336,7.501,21.335,7.5z M21.313,7.268
					c0.003,0,0.003,0.002,0.004,0.002c-0.001,0.001-0.001,0.001-0.001,0.001C21.315,7.27,21.315,7.269,21.313,7.268z M21.576,7.193
					c0,0-0.001,0-0.002,0c0,0.001,0,0.001-0.002,0.002c0-0.001,0.002-0.003,0-0.005c0-0.001,0-0.001,0-0.001
					c0.002,0,0,0.002,0.002,0.003c0.002-0.001,0.002-0.001,0.004-0.002C21.578,7.192,21.576,7.192,21.576,7.193z M19.975,6.761
					c0,0,0,0,0.002,0C19.975,6.761,19.977,6.762,19.975,6.761C19.977,6.762,19.975,6.762,19.975,6.761z M19.07,7.113L19.07,7.113
					L19.07,7.113L19.07,7.113z M18.457,7.229L18.457,7.229L18.457,7.229L18.457,7.229z M18.784,7.678L18.784,7.678
					c0.002-0.001,0.007-0.002,0.01-0.005l0,0C18.789,7.673,18.786,7.675,18.784,7.678z M18.281,8L18.281,8
					c0.001,0.002,0.002,0.002,0.005,0.002c0,0,0.002-0.001,0.002-0.002l0,0c0,0.001,0,0.001-0.002,0.002
					C18.283,8.003,18.282,8.003,18.281,8z M18.802,8.129c-0.002,0-0.002,0-0.002,0.001c0-0.001,0-0.001,0-0.003
					C18.8,8.128,18.8,8.129,18.802,8.129z M19.06,8.298c0,0-0.002,0-0.002-0.001c0.002,0,0.002-0.001,0.002-0.001
					C19.06,8.297,19.06,8.298,19.06,8.298z M19.107,8.748c-0.003,0-0.007,0.001-0.011,0.001c0-0.001,0-0.001,0-0.001l0,0
					c0-0.001,0,0,0.001-0.001c0.003,0,0.005,0,0.008,0C19.105,8.746,19.106,8.746,19.107,8.748z M20.372,8.534
					c0,0.001,0,0.002,0,0.002h0.001l0,0c-0.001,0-0.001,0-0.001,0H20.37C20.37,8.536,20.372,8.535,20.372,8.534z M20.827,8.456
					l0.001-0.001C20.828,8.455,20.827,8.455,20.827,8.456L20.827,8.456z M20.953,7.885L20.953,7.885L20.953,7.885L20.953,7.885z
					 M21.637,7.397L21.637,7.397L21.637,7.397L21.637,7.397z M21.637,7.176C21.637,7.175,21.637,7.176,21.637,7.176
					C21.637,7.175,21.637,7.175,21.637,7.176C21.637,7.175,21.637,7.175,21.637,7.176z M21.494,7.068c0.002,0,0.004,0,0.006-0.001
					c0,0.001-0.001,0.001-0.001,0.001C21.496,7.068,21.496,7.068,21.494,7.068z M21.229,7.033L21.229,7.033L21.229,7.033
					L21.229,7.033z M20.615,6.866c0,0.001,0,0.001,0,0.002c-0.001-0.002-0.003-0.004-0.006-0.005
					C20.612,6.863,20.614,6.864,20.615,6.866z M20.871,6.81L20.871,6.81L20.871,6.81L20.871,6.81z M20.65,6.768L20.65,6.768
					L20.65,6.768L20.65,6.768z M20.175,6.775c-0.011-0.001-0.02-0.008-0.02-0.011c0.001-0.002,0-0.005,0-0.008
					C20.16,6.764,20.166,6.77,20.175,6.775z M19.934,6.778c0,0.001,0.001,0.001,0.001,0.001c-0.001,0-0.001,0-0.003,0
					C19.933,6.779,19.934,6.779,19.934,6.778z M19.405,6.972c-0.001,0-0.002,0.001-0.002,0.001c0-0.001,0-0.002,0-0.003
					C19.403,6.971,19.404,6.971,19.405,6.972z M18.476,7.157L18.476,7.157c-0.001-0.001,0-0.001,0.002-0.001
					C18.478,7.156,18.476,7.156,18.476,7.157z M18.684,7.636c-0.001,0-0.004,0-0.006,0.001c0.002-0.002,0.002-0.004,0.004-0.006
					C18.683,7.634,18.683,7.634,18.684,7.636z M18.794,7.715C18.794,7.715,18.794,7.715,18.794,7.715
					c-0.001,0.001-0.003,0.002-0.005,0.002C18.79,7.716,18.793,7.716,18.794,7.715z M18.39,8.053
					C18.39,8.053,18.39,8.053,18.39,8.053c0-0.001,0-0.001,0.001-0.001C18.39,8.053,18.39,8.052,18.39,8.053z M18.72,8.317
					c-0.002,0-0.005,0.001-0.007,0c0,0,0.001,0,0.001-0.001C18.715,8.317,18.718,8.317,18.72,8.317z M18.981,8.624
					c0-0.001,0-0.001,0-0.002c0.001,0.001,0.001,0,0.001,0.001C18.982,8.623,18.982,8.623,18.981,8.624L18.981,8.624z M19.56,8.861
					L19.56,8.861L19.56,8.861z M20.935,7.903C20.935,7.903,20.935,7.903,20.935,7.903L20.935,7.903
					c0.002,0.002,0.002,0.004,0.004,0.005C20.938,7.908,20.935,7.907,20.935,7.903z M21.667,7.428c0,0,0,0,0-0.001
					c-0.002,0-0.003,0-0.003-0.001h0.001c0.002,0,0.002,0,0.002,0.001C21.667,7.426,21.667,7.426,21.667,7.428z M21.655,7.424
					L21.655,7.424L21.655,7.424L21.655,7.424z M21.66,7.192c0.001-0.005,0-0.009,0.005-0.014c0.007-0.006,0.016-0.01,0.022-0.014
					C21.673,7.168,21.664,7.179,21.66,7.192z M21.727,7.115c0,0,0.001,0,0.003-0.001c0-0.001,0.002-0.001,0.005-0.003l0,0
					C21.731,7.112,21.729,7.113,21.727,7.115z M21.61,7.087L21.61,7.087c0-0.001,0-0.001,0-0.001V7.087
					c0.001-0.001,0.001-0.003,0.004-0.004C21.612,7.084,21.611,7.086,21.61,7.087L21.61,7.087z M20.179,6.67
					c0.001,0,0-0.002,0.001-0.002c0,0,0,0,0,0.002C20.18,6.669,20.18,6.669,20.179,6.67L20.179,6.67
					c-0.005,0.003-0.011,0.006-0.016,0.009v0C20.168,6.675,20.174,6.674,20.179,6.67z M18.147,7.974L18.147,7.974v0.001V7.974
					L18.147,7.974z M20.516,8.601c0,0.001,0,0.001,0,0.001S20.516,8.603,20.516,8.601z M21.078,8.382
					C21.078,8.382,21.078,8.383,21.078,8.382C21.077,8.382,21.078,8.383,21.078,8.382L21.078,8.382z M21.501,8.143
					c0.002,0,0.002,0,0.002,0v0.005l0,0l0,0C21.503,8.147,21.503,8.146,21.501,8.143z M21.512,8.143L21.51,8.142
					c0.003-0.004,0.008-0.004,0.012-0.005c-0.003,0.001-0.005,0.003-0.008,0.004C21.513,8.142,21.512,8.141,21.512,8.143z
					 M20.775,7.931L20.775,7.931c0-0.001,0-0.001,0-0.001c0,0.001,0,0.001,0.002,0.001C20.775,7.931,20.775,7.931,20.775,7.931
					L20.775,7.931z M21.698,7.162c-0.002-0.001,0-0.001-0.002-0.003c0.002,0,0.003,0,0.003,0l0,0l0,0l0,0
					C21.699,7.16,21.698,7.161,21.698,7.162z M20.711,6.866c-0.004,0-0.007-0.002-0.007-0.01h0.002
					C20.707,6.859,20.709,6.862,20.711,6.866z M21.006,6.723c0,0,0,0,0-0.002c0.001,0.001,0.001,0.001,0.003,0.002
					C21.007,6.723,21.007,6.723,21.006,6.723z M21.02,6.513C21.02,6.513,21.02,6.513,21.02,6.513
					C21.019,6.513,21.02,6.513,21.02,6.513C21.02,6.512,21.02,6.512,21.02,6.513z M20.953,6.519c0,0-0.001-0.002-0.002-0.003v0
					C20.952,6.516,20.953,6.517,20.953,6.519z M20.909,6.501c-0.001,0.001-0.002,0.001-0.005,0.002
					c0.003-0.002,0.004-0.007,0.005-0.011C20.912,6.495,20.912,6.499,20.909,6.501z M20.935,6.483L20.935,6.483L20.935,6.483
					L20.935,6.483z M19.983,6.655L19.983,6.655C19.982,6.655,19.982,6.655,19.983,6.655C19.983,6.655,19.983,6.655,19.983,6.655z
					 M19.734,6.739c0.003,0.002,0.003,0,0.003,0.002c0,0,0,0-0.001,0C19.736,6.741,19.734,6.741,19.734,6.739z M18.74,7.062
					c0.001-0.001,0.002-0.001,0.002,0.001l0,0C18.742,7.063,18.741,7.063,18.74,7.062z M18.434,7.093L18.434,7.093L18.434,7.093
					L18.434,7.093z M18.873,7.589c-0.002,0.001-0.002-0.001-0.003,0c0-0.001,0-0.001,0-0.001
					C18.871,7.588,18.871,7.588,18.873,7.589z M18.548,7.695c0.002-0.001,0.003-0.002,0.005-0.004c-0.002,0.001,0,0.004-0.002,0.005
					C18.55,7.698,18.549,7.695,18.548,7.695z M18.581,8.303L18.581,8.303L18.581,8.303L18.581,8.303z M19.054,8.899L19.054,8.899
					h-0.002c0-0.001,0.001-0.001,0.001-0.001C19.054,8.897,19.054,8.899,19.054,8.899z M19.506,8.925
					c-0.001,0.001-0.001,0.002-0.001,0.005C19.503,8.928,19.505,8.926,19.506,8.925C19.505,8.925,19.505,8.925,19.506,8.925z
					 M20.998,8.481C20.997,8.48,20.997,8.48,20.998,8.481c-0.001-0.002-0.001-0.002-0.001-0.002c0.003,0.001,0.005,0,0.007,0.001
					C21.001,8.481,21.001,8.48,20.998,8.481z M21.447,8.257c0,0,0,0,0.002,0c-0.002,0-0.002,0.001-0.003,0.001
					C21.447,8.257,21.447,8.257,21.447,8.257z M21.86,7.624L21.86,7.624c0.001,0,0.001,0.002,0.004,0.002
					C21.861,7.626,21.861,7.624,21.86,7.624z M21.816,7.588L21.816,7.588c0,0-0.001-0.001-0.001-0.003l0,0
					C21.816,7.586,21.816,7.588,21.816,7.588z M21.778,7.104L21.778,7.104C21.778,7.104,21.778,7.104,21.778,7.104
					c0-0.002,0.001-0.003,0.001-0.005c0,0.001,0,0.004,0,0.005H21.778L21.778,7.104z M21.655,6.955c0-0.001,0-0.002,0-0.004
					c0,0.001,0,0.001,0,0.002V6.955z M21.459,7.024L21.459,7.024L21.459,7.024L21.459,7.024L21.459,7.024
					C21.459,7.023,21.459,7.024,21.459,7.024L21.459,7.024z M21.001,6.481c-0.004,0.002-0.006,0.004-0.01,0.004
					c0-0.004,0.004-0.007,0.004-0.01C20.997,6.478,20.998,6.48,21.001,6.481z M19.084,6.923c0,0-0.001,0-0.002,0
					C19.083,6.923,19.083,6.923,19.084,6.923L19.084,6.923z M18.315,7.077c0-0.001-0.001-0.002-0.002-0.002
					c0.001,0,0.002,0,0.004-0.001C18.315,7.075,18.315,7.076,18.315,7.077z M18.528,7.479c-0.004,0.002-0.005,0.006-0.004,0.011
					l-0.001,0.002V7.49C18.523,7.485,18.524,7.481,18.528,7.479L18.528,7.479z M18.526,7.659c0,0,0,0,0-0.001
					c0-0.001,0.002-0.001,0.002-0.001C18.527,7.656,18.526,7.658,18.526,7.659z M18.59,8.268L18.59,8.268
					C18.59,8.268,18.59,8.268,18.59,8.268L18.59,8.268L18.59,8.268L18.59,8.268L18.59,8.268z M18.385,8.268c0,0,0.001,0,0.003,0
					V8.27C18.386,8.268,18.385,8.268,18.385,8.268L18.385,8.268z M18.279,8.739c0.002-0.001,0.002-0.002,0.003-0.002
					c0.001,0,0,0,0.001,0C18.282,8.736,18.281,8.739,18.279,8.739L18.279,8.739z M18.924,8.913
					c-0.002,0.001-0.006,0.001-0.009,0.005C18.918,8.915,18.922,8.914,18.924,8.913z M20.191,8.829
					c-0.003,0-0.005,0.001-0.009,0.001C20.187,8.83,20.188,8.829,20.191,8.829z M20.46,8.768c-0.002-0.007,0.004-0.01,0.009-0.011
					c-0.002,0.006-0.002,0.012-0.001,0.018C20.464,8.771,20.462,8.77,20.46,8.768z M20.518,8.736
					c0.002-0.001,0.003-0.002,0.004-0.004c0,0.004-0.001,0.005-0.002,0.006C20.518,8.739,20.518,8.736,20.518,8.736z M21.53,8.132
					L21.53,8.132L21.53,8.132L21.53,8.132z M21.59,7.891h-0.005l0.004-0.001c0.001,0,0.001,0,0.003,0
					C21.59,7.889,21.59,7.889,21.59,7.891z M21.513,7.922L21.513,7.922L21.513,7.922L21.513,7.922z M21.854,7.564
					c0,0,0.002-0.001,0.002-0.002c0.002,0.001,0.002,0.002,0.002,0.003C21.856,7.564,21.854,7.565,21.854,7.564z M21.824,7.156
					L21.824,7.156c0.001-0.001,0.003-0.002,0.004-0.002l0,0C21.827,7.155,21.824,7.155,21.824,7.156z M21.815,6.918L21.815,6.918
					L21.815,6.918L21.815,6.918L21.815,6.918z M21.683,6.939c-0.001,0.001,0,0.004,0,0.005h-0.001
					C21.682,6.943,21.682,6.941,21.683,6.939L21.683,6.939z M21.522,7.007C21.521,7.007,21.521,7.007,21.522,7.007
					c-0.001-0.001-0.001-0.001-0.001-0.001S21.521,7.006,21.522,7.007z M21.521,6.999L21.521,6.999L21.521,6.999L21.521,6.999z
					 M21.179,6.478c0,0-0.001,0-0.001-0.001C21.178,6.477,21.178,6.478,21.179,6.478z M19.754,6.643c0,0-0.002-0.002-0.003-0.003
					c0.001,0,0.003,0.001,0.003,0.001C19.754,6.642,19.754,6.643,19.754,6.643z M19.182,6.828
					C19.182,6.827,19.182,6.827,19.182,6.828C19.182,6.827,19.182,6.828,19.182,6.828z M18.896,6.951L18.896,6.951
					C18.896,6.951,18.896,6.951,18.896,6.951z M18.13,7.689C18.128,7.689,18.13,7.689,18.13,7.689c-0.002,0-0.002,0-0.002,0
					S18.128,7.689,18.13,7.689z M18.613,8.265c0.002,0,0.002,0,0.002-0.001C18.615,8.265,18.615,8.265,18.613,8.265z M18.91,8.925
					L18.91,8.925L18.91,8.925L18.91,8.925z M18.91,8.925C18.911,8.925,18.911,8.925,18.91,8.925
					C18.91,8.925,18.91,8.925,18.91,8.925L18.91,8.925z M19.698,8.96c0.003,0.002,0.004,0.001,0.007,0.002
					c-0.003,0-0.004,0-0.007,0.001C19.698,8.963,19.698,8.961,19.698,8.96z M20.09,8.872c0.002,0,0.002,0,0.002,0
					C20.092,8.873,20.09,8.873,20.09,8.872C20.09,8.873,20.09,8.873,20.09,8.872z M21.513,8.1c0-0.001,0-0.001,0-0.003v0.001
					C21.513,8.1,21.513,8.1,21.513,8.1z M21.477,7.824C21.477,7.824,21.478,7.823,21.477,7.824
					C21.478,7.824,21.478,7.824,21.477,7.824L21.477,7.824z M21.859,7.112C21.858,7.112,21.859,7.112,21.859,7.112
					C21.858,7.112,21.858,7.112,21.859,7.112L21.859,7.112z M21.663,6.935c0.004,0.001,0.006-0.002,0.009-0.004c0,0,0,0,0,0.001
					c-0.003,0-0.007,0.002-0.008,0.002C21.664,6.935,21.664,6.935,21.663,6.935z M21.371,6.793c-0.001-0.002,0-0.003,0-0.006
					c0.003,0,0.005,0,0.008,0.001C21.376,6.79,21.375,6.793,21.371,6.793z M21.282,6.55h0.002v0.001
					C21.284,6.55,21.282,6.552,21.282,6.55z M21.369,6.374V6.373c0,0.002,0,0.004,0.002,0.004c0.004,0.004,0.005,0.011,0.01,0.016
					c0,0,0,0-0.001,0c-0.004-0.004-0.006-0.01-0.009-0.015C21.37,6.376,21.369,6.375,21.369,6.374z M19.294,6.752L19.294,6.752
					L19.294,6.752L19.294,6.752L19.294,6.752z M18.65,7.015l0.002-0.001C18.652,7.015,18.65,7.015,18.65,7.015z M18.185,7.237
					c-0.001,0.001-0.001,0.001-0.002,0.001c0,0-0.002-0.001-0.002-0.004C18.184,7.236,18.185,7.237,18.185,7.237z M18.185,7.256
					v0.001c-0.001,0-0.003-0.001-0.003-0.002C18.184,7.255,18.185,7.256,18.185,7.256z M18.207,7.36
					c0-0.001,0.001-0.001,0.001-0.002C18.208,7.359,18.207,7.359,18.207,7.36z M18.444,7.553L18.444,7.553L18.444,7.553z
					 M18.092,7.698c0,0.001,0,0.001,0.001,0.002l0,0l0,0l0,0c-0.001,0-0.002,0-0.003,0C18.091,7.699,18.091,7.698,18.092,7.698z
					 M18.032,7.718L18.032,7.718l-0.003-0.001c0.001,0,0.001,0,0.003,0C18.032,7.716,18.032,7.716,18.032,7.718z M18.02,7.724
					L18.02,7.724l0.002,0.002c0.002,0,0.002-0.001,0.002-0.001c0,0.001,0,0.003-0.002,0.004l0,0c0-0.001,0-0.001,0-0.002
					C18.021,7.725,18.021,7.724,18.02,7.724z M19.948,8.934L19.948,8.934l0.002,0.001C19.95,8.934,19.948,8.934,19.948,8.934z
					 M20.624,8.792L20.624,8.792l-0.001,0.001C20.623,8.792,20.623,8.792,20.624,8.792z M21.126,8.522
					c0,0.001-0.001,0.001-0.001,0.002c-0.001,0-0.003,0-0.004,0C21.122,8.523,21.125,8.523,21.126,8.522z M21.574,8.134
					L21.574,8.134L21.574,8.134L21.574,8.134z M21.867,7.796L21.867,7.796c0.006-0.006,0.009-0.015,0.009-0.017
					C21.874,7.782,21.874,7.791,21.867,7.796C21.868,7.796,21.868,7.796,21.867,7.796L21.867,7.796L21.867,7.796z M21.952,7.337
					c0,0.001-0.002,0-0.002,0.001c0-0.001,0.002-0.003,0.003-0.004C21.953,7.336,21.952,7.336,21.952,7.337z M21.895,6.918
					c-0.002,0-0.002,0.001-0.002,0.002c0-0.001,0-0.002,0-0.002S21.893,6.918,21.895,6.918z M21.655,6.883
					c0,0,0.001-0.001,0.003-0.002c0,0.001-0.002,0.002,0,0.002C21.656,6.883,21.655,6.883,21.655,6.883z M21.571,6.918
					c-0.001,0-0.004,0-0.006,0c-0.009,0.016-0.008,0.034,0,0.052l0,0c0.007-0.018,0.005-0.035,0-0.052V6.917
					c0.002,0.001,0.005,0.001,0.007,0C21.572,6.918,21.571,6.918,21.571,6.918z M21.049,6.402c0,0,0,0,0,0.001
					c-0.003,0.001-0.005,0.005-0.008,0.007c0.001-0.004,0.005-0.009,0.001-0.012c-0.001-0.001-0.001-0.001-0.001-0.002
					C21.044,6.398,21.044,6.401,21.049,6.402z M19.329,6.705c0-0.001,0-0.002,0-0.002c0.002-0.003,0.004-0.002,0.005-0.004
					C19.332,6.701,19.331,6.703,19.329,6.705z M18.849,6.936L18.849,6.936C18.849,6.935,18.849,6.935,18.849,6.936
					C18.849,6.935,18.849,6.935,18.849,6.936z M18.226,7.462c0,0-0.001,0-0.002,0H18.226C18.226,7.462,18.226,7.462,18.226,7.462z
					 M18.281,8.171c0,0.001-0.003,0.001-0.004,0.002c0-0.001,0.001-0.001,0.001-0.002C18.279,8.171,18.281,8.171,18.281,8.171z
					 M18.032,8.418c0,0,0,0-0.002,0c0.002,0,0.002,0,0.002-0.001C18.032,8.418,18.032,8.418,18.032,8.418z M20.508,8.854h0.001
					C20.509,8.854,20.508,8.854,20.508,8.854S20.508,8.854,20.508,8.854z M20.655,8.785c-0.001-0.001-0.003,0-0.005-0.002
					c-0.001,0-0.001,0-0.001,0s0,0,0.001,0l0,0c0.003,0,0.005,0,0.008,0C20.658,8.784,20.657,8.785,20.655,8.785z M21.572,8.162
					c0.002,0,0.002-0.001,0.002-0.001v0.001l0,0C21.572,8.162,21.572,8.162,21.572,8.162z M22.125,7.593L22.125,7.593L22.125,7.593
					L22.125,7.593L22.125,7.593z M21.976,7.39c0.001-0.001,0.003,0,0.005-0.001c-0.001,0-0.002,0.002-0.004,0.002
					C21.976,7.391,21.976,7.391,21.976,7.39z M21.979,7.161c0.002,0,0.003,0.001,0.006,0.002C21.981,7.162,21.98,7.161,21.979,7.161
					z M21.449,6.878c-0.002,0.002-0.004,0.003-0.005,0.006c-0.002-0.001-0.002-0.001-0.003-0.002
					C21.445,6.882,21.446,6.879,21.449,6.878z M20.437,6.414c0.001,0,0-0.002,0-0.004h0.001C20.437,6.412,20.438,6.414,20.437,6.414
					z M18.959,6.763c-0.003,0-0.006-0.001-0.009,0c0-0.002-0.003-0.003,0-0.005C18.954,6.759,18.956,6.762,18.959,6.763z
					 M18.849,6.893c0-0.001-0.002-0.002-0.001-0.003c0.001-0.001,0.001-0.001,0.001-0.001C18.849,6.89,18.849,6.891,18.849,6.893z
					 M18.625,6.886c0.001-0.002,0.002-0.004,0.005-0.005C18.627,6.883,18.626,6.883,18.625,6.886z M18.133,7.196
					c0,0.001,0.002,0.003,0.002,0.004c-0.002,0-0.002,0-0.002-0.001C18.133,7.197,18.133,7.197,18.133,7.196z M18.173,7.269
					c0.002,0,0.002,0.001,0.002,0.002C18.175,7.27,18.175,7.27,18.173,7.269z M18.127,7.491c0.004-0.001,0.005-0.005,0.009-0.005
					C18.133,7.486,18.131,7.49,18.127,7.491z M18.068,7.593c-0.003,0.001-0.005,0.001-0.007,0.003
					C18.06,7.594,18.06,7.594,18.059,7.59C18.062,7.594,18.065,7.59,18.068,7.593z M17.79,8.107L17.79,8.107L17.79,8.107
					L17.79,8.107z M18.262,8.836C18.261,8.836,18.261,8.836,18.262,8.836c-0.001-0.001-0.002-0.002-0.002-0.002
					C18.261,8.834,18.261,8.835,18.262,8.836z M18.493,8.917c0,0,0,0,0.002,0c0,0.001-0.002,0.002-0.002,0.002l0,0V8.917z
					 M18.66,8.954c0.001,0,0.002,0,0.002,0h0.002C18.662,8.954,18.662,8.954,18.66,8.954C18.66,8.954,18.66,8.954,18.66,8.954z
					 M19.134,8.995L19.134,8.995h-0.001l0,0H19.134z M19.994,8.943L19.994,8.943L19.994,8.943L19.994,8.943L19.994,8.943z
					 M20.137,8.937L20.137,8.937L20.137,8.937L20.137,8.937z M20.1,8.917c0.002,0,0.003,0,0.004,0c0,0,0.002,0.001,0.003,0.002
					C20.104,8.917,20.103,8.917,20.1,8.917z M20.677,8.792c0.008,0.001,0.016,0.002,0.022,0c0,0,0,0-0.001,0.001
					C20.69,8.792,20.685,8.792,20.677,8.792z M20.838,8.667V8.666V8.667L20.838,8.667z M20.847,8.64c0,0.001,0,0.001,0.002,0.002
					c-0.002,0-0.002,0-0.003,0C20.846,8.643,20.846,8.641,20.847,8.64z M20.971,8.605L20.971,8.605L20.971,8.605
					C20.97,8.605,20.97,8.605,20.971,8.605L20.971,8.605z M21.098,8.557c0.003,0.006,0.003,0.005,0.006,0.009
					c-0.005-0.001-0.01-0.005-0.017-0.005C21.091,8.56,21.095,8.56,21.098,8.557z M21.476,8.34c0,0,0,0,0.001-0.001
					C21.477,8.34,21.476,8.34,21.476,8.34L21.476,8.34z M22.145,7.549C22.145,7.549,22.145,7.549,22.145,7.549L22.145,7.549
					C22.145,7.549,22.145,7.549,22.145,7.549z M22.132,6.851L22.132,6.851L22.132,6.851L22.132,6.851z M22.126,6.519
					c0.001,0.001,0.001,0,0.001,0.001l0,0C22.127,6.519,22.127,6.52,22.126,6.519z M22.076,6.592
					c0.001-0.004,0.003-0.009,0.011-0.009c0.003,0.002,0.004,0.005,0.006,0.007C22.087,6.589,22.082,6.592,22.076,6.592z
					 M21.903,6.838c0,0,0,0,0.001,0C21.903,6.838,21.903,6.838,21.903,6.838L21.903,6.838c-0.002,0-0.002,0-0.003,0
					c0.001,0,0.001-0.001,0.003-0.001C21.903,6.837,21.903,6.837,21.903,6.838z M21.886,6.864c0-0.002,0-0.005-0.001-0.007l0,0
					C21.883,6.859,21.885,6.862,21.886,6.864C21.886,6.864,21.887,6.864,21.886,6.864z M21.459,6.875L21.459,6.875L21.459,6.875
					L21.459,6.875c0.001-0.002,0.002-0.002,0.004-0.002c0,0,0.001,0,0.001,0.001C21.461,6.873,21.461,6.873,21.459,6.875z
					 M21.574,6.758c0.001,0,0.002,0,0.002,0S21.575,6.758,21.574,6.758L21.574,6.758z M21.477,6.589
					c0.001,0,0.001-0.001,0.001-0.002C21.478,6.588,21.478,6.589,21.477,6.589C21.478,6.589,21.478,6.589,21.477,6.589z
					 M21.583,6.287L21.583,6.287c-0.021-0.008-0.04-0.004-0.062-0.005c0.003,0,0.005,0,0.008,0
					C21.547,6.285,21.565,6.288,21.583,6.287z M18.704,6.846c-0.007,0-0.013,0-0.019,0.001C18.69,6.843,18.696,6.842,18.704,6.846z
					 M19.3,9.043c-0.003,0.001-0.003,0.002-0.004,0.003c-0.002,0-0.002,0.001-0.003,0C19.297,9.048,19.297,9.044,19.3,9.043z
					 M19.426,9.049c0-0.002,0-0.005,0-0.007l0,0C19.426,9.044,19.425,9.046,19.426,9.049L19.426,9.049z M20.092,8.975
					c0-0.001,0-0.003,0-0.005c0.001,0,0.001,0,0.001,0C20.092,8.972,20.092,8.974,20.092,8.975L20.092,8.975z M20.997,8.672
					c0,0.001-0.001,0.002-0.001,0.002l0,0C20.996,8.675,20.997,8.674,20.997,8.672z M21.023,8.587
					c0.001-0.001,0.004-0.001,0.005-0.002c-0.001,0.001-0.002,0.001-0.004,0.002H21.023z M21.757,8.298L21.757,8.298L21.757,8.298
					L21.757,8.298z M21.67,8.133c0-0.001-0.001,0.001-0.002-0.001c0,0,0.001,0,0-0.001C21.669,8.132,21.67,8.132,21.67,8.133z
					 M22.052,7.805L22.052,7.805c0,0.001,0,0.004-0.001,0.005C22.051,7.809,22.052,7.807,22.052,7.805z M22.156,7.192L22.156,7.192
					L22.156,7.192L22.156,7.192z M22.259,7.096L22.259,7.096C22.259,7.096,22.259,7.096,22.259,7.096S22.259,7.096,22.259,7.096
					c0.001-0.001,0.001-0.001,0.001-0.002c0.001,0,0.001-0.001,0.002-0.001C22.261,7.093,22.26,7.095,22.259,7.096L22.259,7.096z
					 M21.992,6.492L21.992,6.492c0,0,0,0,0-0.001l0,0C21.992,6.492,21.992,6.492,21.992,6.492z M21.898,6.839c0,0-0.002,0-0.003,0
					l-0.003-0.002l0,0C21.896,6.838,21.896,6.838,21.898,6.839z M21.887,6.839c0-0.002,0-0.005,0-0.006
					c0.001,0.001,0.001,0.004,0.004,0.005C21.888,6.838,21.888,6.839,21.887,6.839z M21.538,6.855c0,0,0-0.001,0-0.002
					c0,0.001,0,0.002,0.001,0.002H21.538z M21.581,6.757c0,0,0,0,0.002,0l0,0c0,0.001,0,0.002,0,0.002
					C21.581,6.759,21.583,6.758,21.581,6.757z M21.611,6.73c0,0-0.001,0-0.002,0c0.001-0.001,0.002,0,0.005-0.002
					C21.612,6.73,21.611,6.729,21.611,6.73z M21.596,6.465c-0.002,0-0.003,0-0.003,0v0C21.593,6.465,21.594,6.465,21.596,6.465z
					 M21.503,6.439L21.503,6.439L21.503,6.439l0.001,0L21.503,6.439z M21.708,6.37L21.708,6.37L21.708,6.37L21.708,6.37z
					 M21.459,6.279c0,0-0.001,0-0.003,0.001c0-0.001,0-0.001,0-0.001C21.458,6.279,21.459,6.279,21.459,6.279z M18.798,6.778
					L18.798,6.778c-0.004,0.001-0.007,0.001-0.011,0.002c0.002-0.001,0.002-0.001,0.003-0.001
					C18.793,6.779,18.794,6.778,18.798,6.778z M18.219,6.981c0,0-0.002,0-0.002,0.001c-0.001,0,0-0.001-0.001-0.001
					C18.217,6.981,18.219,6.981,18.219,6.981z M17.89,7.654c0,0,0,0,0,0.001c-0.002-0.001-0.003,0-0.004,0V7.654
					C17.887,7.654,17.888,7.654,17.89,7.654z M17.935,8.508c-0.002-0.005-0.003-0.008-0.004-0.014
					C17.932,8.5,17.933,8.503,17.935,8.508z M19.109,9.014c0.002,0,0.006,0.001,0.009,0.001c0.004,0,0.004,0.005,0.006,0.008
					C19.119,9.021,19.114,9.017,19.109,9.014z M21.513,8.428L21.513,8.428L21.513,8.428C21.513,8.428,21.513,8.428,21.513,8.428
					L21.513,8.428L21.513,8.428L21.513,8.428C21.513,8.428,21.513,8.428,21.513,8.428c0,0.001,0,0.001,0,0.001
					S21.513,8.43,21.513,8.428z M22.116,7.682L22.116,7.682V7.68V7.682c0-0.001,0-0.001,0-0.001c0.001,0,0.001,0,0.001,0
					C22.117,7.682,22.117,7.68,22.116,7.682z M22.149,7.6L22.149,7.6L22.149,7.6L22.149,7.6z M22.019,6.385
					C22.019,6.385,22.02,6.385,22.019,6.385c0,0.001,0,0.001-0.002,0.002C22.017,6.386,22.019,6.386,22.019,6.385z M22.007,6.458
					c-0.001,0-0.005,0.001-0.005,0.004c-0.001-0.005,0.004-0.01,0.003-0.015C22.006,6.45,22.006,6.455,22.007,6.458z M21.821,6.774
					L21.821,6.774L21.821,6.774L21.821,6.774L21.821,6.774C21.821,6.775,21.821,6.774,21.821,6.774S21.821,6.774,21.821,6.774
					L21.821,6.774z M21.708,6.67L21.708,6.67L21.708,6.67L21.708,6.67z M18.211,6.941c-0.001,0.002-0.003,0.002-0.004,0.005
					c-0.001,0-0.003,0-0.003,0C18.207,6.946,18.208,6.942,18.211,6.941z M18.164,7.059C18.164,7.06,18.164,7.06,18.164,7.059v0.002
					C18.164,7.061,18.164,7.06,18.164,7.059z M18.021,7.192c0,0.002,0.001,0.002,0.001,0.002c0.002,0.002-0.001,0.005,0.002,0.007
					c0,0,0-0.001,0.001-0.002c0,0.001,0.001,0.002,0.003,0.002c-0.003,0-0.004,0-0.004,0l0,0l0,0l0,0
					c0,0.001-0.002,0.001-0.002,0.001C18.021,7.2,18.021,7.197,18.021,7.192z M17.835,7.823L17.835,7.823
					c0.008,0.005,0.011,0.01,0.011,0.015C17.843,7.833,17.843,7.825,17.835,7.823z M17.755,8.125L17.755,8.125L17.755,8.125
					L17.755,8.125z M17.738,8.206c0,0,0-0.001,0-0.002c0.001,0.001,0.002,0.001,0.003,0.001l0.002,0.001
					C17.74,8.206,17.739,8.206,17.738,8.206z M17.941,8.675c0.002,0,0.002,0,0.002,0l-0.002,0.001V8.675z M22.116,7.735
					L22.116,7.735c0.002-0.001,0.003-0.002,0.007-0.002l0,0C22.119,7.733,22.118,7.733,22.116,7.735z M22.135,7.691L22.135,7.691
					L22.135,7.691C22.135,7.691,22.135,7.691,22.135,7.691C22.135,7.69,22.135,7.691,22.135,7.691L22.135,7.691z M22.276,7.328
					c0-0.001,0-0.001,0-0.001l0,0l0,0C22.276,7.326,22.276,7.326,22.276,7.328z M22.366,6.363c0-0.004-0.004-0.005-0.008-0.005
					c0.001,0,0.003,0,0.004-0.001c0.001,0.001,0.004,0.002,0.004,0.004C22.366,6.36,22.366,6.361,22.366,6.363z"/>
				<polygon style="fill-rule:evenodd;clip-rule:evenodd;" points="21.691,8.451 21.695,8.443 21.688,8.441 21.685,8.447 				"/>
			</g>
	</g>
</svg>
